G04 Layer_Physical_Order=2*
G04 Layer_Color=16711680*
%FSLAX23Y23*%
%MOIN*%
G70*
G01*
G75*
%ADD10C,0.010*%
%ADD11C,0.020*%
%ADD12C,0.098*%
%ADD13C,0.059*%
%ADD14C,0.098*%
%ADD15C,0.079*%
%ADD16C,0.047*%
%ADD17R,0.059X0.059*%
%ADD18C,0.039*%
%ADD19O,0.024X0.075*%
%ADD20R,0.043X0.039*%
%ADD21R,0.059X0.051*%
%ADD22C,0.016*%
G36*
X544Y-749D02*
X-1969D01*
Y125D01*
X544D01*
Y-749D01*
D02*
G37*
%LPC*%
G36*
X-913Y-330D02*
X-940D01*
Y-355D01*
X-913D01*
Y-330D01*
D02*
G37*
G36*
X-213D02*
X-240D01*
Y-355D01*
X-213D01*
Y-330D01*
D02*
G37*
G36*
X-25Y-309D02*
X-32Y-310D01*
X-38Y-314D01*
X-42Y-320D01*
X-43Y-327D01*
Y-378D01*
X-42Y-385D01*
X-38Y-391D01*
X-36Y-392D01*
Y-402D01*
X-101D01*
X-102Y-399D01*
X-107Y-386D01*
X-116Y-374D01*
X-128Y-365D01*
X-141Y-360D01*
X-156Y-358D01*
X-170Y-360D01*
X-183Y-365D01*
X-195Y-374D01*
X-204Y-386D01*
X-209Y-399D01*
X-211Y-413D01*
X-209Y-428D01*
X-204Y-441D01*
X-195Y-453D01*
X-183Y-462D01*
X-170Y-467D01*
X-156Y-469D01*
X-141Y-467D01*
X-128Y-462D01*
X-116Y-453D01*
X-107Y-441D01*
X-102Y-428D01*
X-101Y-425D01*
X-61D01*
Y-456D01*
X-6D01*
Y-404D01*
X-14D01*
Y-392D01*
X-12Y-391D01*
X-8Y-385D01*
X-7Y-378D01*
Y-327D01*
X-8Y-320D01*
X-12Y-314D01*
X-18Y-310D01*
X-25Y-309D01*
D02*
G37*
G36*
X-1545Y-327D02*
X-1553Y-328D01*
X-1560Y-331D01*
X-1566Y-335D01*
X-1571Y-342D01*
X-1574Y-349D01*
X-1575Y-356D01*
X-1574Y-364D01*
X-1571Y-371D01*
X-1566Y-378D01*
X-1560Y-382D01*
X-1553Y-385D01*
X-1545Y-386D01*
X-1538Y-385D01*
X-1530Y-382D01*
X-1524Y-378D01*
X-1519Y-371D01*
X-1516Y-364D01*
X-1515Y-356D01*
X-1516Y-349D01*
X-1519Y-342D01*
X-1524Y-335D01*
X-1530Y-331D01*
X-1538Y-328D01*
X-1545Y-327D01*
D02*
G37*
G36*
X-177Y-330D02*
X-203D01*
Y-355D01*
X-177D01*
Y-330D01*
D02*
G37*
G36*
X-1447Y-248D02*
X-1455Y-249D01*
X-1462Y-252D01*
X-1468Y-257D01*
X-1473Y-263D01*
X-1476Y-270D01*
X-1477Y-278D01*
X-1476Y-285D01*
X-1474Y-289D01*
X-1503Y-318D01*
X-1505Y-322D01*
X-1506Y-326D01*
X-1506Y-326D01*
Y-384D01*
X-1526Y-404D01*
X-1580D01*
X-1584Y-405D01*
X-1588Y-407D01*
X-1588Y-407D01*
X-1658Y-477D01*
X-1660Y-481D01*
X-1661Y-485D01*
X-1661Y-485D01*
Y-533D01*
X-1666Y-534D01*
X-1669Y-527D01*
X-1675Y-520D01*
X-1682Y-514D01*
X-1684Y-513D01*
Y-382D01*
X-1596Y-294D01*
X-1570D01*
X-1566Y-299D01*
X-1560Y-304D01*
X-1553Y-307D01*
X-1545Y-308D01*
X-1538Y-307D01*
X-1530Y-304D01*
X-1524Y-299D01*
X-1519Y-293D01*
X-1516Y-285D01*
X-1515Y-278D01*
X-1516Y-270D01*
X-1519Y-263D01*
X-1524Y-257D01*
X-1530Y-252D01*
X-1538Y-249D01*
X-1545Y-248D01*
X-1553Y-249D01*
X-1560Y-252D01*
X-1566Y-257D01*
X-1570Y-261D01*
X-1603D01*
X-1609Y-263D01*
X-1614Y-266D01*
X-1712Y-363D01*
X-1715Y-369D01*
X-1716Y-375D01*
Y-513D01*
X-1718Y-514D01*
X-1725Y-520D01*
X-1731Y-527D01*
X-1735Y-536D01*
X-1736Y-545D01*
X-1735Y-554D01*
X-1731Y-563D01*
X-1725Y-570D01*
X-1718Y-576D01*
X-1709Y-580D01*
X-1700Y-581D01*
X-1691Y-580D01*
X-1682Y-576D01*
X-1675Y-570D01*
X-1669Y-563D01*
X-1666Y-556D01*
X-1661Y-557D01*
Y-590D01*
X-1684Y-613D01*
X-1691Y-610D01*
X-1700Y-609D01*
X-1709Y-610D01*
X-1718Y-614D01*
X-1725Y-620D01*
X-1731Y-627D01*
X-1735Y-636D01*
X-1736Y-645D01*
X-1735Y-654D01*
X-1731Y-663D01*
X-1725Y-670D01*
X-1718Y-676D01*
X-1709Y-680D01*
X-1700Y-681D01*
X-1691Y-680D01*
X-1682Y-676D01*
X-1675Y-670D01*
X-1669Y-663D01*
X-1665Y-654D01*
X-1664Y-645D01*
X-1665Y-636D01*
X-1668Y-629D01*
X-1642Y-603D01*
X-1642Y-603D01*
X-1640Y-599D01*
X-1639Y-595D01*
X-1639Y-595D01*
Y-557D01*
X-1634Y-556D01*
X-1631Y-563D01*
X-1625Y-570D01*
X-1618Y-576D01*
X-1609Y-580D01*
X-1600Y-581D01*
X-1591Y-580D01*
X-1582Y-576D01*
X-1575Y-570D01*
X-1569Y-563D01*
X-1565Y-554D01*
X-1564Y-545D01*
X-1565Y-536D01*
X-1569Y-527D01*
X-1575Y-520D01*
X-1582Y-514D01*
X-1589Y-511D01*
Y-500D01*
X-1555Y-466D01*
X-1496D01*
X-1496Y-466D01*
X-1492Y-465D01*
X-1488Y-463D01*
X-1439Y-414D01*
X-1439Y-414D01*
X-1436Y-410D01*
X-1436Y-406D01*
X-1436Y-406D01*
Y-384D01*
X-1432Y-382D01*
X-1426Y-378D01*
X-1421Y-371D01*
X-1418Y-364D01*
X-1417Y-356D01*
X-1418Y-349D01*
X-1421Y-342D01*
X-1426Y-335D01*
X-1432Y-331D01*
X-1439Y-328D01*
X-1447Y-327D01*
X-1455Y-328D01*
X-1462Y-331D01*
X-1468Y-335D01*
X-1473Y-342D01*
X-1476Y-349D01*
X-1477Y-356D01*
X-1476Y-364D01*
X-1473Y-371D01*
X-1468Y-378D01*
X-1462Y-382D01*
X-1458Y-384D01*
Y-401D01*
X-1501Y-444D01*
X-1560D01*
X-1564Y-445D01*
X-1568Y-447D01*
X-1568Y-447D01*
X-1608Y-487D01*
X-1610Y-491D01*
X-1611Y-495D01*
X-1611Y-495D01*
Y-511D01*
X-1618Y-514D01*
X-1625Y-520D01*
X-1631Y-527D01*
X-1634Y-534D01*
X-1639Y-533D01*
Y-490D01*
X-1575Y-426D01*
X-1521D01*
X-1521Y-426D01*
X-1517Y-425D01*
X-1513Y-423D01*
X-1487Y-397D01*
X-1487Y-397D01*
X-1485Y-393D01*
X-1484Y-389D01*
X-1484Y-389D01*
Y-331D01*
X-1458Y-305D01*
X-1455Y-307D01*
X-1447Y-308D01*
X-1439Y-307D01*
X-1432Y-304D01*
X-1426Y-299D01*
X-1421Y-293D01*
X-1418Y-285D01*
X-1417Y-278D01*
X-1418Y-270D01*
X-1421Y-263D01*
X-1426Y-257D01*
X-1432Y-252D01*
X-1439Y-249D01*
X-1447Y-248D01*
D02*
G37*
G36*
X-95Y-279D02*
X-98Y-279D01*
X-439D01*
X-439Y-279D01*
X-444Y-280D01*
X-447Y-283D01*
X-463Y-299D01*
X-545D01*
X-561Y-283D01*
X-565Y-280D01*
X-569Y-279D01*
X-569Y-279D01*
X-780D01*
X-784Y-279D01*
X-784Y-279D01*
X-995D01*
X-995Y-279D01*
X-999Y-280D01*
X-1003Y-282D01*
X-1003Y-282D01*
X-1053Y-332D01*
X-1055Y-336D01*
X-1056Y-340D01*
X-1056Y-340D01*
Y-351D01*
X-1081D01*
Y-414D01*
X-1009D01*
Y-351D01*
X-1034D01*
Y-345D01*
X-990Y-301D01*
X-940D01*
Y-320D01*
X-877D01*
Y-301D01*
X-869D01*
Y-351D01*
X-814D01*
Y-301D01*
X-796D01*
Y-314D01*
X-797Y-314D01*
X-800Y-320D01*
X-802Y-327D01*
Y-378D01*
X-800Y-385D01*
X-797Y-391D01*
X-791Y-395D01*
X-784Y-396D01*
X-777Y-395D01*
X-771Y-391D01*
X-767Y-385D01*
X-766Y-378D01*
Y-327D01*
X-767Y-320D01*
X-771Y-314D01*
X-772Y-313D01*
Y-302D01*
X-644D01*
X-643Y-304D01*
X-643Y-307D01*
X-649Y-311D01*
X-654Y-318D01*
X-656Y-327D01*
Y-348D01*
X-611D01*
Y-327D01*
X-613Y-318D01*
X-618Y-311D01*
X-624Y-307D01*
X-624Y-304D01*
X-624Y-302D01*
X-574D01*
X-558Y-318D01*
X-554Y-320D01*
X-550Y-321D01*
X-550Y-321D01*
X-459D01*
X-459Y-321D01*
X-454Y-320D01*
X-451Y-318D01*
X-435Y-302D01*
X-240D01*
Y-320D01*
X-177D01*
Y-302D01*
X-169D01*
Y-351D01*
X-114D01*
Y-303D01*
X-98D01*
X-88Y-313D01*
X-88Y-314D01*
X-92Y-320D01*
X-93Y-327D01*
Y-378D01*
X-92Y-385D01*
X-88Y-391D01*
X-82Y-395D01*
X-75Y-396D01*
X-68Y-395D01*
X-62Y-391D01*
X-58Y-385D01*
X-57Y-378D01*
Y-327D01*
X-58Y-320D01*
X-62Y-314D01*
X-64Y-313D01*
Y-310D01*
X-64Y-310D01*
X-65Y-306D01*
X-67Y-302D01*
X-67Y-302D01*
X-86Y-284D01*
X-86Y-283D01*
X-87Y-282D01*
X-91Y-280D01*
X-95Y-279D01*
D02*
G37*
G36*
X70Y-306D02*
X66Y-306D01*
X59Y-311D01*
X54Y-318D01*
X53Y-327D01*
Y-348D01*
X70D01*
Y-306D01*
D02*
G37*
G36*
X80D02*
Y-348D01*
X97D01*
Y-327D01*
X96Y-318D01*
X91Y-311D01*
X84Y-306D01*
X80Y-306D01*
D02*
G37*
G36*
X-734Y-309D02*
X-741Y-310D01*
X-747Y-314D01*
X-750Y-320D01*
X-752Y-327D01*
Y-378D01*
X-750Y-385D01*
X-747Y-391D01*
X-746Y-391D01*
Y-402D01*
X-810D01*
X-810Y-399D01*
X-816Y-386D01*
X-825Y-374D01*
X-836Y-365D01*
X-850Y-360D01*
X-864Y-358D01*
X-874Y-359D01*
X-876Y-359D01*
X-877Y-354D01*
X-877Y-351D01*
Y-330D01*
X-903D01*
Y-355D01*
X-882D01*
X-882Y-355D01*
X-882Y-355D01*
X-879Y-355D01*
X-879Y-360D01*
X-881Y-360D01*
X-892Y-365D01*
X-904Y-374D01*
X-912Y-386D01*
X-918Y-399D01*
X-920Y-413D01*
X-918Y-428D01*
X-912Y-441D01*
X-904Y-453D01*
X-892Y-462D01*
X-879Y-467D01*
X-864Y-469D01*
X-850Y-467D01*
X-836Y-462D01*
X-825Y-453D01*
X-816Y-441D01*
X-810Y-428D01*
X-810Y-425D01*
X-770D01*
Y-456D01*
X-714D01*
Y-404D01*
X-724D01*
Y-393D01*
X-721Y-391D01*
X-717Y-385D01*
X-716Y-378D01*
Y-327D01*
X-717Y-320D01*
X-721Y-314D01*
X-727Y-310D01*
X-734Y-309D01*
D02*
G37*
G36*
X-1400Y-609D02*
X-1409Y-610D01*
X-1418Y-614D01*
X-1425Y-620D01*
X-1431Y-627D01*
X-1435Y-636D01*
X-1436Y-645D01*
X-1435Y-654D01*
X-1431Y-663D01*
X-1425Y-670D01*
X-1418Y-676D01*
X-1409Y-680D01*
X-1400Y-681D01*
X-1391Y-680D01*
X-1382Y-676D01*
X-1375Y-670D01*
X-1369Y-663D01*
X-1365Y-654D01*
X-1364Y-645D01*
X-1365Y-636D01*
X-1369Y-627D01*
X-1375Y-620D01*
X-1382Y-614D01*
X-1391Y-610D01*
X-1400Y-609D01*
D02*
G37*
G36*
X-1505Y-550D02*
X-1539D01*
X-1539Y-555D01*
X-1535Y-565D01*
X-1528Y-573D01*
X-1520Y-580D01*
X-1510Y-584D01*
X-1505Y-584D01*
Y-550D01*
D02*
G37*
G36*
X-1009Y-426D02*
X-1081D01*
Y-489D01*
X-1059D01*
Y-659D01*
X-1096Y-696D01*
X-1479D01*
X-1486Y-689D01*
Y-678D01*
X-1482Y-676D01*
X-1475Y-670D01*
X-1469Y-663D01*
X-1465Y-654D01*
X-1464Y-645D01*
X-1465Y-636D01*
X-1469Y-627D01*
X-1475Y-620D01*
X-1482Y-614D01*
X-1491Y-610D01*
X-1500Y-609D01*
X-1509Y-610D01*
X-1518Y-614D01*
X-1525Y-620D01*
X-1531Y-627D01*
X-1535Y-636D01*
X-1536Y-645D01*
X-1535Y-654D01*
X-1531Y-663D01*
X-1525Y-670D01*
X-1518Y-676D01*
X-1514Y-678D01*
Y-695D01*
X-1513Y-700D01*
X-1510Y-705D01*
X-1495Y-720D01*
X-1490Y-723D01*
X-1485Y-724D01*
X-1090D01*
X-1085Y-723D01*
X-1080Y-720D01*
X-1035Y-675D01*
X-1032Y-670D01*
X-1031Y-665D01*
Y-489D01*
X-1009D01*
Y-426D01*
D02*
G37*
G36*
X-1600Y-609D02*
X-1609Y-610D01*
X-1618Y-614D01*
X-1625Y-620D01*
X-1631Y-627D01*
X-1635Y-636D01*
X-1636Y-645D01*
X-1635Y-654D01*
X-1631Y-663D01*
X-1625Y-670D01*
X-1618Y-676D01*
X-1609Y-680D01*
X-1600Y-681D01*
X-1591Y-680D01*
X-1582Y-676D01*
X-1575Y-670D01*
X-1569Y-663D01*
X-1565Y-654D01*
X-1564Y-645D01*
X-1565Y-636D01*
X-1569Y-627D01*
X-1575Y-620D01*
X-1582Y-614D01*
X-1591Y-610D01*
X-1600Y-609D01*
D02*
G37*
G36*
X-1461Y-550D02*
X-1495D01*
Y-584D01*
X-1490Y-584D01*
X-1480Y-580D01*
X-1472Y-573D01*
X-1465Y-565D01*
X-1461Y-555D01*
X-1461Y-550D01*
D02*
G37*
G36*
X-684Y-309D02*
X-691Y-310D01*
X-697Y-314D01*
X-700Y-320D01*
X-702Y-327D01*
Y-378D01*
X-700Y-385D01*
X-697Y-391D01*
X-696Y-391D01*
Y-404D01*
X-703D01*
Y-456D01*
X-648D01*
Y-425D01*
X-607D01*
X-607Y-428D01*
X-601Y-441D01*
X-593Y-453D01*
X-581Y-462D01*
X-568Y-467D01*
X-553Y-469D01*
X-539Y-467D01*
X-525Y-462D01*
X-514Y-453D01*
X-505Y-441D01*
X-499Y-428D01*
X-497Y-413D01*
X-499Y-399D01*
X-505Y-386D01*
X-514Y-374D01*
X-525Y-365D01*
X-539Y-360D01*
X-553Y-358D01*
X-568Y-360D01*
X-581Y-365D01*
X-593Y-374D01*
X-601Y-386D01*
X-607Y-399D01*
X-607Y-402D01*
X-621D01*
X-623Y-397D01*
X-618Y-394D01*
X-613Y-387D01*
X-611Y-378D01*
Y-358D01*
X-656D01*
Y-378D01*
X-654Y-387D01*
X-649Y-394D01*
X-644Y-397D01*
X-646Y-402D01*
X-674D01*
Y-393D01*
X-671Y-391D01*
X-667Y-385D01*
X-666Y-378D01*
Y-327D01*
X-667Y-320D01*
X-671Y-314D01*
X-677Y-310D01*
X-684Y-309D01*
D02*
G37*
G36*
X25D02*
X18Y-310D01*
X12Y-314D01*
X8Y-320D01*
X7Y-327D01*
Y-378D01*
X8Y-385D01*
X12Y-391D01*
X14Y-392D01*
Y-404D01*
X6D01*
Y-456D01*
X61D01*
Y-425D01*
X101D01*
X102Y-428D01*
X107Y-441D01*
X116Y-453D01*
X128Y-462D01*
X141Y-467D01*
X156Y-469D01*
X170Y-467D01*
X183Y-462D01*
X195Y-453D01*
X204Y-441D01*
X209Y-428D01*
X211Y-413D01*
X209Y-399D01*
X204Y-386D01*
X195Y-374D01*
X183Y-365D01*
X170Y-360D01*
X156Y-358D01*
X141Y-360D01*
X128Y-365D01*
X116Y-374D01*
X107Y-386D01*
X102Y-399D01*
X101Y-402D01*
X87D01*
X86Y-397D01*
X91Y-394D01*
X96Y-387D01*
X97Y-378D01*
Y-358D01*
X53D01*
Y-378D01*
X54Y-387D01*
X59Y-394D01*
X64Y-397D01*
X63Y-402D01*
X36D01*
Y-392D01*
X38Y-391D01*
X42Y-385D01*
X43Y-378D01*
Y-327D01*
X42Y-320D01*
X38Y-314D01*
X32Y-310D01*
X25Y-309D01*
D02*
G37*
G36*
X-1505Y-506D02*
X-1510Y-506D01*
X-1520Y-510D01*
X-1528Y-517D01*
X-1535Y-525D01*
X-1539Y-535D01*
X-1539Y-540D01*
X-1505D01*
Y-506D01*
D02*
G37*
G36*
X-1495D02*
Y-540D01*
X-1461D01*
X-1461Y-535D01*
X-1465Y-525D01*
X-1472Y-517D01*
X-1480Y-510D01*
X-1490Y-506D01*
X-1495Y-506D01*
D02*
G37*
G36*
X-1891Y55D02*
X-1904Y54D01*
X-1916Y50D01*
X-1927Y44D01*
X-1937Y36D01*
X-1945Y26D01*
X-1951Y15D01*
X-1955Y3D01*
X-1956Y-10D01*
X-1955Y-23D01*
X-1951Y-35D01*
X-1945Y-46D01*
X-1937Y-56D01*
X-1927Y-64D01*
X-1916Y-70D01*
X-1904Y-74D01*
X-1891Y-75D01*
X-1878Y-74D01*
X-1866Y-70D01*
X-1855Y-64D01*
X-1845Y-56D01*
X-1837Y-46D01*
X-1830Y-35D01*
X-1827Y-23D01*
X-1825Y-10D01*
X-1827Y3D01*
X-1830Y15D01*
X-1837Y26D01*
X-1845Y36D01*
X-1855Y44D01*
X-1866Y50D01*
X-1878Y54D01*
X-1891Y55D01*
D02*
G37*
G36*
X471D02*
X459Y54D01*
X446Y50D01*
X435Y44D01*
X425Y36D01*
X417Y26D01*
X411Y15D01*
X407Y3D01*
X406Y-10D01*
X407Y-23D01*
X411Y-35D01*
X417Y-46D01*
X425Y-56D01*
X435Y-64D01*
X446Y-70D01*
X459Y-74D01*
X471Y-75D01*
X484Y-74D01*
X496Y-70D01*
X508Y-64D01*
X518Y-56D01*
X526Y-46D01*
X532Y-35D01*
X535Y-23D01*
X537Y-10D01*
X535Y3D01*
X532Y15D01*
X526Y26D01*
X518Y36D01*
X508Y44D01*
X496Y50D01*
X484Y54D01*
X471Y55D01*
D02*
G37*
G36*
X-1140Y3D02*
X-1175D01*
Y-28D01*
X-1140D01*
Y3D01*
D02*
G37*
G36*
X-1095Y-38D02*
X-1130D01*
Y-68D01*
X-1095D01*
Y-38D01*
D02*
G37*
G36*
X-620Y-50D02*
X-628Y-51D01*
X-635Y-54D01*
X-641Y-59D01*
X-646Y-65D01*
X-647Y-69D01*
X-650D01*
X-650Y-69D01*
X-654Y-70D01*
X-658Y-72D01*
X-692Y-106D01*
X-694Y-109D01*
X-695Y-114D01*
X-695Y-114D01*
Y-128D01*
X-697Y-129D01*
X-700Y-135D01*
X-702Y-142D01*
Y-193D01*
X-700Y-200D01*
X-697Y-206D01*
X-691Y-210D01*
X-684Y-211D01*
X-677Y-210D01*
X-671Y-206D01*
X-667Y-200D01*
X-666Y-193D01*
Y-142D01*
X-667Y-135D01*
X-671Y-129D01*
X-672Y-128D01*
Y-118D01*
X-650Y-96D01*
X-644Y-97D01*
X-641Y-101D01*
X-635Y-106D01*
X-628Y-109D01*
X-620Y-110D01*
X-612Y-109D01*
X-605Y-106D01*
X-599Y-101D01*
X-594Y-95D01*
X-591Y-88D01*
X-590Y-80D01*
X-591Y-72D01*
X-594Y-65D01*
X-599Y-59D01*
X-605Y-54D01*
X-612Y-51D01*
X-620Y-50D01*
D02*
G37*
G36*
X-1140Y-38D02*
X-1175D01*
Y-68D01*
X-1140D01*
Y-38D01*
D02*
G37*
G36*
X-709Y75D02*
X-723Y74D01*
X-737Y70D01*
X-750Y63D01*
X-762Y53D01*
X-771Y42D01*
X-778Y29D01*
X-782Y15D01*
X-784Y0D01*
X-782Y-15D01*
X-778Y-29D01*
X-771Y-42D01*
X-762Y-53D01*
X-750Y-63D01*
X-737Y-70D01*
X-723Y-74D01*
X-709Y-75D01*
X-694Y-74D01*
X-680Y-70D01*
X-667Y-63D01*
X-655Y-53D01*
X-646Y-42D01*
X-639Y-29D01*
X-635Y-15D01*
X-633Y0D01*
X-635Y15D01*
X-639Y29D01*
X-646Y42D01*
X-655Y53D01*
X-667Y63D01*
X-680Y70D01*
X-694Y74D01*
X-709Y75D01*
D02*
G37*
G36*
X0D02*
X-15Y74D01*
X-29Y70D01*
X-42Y63D01*
X-53Y53D01*
X-63Y42D01*
X-70Y29D01*
X-74Y15D01*
X-75Y0D01*
X-74Y-15D01*
X-70Y-29D01*
X-63Y-42D01*
X-53Y-53D01*
X-42Y-63D01*
X-29Y-70D01*
X-15Y-74D01*
X0Y-75D01*
X15Y-74D01*
X29Y-70D01*
X42Y-63D01*
X53Y-53D01*
X63Y-42D01*
X70Y-29D01*
X74Y-15D01*
X75Y0D01*
X74Y15D01*
X70Y29D01*
X63Y42D01*
X53Y53D01*
X42Y63D01*
X29Y70D01*
X15Y74D01*
X0Y75D01*
D02*
G37*
G36*
X-634Y-124D02*
X-641Y-125D01*
X-647Y-129D01*
X-650Y-135D01*
X-652Y-142D01*
Y-193D01*
X-650Y-200D01*
X-647Y-206D01*
X-641Y-210D01*
X-634Y-211D01*
X-627Y-210D01*
X-621Y-206D01*
X-617Y-200D01*
X-616Y-193D01*
Y-142D01*
X-617Y-135D01*
X-621Y-129D01*
X-627Y-125D01*
X-634Y-124D01*
D02*
G37*
G36*
X-100Y-40D02*
X-108Y-41D01*
X-115Y-44D01*
X-121Y-49D01*
X-126Y-55D01*
X-129Y-62D01*
X-130Y-70D01*
X-129Y-78D01*
X-126Y-85D01*
X-121Y-91D01*
X-115Y-96D01*
X-108Y-99D01*
X-100Y-100D01*
X-92Y-99D01*
X-85Y-96D01*
X-79Y-91D01*
X-76Y-87D01*
X-70Y-86D01*
X-36Y-120D01*
Y-128D01*
X-38Y-129D01*
X-42Y-135D01*
X-43Y-142D01*
Y-193D01*
X-42Y-200D01*
X-38Y-206D01*
X-32Y-210D01*
X-25Y-211D01*
X-18Y-210D01*
X-12Y-206D01*
X-8Y-200D01*
X-7Y-193D01*
Y-142D01*
X-8Y-135D01*
X-12Y-129D01*
X-14Y-128D01*
Y-115D01*
X-14Y-115D01*
X-15Y-111D01*
X-17Y-107D01*
X-17Y-107D01*
X-62Y-62D01*
X-66Y-60D01*
X-70Y-59D01*
X-70Y-59D01*
X-73D01*
X-74Y-55D01*
X-79Y-49D01*
X-85Y-44D01*
X-92Y-41D01*
X-100Y-40D01*
D02*
G37*
G36*
X25Y-124D02*
X18Y-125D01*
X12Y-129D01*
X8Y-135D01*
X7Y-142D01*
Y-193D01*
X8Y-200D01*
X12Y-206D01*
X14Y-207D01*
Y-225D01*
X-10Y-249D01*
X-87D01*
X-88Y-244D01*
X-87Y-243D01*
X-67Y-223D01*
X-67Y-223D01*
X-65Y-219D01*
X-64Y-215D01*
X-64Y-215D01*
Y-207D01*
X-62Y-206D01*
X-58Y-200D01*
X-57Y-193D01*
Y-142D01*
X-58Y-135D01*
X-62Y-129D01*
X-68Y-125D01*
X-75Y-124D01*
X-82Y-125D01*
X-88Y-129D01*
X-92Y-135D01*
X-93Y-142D01*
Y-193D01*
X-92Y-200D01*
X-88Y-206D01*
X-88Y-206D01*
X-87Y-211D01*
X-100Y-224D01*
X-435D01*
X-457Y-202D01*
X-461Y-200D01*
X-465Y-199D01*
X-465Y-199D01*
X-550D01*
X-554Y-200D01*
X-558Y-202D01*
X-558Y-202D01*
X-580Y-224D01*
X-772D01*
Y-207D01*
X-771Y-206D01*
X-767Y-200D01*
X-766Y-193D01*
Y-142D01*
X-767Y-135D01*
X-771Y-129D01*
X-777Y-125D01*
X-784Y-124D01*
X-791Y-125D01*
X-797Y-129D01*
X-800Y-135D01*
X-802Y-142D01*
Y-193D01*
X-800Y-200D01*
X-797Y-206D01*
X-795Y-207D01*
Y-224D01*
X-1045D01*
X-1049Y-225D01*
X-1053Y-227D01*
X-1053Y-227D01*
X-1188Y-362D01*
X-1190Y-366D01*
X-1191Y-370D01*
X-1191Y-370D01*
Y-430D01*
X-1240Y-479D01*
X-1330D01*
X-1330Y-479D01*
X-1334Y-480D01*
X-1338Y-482D01*
X-1338Y-482D01*
X-1358Y-502D01*
X-1360Y-506D01*
X-1361Y-510D01*
X-1361Y-510D01*
Y-533D01*
X-1366Y-534D01*
X-1369Y-527D01*
X-1375Y-520D01*
X-1382Y-514D01*
X-1391Y-510D01*
X-1400Y-509D01*
X-1409Y-510D01*
X-1418Y-514D01*
X-1425Y-520D01*
X-1431Y-527D01*
X-1435Y-536D01*
X-1436Y-545D01*
X-1435Y-554D01*
X-1431Y-563D01*
X-1425Y-570D01*
X-1418Y-576D01*
X-1409Y-580D01*
X-1400Y-581D01*
X-1391Y-580D01*
X-1382Y-576D01*
X-1375Y-570D01*
X-1369Y-563D01*
X-1366Y-556D01*
X-1361Y-557D01*
Y-595D01*
X-1361Y-595D01*
X-1360Y-599D01*
X-1358Y-603D01*
X-1336Y-625D01*
Y-681D01*
X-1264D01*
Y-609D01*
X-1320D01*
X-1339Y-590D01*
Y-557D01*
X-1334Y-556D01*
X-1331Y-563D01*
X-1325Y-570D01*
X-1318Y-576D01*
X-1309Y-580D01*
X-1300Y-581D01*
X-1291Y-580D01*
X-1282Y-576D01*
X-1275Y-570D01*
X-1269Y-563D01*
X-1266Y-556D01*
X-1250D01*
X-1250Y-556D01*
X-1246Y-555D01*
X-1242Y-553D01*
X-1137Y-448D01*
X-1137Y-448D01*
X-1135Y-444D01*
X-1134Y-440D01*
Y-380D01*
X-1025Y-271D01*
X-533D01*
X-532Y-273D01*
X-528Y-278D01*
X-523Y-282D01*
X-517Y-285D01*
X-510Y-286D01*
X-503Y-285D01*
X-497Y-282D01*
X-492Y-278D01*
X-488Y-273D01*
X-487Y-271D01*
X-5D01*
X-5Y-271D01*
X-1Y-270D01*
X3Y-268D01*
X33Y-238D01*
X35Y-234D01*
X36Y-230D01*
X36Y-230D01*
Y-207D01*
X38Y-206D01*
X42Y-200D01*
X43Y-193D01*
Y-142D01*
X42Y-135D01*
X38Y-129D01*
X32Y-125D01*
X25Y-124D01*
D02*
G37*
G36*
X-800Y-50D02*
X-808Y-51D01*
X-815Y-54D01*
X-821Y-59D01*
X-826Y-65D01*
X-829Y-72D01*
X-830Y-80D01*
X-829Y-88D01*
X-826Y-95D01*
X-821Y-101D01*
X-815Y-106D01*
X-808Y-109D01*
X-800Y-110D01*
X-792Y-109D01*
X-785Y-106D01*
X-779Y-101D01*
X-776Y-97D01*
X-770Y-96D01*
X-745Y-121D01*
Y-128D01*
X-747Y-129D01*
X-750Y-135D01*
X-752Y-142D01*
Y-193D01*
X-750Y-200D01*
X-747Y-206D01*
X-741Y-210D01*
X-734Y-211D01*
X-727Y-210D01*
X-721Y-206D01*
X-717Y-200D01*
X-716Y-193D01*
Y-142D01*
X-717Y-135D01*
X-721Y-129D01*
X-722Y-128D01*
Y-116D01*
X-723Y-112D01*
X-726Y-108D01*
X-726Y-108D01*
X-762Y-72D01*
X-766Y-70D01*
X-770Y-69D01*
X-770Y-69D01*
X-773D01*
X-774Y-65D01*
X-779Y-59D01*
X-785Y-54D01*
X-792Y-51D01*
X-800Y-50D01*
D02*
G37*
G36*
X-1207Y63D02*
X-1787D01*
X-1788Y62D01*
X-1788Y62D01*
X-1788Y62D01*
X-1789Y62D01*
X-1790Y62D01*
X-1791Y61D01*
X-1791Y61D01*
X-1791Y61D01*
X-1792Y60D01*
X-1795Y57D01*
X-1796Y56D01*
X-1796Y55D01*
X-1797Y55D01*
X-1797Y54D01*
X-1797Y54D01*
X-1797Y53D01*
X-1797Y53D01*
X-1797Y53D01*
Y52D01*
X-1798Y51D01*
Y51D01*
X-1798Y50D01*
Y42D01*
X-1798Y-104D01*
Y-154D01*
Y-204D01*
X-1798Y-204D01*
Y-204D01*
X-1798Y-205D01*
X-1798Y-205D01*
Y-205D01*
X-1798Y-205D01*
X-1798Y-205D01*
X-1798Y-205D01*
Y-205D01*
X-1797Y-206D01*
X-1797Y-207D01*
X-1797Y-207D01*
X-1797Y-207D01*
X-1797Y-207D01*
X-1797Y-207D01*
X-1797Y-207D01*
X-1797Y-209D01*
X-1796Y-209D01*
X-1796Y-209D01*
X-1796Y-209D01*
X-1796Y-210D01*
X-1795Y-210D01*
X-1795Y-211D01*
X-1792Y-214D01*
X-1791Y-214D01*
X-1791Y-215D01*
X-1791Y-215D01*
X-1791Y-215D01*
X-1790Y-215D01*
X-1789Y-216D01*
X-1788Y-216D01*
X-1788Y-216D01*
X-1787D01*
X-1787Y-216D01*
X-1787Y-216D01*
X-1786Y-216D01*
X-1786D01*
X-1786Y-216D01*
X-1785D01*
X-1785Y-216D01*
X-1779D01*
X-1778Y-216D01*
X-1778Y-216D01*
X-1778D01*
X-1778Y-216D01*
X-1777Y-216D01*
X-1777Y-216D01*
X-1776Y-215D01*
X-1775Y-215D01*
X-1775Y-215D01*
X-1775Y-215D01*
X-1774Y-214D01*
X-1773Y-214D01*
X-1773Y-213D01*
X-1770Y-209D01*
X-1770Y-208D01*
X-1770Y-208D01*
X-1770Y-208D01*
X-1770Y-208D01*
X-1769Y-207D01*
X-1769Y-206D01*
X-1769Y-206D01*
X-1769Y-206D01*
X-1769Y-206D01*
X-1769Y-206D01*
X-1769Y-206D01*
X-1769Y-205D01*
X-1769Y-204D01*
X-1769Y-203D01*
X-1769Y-203D01*
X-1769Y-203D01*
X-1769Y-202D01*
X-1770Y-201D01*
X-1771Y-198D01*
X-1771Y-198D01*
X-1771Y-197D01*
X-1771Y-196D01*
X-1771Y-196D01*
X-1768Y-192D01*
X-1768Y-192D01*
X-1767Y-192D01*
X-1767Y-192D01*
X-1766Y-192D01*
X-1766Y-192D01*
X-1766Y-192D01*
X-1765Y-192D01*
X-1765Y-192D01*
X-1764Y-192D01*
X-1763Y-191D01*
X-1762Y-190D01*
X-1761Y-189D01*
X-1756Y-190D01*
X-1756Y-190D01*
X-1756Y-190D01*
X-1754Y-194D01*
X-1747Y-203D01*
X-1737Y-211D01*
X-1726Y-215D01*
X-1715Y-217D01*
X-1703Y-215D01*
X-1692Y-211D01*
X-1682Y-203D01*
X-1675Y-194D01*
X-1673Y-190D01*
X-1673Y-190D01*
X-1668Y-189D01*
X-1667Y-190D01*
X-1666Y-191D01*
X-1665Y-192D01*
X-1664Y-192D01*
X-1664Y-192D01*
X-1664Y-192D01*
X-1664Y-192D01*
X-1663Y-192D01*
X-1663Y-192D01*
X-1662Y-192D01*
X-1662Y-192D01*
X-1661Y-192D01*
X-1660Y-193D01*
X-1660Y-193D01*
X-1658Y-197D01*
X-1658Y-198D01*
X-1658Y-198D01*
X-1660Y-201D01*
X-1660Y-202D01*
X-1660Y-202D01*
X-1660Y-203D01*
X-1660Y-203D01*
X-1660Y-203D01*
X-1660Y-204D01*
X-1660Y-205D01*
X-1660Y-205D01*
X-1660Y-205D01*
X-1660Y-206D01*
X-1660Y-206D01*
X-1660Y-206D01*
X-1660Y-207D01*
X-1660Y-207D01*
X-1660Y-208D01*
X-1659Y-208D01*
X-1659Y-209D01*
X-1659Y-209D01*
Y-209D01*
X-1658Y-210D01*
X-1658Y-211D01*
X-1658Y-211D01*
X-1658Y-212D01*
X-1658Y-212D01*
X-1657Y-212D01*
X-1657Y-213D01*
X-1656Y-213D01*
X-1656Y-214D01*
X-1656Y-214D01*
X-1655Y-214D01*
X-1655Y-215D01*
X-1655Y-215D01*
X-1655Y-215D01*
X-1655Y-215D01*
X-1655Y-215D01*
X-1654Y-215D01*
X-1654Y-215D01*
X-1654Y-215D01*
X-1653Y-215D01*
X-1652Y-216D01*
X-1652Y-216D01*
X-1652Y-216D01*
X-1652Y-216D01*
X-1652Y-216D01*
X-1651Y-216D01*
X-1650Y-216D01*
X-1342D01*
X-1341Y-216D01*
X-1341Y-216D01*
X-1341D01*
X-1341Y-216D01*
X-1340Y-216D01*
X-1340Y-216D01*
X-1339Y-215D01*
X-1338Y-215D01*
X-1338Y-215D01*
X-1338Y-215D01*
X-1337Y-214D01*
X-1336Y-214D01*
X-1336Y-213D01*
X-1333Y-209D01*
X-1333Y-208D01*
X-1333Y-208D01*
X-1333Y-208D01*
X-1333Y-208D01*
X-1332Y-207D01*
X-1332Y-206D01*
X-1332Y-206D01*
X-1332Y-206D01*
X-1332Y-206D01*
X-1332Y-206D01*
X-1332Y-206D01*
X-1332Y-205D01*
X-1332Y-204D01*
X-1332Y-203D01*
X-1332Y-203D01*
X-1332Y-203D01*
X-1332Y-202D01*
X-1333Y-201D01*
X-1334Y-198D01*
X-1334Y-198D01*
X-1334Y-197D01*
X-1334Y-196D01*
X-1334Y-196D01*
X-1331Y-192D01*
X-1331Y-192D01*
X-1330Y-192D01*
X-1330Y-192D01*
X-1329Y-192D01*
X-1329Y-192D01*
X-1329Y-192D01*
X-1328Y-192D01*
X-1328Y-192D01*
X-1327Y-192D01*
X-1326Y-191D01*
X-1325Y-190D01*
X-1324Y-189D01*
X-1319Y-190D01*
X-1319Y-190D01*
X-1319Y-190D01*
X-1317Y-194D01*
X-1310Y-203D01*
X-1300Y-211D01*
X-1289Y-215D01*
X-1278Y-217D01*
X-1266Y-215D01*
X-1255Y-211D01*
X-1245Y-203D01*
X-1238Y-194D01*
X-1235Y-186D01*
X-1229Y-185D01*
X-1229Y-185D01*
X-1229Y-185D01*
X-1228Y-186D01*
X-1226Y-187D01*
X-1224Y-187D01*
X-1224Y-187D01*
X-1224Y-187D01*
X-1222Y-187D01*
X-1222Y-187D01*
X-1222Y-187D01*
X-1220Y-186D01*
X-1218Y-185D01*
X-1218Y-185D01*
X-1218Y-185D01*
X-1216Y-184D01*
X-1214Y-181D01*
X-1158D01*
X-1151Y-180D01*
X-1146Y-177D01*
X-1123Y-154D01*
X-1120Y-149D01*
X-1119Y-142D01*
Y-139D01*
X-1099D01*
Y-76D01*
X-1171D01*
Y-139D01*
X-1161D01*
X-1159Y-144D01*
X-1164Y-149D01*
X-1194D01*
Y-126D01*
X-1194Y-76D01*
Y-4D01*
Y50D01*
X-1194Y50D01*
Y50D01*
X-1194Y51D01*
X-1194Y51D01*
Y51D01*
X-1194Y51D01*
X-1194Y51D01*
X-1194Y52D01*
Y52D01*
X-1195Y52D01*
X-1195Y53D01*
X-1195Y53D01*
X-1195Y54D01*
X-1195Y54D01*
X-1195Y54D01*
X-1195Y54D01*
X-1195Y55D01*
X-1196Y55D01*
X-1196Y55D01*
X-1196Y55D01*
X-1196Y56D01*
X-1197Y56D01*
X-1197Y57D01*
X-1200Y60D01*
X-1201Y61D01*
X-1201Y61D01*
X-1201Y61D01*
X-1201Y61D01*
X-1202Y62D01*
X-1203Y62D01*
X-1204Y62D01*
X-1204Y62D01*
X-1205D01*
X-1206Y62D01*
X-1206Y62D01*
X-1206Y63D01*
X-1206D01*
X-1207Y63D01*
X-1207D01*
X-1207Y63D01*
D02*
G37*
G36*
X-1095Y3D02*
X-1130D01*
Y-28D01*
X-1095D01*
Y3D01*
D02*
G37*
G36*
X75Y-124D02*
X68Y-125D01*
X62Y-129D01*
X58Y-135D01*
X57Y-142D01*
Y-193D01*
X58Y-200D01*
X62Y-206D01*
X68Y-210D01*
X75Y-211D01*
X82Y-210D01*
X88Y-206D01*
X92Y-200D01*
X93Y-193D01*
Y-142D01*
X92Y-135D01*
X88Y-129D01*
X82Y-125D01*
X75Y-124D01*
D02*
G37*
%LPD*%
G36*
X-1207Y56D02*
X-1207D01*
X-1206Y56D01*
X-1206D01*
X-1206Y56D01*
X-1205Y56D01*
X-1205Y56D01*
X-1202Y53D01*
X-1202Y53D01*
X-1201Y52D01*
X-1201Y52D01*
X-1201Y51D01*
X-1201Y50D01*
X-1201Y50D01*
Y50D01*
X-1201Y50D01*
Y-4D01*
Y-76D01*
X-1201Y-126D01*
Y-170D01*
X-1208Y-171D01*
X-1215Y-174D01*
X-1221Y-179D01*
X-1223Y-181D01*
X-1224Y-181D01*
X-1228Y-176D01*
X-1228Y-176D01*
X-1327D01*
X-1326Y-179D01*
X-1326Y-182D01*
X-1327Y-183D01*
X-1330Y-186D01*
X-1331Y-186D01*
X-1331Y-186D01*
X-1331Y-186D01*
X-1332Y-186D01*
X-1332Y-186D01*
X-1333Y-186D01*
X-1333Y-186D01*
X-1334Y-186D01*
X-1334Y-187D01*
X-1335Y-187D01*
X-1335Y-187D01*
X-1336Y-188D01*
X-1337Y-189D01*
X-1338Y-190D01*
X-1338Y-191D01*
X-1339Y-191D01*
X-1340Y-193D01*
X-1340Y-195D01*
X-1340Y-195D01*
X-1341Y-195D01*
X-1341Y-196D01*
X-1341Y-196D01*
X-1341Y-197D01*
X-1341Y-198D01*
X-1341Y-198D01*
X-1340Y-199D01*
X-1340Y-200D01*
X-1338Y-204D01*
X-1338Y-204D01*
X-1338Y-204D01*
X-1338Y-205D01*
X-1339Y-205D01*
X-1339Y-206D01*
X-1341Y-210D01*
X-1341D01*
X-1342Y-210D01*
X-1342Y-210D01*
X-1650D01*
X-1650Y-210D01*
X-1651Y-210D01*
X-1651Y-210D01*
X-1651Y-210D01*
X-1651Y-210D01*
X-1651Y-209D01*
X-1651Y-209D01*
X-1651Y-209D01*
X-1652Y-209D01*
X-1652Y-208D01*
X-1652Y-208D01*
X-1653Y-207D01*
X-1653Y-206D01*
Y-206D01*
X-1653Y-206D01*
X-1654Y-205D01*
X-1654Y-205D01*
X-1654Y-205D01*
X-1654Y-204D01*
X-1654Y-204D01*
X-1654Y-204D01*
X-1652Y-200D01*
X-1652Y-199D01*
X-1652Y-198D01*
X-1652Y-198D01*
X-1652Y-198D01*
X-1651Y-197D01*
X-1651Y-196D01*
X-1652Y-195D01*
X-1652Y-193D01*
X-1652Y-192D01*
X-1653Y-192D01*
X-1653Y-191D01*
X-1655Y-189D01*
X-1655Y-189D01*
X-1656Y-188D01*
X-1656Y-188D01*
X-1657Y-188D01*
X-1657Y-187D01*
X-1659Y-187D01*
X-1659Y-186D01*
X-1659Y-186D01*
X-1660Y-186D01*
X-1661Y-186D01*
X-1661Y-186D01*
X-1662Y-186D01*
X-1662Y-186D01*
X-1662Y-186D01*
X-1665Y-183D01*
X-1666Y-182D01*
X-1666Y-179D01*
X-1665Y-176D01*
X-1764D01*
X-1763Y-179D01*
X-1763Y-182D01*
X-1764Y-183D01*
X-1767Y-186D01*
X-1768Y-186D01*
X-1768Y-186D01*
X-1768Y-186D01*
X-1769Y-186D01*
X-1769Y-186D01*
X-1770Y-186D01*
X-1770Y-186D01*
X-1771Y-186D01*
X-1771Y-187D01*
X-1772Y-187D01*
X-1772Y-187D01*
X-1773Y-188D01*
X-1774Y-189D01*
X-1775Y-190D01*
X-1775Y-191D01*
X-1776Y-191D01*
X-1777Y-193D01*
X-1777Y-195D01*
X-1777Y-195D01*
X-1778Y-195D01*
X-1778Y-196D01*
X-1778Y-196D01*
X-1778Y-197D01*
X-1778Y-198D01*
X-1778Y-198D01*
X-1777Y-199D01*
X-1777Y-200D01*
X-1775Y-204D01*
X-1775Y-204D01*
X-1775Y-204D01*
X-1775Y-205D01*
X-1776Y-205D01*
X-1776Y-206D01*
X-1778Y-210D01*
X-1778D01*
X-1779Y-210D01*
X-1779Y-210D01*
X-1785D01*
X-1785Y-210D01*
X-1786D01*
X-1786Y-210D01*
X-1786D01*
X-1786Y-210D01*
X-1787Y-210D01*
X-1788Y-209D01*
X-1791Y-206D01*
X-1791Y-206D01*
X-1791Y-206D01*
X-1791Y-205D01*
X-1791Y-205D01*
X-1791Y-204D01*
X-1791Y-204D01*
Y-204D01*
X-1791Y-204D01*
Y-154D01*
Y-104D01*
X-1791Y42D01*
Y50D01*
X-1791Y51D01*
Y51D01*
X-1791Y52D01*
X-1791Y52D01*
X-1788Y56D01*
X-1787Y56D01*
X-1207D01*
X-1207Y56D01*
D02*
G37*
%LPC*%
G36*
X-1710Y-122D02*
Y-166D01*
X-1665D01*
X-1666Y-158D01*
X-1671Y-146D01*
X-1679Y-136D01*
X-1690Y-128D01*
X-1702Y-123D01*
X-1710Y-122D01*
D02*
G37*
G36*
X-1720D02*
X-1727Y-123D01*
X-1739Y-128D01*
X-1750Y-136D01*
X-1758Y-146D01*
X-1763Y-158D01*
X-1764Y-166D01*
X-1720D01*
Y-122D01*
D02*
G37*
G36*
X-1273D02*
Y-166D01*
X-1228D01*
X-1229Y-158D01*
X-1234Y-146D01*
X-1242Y-136D01*
X-1253Y-128D01*
X-1265Y-123D01*
X-1273Y-122D01*
D02*
G37*
G36*
X-1283D02*
X-1290Y-123D01*
X-1302Y-128D01*
X-1313Y-136D01*
X-1321Y-146D01*
X-1326Y-158D01*
X-1327Y-166D01*
X-1283D01*
Y-122D01*
D02*
G37*
%LPD*%
D10*
X-510Y-260D02*
X-5D01*
X-1030D02*
X-510D01*
X-440Y-235D02*
X-95D01*
X-465Y-210D02*
X-440Y-235D01*
X-550Y-210D02*
X-465D01*
X-575Y-235D02*
X-550Y-210D01*
X-1045Y-235D02*
X-575D01*
X-439Y-291D02*
X-96D01*
X-459Y-310D02*
X-439Y-291D01*
X-550Y-310D02*
X-459D01*
X-569Y-291D02*
X-550Y-310D01*
X-783Y-291D02*
X-569D01*
X-96D02*
X-95Y-290D01*
X-784D02*
X-783Y-291D01*
X-5Y-260D02*
X25Y-230D01*
X-1145Y-375D02*
X-1030Y-260D01*
X-93Y-292D02*
X-75Y-310D01*
X-137Y-292D02*
X-93D01*
X-137Y-330D02*
Y-292D01*
X-734Y-167D02*
Y-116D01*
X-770Y-80D02*
X-734Y-116D01*
X-800Y-80D02*
X-770D01*
X-70Y-70D02*
X-25Y-115D01*
X-100Y-70D02*
X-70D01*
X-684Y-167D02*
Y-114D01*
X-650Y-80D02*
X-620D01*
X-684Y-114D02*
X-650Y-80D01*
X-25Y-167D02*
Y-115D01*
X-620Y-96D02*
Y-80D01*
X-75Y-353D02*
Y-310D01*
X-30Y-353D02*
Y-328D01*
X20Y-353D02*
Y-328D01*
X25Y-230D02*
Y-172D01*
Y-167D01*
X20D02*
X25Y-172D01*
X-75Y-215D02*
Y-167D01*
X-95Y-235D02*
X-75Y-215D01*
X-785Y-353D02*
Y-295D01*
X-784Y-234D02*
Y-167D01*
X-1180Y-370D02*
X-1045Y-235D01*
Y-340D02*
X-995Y-290D01*
X-1045Y-383D02*
Y-340D01*
X-995Y-290D02*
X-784D01*
X-837Y-330D02*
Y-293D01*
X-784Y-353D02*
Y-290D01*
X-1350Y-595D02*
X-1300Y-645D01*
X-1350Y-595D02*
Y-510D01*
X-1180Y-435D02*
Y-370D01*
X-1350Y-510D02*
X-1330Y-490D01*
X-1235D01*
X-1180Y-435D01*
X-1300Y-545D02*
X-1250D01*
X-1145Y-440D01*
Y-375D01*
X-156Y-413D02*
X-28D01*
X-25Y-420D02*
Y-353D01*
X28Y-413D02*
X156D01*
X25Y-420D02*
Y-353D01*
X-864Y-413D02*
X-738D01*
X-735Y-423D02*
Y-328D01*
X-682Y-413D02*
X-553D01*
X-685Y-420D02*
Y-328D01*
X-1447Y-406D02*
Y-356D01*
X-1496Y-455D02*
X-1447Y-406D01*
X-1560Y-455D02*
X-1496D01*
X-1600Y-495D02*
X-1560Y-455D01*
X-1600Y-545D02*
Y-495D01*
X-1495Y-326D02*
X-1447Y-278D01*
X-1650Y-485D02*
X-1580Y-415D01*
X-1650Y-595D02*
Y-485D01*
X-1700Y-645D02*
X-1650Y-595D01*
X-1580Y-415D02*
X-1521D01*
X-1495Y-389D01*
Y-326D01*
D11*
X-1135Y-142D02*
Y-107D01*
X-1278Y-171D02*
X-1271Y-165D01*
X-1158D01*
X-1135Y-142D01*
X-1700Y-545D02*
Y-375D01*
X-1603Y-278D01*
X-1545D01*
D12*
X-156Y-413D02*
D03*
X156D02*
D03*
X-553D02*
D03*
X-864D02*
D03*
D13*
X0Y0D02*
D03*
X-709D02*
D03*
X-1300Y-545D02*
D03*
X-1400Y-645D02*
D03*
Y-545D02*
D03*
X-1500Y-645D02*
D03*
Y-545D02*
D03*
X-1600Y-645D02*
D03*
Y-545D02*
D03*
X-1700D02*
D03*
Y-645D02*
D03*
D14*
X-1891Y-10D02*
D03*
X471D02*
D03*
D15*
X-1278Y-171D02*
D03*
X-1715D02*
D03*
D16*
X-1545Y-278D02*
D03*
Y-356D02*
D03*
X-1447Y-278D02*
D03*
Y-356D02*
D03*
X-100Y-70D02*
D03*
X-800Y-80D02*
D03*
X-620D02*
D03*
X-1900Y-700D02*
D03*
X-1145Y-640D02*
D03*
X-500Y-700D02*
D03*
X400D02*
D03*
X0D02*
D03*
X-900D02*
D03*
X400Y-400D02*
D03*
Y-100D02*
D03*
X-500Y-160D02*
D03*
X400Y-200D02*
D03*
X-900D02*
D03*
X-1200D02*
D03*
X-1900D02*
D03*
D17*
X-1300Y-645D02*
D03*
D18*
X-510Y-260D02*
D03*
D19*
X-634Y-353D02*
D03*
X-684D02*
D03*
X-734D02*
D03*
X-784D02*
D03*
X-634Y-167D02*
D03*
X-684D02*
D03*
X-734D02*
D03*
X-784D02*
D03*
X-75D02*
D03*
X-25D02*
D03*
X25D02*
D03*
X75D02*
D03*
X-75Y-353D02*
D03*
X-25D02*
D03*
X25D02*
D03*
X75D02*
D03*
D20*
X-208Y-325D02*
D03*
X-142D02*
D03*
X-908D02*
D03*
X-842D02*
D03*
X-742Y-430D02*
D03*
X-675D02*
D03*
X-33D02*
D03*
X33D02*
D03*
D21*
X-1135Y-33D02*
D03*
Y-107D02*
D03*
X-1045Y-457D02*
D03*
Y-383D02*
D03*
D22*
X-1500Y-695D02*
Y-645D01*
X-1045Y-665D02*
Y-457D01*
X-1500Y-695D02*
X-1485Y-710D01*
X-1090D01*
X-1045Y-665D01*
M02*
