M48
;Layer_Color=9474304
;FILE_FORMAT=2:4
INCH
;TYPE=PLATED
T1F00S00C0.0197
T2F00S00C0.0236
T3F00S00C0.0354
T4F00S00C0.0362
T5F00S00C0.0531
T6F00S00C0.0591
T7F00S00C0.1181
T8F00S00C0.1378
%
T01
X-011900Y-004500
T02
X-019000Y-007000
Y-002000
X-012000Y-002500
X-009000Y-002000
X-008000Y-000800
X-006200
X-005000Y-001600
X-005100Y-002600
X-005000Y-007000
X-009000
X-011450Y-006400
X000000Y-007000
X-001000Y-000700
X004000Y-001000
Y-002000
Y-004000
Y-007000
T03
X-017000Y-006450
X-016000
X-015000
X-014000
Y-005450
X-015000
X-016000
X-017000
X-013000
Y-006450
T04
X-015453Y-003565
Y-002778
X-014468
Y-003565
T05
X-008642Y-004134
X-005531
X-001555
X001555
T06
X-017146Y-001711
X-012776
T07
X-018909Y-000100
X004713
T08
X-007087Y000000
X000000
M30
