M48
;Layer_Color=9474304
;FILE_FORMAT=2:4
INCH
;TYPE=PLATED
T1F00S00C0.0150
T3F00S00C0.0354
T4F00S00C0.0362
T5F00S00C0.0531
T6F00S00C0.1181
T7F00S00C0.1378
%
T01
X-019000Y-007000
Y-002000
X-012000
X-009000
X-007337Y-001050
X-006837
Y-002500
X-005000Y-002000
Y-007000
X-009000
X-012000
X-012450Y-004600
X-010450Y-005200
X000000Y-007000
X-000250Y-001000
X004000
Y-002000
Y-004000
Y-007000
T03
X-017000Y-006450
Y-005450
X-016000
Y-006450
X-015000
Y-005450
X-014000
Y-006450
X-013000
Y-005450
T04
X-015453Y-003565
Y-002778
X-014468
Y-003565
T05
X-008642Y-004122
X-005531
X-001555Y-004134
X001555
T06
X-018909Y-000100
X004713
T07
X-007087Y000012
X000000Y000000
M30
