G04 Layer_Color=16711935*
%FSLAX23Y23*%
%MOIN*%
G70*
G01*
G75*
%ADD27C,0.106*%
%ADD28C,0.067*%
%ADD29C,0.106*%
%ADD30C,0.087*%
%ADD31C,0.055*%
%ADD32R,0.067X0.067*%
%ADD33O,0.032X0.083*%
%ADD34R,0.051X0.047*%
%ADD35R,0.067X0.059*%
D27*
X-156Y-413D02*
D03*
X156D02*
D03*
X-553D02*
D03*
X-864D02*
D03*
D28*
X0Y0D02*
D03*
X-709D02*
D03*
X-1300Y-545D02*
D03*
X-1400Y-645D02*
D03*
Y-545D02*
D03*
X-1500Y-645D02*
D03*
Y-545D02*
D03*
X-1600Y-645D02*
D03*
Y-545D02*
D03*
X-1700D02*
D03*
Y-645D02*
D03*
D29*
X-1891Y-10D02*
D03*
X471D02*
D03*
D30*
X-1278Y-171D02*
D03*
X-1715D02*
D03*
D31*
X-1545Y-278D02*
D03*
Y-356D02*
D03*
X-1447Y-278D02*
D03*
Y-356D02*
D03*
D32*
X-1300Y-645D02*
D03*
D33*
X-634Y-353D02*
D03*
X-684D02*
D03*
X-734D02*
D03*
X-784D02*
D03*
X-634Y-167D02*
D03*
X-684D02*
D03*
X-734D02*
D03*
X-784D02*
D03*
X-75D02*
D03*
X-25D02*
D03*
X25D02*
D03*
X75D02*
D03*
X-75Y-353D02*
D03*
X-25D02*
D03*
X25D02*
D03*
X75D02*
D03*
D34*
X-208Y-325D02*
D03*
X-142D02*
D03*
X-908D02*
D03*
X-842D02*
D03*
X-742Y-430D02*
D03*
X-675D02*
D03*
X-33D02*
D03*
X33D02*
D03*
D35*
X-1135Y-33D02*
D03*
Y-107D02*
D03*
X-1045Y-457D02*
D03*
Y-383D02*
D03*
M02*
