G04 Layer_Color=32896*
%FSLAX23Y23*%
%MOIN*%
G70*
G01*
G75*
%ADD23C,0.008*%
%ADD24C,0.005*%
%ADD36C,0.010*%
%ADD37C,0.004*%
G36*
X-1173Y-675D02*
X-1227Y-645D01*
X-1173Y-610D01*
Y-675D01*
D02*
G37*
D23*
X-807Y-299D02*
X-610D01*
X-807Y-221D02*
X-610D01*
Y-299D02*
Y-221D01*
X-807Y-299D02*
Y-221D01*
X-98Y-299D02*
Y-221D01*
X98Y-299D02*
Y-221D01*
X-98D02*
X98D01*
X-98Y-299D02*
X98D01*
D24*
X195Y-240D02*
Y-273D01*
X188Y-280D01*
X175D01*
X168Y-273D01*
Y-240D01*
X128Y-280D02*
X155D01*
X128Y-253D01*
Y-247D01*
X135Y-240D01*
X148D01*
X155Y-247D01*
X-535Y-235D02*
Y-268D01*
X-542Y-275D01*
X-555D01*
X-562Y-268D01*
Y-235D01*
X-575Y-275D02*
X-588D01*
X-582D01*
Y-235D01*
X-575Y-242D01*
X3Y-487D02*
X10Y-480D01*
X23D01*
X30Y-487D01*
Y-513D01*
X23Y-520D01*
X10D01*
X3Y-513D01*
X-30Y-520D02*
Y-480D01*
X-10Y-500D01*
X-37D01*
X-298Y-338D02*
X-305Y-345D01*
X-318D01*
X-325Y-338D01*
Y-312D01*
X-318Y-305D01*
X-305D01*
X-298Y-312D01*
X-285Y-338D02*
X-278Y-345D01*
X-265D01*
X-258Y-338D01*
Y-332D01*
X-265Y-325D01*
X-272D01*
X-265D01*
X-258Y-318D01*
Y-312D01*
X-265Y-305D01*
X-278D01*
X-285Y-312D01*
X-872Y-242D02*
X-865Y-235D01*
X-852D01*
X-845Y-242D01*
Y-268D01*
X-852Y-275D01*
X-865D01*
X-872Y-268D01*
X-885Y-275D02*
X-898D01*
X-892D01*
Y-235D01*
X-885Y-242D01*
X-707Y-487D02*
X-700Y-480D01*
X-687D01*
X-680Y-487D01*
Y-513D01*
X-687Y-520D01*
X-700D01*
X-707Y-513D01*
X-747Y-520D02*
X-720D01*
X-747Y-493D01*
Y-487D01*
X-740Y-480D01*
X-727D01*
X-720Y-487D01*
X-1020Y-50D02*
Y-90D01*
X-1047D01*
X-1060D02*
X-1073D01*
X-1067D01*
Y-50D01*
X-1060Y-57D01*
X-1014Y-290D02*
Y-325D01*
X-1037D01*
X-1072D02*
X-1049D01*
X-1072Y-302D01*
Y-296D01*
X-1067Y-290D01*
X-1055D01*
X-1049Y-296D01*
X-1811Y-498D02*
X-1776D01*
X-1794D01*
Y-522D01*
X-1811D01*
X-1776D01*
Y-533D02*
Y-545D01*
Y-539D01*
X-1811D01*
X-1806Y-533D01*
D36*
X-595Y-353D02*
G03*
X-595Y-353I-5J0D01*
G01*
X113D02*
G03*
X113Y-353I-5J0D01*
G01*
D37*
X-175Y-345D02*
Y-305D01*
X-875Y-345D02*
Y-305D01*
X-709Y-450D02*
Y-410D01*
X0Y-450D02*
Y-410D01*
X-1165Y-70D02*
X-1105D01*
X-1075Y-420D02*
X-1015D01*
X-1250Y-695D02*
Y-495D01*
X-1750D02*
X-1250D01*
X-1750Y-695D02*
X-1250D01*
X-1750D02*
Y-495D01*
M02*
