G04 Layer_Color=65535*
%FSLAX23Y23*%
%MOIN*%
G70*
G01*
G75*
%ADD10C,0.010*%
%ADD22C,0.016*%
%ADD23C,0.008*%
%ADD24C,0.005*%
%ADD25C,0.012*%
%ADD26C,0.007*%
G36*
X457Y-441D02*
X457Y-441D01*
Y-442D01*
Y-442D01*
X461Y-462D01*
Y-462D01*
X461Y-462D01*
X462Y-463D01*
X462D01*
X475Y-468D01*
X477D01*
X493Y-457D01*
X494D01*
X494Y-457D01*
X509Y-471D01*
Y-471D01*
Y-472D01*
Y-472D01*
Y-472D01*
X497Y-489D01*
Y-489D01*
Y-489D01*
Y-489D01*
Y-490D01*
Y-490D01*
X503Y-504D01*
X503Y-504D01*
X504Y-505D01*
X504D01*
X523Y-508D01*
X524D01*
X524Y-508D01*
Y-509D01*
Y-509D01*
Y-529D01*
X524Y-529D01*
X523Y-530D01*
X523D01*
X505Y-534D01*
X504D01*
X504Y-534D01*
Y-534D01*
Y-534D01*
X498Y-549D01*
Y-550D01*
Y-550D01*
Y-550D01*
Y-550D01*
X509Y-566D01*
Y-566D01*
Y-567D01*
Y-567D01*
X494Y-581D01*
X494Y-581D01*
X493D01*
X493Y-581D01*
X478Y-571D01*
X477D01*
X470Y-575D01*
X469Y-574D01*
X468Y-574D01*
X455Y-540D01*
X455Y-539D01*
X455Y-539D01*
X457Y-538D01*
X457Y-538D01*
X458D01*
X458Y-537D01*
X458Y-537D01*
X462Y-535D01*
X464Y-532D01*
X465Y-529D01*
X467Y-526D01*
X467Y-524D01*
X468Y-521D01*
X468Y-520D01*
Y-519D01*
X468Y-516D01*
X467Y-513D01*
X466Y-511D01*
X465Y-508D01*
X463Y-506D01*
X463Y-505D01*
X462Y-504D01*
X462Y-504D01*
X459Y-502D01*
X457Y-500D01*
X454Y-499D01*
X452Y-498D01*
X449Y-497D01*
X448Y-497D01*
X446D01*
X443Y-497D01*
X440Y-498D01*
X437Y-499D01*
X435Y-501D01*
X433Y-502D01*
X432Y-503D01*
X431Y-504D01*
X431Y-504D01*
X429Y-506D01*
X427Y-509D01*
X426Y-512D01*
X425Y-514D01*
X425Y-516D01*
X425Y-518D01*
Y-519D01*
Y-519D01*
X425Y-524D01*
X426Y-527D01*
X428Y-530D01*
X430Y-533D01*
X432Y-535D01*
X433Y-536D01*
X434Y-537D01*
X435Y-537D01*
X435Y-538D01*
X435Y-538D01*
X435Y-538D01*
X437Y-539D01*
X438Y-540D01*
Y-540D01*
Y-540D01*
X424Y-574D01*
X423Y-574D01*
X423Y-575D01*
X423D01*
X416Y-571D01*
X415D01*
X400Y-581D01*
X399Y-581D01*
X398D01*
X398Y-581D01*
X384Y-567D01*
Y-567D01*
Y-567D01*
Y-566D01*
X395Y-550D01*
Y-550D01*
Y-550D01*
Y-549D01*
Y-549D01*
X389Y-534D01*
X388Y-534D01*
X388Y-534D01*
X388D01*
X369Y-530D01*
X369Y-529D01*
X368Y-529D01*
Y-529D01*
Y-509D01*
Y-508D01*
X369Y-508D01*
X369D01*
X388Y-505D01*
X389Y-504D01*
X389Y-504D01*
Y-504D01*
X395Y-490D01*
Y-490D01*
Y-489D01*
Y-489D01*
Y-489D01*
X384Y-472D01*
Y-472D01*
Y-472D01*
Y-471D01*
Y-471D01*
X398Y-457D01*
X398Y-457D01*
X400D01*
X416Y-468D01*
X417D01*
X431Y-463D01*
X431Y-462D01*
X432Y-462D01*
Y-462D01*
Y-462D01*
X435Y-442D01*
Y-441D01*
X436Y-441D01*
X456D01*
X457Y-441D01*
D02*
G37*
D10*
X-205Y112D02*
Y232D01*
Y112D02*
X-175Y82D01*
X-125D01*
X-100Y107D01*
Y232D01*
X100Y107D02*
Y232D01*
Y107D02*
X125Y82D01*
X175D01*
X200Y107D01*
Y227D01*
X-509Y107D02*
Y227D01*
X-534Y82D02*
X-509Y107D01*
X-584Y82D02*
X-534D01*
X-609Y107D02*
X-584Y82D01*
X-609Y107D02*
Y232D01*
X-809Y107D02*
Y232D01*
X-834Y82D02*
X-809Y107D01*
X-884Y82D02*
X-834D01*
X-914Y112D02*
X-884Y82D01*
X-914Y112D02*
Y232D01*
X-1732Y-98D02*
Y234D01*
Y-396D02*
Y-244D01*
X-1260Y-396D02*
Y-244D01*
Y-98D02*
Y234D01*
D22*
X-327Y228D02*
X323D01*
Y-587D02*
Y228D01*
X-327Y-587D02*
Y228D01*
Y-587D02*
X323D01*
X-1035D02*
X-386D01*
X-1035D02*
Y228D01*
X-386Y-587D02*
Y228D01*
X-1035D02*
X-386D01*
D23*
X-1733Y-396D02*
X-1259D01*
X-1733Y234D02*
X-1259D01*
D24*
X-1198Y-340D02*
X-1212D01*
X-1205D01*
Y-373D01*
X-1212Y-380D01*
X-1218D01*
X-1225Y-373D01*
X-1185Y-380D02*
X-1172D01*
X-1178D01*
Y-340D01*
X-1185Y-347D01*
X-730Y-616D02*
X-703D01*
X-717D01*
Y-656D01*
X-690D02*
X-677D01*
X-683D01*
Y-616D01*
X-690Y-623D01*
X-45Y-621D02*
X-18D01*
X-32D01*
Y-661D01*
X22D02*
X-5D01*
X22Y-635D01*
Y-628D01*
X15Y-621D01*
X2D01*
X-5Y-628D01*
D25*
X-100Y-328D02*
X-180D01*
Y-288D01*
X-167Y-275D01*
X-140D01*
X-127Y-288D01*
Y-328D01*
X190D02*
X110D01*
X190Y-275D01*
X110D01*
X-519Y-328D02*
X-599D01*
X-519Y-275D01*
X-599D01*
X-809Y-328D02*
X-889D01*
Y-288D01*
X-875Y-275D01*
X-849D01*
X-835Y-288D01*
Y-328D01*
D26*
X403Y-593D02*
X393D01*
X388Y-598D01*
Y-618D01*
X393Y-623D01*
X403D01*
X408Y-618D01*
Y-598D01*
X403Y-593D01*
X438Y-598D02*
X433Y-593D01*
X423D01*
X418Y-598D01*
Y-603D01*
X423Y-608D01*
X433D01*
X438Y-613D01*
Y-618D01*
X433Y-623D01*
X423D01*
X418Y-618D01*
X448Y-593D02*
Y-623D01*
Y-608D01*
X468D01*
Y-593D01*
Y-623D01*
X478Y-593D02*
Y-623D01*
X488Y-613D01*
X498Y-623D01*
Y-593D01*
M02*
