M48
;Layer_Color=9474304
;FILE_FORMAT=2:4
INCH
;TYPE=PLATED
T1F00S00C0.0236
T2F00S00C0.0354
T3F00S00C0.0362
T4F00S00C0.0551
T5F00S00C0.0669
T6F00S00C0.1181
T7F00S00C0.1378
%
T01
X-004450Y000400
X002000
X001600Y-001100
X001100Y-000850
X004850Y-001500
X005650Y-002226
X009400Y-002250
X012750Y-001050
Y000450
X015500Y-002224
X007124Y000450
X007650Y001250
X016967Y000450
X017500Y000850
X019200Y-002200
X022250Y000550
T02
X-003250Y-003350
Y-002350
X-002250
Y-003350
X-001250
Y-002350
X-000250
Y-003350
X000750
Y-002350
X001750
X002750
Y-003350
X001750
T03
X-000492Y-000415
Y000372
X000492
Y-000415
T04
X006319Y-000984
X009429
X016161
X019272
T05
X-002185Y001439
X002185
T06
X-004724Y003150
X013386
X022835
T07
X007874Y003150
X017717
M30
