G04 Layer_Color=32896*
%FSLAX23Y23*%
%MOIN*%
G70*
G01*
G75*
%ADD28C,0.008*%
%ADD29C,0.005*%
%ADD44C,0.006*%
%ADD45C,0.010*%
%ADD46C,0.004*%
G36*
X403Y-365D02*
X348Y-335D01*
X403Y-300D01*
Y-365D01*
D02*
G37*
D28*
X306Y-385D02*
X323Y-402D01*
X-370Y-385D02*
X323D01*
X-341Y-568D02*
Y-435D01*
Y-568D02*
X-324Y-585D01*
X-308Y-568D01*
Y-435D01*
X-241Y-568D02*
Y-435D01*
Y-568D02*
X-224Y-585D01*
X-208Y-568D01*
Y-435D01*
X-141Y-568D02*
Y-435D01*
Y-568D02*
X-124Y-585D01*
X-108Y-568D01*
Y-435D01*
X-41Y-568D02*
Y-435D01*
Y-568D02*
X-24Y-585D01*
X-8Y-568D01*
Y-435D01*
X59Y-568D02*
Y-435D01*
Y-568D02*
X76Y-585D01*
X92Y-568D01*
Y-435D01*
X159Y-568D02*
Y-435D01*
Y-568D02*
X176Y-585D01*
X192Y-568D01*
Y-435D01*
X259Y-568D02*
Y-435D01*
Y-568D02*
X276Y-585D01*
X292Y-568D01*
Y-435D01*
X-370D02*
Y-385D01*
Y-435D02*
X323D01*
Y-385D01*
X689Y-164D02*
X886D01*
X689Y-86D02*
X886D01*
Y-164D02*
Y-86D01*
X689Y-164D02*
Y-86D01*
X1673Y-164D02*
Y-86D01*
X1870Y-164D02*
Y-86D01*
X1673D02*
X1870D01*
X1673Y-164D02*
X1870D01*
D29*
X12Y-106D02*
X18Y-100D01*
X29D01*
X35Y-106D01*
Y-112D01*
X29Y-118D01*
X18D01*
X12Y-123D01*
Y-129D01*
X18Y-135D01*
X29D01*
X35Y-129D01*
X-23Y-135D02*
X0D01*
X-23Y-112D01*
Y-106D01*
X-17Y-100D01*
X-6D01*
X0Y-106D01*
X103D02*
X109Y-100D01*
X120D01*
X126Y-106D01*
Y-112D01*
X120Y-118D01*
X109D01*
X103Y-123D01*
Y-129D01*
X109Y-135D01*
X120D01*
X126Y-129D01*
X91Y-135D02*
X79D01*
X85D01*
Y-100D01*
X91Y-106D01*
X397Y-61D02*
X403Y-55D01*
X414D01*
X420Y-61D01*
Y-84D01*
X414Y-90D01*
X403D01*
X397Y-84D01*
X362Y-55D02*
X385D01*
Y-73D01*
X373Y-67D01*
X368D01*
X362Y-73D01*
Y-84D01*
X368Y-90D01*
X379D01*
X385Y-84D01*
X513Y56D02*
Y91D01*
X496D01*
X490Y86D01*
Y74D01*
X496Y68D01*
X513D01*
X502D02*
X490Y56D01*
X479D02*
X467D01*
X473D01*
Y91D01*
X479Y86D01*
X1797Y-105D02*
Y-138D01*
X1790Y-145D01*
X1777D01*
X1770Y-138D01*
Y-105D01*
X1730Y-145D02*
X1757D01*
X1730Y-118D01*
Y-112D01*
X1737Y-105D01*
X1750D01*
X1757Y-112D01*
X805Y-105D02*
Y-138D01*
X798Y-145D01*
X785D01*
X778Y-138D01*
Y-105D01*
X765Y-145D02*
X752D01*
X758D01*
Y-105D01*
X765Y-112D01*
X1783Y-347D02*
X1790Y-340D01*
X1803D01*
X1810Y-347D01*
Y-373D01*
X1803Y-380D01*
X1790D01*
X1783Y-373D01*
X1750Y-380D02*
Y-340D01*
X1770Y-360D01*
X1743D01*
X1613Y-347D02*
X1620Y-340D01*
X1633D01*
X1640Y-347D01*
Y-373D01*
X1633Y-380D01*
X1620D01*
X1613Y-373D01*
X1600Y-347D02*
X1593Y-340D01*
X1580D01*
X1573Y-347D01*
Y-353D01*
X1580Y-360D01*
X1587D01*
X1580D01*
X1573Y-367D01*
Y-373D01*
X1580Y-380D01*
X1593D01*
X1600Y-373D01*
X648Y-343D02*
X655Y-336D01*
X668D01*
X675Y-343D01*
Y-369D01*
X668Y-376D01*
X655D01*
X648Y-369D01*
X635Y-376D02*
X622D01*
X628D01*
Y-336D01*
X635Y-343D01*
X789Y-352D02*
X796Y-345D01*
X809D01*
X816Y-352D01*
Y-379D01*
X809Y-385D01*
X796D01*
X789Y-379D01*
X749Y-385D02*
X776D01*
X749Y-359D01*
Y-352D01*
X756Y-345D01*
X769D01*
X776Y-352D01*
X470Y265D02*
Y225D01*
X443D01*
X430D02*
X416D01*
X423D01*
Y265D01*
X430Y258D01*
X510Y-340D02*
Y-375D01*
X487D01*
X452D02*
X475D01*
X452Y-352D01*
Y-346D01*
X458Y-340D01*
X469D01*
X475Y-346D01*
X-394Y-130D02*
Y-165D01*
Y-148D01*
X-418D01*
Y-130D01*
Y-165D01*
X-429D02*
X-441D01*
X-435D01*
Y-130D01*
X-429Y-136D01*
D44*
X57Y-170D02*
G03*
X57Y-170I-3J0D01*
G01*
X-44D02*
G03*
X-44Y-170I-3J0D01*
G01*
D45*
X901Y-218D02*
G03*
X901Y-218I-5J0D01*
G01*
X1885D02*
G03*
X1885Y-218I-5J0D01*
G01*
D46*
X365Y-185D02*
X425D01*
X455Y-35D02*
X515D01*
X1594Y-256D02*
X1634D01*
X610D02*
X650D01*
X787Y-315D02*
Y-276D01*
X1772Y-315D02*
Y-276D01*
X325Y245D02*
X384D01*
X455Y-260D02*
X515D01*
M02*
