G04 Layer_Color=65535*
%FSLAX23Y23*%
%MOIN*%
G70*
G01*
G75*
%ADD11C,0.010*%
%ADD26C,0.016*%
%ADD29C,0.008*%
%ADD30C,0.005*%
%ADD31C,0.007*%
%ADD32C,0.012*%
G36*
X2256Y-39D02*
X2256Y-39D01*
Y-40D01*
Y-40D01*
X2260Y-60D01*
Y-60D01*
X2260Y-61D01*
X2261Y-61D01*
X2261D01*
X2274Y-66D01*
X2276D01*
X2292Y-55D01*
X2293D01*
X2293Y-55D01*
X2308Y-69D01*
Y-69D01*
Y-70D01*
Y-70D01*
Y-70D01*
X2296Y-87D01*
Y-87D01*
Y-87D01*
Y-88D01*
Y-88D01*
Y-88D01*
X2302Y-102D01*
X2303Y-103D01*
X2303Y-103D01*
X2303D01*
X2322Y-106D01*
X2323D01*
X2323Y-106D01*
Y-107D01*
Y-107D01*
Y-127D01*
X2323Y-127D01*
X2323Y-128D01*
X2322D01*
X2304Y-132D01*
X2303D01*
X2303Y-132D01*
Y-132D01*
Y-132D01*
X2297Y-147D01*
Y-148D01*
Y-148D01*
Y-148D01*
Y-149D01*
X2308Y-164D01*
Y-164D01*
Y-165D01*
Y-165D01*
X2293Y-179D01*
X2293Y-179D01*
X2293D01*
X2292Y-179D01*
X2277Y-169D01*
X2276D01*
X2269Y-173D01*
X2268Y-172D01*
X2268Y-172D01*
X2254Y-139D01*
X2254Y-137D01*
X2255Y-137D01*
X2256Y-136D01*
X2256Y-136D01*
X2257D01*
X2257Y-136D01*
X2257Y-135D01*
X2261Y-133D01*
X2263Y-130D01*
X2264Y-127D01*
X2266Y-124D01*
X2266Y-122D01*
X2267Y-119D01*
X2267Y-118D01*
Y-118D01*
X2267Y-114D01*
X2266Y-111D01*
X2265Y-109D01*
X2264Y-106D01*
X2263Y-104D01*
X2262Y-103D01*
X2261Y-102D01*
X2261Y-102D01*
X2258Y-100D01*
X2256Y-98D01*
X2253Y-97D01*
X2251Y-96D01*
X2248Y-96D01*
X2247Y-95D01*
X2245D01*
X2242Y-96D01*
X2239Y-96D01*
X2236Y-98D01*
X2234Y-99D01*
X2233Y-100D01*
X2231Y-101D01*
X2230Y-102D01*
X2230Y-102D01*
X2228Y-104D01*
X2226Y-107D01*
X2225Y-110D01*
X2225Y-112D01*
X2224Y-114D01*
X2224Y-116D01*
Y-117D01*
Y-118D01*
X2224Y-122D01*
X2225Y-125D01*
X2227Y-128D01*
X2229Y-131D01*
X2231Y-133D01*
X2232Y-134D01*
X2233Y-135D01*
X2234Y-135D01*
X2234Y-136D01*
X2234Y-136D01*
X2235Y-136D01*
X2236Y-137D01*
X2237Y-138D01*
Y-138D01*
Y-139D01*
X2223Y-172D01*
X2223Y-172D01*
X2222Y-173D01*
X2222D01*
X2215Y-169D01*
X2214D01*
X2199Y-179D01*
X2198Y-179D01*
X2198D01*
X2197Y-179D01*
X2183Y-165D01*
Y-165D01*
Y-165D01*
Y-164D01*
X2194Y-149D01*
Y-148D01*
Y-148D01*
Y-147D01*
Y-147D01*
X2188Y-132D01*
X2188Y-132D01*
X2187Y-132D01*
X2187D01*
X2168Y-128D01*
X2168Y-127D01*
X2168Y-127D01*
Y-127D01*
Y-107D01*
Y-106D01*
X2168Y-106D01*
X2168D01*
X2187Y-103D01*
X2188Y-103D01*
X2188Y-102D01*
Y-102D01*
X2195Y-88D01*
Y-88D01*
Y-88D01*
Y-87D01*
Y-87D01*
X2183Y-70D01*
Y-70D01*
Y-70D01*
Y-69D01*
Y-69D01*
X2197Y-55D01*
X2198Y-55D01*
X2199D01*
X2215Y-66D01*
X2216D01*
X2230Y-61D01*
X2230Y-61D01*
X2231Y-60D01*
Y-60D01*
Y-60D01*
X2235Y-40D01*
Y-39D01*
X2235Y-39D01*
X2255D01*
X2256Y-39D01*
D02*
G37*
D11*
X236Y217D02*
Y549D01*
Y-81D02*
Y71D01*
X-236Y-81D02*
Y71D01*
Y217D02*
Y549D01*
X987Y422D02*
Y542D01*
X962Y397D02*
X987Y422D01*
X912Y397D02*
X962D01*
X887Y422D02*
X912Y397D01*
X887Y422D02*
Y547D01*
X687Y422D02*
Y547D01*
X662Y397D02*
X687Y422D01*
X612Y397D02*
X662D01*
X582Y427D02*
X612Y397D01*
X582Y427D02*
Y547D01*
X1567Y427D02*
Y547D01*
Y427D02*
X1597Y397D01*
X1647D01*
X1672Y422D01*
Y547D01*
X1872Y422D02*
Y547D01*
Y422D02*
X1897Y397D01*
X1947D01*
X1972Y422D01*
Y542D01*
D26*
X461Y-272D02*
X1110D01*
X461D02*
Y543D01*
X1110Y-272D02*
Y543D01*
X461D02*
X1110D01*
X1445D02*
X2094D01*
Y-272D02*
Y543D01*
X1445Y-272D02*
Y543D01*
Y-272D02*
X2094D01*
D29*
X-237Y549D02*
X237D01*
X-237Y-81D02*
X237D01*
D30*
X1727Y-306D02*
X1753D01*
X1740D01*
Y-346D01*
X1767Y-313D02*
X1773Y-306D01*
X1787D01*
X1793Y-313D01*
Y-320D01*
X1787Y-326D01*
X1780D01*
X1787D01*
X1793Y-333D01*
Y-340D01*
X1787Y-346D01*
X1773D01*
X1767Y-340D01*
X766Y-301D02*
X793D01*
X779D01*
Y-341D01*
X826D02*
Y-301D01*
X806Y-321D01*
X833D01*
X298Y-25D02*
X284D01*
X291D01*
Y-58D01*
X284Y-65D01*
X278D01*
X271Y-58D01*
X311Y-65D02*
X324D01*
X318D01*
Y-25D01*
X311Y-32D01*
D31*
X2204Y-208D02*
X2194D01*
X2189Y-213D01*
Y-233D01*
X2194Y-238D01*
X2204D01*
X2209Y-233D01*
Y-213D01*
X2204Y-208D01*
X2239Y-213D02*
X2234Y-208D01*
X2224D01*
X2219Y-213D01*
Y-218D01*
X2224Y-223D01*
X2234D01*
X2239Y-228D01*
Y-233D01*
X2234Y-238D01*
X2224D01*
X2219Y-233D01*
X2249Y-208D02*
Y-238D01*
Y-223D01*
X2269D01*
Y-208D01*
Y-238D01*
X2279Y-208D02*
Y-238D01*
X2289Y-228D01*
X2299Y-238D01*
Y-208D01*
D32*
X977Y-13D02*
X897D01*
X977Y40D01*
X897D01*
X687Y-13D02*
X607D01*
Y27D01*
X621Y40D01*
X647D01*
X661Y27D01*
Y-13D01*
X1672D02*
X1592D01*
Y27D01*
X1605Y40D01*
X1632D01*
X1645Y27D01*
Y-13D01*
X1962D02*
X1882D01*
X1962Y40D01*
X1882D01*
M02*
