G04 Layer_Physical_Order=2*
G04 Layer_Color=16711680*
%FSLAX23Y23*%
%MOIN*%
G70*
G01*
G75*
%ADD24C,0.020*%
%ADD25C,0.010*%
%ADD26C,0.012*%
%ADD29C,0.024*%
%ADD34C,0.059*%
%ADD35C,0.055*%
%ADD36R,0.059X0.059*%
%ADD37C,0.118*%
%ADD38O,0.051X0.063*%
%ADD39R,0.051X0.063*%
%ADD40C,0.062*%
%ADD41C,0.039*%
%ADD42R,0.039X0.039*%
%ADD43C,0.100*%
%ADD44R,0.100X0.100*%
%ADD45R,0.100X0.100*%
G36*
X1573Y1131D02*
X1574Y1127D01*
X1576Y1124D01*
X1579Y1121D01*
X1583Y1121D01*
X1816D01*
Y-1121D01*
X1583D01*
X1579Y-1121D01*
X1576Y-1124D01*
X1574Y-1127D01*
X1573Y-1131D01*
Y-1364D01*
X-536D01*
Y-300D01*
X-536Y-300D01*
Y-249D01*
X-537Y-245D01*
X-539Y-242D01*
X-542Y-240D01*
X-546Y-239D01*
X-665D01*
X-669Y-240D01*
X-672Y-242D01*
X-674Y-245D01*
X-675Y-249D01*
Y-275D01*
X-675Y-276D01*
Y-1363D01*
X-1573D01*
Y-1131D01*
X-1574Y-1127D01*
X-1576Y-1124D01*
X-1579Y-1121D01*
X-1583Y-1121D01*
X-1815D01*
Y1121D01*
X-1583D01*
X-1579Y1121D01*
X-1576Y1124D01*
X-1574Y1127D01*
X-1573Y1131D01*
Y1363D01*
X1573D01*
Y1131D01*
D02*
G37*
%LPC*%
G36*
X-750Y-378D02*
X-755Y-378D01*
X-764Y-382D01*
X-772Y-388D01*
X-778Y-396D01*
X-782Y-405D01*
X-782Y-410D01*
X-750D01*
Y-378D01*
D02*
G37*
G36*
X-708Y-420D02*
X-740D01*
Y-452D01*
X-735Y-452D01*
X-726Y-448D01*
X-718Y-442D01*
X-712Y-434D01*
X-708Y-425D01*
X-708Y-420D01*
D02*
G37*
G36*
X-750D02*
X-782D01*
X-782Y-425D01*
X-778Y-434D01*
X-772Y-442D01*
X-764Y-448D01*
X-755Y-452D01*
X-750Y-452D01*
Y-420D01*
D02*
G37*
G36*
X1630Y-220D02*
X1618Y-221D01*
X1607Y-224D01*
X1597Y-230D01*
X1587Y-237D01*
X1580Y-247D01*
X1574Y-257D01*
X1571Y-268D01*
X1570Y-280D01*
X1571Y-292D01*
X1574Y-303D01*
X1580Y-313D01*
X1587Y-323D01*
X1597Y-330D01*
X1607Y-336D01*
X1618Y-339D01*
X1630Y-340D01*
X1642Y-339D01*
X1653Y-336D01*
X1663Y-330D01*
X1673Y-323D01*
X1680Y-313D01*
X1686Y-303D01*
X1689Y-292D01*
X1690Y-280D01*
X1689Y-268D01*
X1686Y-257D01*
X1680Y-247D01*
X1673Y-237D01*
X1663Y-230D01*
X1653Y-224D01*
X1642Y-221D01*
X1630Y-220D01*
D02*
G37*
G36*
X-875Y575D02*
X-883Y574D01*
X-890Y571D01*
X-896Y566D01*
X-901Y560D01*
X-904Y553D01*
X-905Y545D01*
X-904Y537D01*
X-901Y530D01*
X-896Y524D01*
X-890Y519D01*
X-890Y519D01*
Y-321D01*
X-927Y-359D01*
X-934Y-358D01*
X-941Y-359D01*
X-949Y-362D01*
X-955Y-366D01*
X-960Y-373D01*
X-963Y-380D01*
X-964Y-388D01*
X-963Y-395D01*
X-960Y-403D01*
X-955Y-409D01*
X-949Y-414D01*
X-941Y-417D01*
X-934Y-418D01*
X-926Y-417D01*
X-919Y-414D01*
X-912Y-409D01*
X-908Y-403D01*
X-905Y-395D01*
X-904Y-388D01*
X-904Y-381D01*
X-862Y-339D01*
X-859Y-334D01*
X-857Y-328D01*
Y521D01*
X-854Y524D01*
X-849Y530D01*
X-846Y537D01*
X-845Y545D01*
X-846Y553D01*
X-849Y560D01*
X-854Y566D01*
X-860Y571D01*
X-867Y574D01*
X-875Y575D01*
D02*
G37*
G36*
X-740Y-378D02*
Y-410D01*
X-708D01*
X-708Y-405D01*
X-712Y-396D01*
X-718Y-388D01*
X-726Y-382D01*
X-735Y-378D01*
X-740Y-378D01*
D02*
G37*
G36*
X1690Y-420D02*
X1570D01*
Y-540D01*
X1690D01*
Y-420D01*
D02*
G37*
G36*
X80Y-521D02*
X75Y-521D01*
X65Y-525D01*
X57Y-532D01*
X50Y-540D01*
X46Y-550D01*
X46Y-555D01*
X80D01*
Y-521D01*
D02*
G37*
G36*
X-1645Y-531D02*
Y-565D01*
X-1611D01*
X-1611Y-560D01*
X-1615Y-550D01*
X-1622Y-542D01*
X-1630Y-535D01*
X-1640Y-531D01*
X-1645Y-531D01*
D02*
G37*
G36*
X-1655D02*
X-1660Y-531D01*
X-1670Y-535D01*
X-1678Y-542D01*
X-1685Y-550D01*
X-1689Y-560D01*
X-1689Y-565D01*
X-1655D01*
Y-531D01*
D02*
G37*
G36*
X190Y-521D02*
Y-555D01*
X224D01*
X224Y-550D01*
X220Y-540D01*
X213Y-532D01*
X205Y-525D01*
X195Y-521D01*
X190Y-521D01*
D02*
G37*
G36*
X180D02*
X175Y-521D01*
X165Y-525D01*
X157Y-532D01*
X150Y-540D01*
X146Y-550D01*
X146Y-555D01*
X180D01*
Y-521D01*
D02*
G37*
G36*
X90D02*
Y-555D01*
X124D01*
X124Y-550D01*
X120Y-540D01*
X113Y-532D01*
X105Y-525D01*
X95Y-521D01*
X90Y-521D01*
D02*
G37*
G36*
X950Y-209D02*
X939Y-210D01*
X929Y-214D01*
X921Y-221D01*
X914Y-229D01*
X910Y-239D01*
X909Y-250D01*
X910Y-261D01*
X914Y-271D01*
X921Y-279D01*
X929Y-286D01*
X939Y-290D01*
X950Y-291D01*
X961Y-290D01*
X971Y-286D01*
X979Y-279D01*
X986Y-271D01*
X990Y-261D01*
X991Y-250D01*
X990Y-239D01*
X986Y-229D01*
X979Y-221D01*
X971Y-214D01*
X961Y-210D01*
X950Y-209D01*
D02*
G37*
G36*
X-1305Y86D02*
X-1420D01*
X-1426Y85D01*
X-1431Y81D01*
X-1567Y-54D01*
X-1610D01*
Y-30D01*
X-1690D01*
Y-110D01*
X-1610D01*
Y-86D01*
X-1560D01*
X-1554Y-85D01*
X-1549Y-81D01*
X-1413Y54D01*
X-1312D01*
X-1303Y45D01*
X-1305Y40D01*
X-1305Y40D01*
X-1313Y39D01*
X-1320Y36D01*
X-1326Y31D01*
X-1330Y26D01*
X-1400D01*
X-1406Y25D01*
X-1411Y21D01*
X-1587Y-154D01*
X-1614D01*
X-1615Y-150D01*
X-1622Y-142D01*
X-1630Y-135D01*
X-1640Y-131D01*
X-1650Y-130D01*
X-1660Y-131D01*
X-1670Y-135D01*
X-1678Y-142D01*
X-1685Y-150D01*
X-1689Y-160D01*
X-1690Y-170D01*
X-1689Y-180D01*
X-1685Y-190D01*
X-1678Y-198D01*
X-1670Y-205D01*
X-1660Y-209D01*
X-1650Y-210D01*
X-1640Y-209D01*
X-1630Y-205D01*
X-1622Y-198D01*
X-1615Y-190D01*
X-1614Y-186D01*
X-1580D01*
X-1574Y-185D01*
X-1569Y-181D01*
X-1393Y-6D01*
X-1330D01*
X-1326Y-11D01*
X-1320Y-16D01*
X-1317Y-17D01*
Y-23D01*
X-1320Y-24D01*
X-1326Y-29D01*
X-1330Y-34D01*
X-1360D01*
X-1366Y-35D01*
X-1371Y-39D01*
X-1587Y-254D01*
X-1614D01*
X-1615Y-250D01*
X-1622Y-242D01*
X-1630Y-235D01*
X-1640Y-231D01*
X-1650Y-230D01*
X-1660Y-231D01*
X-1670Y-235D01*
X-1678Y-242D01*
X-1685Y-250D01*
X-1689Y-260D01*
X-1690Y-270D01*
X-1689Y-280D01*
X-1685Y-290D01*
X-1678Y-298D01*
X-1670Y-305D01*
X-1660Y-309D01*
X-1650Y-310D01*
X-1640Y-309D01*
X-1630Y-305D01*
X-1622Y-298D01*
X-1615Y-290D01*
X-1614Y-286D01*
X-1580D01*
X-1574Y-285D01*
X-1569Y-281D01*
X-1353Y-66D01*
X-1330D01*
X-1326Y-71D01*
X-1320Y-76D01*
X-1317Y-77D01*
Y-83D01*
X-1320Y-84D01*
X-1326Y-89D01*
X-1330Y-94D01*
X-1345D01*
X-1351Y-95D01*
X-1356Y-99D01*
X-1609Y-352D01*
X-1615Y-350D01*
X-1615Y-350D01*
X-1622Y-342D01*
X-1630Y-335D01*
X-1640Y-331D01*
X-1650Y-330D01*
X-1660Y-331D01*
X-1670Y-335D01*
X-1678Y-342D01*
X-1685Y-350D01*
X-1689Y-360D01*
X-1690Y-370D01*
X-1689Y-380D01*
X-1685Y-390D01*
X-1678Y-398D01*
X-1670Y-405D01*
X-1660Y-409D01*
X-1650Y-410D01*
X-1640Y-409D01*
X-1630Y-405D01*
X-1622Y-398D01*
X-1615Y-390D01*
X-1614Y-386D01*
X-1605D01*
X-1599Y-385D01*
X-1594Y-381D01*
X-1338Y-126D01*
X-1330D01*
X-1326Y-131D01*
X-1320Y-136D01*
X-1317Y-137D01*
Y-143D01*
X-1320Y-144D01*
X-1326Y-149D01*
X-1331Y-155D01*
X-1331Y-156D01*
X-1341D01*
X-1347Y-157D01*
X-1352Y-160D01*
X-1461Y-269D01*
X-1464Y-274D01*
X-1465Y-280D01*
Y-315D01*
X-1605Y-455D01*
X-1614D01*
X-1615Y-450D01*
X-1622Y-442D01*
X-1630Y-435D01*
X-1640Y-431D01*
X-1650Y-430D01*
X-1660Y-431D01*
X-1670Y-435D01*
X-1678Y-442D01*
X-1685Y-450D01*
X-1689Y-460D01*
X-1690Y-470D01*
X-1689Y-480D01*
X-1685Y-490D01*
X-1678Y-498D01*
X-1670Y-505D01*
X-1660Y-509D01*
X-1650Y-510D01*
X-1640Y-509D01*
X-1630Y-505D01*
X-1622Y-498D01*
X-1615Y-490D01*
X-1614Y-485D01*
X-1599D01*
X-1593Y-484D01*
X-1588Y-481D01*
X-1439Y-332D01*
X-1436Y-327D01*
X-1435Y-321D01*
Y-286D01*
X-1335Y-186D01*
X-1330Y-187D01*
X-1326Y-191D01*
X-1320Y-196D01*
X-1317Y-197D01*
Y-203D01*
X-1320Y-204D01*
X-1326Y-209D01*
X-1331Y-215D01*
X-1334Y-222D01*
X-1335Y-230D01*
X-1334Y-238D01*
X-1331Y-245D01*
X-1326Y-251D01*
X-1320Y-256D01*
X-1313Y-259D01*
X-1305Y-260D01*
X-1297Y-259D01*
X-1290Y-256D01*
X-1284Y-251D01*
X-1279Y-245D01*
X-1278Y-241D01*
X-1275D01*
X-1268Y-240D01*
X-1263Y-236D01*
X-1249Y-222D01*
X-1245Y-217D01*
X-1244Y-210D01*
Y25D01*
X-1245Y31D01*
X-1249Y36D01*
X-1294Y81D01*
X-1299Y85D01*
X-1305Y86D01*
D02*
G37*
G36*
X-28Y44D02*
X-30Y43D01*
X-38Y40D01*
X-44Y36D01*
X-49Y29D01*
X-52Y22D01*
X-52Y20D01*
X-28D01*
Y44D01*
D02*
G37*
G36*
X-118D02*
Y20D01*
X-93D01*
X-94Y22D01*
X-97Y29D01*
X-102Y36D01*
X-108Y40D01*
X-115Y43D01*
X-118Y44D01*
D02*
G37*
G36*
X950Y206D02*
X939Y205D01*
X929Y201D01*
X921Y194D01*
X914Y186D01*
X910Y176D01*
X909Y165D01*
X910Y154D01*
X914Y144D01*
X921Y136D01*
X929Y129D01*
X939Y125D01*
X950Y124D01*
X961Y125D01*
X971Y129D01*
X979Y136D01*
X986Y144D01*
X990Y154D01*
X991Y165D01*
X990Y176D01*
X986Y186D01*
X979Y194D01*
X971Y201D01*
X961Y205D01*
X950Y206D01*
D02*
G37*
G36*
X-350Y165D02*
X-358Y164D01*
X-365Y161D01*
X-371Y156D01*
X-376Y150D01*
X-379Y143D01*
X-380Y135D01*
X-380Y134D01*
X-449Y64D01*
X-454Y58D01*
X-455Y50D01*
Y-378D01*
X-456Y-379D01*
X-461Y-385D01*
X-464Y-392D01*
X-465Y-400D01*
X-464Y-408D01*
X-461Y-415D01*
X-456Y-421D01*
X-450Y-426D01*
X-443Y-429D01*
X-435Y-430D01*
X-427Y-429D01*
X-420Y-426D01*
X-414Y-421D01*
X-409Y-415D01*
X-406Y-408D01*
X-405Y-400D01*
X-406Y-392D01*
X-409Y-385D01*
X-414Y-379D01*
X-415Y-378D01*
Y42D01*
X-351Y105D01*
X-350Y105D01*
X-342Y106D01*
X-335Y109D01*
X-329Y114D01*
X-324Y120D01*
X-321Y127D01*
X-320Y135D01*
X-321Y143D01*
X-324Y150D01*
X-329Y156D01*
X-335Y161D01*
X-342Y164D01*
X-350Y165D01*
D02*
G37*
G36*
X1630Y180D02*
X1618Y179D01*
X1607Y176D01*
X1597Y170D01*
X1587Y163D01*
X1580Y153D01*
X1574Y143D01*
X1571Y132D01*
X1570Y120D01*
X1571Y108D01*
X1574Y97D01*
X1580Y87D01*
X1587Y77D01*
X1597Y70D01*
X1607Y64D01*
X1618Y61D01*
X1630Y60D01*
X1642Y61D01*
X1653Y64D01*
X1663Y70D01*
X1673Y77D01*
X1680Y87D01*
X1686Y97D01*
X1689Y108D01*
X1690Y120D01*
X1689Y132D01*
X1686Y143D01*
X1680Y153D01*
X1673Y163D01*
X1663Y170D01*
X1653Y176D01*
X1642Y179D01*
X1630Y180D01*
D02*
G37*
G36*
X-128Y44D02*
X-130Y43D01*
X-138Y40D01*
X-144Y36D01*
X-149Y29D01*
X-152Y22D01*
X-152Y20D01*
X-128D01*
Y44D01*
D02*
G37*
G36*
X745Y-209D02*
X739Y-210D01*
X729Y-214D01*
X721Y-221D01*
X714Y-229D01*
X710Y-239D01*
X709Y-245D01*
X745D01*
Y-209D01*
D02*
G37*
G36*
X791Y-255D02*
X755D01*
Y-291D01*
X761Y-290D01*
X771Y-286D01*
X779Y-279D01*
X786Y-271D01*
X790Y-261D01*
X791Y-255D01*
D02*
G37*
G36*
X745D02*
X709D01*
X710Y-261D01*
X714Y-271D01*
X721Y-279D01*
X729Y-286D01*
X739Y-290D01*
X745Y-291D01*
Y-255D01*
D02*
G37*
G36*
X71Y117D02*
X63Y116D01*
X56Y113D01*
X50Y108D01*
X45Y102D01*
X42Y94D01*
X41Y87D01*
X42Y79D01*
X45Y72D01*
X50Y65D01*
X56Y61D01*
X63Y58D01*
X71Y57D01*
X79Y58D01*
X86Y61D01*
X92Y65D01*
X94Y68D01*
X99Y68D01*
X114Y53D01*
Y-12D01*
X112Y-13D01*
X107Y-11D01*
Y44D01*
X48D01*
Y42D01*
X43Y40D01*
X42Y40D01*
X35Y43D01*
X32Y44D01*
Y15D01*
X22D01*
Y44D01*
X20Y43D01*
X12Y40D01*
X6Y36D01*
X5Y34D01*
X-0D01*
X-2Y36D01*
X-8Y40D01*
X-15Y43D01*
X-18Y44D01*
Y15D01*
X-23D01*
Y10D01*
X-52D01*
X-52Y7D01*
X-49Y-0D01*
X-44Y-7D01*
X-42Y-8D01*
Y-13D01*
X-44Y-14D01*
X-45Y-16D01*
X-50D01*
X-52Y-14D01*
X-58Y-10D01*
X-65Y-7D01*
X-73Y-6D01*
X-80Y-7D01*
X-88Y-10D01*
X-94Y-14D01*
X-95Y-16D01*
X-100D01*
X-102Y-14D01*
X-103Y-13D01*
Y-8D01*
X-102Y-7D01*
X-97Y-0D01*
X-94Y7D01*
X-93Y10D01*
X-152D01*
X-152Y7D01*
X-149Y-0D01*
X-144Y-7D01*
X-142Y-8D01*
Y-13D01*
X-144Y-14D01*
X-149Y-21D01*
X-152Y-28D01*
X-153Y-35D01*
X-152Y-43D01*
X-149Y-50D01*
X-144Y-57D01*
X-139Y-60D01*
Y-77D01*
X-138Y-84D01*
X-134Y-89D01*
X-121Y-101D01*
X-116Y-105D01*
X-110Y-106D01*
X365D01*
X371Y-105D01*
X376Y-101D01*
X409Y-69D01*
X415Y-70D01*
X423Y-69D01*
X430Y-66D01*
X436Y-61D01*
X441Y-55D01*
X444Y-48D01*
X445Y-40D01*
X444Y-32D01*
X441Y-25D01*
X436Y-19D01*
X430Y-14D01*
X423Y-11D01*
X415Y-10D01*
X407Y-11D01*
X400Y-14D01*
X394Y-19D01*
X389Y-25D01*
X386Y-32D01*
X385Y-40D01*
X386Y-46D01*
X358Y-74D01*
X-103D01*
X-106Y-71D01*
Y-60D01*
X-102Y-57D01*
X-100Y-55D01*
X-95D01*
X-94Y-57D01*
X-88Y-61D01*
X-80Y-64D01*
X-73Y-65D01*
X-65Y-64D01*
X-58Y-61D01*
X-52Y-57D01*
X-50Y-55D01*
X-45D01*
X-44Y-57D01*
X-38Y-61D01*
X-30Y-64D01*
X-23Y-65D01*
X-15Y-64D01*
X-8Y-61D01*
X-2Y-57D01*
X-0Y-55D01*
X5D01*
X6Y-57D01*
X12Y-61D01*
X20Y-64D01*
X27Y-65D01*
X35Y-64D01*
X42Y-61D01*
X48Y-57D01*
X50Y-55D01*
X55D01*
X56Y-57D01*
X62Y-61D01*
X70Y-64D01*
X77Y-65D01*
X85Y-64D01*
X92Y-61D01*
X98Y-57D01*
X102Y-52D01*
X115D01*
X122Y-50D01*
X127Y-47D01*
X141Y-32D01*
X145Y-27D01*
X146Y-21D01*
Y60D01*
X145Y66D01*
X141Y71D01*
X102Y111D01*
X97Y114D01*
X90Y116D01*
X84Y114D01*
X83Y114D01*
X79Y116D01*
X71Y117D01*
D02*
G37*
G36*
X1630Y-20D02*
X1618Y-21D01*
X1607Y-24D01*
X1597Y-30D01*
X1587Y-37D01*
X1580Y-47D01*
X1574Y-57D01*
X1571Y-68D01*
X1570Y-80D01*
X1571Y-92D01*
X1574Y-103D01*
X1580Y-113D01*
X1587Y-123D01*
X1597Y-130D01*
X1607Y-136D01*
X1618Y-139D01*
X1630Y-140D01*
X1642Y-139D01*
X1653Y-136D01*
X1663Y-130D01*
X1673Y-123D01*
X1680Y-113D01*
X1686Y-103D01*
X1689Y-92D01*
X1690Y-80D01*
X1689Y-68D01*
X1686Y-57D01*
X1680Y-47D01*
X1673Y-37D01*
X1663Y-30D01*
X1653Y-24D01*
X1642Y-21D01*
X1630Y-20D01*
D02*
G37*
G36*
X755Y-209D02*
Y-245D01*
X791D01*
X790Y-239D01*
X786Y-229D01*
X779Y-221D01*
X771Y-214D01*
X761Y-210D01*
X755Y-209D01*
D02*
G37*
G36*
X224Y-565D02*
X190D01*
Y-599D01*
X195Y-599D01*
X205Y-595D01*
X213Y-588D01*
X220Y-580D01*
X224Y-570D01*
X224Y-565D01*
D02*
G37*
G36*
X190Y-1241D02*
Y-1275D01*
X224D01*
X224Y-1270D01*
X220Y-1260D01*
X213Y-1252D01*
X205Y-1245D01*
X195Y-1241D01*
X190Y-1241D01*
D02*
G37*
G36*
X180D02*
X175Y-1241D01*
X165Y-1245D01*
X157Y-1252D01*
X150Y-1260D01*
X146Y-1270D01*
X146Y-1275D01*
X180D01*
Y-1241D01*
D02*
G37*
G36*
X90D02*
Y-1275D01*
X124D01*
X124Y-1270D01*
X120Y-1260D01*
X113Y-1252D01*
X105Y-1245D01*
X95Y-1241D01*
X90Y-1241D01*
D02*
G37*
G36*
X-810Y-1120D02*
X-822Y-1121D01*
X-833Y-1124D01*
X-843Y-1130D01*
X-853Y-1137D01*
X-860Y-1147D01*
X-866Y-1157D01*
X-869Y-1168D01*
X-870Y-1180D01*
X-869Y-1192D01*
X-866Y-1203D01*
X-860Y-1213D01*
X-853Y-1223D01*
X-843Y-1230D01*
X-833Y-1236D01*
X-822Y-1239D01*
X-810Y-1240D01*
X-798Y-1239D01*
X-787Y-1236D01*
X-777Y-1230D01*
X-767Y-1223D01*
X-760Y-1213D01*
X-754Y-1203D01*
X-751Y-1192D01*
X-750Y-1180D01*
X-751Y-1168D01*
X-754Y-1157D01*
X-760Y-1147D01*
X-767Y-1137D01*
X-777Y-1130D01*
X-787Y-1124D01*
X-798Y-1121D01*
X-810Y-1120D01*
D02*
G37*
G36*
X-1010D02*
X-1022Y-1121D01*
X-1033Y-1124D01*
X-1043Y-1130D01*
X-1053Y-1137D01*
X-1060Y-1147D01*
X-1066Y-1157D01*
X-1069Y-1168D01*
X-1070Y-1180D01*
X-1069Y-1192D01*
X-1066Y-1203D01*
X-1060Y-1213D01*
X-1053Y-1223D01*
X-1043Y-1230D01*
X-1033Y-1236D01*
X-1022Y-1239D01*
X-1010Y-1240D01*
X-998Y-1239D01*
X-987Y-1236D01*
X-977Y-1230D01*
X-967Y-1223D01*
X-960Y-1213D01*
X-954Y-1203D01*
X-951Y-1192D01*
X-950Y-1180D01*
X-951Y-1168D01*
X-954Y-1157D01*
X-960Y-1147D01*
X-967Y-1137D01*
X-977Y-1130D01*
X-987Y-1124D01*
X-998Y-1121D01*
X-1010Y-1120D01*
D02*
G37*
G36*
X-1210D02*
X-1222Y-1121D01*
X-1233Y-1124D01*
X-1243Y-1130D01*
X-1253Y-1137D01*
X-1260Y-1147D01*
X-1266Y-1157D01*
X-1269Y-1168D01*
X-1270Y-1180D01*
X-1269Y-1192D01*
X-1266Y-1203D01*
X-1260Y-1213D01*
X-1253Y-1223D01*
X-1243Y-1230D01*
X-1233Y-1236D01*
X-1222Y-1239D01*
X-1210Y-1240D01*
X-1198Y-1239D01*
X-1187Y-1236D01*
X-1177Y-1230D01*
X-1167Y-1223D01*
X-1160Y-1213D01*
X-1154Y-1203D01*
X-1151Y-1192D01*
X-1150Y-1180D01*
X-1151Y-1168D01*
X-1154Y-1157D01*
X-1160Y-1147D01*
X-1167Y-1137D01*
X-1177Y-1130D01*
X-1187Y-1124D01*
X-1198Y-1121D01*
X-1210Y-1120D01*
D02*
G37*
G36*
X80Y-1241D02*
X75Y-1241D01*
X65Y-1245D01*
X57Y-1252D01*
X50Y-1260D01*
X46Y-1270D01*
X46Y-1275D01*
X80D01*
Y-1241D01*
D02*
G37*
G36*
Y-1285D02*
X46D01*
X46Y-1290D01*
X50Y-1300D01*
X57Y-1308D01*
X65Y-1315D01*
X75Y-1319D01*
X80Y-1319D01*
Y-1285D01*
D02*
G37*
G36*
X595Y-1240D02*
X585Y-1241D01*
X575Y-1245D01*
X567Y-1252D01*
X560Y-1260D01*
X556Y-1270D01*
X555Y-1280D01*
X556Y-1290D01*
X560Y-1300D01*
X567Y-1308D01*
X575Y-1315D01*
X585Y-1319D01*
X595Y-1320D01*
X605Y-1319D01*
X615Y-1315D01*
X623Y-1308D01*
X630Y-1300D01*
X634Y-1290D01*
X635Y-1280D01*
X634Y-1270D01*
X630Y-1260D01*
X623Y-1252D01*
X615Y-1245D01*
X605Y-1241D01*
X595Y-1240D01*
D02*
G37*
G36*
X495D02*
X485Y-1241D01*
X475Y-1245D01*
X467Y-1252D01*
X460Y-1260D01*
X456Y-1270D01*
X455Y-1280D01*
X456Y-1290D01*
X460Y-1300D01*
X467Y-1308D01*
X475Y-1315D01*
X485Y-1319D01*
X495Y-1320D01*
X505Y-1319D01*
X515Y-1315D01*
X523Y-1308D01*
X530Y-1300D01*
X534Y-1290D01*
X535Y-1280D01*
X534Y-1270D01*
X530Y-1260D01*
X523Y-1252D01*
X515Y-1245D01*
X505Y-1241D01*
X495Y-1240D01*
D02*
G37*
G36*
X224Y-1285D02*
X190D01*
Y-1319D01*
X195Y-1319D01*
X205Y-1315D01*
X213Y-1308D01*
X220Y-1300D01*
X224Y-1290D01*
X224Y-1285D01*
D02*
G37*
G36*
X180D02*
X146D01*
X146Y-1290D01*
X150Y-1300D01*
X157Y-1308D01*
X165Y-1315D01*
X175Y-1319D01*
X180Y-1319D01*
Y-1285D01*
D02*
G37*
G36*
X124D02*
X90D01*
Y-1319D01*
X95Y-1319D01*
X105Y-1315D01*
X113Y-1308D01*
X120Y-1300D01*
X124Y-1290D01*
X124Y-1285D01*
D02*
G37*
G36*
X-115Y-1120D02*
X-127Y-1121D01*
X-138Y-1124D01*
X-148Y-1130D01*
X-158Y-1137D01*
X-165Y-1147D01*
X-171Y-1157D01*
X-174Y-1168D01*
X-175Y-1180D01*
X-174Y-1192D01*
X-171Y-1203D01*
X-165Y-1213D01*
X-158Y-1223D01*
X-148Y-1230D01*
X-138Y-1236D01*
X-127Y-1239D01*
X-115Y-1240D01*
X-103Y-1239D01*
X-92Y-1236D01*
X-82Y-1230D01*
X-72Y-1223D01*
X-65Y-1213D01*
X-59Y-1203D01*
X-56Y-1192D01*
X-55Y-1180D01*
X-56Y-1168D01*
X-59Y-1157D01*
X-65Y-1147D01*
X-72Y-1137D01*
X-82Y-1130D01*
X-92Y-1124D01*
X-103Y-1121D01*
X-115Y-1120D01*
D02*
G37*
G36*
X595Y-520D02*
X585Y-521D01*
X575Y-525D01*
X567Y-532D01*
X560Y-540D01*
X556Y-550D01*
X555Y-560D01*
X556Y-570D01*
X560Y-580D01*
X567Y-588D01*
X575Y-595D01*
X585Y-599D01*
X595Y-600D01*
X605Y-599D01*
X615Y-595D01*
X623Y-588D01*
X630Y-580D01*
X634Y-570D01*
X635Y-560D01*
X634Y-550D01*
X630Y-540D01*
X623Y-532D01*
X615Y-525D01*
X605Y-521D01*
X595Y-520D01*
D02*
G37*
G36*
X495D02*
X485Y-521D01*
X475Y-525D01*
X467Y-532D01*
X460Y-540D01*
X456Y-550D01*
X455Y-560D01*
X456Y-570D01*
X460Y-580D01*
X467Y-588D01*
X475Y-595D01*
X485Y-599D01*
X495Y-600D01*
X505Y-599D01*
X515Y-595D01*
X523Y-588D01*
X530Y-580D01*
X534Y-570D01*
X535Y-560D01*
X534Y-550D01*
X530Y-540D01*
X523Y-532D01*
X515Y-525D01*
X505Y-521D01*
X495Y-520D01*
D02*
G37*
G36*
X-1611Y-575D02*
X-1645D01*
Y-609D01*
X-1640Y-609D01*
X-1630Y-605D01*
X-1622Y-598D01*
X-1615Y-590D01*
X-1611Y-580D01*
X-1611Y-575D01*
D02*
G37*
G36*
X180Y-565D02*
X146D01*
X146Y-570D01*
X150Y-580D01*
X157Y-588D01*
X165Y-595D01*
X175Y-599D01*
X180Y-599D01*
Y-565D01*
D02*
G37*
G36*
X124D02*
X90D01*
Y-599D01*
X95Y-599D01*
X105Y-595D01*
X113Y-588D01*
X120Y-580D01*
X124Y-570D01*
X124Y-565D01*
D02*
G37*
G36*
X80D02*
X46D01*
X46Y-570D01*
X50Y-580D01*
X57Y-588D01*
X65Y-595D01*
X75Y-599D01*
X80Y-599D01*
Y-565D01*
D02*
G37*
G36*
X-1655Y-575D02*
X-1689D01*
X-1689Y-580D01*
X-1685Y-590D01*
X-1678Y-598D01*
X-1670Y-605D01*
X-1660Y-609D01*
X-1655Y-609D01*
Y-575D01*
D02*
G37*
G36*
X1395Y-1120D02*
X1383Y-1121D01*
X1372Y-1124D01*
X1362Y-1130D01*
X1352Y-1137D01*
X1345Y-1147D01*
X1339Y-1157D01*
X1336Y-1168D01*
X1335Y-1180D01*
X1336Y-1192D01*
X1339Y-1203D01*
X1345Y-1213D01*
X1352Y-1223D01*
X1362Y-1230D01*
X1372Y-1236D01*
X1383Y-1239D01*
X1395Y-1240D01*
X1407Y-1239D01*
X1418Y-1236D01*
X1428Y-1230D01*
X1438Y-1223D01*
X1445Y-1213D01*
X1451Y-1203D01*
X1454Y-1192D01*
X1455Y-1180D01*
X1454Y-1168D01*
X1451Y-1157D01*
X1445Y-1147D01*
X1438Y-1137D01*
X1428Y-1130D01*
X1418Y-1124D01*
X1407Y-1121D01*
X1395Y-1120D01*
D02*
G37*
G36*
X1195D02*
X1183Y-1121D01*
X1172Y-1124D01*
X1162Y-1130D01*
X1152Y-1137D01*
X1145Y-1147D01*
X1139Y-1157D01*
X1136Y-1168D01*
X1135Y-1180D01*
X1136Y-1192D01*
X1139Y-1203D01*
X1145Y-1213D01*
X1152Y-1223D01*
X1162Y-1230D01*
X1172Y-1236D01*
X1183Y-1239D01*
X1195Y-1240D01*
X1207Y-1239D01*
X1218Y-1236D01*
X1228Y-1230D01*
X1238Y-1223D01*
X1245Y-1213D01*
X1251Y-1203D01*
X1254Y-1192D01*
X1255Y-1180D01*
X1254Y-1168D01*
X1251Y-1157D01*
X1245Y-1147D01*
X1238Y-1137D01*
X1228Y-1130D01*
X1218Y-1124D01*
X1207Y-1121D01*
X1195Y-1120D01*
D02*
G37*
G36*
X995D02*
X983Y-1121D01*
X972Y-1124D01*
X962Y-1130D01*
X952Y-1137D01*
X945Y-1147D01*
X939Y-1157D01*
X936Y-1168D01*
X935Y-1180D01*
X936Y-1192D01*
X939Y-1203D01*
X945Y-1213D01*
X952Y-1223D01*
X962Y-1230D01*
X972Y-1236D01*
X983Y-1239D01*
X995Y-1240D01*
X1007Y-1239D01*
X1018Y-1236D01*
X1028Y-1230D01*
X1038Y-1223D01*
X1045Y-1213D01*
X1051Y-1203D01*
X1054Y-1192D01*
X1055Y-1180D01*
X1054Y-1168D01*
X1051Y-1157D01*
X1045Y-1147D01*
X1038Y-1137D01*
X1028Y-1130D01*
X1018Y-1124D01*
X1007Y-1121D01*
X995Y-1120D01*
D02*
G37*
G36*
X855Y-1120D02*
X735D01*
Y-1240D01*
X855D01*
Y-1120D01*
D02*
G37*
G36*
X-255D02*
X-375D01*
Y-1240D01*
X-255D01*
Y-1120D01*
D02*
G37*
G36*
X-1350D02*
X-1470D01*
Y-1240D01*
X-1350D01*
Y-1120D01*
D02*
G37*
G36*
X-180Y1321D02*
X-189Y1320D01*
X-197Y1317D01*
X-205Y1311D01*
X-211Y1303D01*
X-214Y1295D01*
X-215Y1285D01*
Y1274D01*
X-214Y1264D01*
X-211Y1256D01*
X-205Y1248D01*
X-197Y1243D01*
X-189Y1239D01*
X-180Y1238D01*
X-170Y1239D01*
X-162Y1243D01*
X-154Y1248D01*
X-148Y1256D01*
X-145Y1264D01*
X-144Y1274D01*
Y1285D01*
X-145Y1295D01*
X-148Y1303D01*
X-154Y1311D01*
X-162Y1317D01*
X-170Y1320D01*
X-180Y1321D01*
D02*
G37*
G36*
X-280D02*
X-289Y1320D01*
X-297Y1317D01*
X-305Y1311D01*
X-311Y1303D01*
X-314Y1295D01*
X-315Y1285D01*
Y1274D01*
X-314Y1264D01*
X-311Y1256D01*
X-305Y1248D01*
X-297Y1243D01*
X-289Y1239D01*
X-280Y1238D01*
X-270Y1239D01*
X-262Y1243D01*
X-254Y1248D01*
X-248Y1256D01*
X-245Y1264D01*
X-244Y1274D01*
Y1285D01*
X-245Y1295D01*
X-248Y1303D01*
X-254Y1311D01*
X-262Y1317D01*
X-270Y1320D01*
X-280Y1321D01*
D02*
G37*
G36*
X-380D02*
X-389Y1320D01*
X-397Y1317D01*
X-405Y1311D01*
X-411Y1303D01*
X-414Y1295D01*
X-415Y1285D01*
Y1274D01*
X-414Y1264D01*
X-411Y1256D01*
X-405Y1248D01*
X-397Y1243D01*
X-389Y1239D01*
X-380Y1238D01*
X-370Y1239D01*
X-362Y1243D01*
X-354Y1248D01*
X-348Y1256D01*
X-345Y1264D01*
X-344Y1274D01*
Y1285D01*
X-345Y1295D01*
X-348Y1303D01*
X-354Y1311D01*
X-362Y1317D01*
X-370Y1320D01*
X-380Y1321D01*
D02*
G37*
G36*
X-80D02*
X-89Y1320D01*
X-97Y1317D01*
X-105Y1311D01*
X-111Y1303D01*
X-114Y1295D01*
X-115Y1285D01*
Y1274D01*
X-114Y1264D01*
X-111Y1256D01*
X-105Y1248D01*
X-97Y1243D01*
X-89Y1239D01*
X-80Y1238D01*
X-70Y1239D01*
X-62Y1243D01*
X-54Y1248D01*
X-48Y1256D01*
X-45Y1264D01*
X-44Y1274D01*
Y1285D01*
X-45Y1295D01*
X-48Y1303D01*
X-54Y1311D01*
X-62Y1317D01*
X-70Y1320D01*
X-80Y1321D01*
D02*
G37*
G36*
X220D02*
X211Y1320D01*
X203Y1317D01*
X195Y1311D01*
X189Y1303D01*
X186Y1295D01*
X185Y1285D01*
Y1274D01*
X186Y1264D01*
X189Y1256D01*
X195Y1248D01*
X203Y1243D01*
X211Y1239D01*
X220Y1238D01*
X230Y1239D01*
X238Y1243D01*
X246Y1248D01*
X252Y1256D01*
X255Y1264D01*
X256Y1274D01*
Y1285D01*
X255Y1295D01*
X252Y1303D01*
X246Y1311D01*
X238Y1317D01*
X230Y1320D01*
X220Y1321D01*
D02*
G37*
G36*
X120D02*
X111Y1320D01*
X103Y1317D01*
X95Y1311D01*
X89Y1303D01*
X86Y1295D01*
X85Y1285D01*
Y1274D01*
X86Y1264D01*
X89Y1256D01*
X95Y1248D01*
X103Y1243D01*
X111Y1239D01*
X120Y1238D01*
X130Y1239D01*
X138Y1243D01*
X146Y1248D01*
X152Y1256D01*
X155Y1264D01*
X156Y1274D01*
Y1285D01*
X155Y1295D01*
X152Y1303D01*
X146Y1311D01*
X138Y1317D01*
X130Y1320D01*
X120Y1321D01*
D02*
G37*
G36*
X20D02*
X11Y1320D01*
X3Y1317D01*
X-5Y1311D01*
X-11Y1303D01*
X-14Y1295D01*
X-15Y1285D01*
Y1274D01*
X-14Y1264D01*
X-11Y1256D01*
X-5Y1248D01*
X3Y1243D01*
X11Y1239D01*
X20Y1238D01*
X30Y1239D01*
X38Y1243D01*
X46Y1248D01*
X52Y1256D01*
X55Y1264D01*
X56Y1274D01*
Y1285D01*
X55Y1295D01*
X52Y1303D01*
X46Y1311D01*
X38Y1317D01*
X30Y1320D01*
X20Y1321D01*
D02*
G37*
G36*
X-980D02*
X-989Y1320D01*
X-997Y1317D01*
X-1005Y1311D01*
X-1011Y1303D01*
X-1014Y1295D01*
X-1015Y1285D01*
Y1274D01*
X-1014Y1264D01*
X-1011Y1256D01*
X-1005Y1248D01*
X-997Y1243D01*
X-989Y1239D01*
X-980Y1238D01*
X-970Y1239D01*
X-962Y1243D01*
X-954Y1248D01*
X-948Y1256D01*
X-945Y1264D01*
X-944Y1274D01*
Y1285D01*
X-945Y1295D01*
X-948Y1303D01*
X-954Y1311D01*
X-962Y1317D01*
X-970Y1320D01*
X-980Y1321D01*
D02*
G37*
G36*
X-1080D02*
X-1089Y1320D01*
X-1097Y1317D01*
X-1105Y1311D01*
X-1111Y1303D01*
X-1114Y1295D01*
X-1115Y1285D01*
Y1274D01*
X-1114Y1264D01*
X-1111Y1256D01*
X-1105Y1248D01*
X-1097Y1243D01*
X-1089Y1239D01*
X-1080Y1238D01*
X-1070Y1239D01*
X-1062Y1243D01*
X-1054Y1248D01*
X-1048Y1256D01*
X-1045Y1264D01*
X-1044Y1274D01*
Y1285D01*
X-1045Y1295D01*
X-1048Y1303D01*
X-1054Y1311D01*
X-1062Y1317D01*
X-1070Y1320D01*
X-1080Y1321D01*
D02*
G37*
G36*
X520D02*
X511Y1320D01*
X503Y1317D01*
X495Y1311D01*
X489Y1303D01*
X486Y1295D01*
X485Y1285D01*
Y1274D01*
X486Y1264D01*
X489Y1256D01*
X495Y1248D01*
X499Y1245D01*
Y1238D01*
X489Y1229D01*
X-1151D01*
X-1160Y1239D01*
X-1160Y1244D01*
X-1154Y1248D01*
X-1148Y1256D01*
X-1145Y1264D01*
X-1144Y1274D01*
Y1285D01*
X-1145Y1295D01*
X-1148Y1303D01*
X-1154Y1311D01*
X-1162Y1317D01*
X-1170Y1320D01*
X-1180Y1321D01*
X-1189Y1320D01*
X-1197Y1317D01*
X-1205Y1311D01*
X-1211Y1303D01*
X-1214Y1295D01*
X-1215Y1285D01*
Y1274D01*
X-1214Y1264D01*
X-1211Y1256D01*
X-1205Y1248D01*
X-1201Y1245D01*
Y1231D01*
X-1200Y1223D01*
X-1195Y1217D01*
X-1173Y1195D01*
X-1167Y1190D01*
X-1159Y1189D01*
X-455D01*
Y312D01*
X-456Y311D01*
X-461Y305D01*
X-464Y298D01*
X-465Y290D01*
X-464Y282D01*
X-461Y275D01*
X-456Y269D01*
X-450Y264D01*
X-443Y261D01*
X-435Y260D01*
X-427Y261D01*
X-420Y264D01*
X-414Y269D01*
X-409Y275D01*
X-406Y282D01*
X-405Y290D01*
X-406Y298D01*
X-409Y305D01*
X-414Y311D01*
X-415Y312D01*
Y1189D01*
X231D01*
X232Y1184D01*
X225Y1181D01*
X219Y1176D01*
X215Y1171D01*
X205D01*
X199Y1170D01*
X194Y1166D01*
X-94Y879D01*
X-98Y874D01*
X-99Y867D01*
Y840D01*
X-104Y836D01*
X-109Y830D01*
X-112Y823D01*
X-113Y815D01*
X-112Y807D01*
X-109Y800D01*
X-104Y794D01*
X-98Y789D01*
X-90Y786D01*
X-83Y785D01*
X-75Y786D01*
X-68Y789D01*
X-62Y794D01*
X-57Y800D01*
X-54Y807D01*
X-53Y811D01*
X-53Y811D01*
X-48Y811D01*
X-46Y805D01*
X-41Y799D01*
X-35Y794D01*
X-27Y791D01*
X-20Y790D01*
X-12Y791D01*
X-5Y794D01*
X1Y799D01*
X5Y804D01*
X165D01*
X169Y799D01*
X175Y794D01*
X182Y791D01*
X190Y790D01*
X198Y791D01*
X205Y794D01*
X211Y799D01*
X216Y805D01*
X219Y812D01*
X220Y820D01*
X219Y828D01*
X216Y835D01*
X211Y841D01*
X205Y846D01*
X198Y849D01*
X190Y850D01*
X182Y849D01*
X175Y846D01*
X169Y841D01*
X165Y836D01*
X5D01*
X1Y841D01*
X-5Y846D01*
X-12Y849D01*
X-20Y850D01*
X-27Y849D01*
X-35Y846D01*
X-41Y841D01*
X-46Y835D01*
X-49Y828D01*
X-49Y824D01*
X-50Y824D01*
X-54Y824D01*
X-57Y830D01*
X-62Y836D01*
X-66Y840D01*
Y861D01*
X211Y1138D01*
X216Y1137D01*
X219Y1134D01*
X225Y1129D01*
X232Y1126D01*
X240Y1125D01*
X248Y1126D01*
X255Y1129D01*
X261Y1134D01*
X266Y1140D01*
X269Y1147D01*
X270Y1155D01*
X269Y1163D01*
X266Y1170D01*
X261Y1176D01*
X255Y1181D01*
X248Y1184D01*
X249Y1189D01*
X498D01*
X506Y1190D01*
X512Y1195D01*
X533Y1216D01*
X538Y1222D01*
X539Y1230D01*
Y1243D01*
X546Y1248D01*
X552Y1256D01*
X555Y1264D01*
X556Y1274D01*
Y1285D01*
X555Y1295D01*
X552Y1303D01*
X546Y1311D01*
X538Y1317D01*
X530Y1320D01*
X520Y1321D01*
D02*
G37*
G36*
X-880D02*
X-889Y1320D01*
X-897Y1317D01*
X-905Y1311D01*
X-911Y1303D01*
X-914Y1295D01*
X-915Y1285D01*
Y1274D01*
X-914Y1264D01*
X-911Y1256D01*
X-905Y1248D01*
X-897Y1243D01*
X-889Y1239D01*
X-880Y1238D01*
X-870Y1239D01*
X-862Y1243D01*
X-854Y1248D01*
X-848Y1256D01*
X-845Y1264D01*
X-844Y1274D01*
Y1285D01*
X-845Y1295D01*
X-848Y1303D01*
X-854Y1311D01*
X-862Y1317D01*
X-870Y1320D01*
X-880Y1321D01*
D02*
G37*
G36*
X-480D02*
X-489Y1320D01*
X-497Y1317D01*
X-505Y1311D01*
X-511Y1303D01*
X-514Y1295D01*
X-515Y1285D01*
Y1274D01*
X-514Y1264D01*
X-511Y1256D01*
X-505Y1248D01*
X-497Y1243D01*
X-489Y1239D01*
X-480Y1238D01*
X-470Y1239D01*
X-462Y1243D01*
X-454Y1248D01*
X-448Y1256D01*
X-445Y1264D01*
X-444Y1274D01*
Y1285D01*
X-445Y1295D01*
X-448Y1303D01*
X-454Y1311D01*
X-462Y1317D01*
X-470Y1320D01*
X-480Y1321D01*
D02*
G37*
G36*
X-580D02*
X-589Y1320D01*
X-597Y1317D01*
X-605Y1311D01*
X-611Y1303D01*
X-614Y1295D01*
X-615Y1285D01*
Y1274D01*
X-614Y1264D01*
X-611Y1256D01*
X-605Y1248D01*
X-597Y1243D01*
X-589Y1239D01*
X-580Y1238D01*
X-570Y1239D01*
X-562Y1243D01*
X-554Y1248D01*
X-548Y1256D01*
X-545Y1264D01*
X-544Y1274D01*
Y1285D01*
X-545Y1295D01*
X-548Y1303D01*
X-554Y1311D01*
X-562Y1317D01*
X-570Y1320D01*
X-580Y1321D01*
D02*
G37*
G36*
X-680D02*
X-689Y1320D01*
X-697Y1317D01*
X-705Y1311D01*
X-711Y1303D01*
X-714Y1295D01*
X-715Y1285D01*
Y1274D01*
X-714Y1264D01*
X-711Y1256D01*
X-705Y1248D01*
X-697Y1243D01*
X-689Y1239D01*
X-680Y1238D01*
X-670Y1239D01*
X-662Y1243D01*
X-654Y1248D01*
X-648Y1256D01*
X-645Y1264D01*
X-644Y1274D01*
Y1285D01*
X-645Y1295D01*
X-648Y1303D01*
X-654Y1311D01*
X-662Y1317D01*
X-670Y1320D01*
X-680Y1321D01*
D02*
G37*
G36*
X-1275Y1321D02*
Y1285D01*
X-1244D01*
Y1285D01*
X-1245Y1295D01*
X-1248Y1303D01*
X-1254Y1311D01*
X-1262Y1317D01*
X-1270Y1320D01*
X-1275Y1321D01*
D02*
G37*
G36*
X-1285D02*
X-1289Y1320D01*
X-1297Y1317D01*
X-1305Y1311D01*
X-1311Y1303D01*
X-1314Y1295D01*
X-1315Y1285D01*
Y1285D01*
X-1285D01*
Y1321D01*
D02*
G37*
G36*
X-744Y1275D02*
X-775D01*
Y1238D01*
X-770Y1239D01*
X-762Y1243D01*
X-754Y1248D01*
X-748Y1256D01*
X-745Y1264D01*
X-744Y1274D01*
Y1275D01*
D02*
G37*
G36*
X-785Y1321D02*
X-789Y1320D01*
X-797Y1317D01*
X-805Y1311D01*
X-811Y1303D01*
X-814Y1295D01*
X-815Y1285D01*
Y1285D01*
X-785D01*
Y1321D01*
D02*
G37*
G36*
X654Y1321D02*
X624D01*
Y1285D01*
X654D01*
Y1321D01*
D02*
G37*
G36*
X614D02*
X583D01*
Y1285D01*
X614D01*
Y1321D01*
D02*
G37*
G36*
X-775Y1321D02*
Y1285D01*
X-744D01*
Y1285D01*
X-745Y1295D01*
X-748Y1303D01*
X-754Y1311D01*
X-762Y1317D01*
X-770Y1320D01*
X-775Y1321D01*
D02*
G37*
G36*
X614Y1275D02*
X583D01*
Y1238D01*
X614D01*
Y1275D01*
D02*
G37*
G36*
X420Y1321D02*
X411Y1320D01*
X403Y1317D01*
X395Y1311D01*
X389Y1303D01*
X386Y1295D01*
X385Y1285D01*
Y1274D01*
X386Y1264D01*
X389Y1256D01*
X395Y1248D01*
X403Y1243D01*
X411Y1239D01*
X420Y1238D01*
X430Y1239D01*
X438Y1243D01*
X446Y1248D01*
X452Y1256D01*
X455Y1264D01*
X456Y1274D01*
Y1285D01*
X455Y1295D01*
X452Y1303D01*
X446Y1311D01*
X438Y1317D01*
X430Y1320D01*
X420Y1321D01*
D02*
G37*
G36*
X320D02*
X311Y1320D01*
X303Y1317D01*
X295Y1311D01*
X289Y1303D01*
X286Y1295D01*
X285Y1285D01*
Y1274D01*
X286Y1264D01*
X289Y1256D01*
X295Y1248D01*
X303Y1243D01*
X311Y1239D01*
X320Y1238D01*
X330Y1239D01*
X338Y1243D01*
X346Y1248D01*
X352Y1256D01*
X355Y1264D01*
X356Y1274D01*
Y1285D01*
X355Y1295D01*
X352Y1303D01*
X346Y1311D01*
X338Y1317D01*
X330Y1320D01*
X320Y1321D01*
D02*
G37*
G36*
X654Y1275D02*
X624D01*
Y1238D01*
X654D01*
Y1275D01*
D02*
G37*
G36*
X-785D02*
X-815D01*
Y1274D01*
X-814Y1264D01*
X-811Y1256D01*
X-805Y1248D01*
X-797Y1243D01*
X-789Y1239D01*
X-785Y1238D01*
Y1275D01*
D02*
G37*
G36*
X-1244D02*
X-1275D01*
Y1238D01*
X-1270Y1239D01*
X-1262Y1243D01*
X-1254Y1248D01*
X-1248Y1256D01*
X-1245Y1264D01*
X-1244Y1274D01*
Y1275D01*
D02*
G37*
G36*
X-1285D02*
X-1315D01*
Y1274D01*
X-1314Y1264D01*
X-1311Y1256D01*
X-1305Y1248D01*
X-1297Y1243D01*
X-1289Y1239D01*
X-1285Y1238D01*
Y1275D01*
D02*
G37*
G36*
X-1675Y540D02*
X-1709D01*
X-1709Y535D01*
X-1705Y525D01*
X-1698Y517D01*
X-1690Y510D01*
X-1680Y506D01*
X-1675Y506D01*
Y540D01*
D02*
G37*
G36*
X-644Y628D02*
X-659Y626D01*
X-674Y621D01*
X-688Y614D01*
X-700Y604D01*
X-710Y592D01*
X-717Y579D01*
X-722Y564D01*
X-723Y548D01*
X-722Y533D01*
X-717Y518D01*
X-710Y504D01*
X-700Y492D01*
X-688Y482D01*
X-674Y475D01*
X-659Y470D01*
X-644Y469D01*
X-628Y470D01*
X-614Y475D01*
X-600Y482D01*
X-588Y492D01*
X-578Y504D01*
X-571Y518D01*
X-566Y533D01*
X-565Y548D01*
X-566Y564D01*
X-571Y579D01*
X-578Y592D01*
X-588Y604D01*
X-600Y614D01*
X-614Y621D01*
X-628Y626D01*
X-644Y628D01*
D02*
G37*
G36*
X1695Y500D02*
X1615D01*
Y420D01*
X1695D01*
Y500D01*
D02*
G37*
G36*
X-1631Y540D02*
X-1665D01*
Y506D01*
X-1660Y506D01*
X-1650Y510D01*
X-1642Y517D01*
X-1635Y525D01*
X-1631Y535D01*
X-1631Y540D01*
D02*
G37*
G36*
X-1675Y584D02*
X-1680Y584D01*
X-1690Y580D01*
X-1698Y573D01*
X-1705Y565D01*
X-1709Y555D01*
X-1709Y550D01*
X-1675D01*
Y584D01*
D02*
G37*
G36*
X1655Y600D02*
X1645Y599D01*
X1635Y595D01*
X1627Y588D01*
X1620Y580D01*
X1616Y570D01*
X1615Y560D01*
X1616Y550D01*
X1620Y540D01*
X1627Y532D01*
X1635Y525D01*
X1645Y521D01*
X1655Y520D01*
X1665Y521D01*
X1675Y525D01*
X1683Y532D01*
X1690Y540D01*
X1694Y550D01*
X1695Y560D01*
X1694Y570D01*
X1690Y580D01*
X1683Y588D01*
X1675Y595D01*
X1665Y599D01*
X1655Y600D01*
D02*
G37*
G36*
X-1385Y840D02*
X-1393Y839D01*
X-1400Y836D01*
X-1406Y831D01*
X-1411Y825D01*
X-1414Y818D01*
X-1415Y810D01*
X-1414Y802D01*
X-1411Y795D01*
X-1406Y789D01*
X-1401Y785D01*
Y637D01*
X-1527Y511D01*
X-1541D01*
X-1543Y516D01*
X-1542Y517D01*
X-1535Y525D01*
X-1531Y535D01*
X-1530Y545D01*
X-1531Y555D01*
X-1535Y565D01*
X-1542Y573D01*
X-1550Y580D01*
X-1560Y584D01*
X-1570Y585D01*
X-1580Y584D01*
X-1590Y580D01*
X-1598Y573D01*
X-1605Y565D01*
X-1609Y555D01*
X-1610Y545D01*
X-1609Y535D01*
X-1605Y525D01*
X-1598Y517D01*
X-1597Y516D01*
X-1599Y511D01*
X-1620D01*
X-1626Y510D01*
X-1631Y506D01*
X-1656Y482D01*
X-1660Y484D01*
X-1670Y485D01*
X-1680Y484D01*
X-1690Y480D01*
X-1698Y473D01*
X-1705Y465D01*
X-1709Y455D01*
X-1710Y445D01*
X-1709Y435D01*
X-1705Y425D01*
X-1698Y417D01*
X-1690Y410D01*
X-1680Y406D01*
X-1670Y405D01*
X-1660Y406D01*
X-1650Y410D01*
X-1642Y417D01*
X-1635Y425D01*
X-1631Y435D01*
X-1630Y445D01*
X-1631Y455D01*
X-1633Y459D01*
X-1613Y479D01*
X-1599D01*
X-1597Y474D01*
X-1598Y473D01*
X-1605Y465D01*
X-1609Y455D01*
X-1610Y445D01*
X-1609Y435D01*
X-1605Y425D01*
X-1598Y417D01*
X-1597Y416D01*
X-1599Y411D01*
X-1620D01*
X-1626Y410D01*
X-1631Y406D01*
X-1656Y382D01*
X-1660Y384D01*
X-1670Y385D01*
X-1680Y384D01*
X-1690Y380D01*
X-1698Y373D01*
X-1705Y365D01*
X-1709Y355D01*
X-1710Y345D01*
X-1709Y335D01*
X-1705Y325D01*
X-1698Y317D01*
X-1690Y310D01*
X-1686Y309D01*
Y274D01*
X-1685Y268D01*
X-1681Y263D01*
X-1580Y162D01*
X-1575Y158D01*
X-1569Y157D01*
X-1279D01*
X-1223Y101D01*
Y-281D01*
X-1295Y-353D01*
X-1299Y-359D01*
X-1300Y-365D01*
Y-463D01*
X-1305Y-466D01*
X-1310Y-473D01*
X-1313Y-480D01*
X-1314Y-488D01*
X-1313Y-495D01*
X-1310Y-503D01*
X-1305Y-509D01*
X-1299Y-514D01*
X-1291Y-517D01*
X-1284Y-518D01*
X-1276Y-517D01*
X-1269Y-514D01*
X-1262Y-509D01*
X-1259Y-504D01*
X-1009D01*
X-1005Y-509D01*
X-999Y-514D01*
X-991Y-517D01*
X-984Y-518D01*
X-976Y-517D01*
X-969Y-514D01*
X-962Y-509D01*
X-958Y-503D01*
X-955Y-495D01*
X-954Y-488D01*
X-955Y-480D01*
X-958Y-473D01*
X-962Y-466D01*
X-968Y-462D01*
X-968Y-461D01*
X-967Y-457D01*
X-908D01*
X-904Y-462D01*
X-898Y-467D01*
X-891Y-470D01*
X-883Y-471D01*
X-875Y-470D01*
X-868Y-467D01*
X-862Y-462D01*
X-857Y-456D01*
X-854Y-449D01*
X-853Y-441D01*
X-854Y-433D01*
X-857Y-426D01*
X-862Y-420D01*
X-868Y-415D01*
X-875Y-412D01*
X-883Y-411D01*
X-891Y-412D01*
X-898Y-415D01*
X-904Y-420D01*
X-908Y-425D01*
X-1159D01*
X-1162Y-420D01*
X-1169Y-415D01*
X-1174Y-413D01*
X-1173Y-408D01*
X-1167Y-407D01*
X-1160Y-404D01*
X-1154Y-399D01*
X-1149Y-393D01*
X-1146Y-386D01*
X-1145Y-378D01*
X-1146Y-372D01*
X-1104Y-329D01*
X-1100Y-324D01*
X-1099Y-318D01*
Y306D01*
X-1094Y310D01*
X-1089Y316D01*
X-1086Y323D01*
X-1085Y331D01*
X-1086Y339D01*
X-1089Y346D01*
X-1094Y352D01*
X-1100Y357D01*
X-1107Y360D01*
X-1115Y361D01*
X-1123Y360D01*
X-1130Y357D01*
X-1136Y352D01*
X-1141Y346D01*
X-1144Y339D01*
X-1145Y331D01*
X-1144Y323D01*
X-1141Y316D01*
X-1136Y310D01*
X-1131Y306D01*
Y-311D01*
X-1169Y-349D01*
X-1175Y-348D01*
X-1183Y-349D01*
X-1190Y-352D01*
X-1196Y-357D01*
X-1201Y-363D01*
X-1204Y-370D01*
X-1205Y-378D01*
X-1204Y-386D01*
X-1201Y-393D01*
X-1196Y-399D01*
X-1190Y-404D01*
X-1185Y-406D01*
X-1186Y-411D01*
X-1191Y-412D01*
X-1199Y-415D01*
X-1205Y-420D01*
X-1206Y-421D01*
X-1211Y-421D01*
X-1219Y-413D01*
Y-372D01*
X-1152Y-304D01*
X-1148Y-299D01*
X-1147Y-293D01*
Y123D01*
X-1148Y129D01*
X-1152Y134D01*
X-1257Y239D01*
X-1262Y243D01*
X-1268Y244D01*
X-1513D01*
X-1554Y285D01*
Y309D01*
X-1550Y310D01*
X-1542Y317D01*
X-1535Y325D01*
X-1534Y329D01*
X-1305D01*
X-1299Y330D01*
X-1294Y334D01*
X-1079Y549D01*
X-1075Y554D01*
X-1074Y560D01*
Y715D01*
X-1069Y719D01*
X-1064Y725D01*
X-1061Y732D01*
X-1060Y740D01*
X-1061Y748D01*
X-1064Y755D01*
X-1069Y761D01*
X-1075Y766D01*
X-1082Y769D01*
X-1090Y770D01*
X-1098Y769D01*
X-1105Y766D01*
X-1111Y761D01*
X-1116Y755D01*
X-1119Y748D01*
X-1120Y740D01*
X-1119Y732D01*
X-1116Y725D01*
X-1111Y719D01*
X-1106Y715D01*
Y567D01*
X-1312Y361D01*
X-1534D01*
X-1535Y365D01*
X-1542Y373D01*
X-1543Y374D01*
X-1541Y379D01*
X-1310D01*
X-1304Y380D01*
X-1299Y384D01*
X-1139Y544D01*
X-1135Y549D01*
X-1134Y555D01*
Y605D01*
X-1129Y609D01*
X-1124Y615D01*
X-1121Y622D01*
X-1120Y630D01*
X-1121Y638D01*
X-1124Y645D01*
X-1129Y651D01*
X-1135Y656D01*
X-1142Y659D01*
X-1150Y660D01*
X-1158Y659D01*
X-1165Y656D01*
X-1171Y651D01*
X-1176Y645D01*
X-1179Y638D01*
X-1180Y630D01*
X-1179Y622D01*
X-1176Y615D01*
X-1171Y609D01*
X-1166Y605D01*
Y562D01*
X-1317Y411D01*
X-1541D01*
X-1543Y416D01*
X-1542Y417D01*
X-1535Y425D01*
X-1534Y429D01*
X-1335D01*
X-1329Y430D01*
X-1324Y434D01*
X-1216Y541D01*
X-1210Y540D01*
X-1202Y541D01*
X-1195Y544D01*
X-1189Y549D01*
X-1184Y555D01*
X-1181Y562D01*
X-1180Y570D01*
X-1181Y578D01*
X-1184Y585D01*
X-1189Y591D01*
X-1195Y596D01*
X-1202Y599D01*
X-1210Y600D01*
X-1218Y599D01*
X-1225Y596D01*
X-1231Y591D01*
X-1236Y585D01*
X-1239Y578D01*
X-1240Y570D01*
X-1239Y564D01*
X-1342Y461D01*
X-1534D01*
X-1535Y465D01*
X-1542Y473D01*
X-1543Y474D01*
X-1541Y479D01*
X-1520D01*
X-1514Y480D01*
X-1509Y484D01*
X-1374Y619D01*
X-1370Y624D01*
X-1369Y630D01*
Y785D01*
X-1364Y789D01*
X-1359Y795D01*
X-1356Y802D01*
X-1355Y810D01*
X-1356Y818D01*
X-1359Y825D01*
X-1364Y831D01*
X-1370Y836D01*
X-1377Y839D01*
X-1385Y840D01*
D02*
G37*
G36*
X745Y206D02*
X739Y205D01*
X729Y201D01*
X721Y194D01*
X714Y186D01*
X710Y176D01*
X709Y170D01*
X745D01*
Y206D01*
D02*
G37*
G36*
X791Y160D02*
X755D01*
Y124D01*
X761Y125D01*
X771Y129D01*
X779Y136D01*
X786Y144D01*
X790Y154D01*
X791Y160D01*
D02*
G37*
G36*
X745D02*
X709D01*
X710Y154D01*
X714Y144D01*
X721Y136D01*
X729Y129D01*
X739Y125D01*
X745Y124D01*
Y160D01*
D02*
G37*
G36*
X755Y206D02*
Y170D01*
X791D01*
X790Y176D01*
X786Y186D01*
X779Y194D01*
X771Y201D01*
X761Y205D01*
X755Y206D01*
D02*
G37*
G36*
X493Y1039D02*
X485Y1038D01*
X478Y1035D01*
X472Y1030D01*
X467Y1024D01*
X464Y1017D01*
X463Y1009D01*
X464Y1001D01*
X467Y994D01*
X472Y988D01*
X477Y984D01*
Y466D01*
X472Y462D01*
X467Y456D01*
X464Y449D01*
X463Y441D01*
X464Y433D01*
X467Y426D01*
X472Y420D01*
X478Y415D01*
X485Y412D01*
X493Y411D01*
X501Y412D01*
X508Y415D01*
X514Y420D01*
X519Y426D01*
X522Y433D01*
X523Y441D01*
X522Y449D01*
X519Y456D01*
X514Y462D01*
X509Y466D01*
Y984D01*
X514Y988D01*
X519Y994D01*
X522Y1001D01*
X523Y1009D01*
X522Y1017D01*
X519Y1024D01*
X514Y1030D01*
X508Y1035D01*
X501Y1038D01*
X493Y1039D01*
D02*
G37*
G36*
X1745Y395D02*
X1737Y394D01*
X1730Y391D01*
X1725Y387D01*
X1086D01*
X1085Y388D01*
X1078Y391D01*
X1070Y392D01*
X1062Y391D01*
X1055Y388D01*
X1049Y383D01*
X1044Y377D01*
X1041Y370D01*
X1040Y362D01*
X1041Y354D01*
X1044Y347D01*
X1049Y341D01*
X1055Y336D01*
X1062Y333D01*
X1070Y332D01*
X1078Y333D01*
X1085Y336D01*
X1091Y341D01*
X1093Y343D01*
X1725D01*
X1730Y339D01*
X1737Y336D01*
X1745Y335D01*
X1753Y336D01*
X1760Y339D01*
X1766Y344D01*
X1771Y350D01*
X1774Y357D01*
X1775Y365D01*
X1774Y373D01*
X1771Y380D01*
X1766Y386D01*
X1760Y391D01*
X1753Y394D01*
X1745Y395D01*
D02*
G37*
G36*
X585Y437D02*
X575Y436D01*
X566Y432D01*
X558Y426D01*
X552Y418D01*
X548Y409D01*
X547Y399D01*
X548Y389D01*
X552Y380D01*
X558Y372D01*
X566Y366D01*
X575Y362D01*
X585Y361D01*
X595Y362D01*
X604Y366D01*
X612Y372D01*
X618Y380D01*
X622Y389D01*
X623Y399D01*
X622Y409D01*
X618Y418D01*
X612Y426D01*
X604Y432D01*
X595Y436D01*
X585Y437D01*
D02*
G37*
G36*
X-1283Y990D02*
X-1315D01*
Y958D01*
X-1310Y958D01*
X-1301Y962D01*
X-1293Y968D01*
X-1287Y976D01*
X-1283Y985D01*
X-1283Y990D01*
D02*
G37*
G36*
X-1325D02*
X-1357D01*
X-1357Y985D01*
X-1353Y976D01*
X-1347Y968D01*
X-1339Y962D01*
X-1330Y958D01*
X-1325Y958D01*
Y990D01*
D02*
G37*
G36*
X1655Y800D02*
X1645Y799D01*
X1635Y795D01*
X1627Y788D01*
X1620Y780D01*
X1616Y770D01*
X1615Y760D01*
X1616Y750D01*
X1620Y740D01*
X1627Y732D01*
X1635Y725D01*
X1645Y721D01*
X1655Y720D01*
X1665Y721D01*
X1675Y725D01*
X1683Y732D01*
X1690Y740D01*
X1694Y750D01*
X1695Y760D01*
X1694Y770D01*
X1690Y780D01*
X1683Y788D01*
X1675Y795D01*
X1665Y799D01*
X1655Y800D01*
D02*
G37*
G36*
X-1325Y1032D02*
X-1330Y1032D01*
X-1339Y1028D01*
X-1347Y1022D01*
X-1353Y1014D01*
X-1357Y1005D01*
X-1357Y1000D01*
X-1325D01*
Y1032D01*
D02*
G37*
G36*
X1080Y1130D02*
X1070Y1129D01*
X1060Y1125D01*
X1052Y1118D01*
X1045Y1110D01*
X1041Y1100D01*
X1040Y1090D01*
X1041Y1080D01*
X1045Y1070D01*
X1052Y1062D01*
X1060Y1055D01*
X1070Y1051D01*
X1080Y1050D01*
X1090Y1051D01*
X1100Y1055D01*
X1108Y1062D01*
X1115Y1070D01*
X1119Y1080D01*
X1120Y1090D01*
X1119Y1100D01*
X1115Y1110D01*
X1108Y1118D01*
X1100Y1125D01*
X1090Y1129D01*
X1080Y1130D01*
D02*
G37*
G36*
X780D02*
X770Y1129D01*
X760Y1125D01*
X752Y1118D01*
X745Y1110D01*
X741Y1100D01*
X740Y1090D01*
X741Y1080D01*
X745Y1070D01*
X752Y1062D01*
X760Y1055D01*
X770Y1051D01*
X780Y1050D01*
X790Y1051D01*
X800Y1055D01*
X808Y1062D01*
X815Y1070D01*
X819Y1080D01*
X820Y1090D01*
X819Y1100D01*
X815Y1110D01*
X808Y1118D01*
X800Y1125D01*
X790Y1129D01*
X780Y1130D01*
D02*
G37*
G36*
X-1315Y1032D02*
Y1000D01*
X-1283D01*
X-1283Y1005D01*
X-1287Y1014D01*
X-1293Y1022D01*
X-1301Y1028D01*
X-1310Y1032D01*
X-1315Y1032D01*
D02*
G37*
G36*
X-1570Y685D02*
X-1580Y684D01*
X-1590Y680D01*
X-1598Y673D01*
X-1605Y665D01*
X-1609Y655D01*
X-1610Y645D01*
X-1609Y635D01*
X-1605Y625D01*
X-1598Y617D01*
X-1590Y610D01*
X-1580Y606D01*
X-1570Y605D01*
X-1560Y606D01*
X-1550Y610D01*
X-1542Y617D01*
X-1535Y625D01*
X-1531Y635D01*
X-1530Y645D01*
X-1531Y655D01*
X-1535Y665D01*
X-1542Y673D01*
X-1550Y680D01*
X-1560Y684D01*
X-1570Y685D01*
D02*
G37*
G36*
X-1670D02*
X-1680Y684D01*
X-1690Y680D01*
X-1698Y673D01*
X-1705Y665D01*
X-1709Y655D01*
X-1710Y645D01*
X-1709Y635D01*
X-1705Y625D01*
X-1698Y617D01*
X-1690Y610D01*
X-1680Y606D01*
X-1670Y605D01*
X-1660Y606D01*
X-1650Y610D01*
X-1642Y617D01*
X-1635Y625D01*
X-1631Y635D01*
X-1630Y645D01*
X-1631Y655D01*
X-1635Y665D01*
X-1642Y673D01*
X-1650Y680D01*
X-1660Y684D01*
X-1670Y685D01*
D02*
G37*
G36*
X-1665Y584D02*
Y550D01*
X-1631D01*
X-1631Y555D01*
X-1635Y565D01*
X-1642Y573D01*
X-1650Y580D01*
X-1660Y584D01*
X-1665Y584D01*
D02*
G37*
G36*
X1655Y700D02*
X1645Y699D01*
X1635Y695D01*
X1627Y688D01*
X1620Y680D01*
X1616Y670D01*
X1615Y660D01*
X1616Y650D01*
X1620Y640D01*
X1627Y632D01*
X1635Y625D01*
X1645Y621D01*
X1655Y620D01*
X1665Y621D01*
X1675Y625D01*
X1683Y632D01*
X1690Y640D01*
X1694Y650D01*
X1695Y660D01*
X1694Y670D01*
X1690Y680D01*
X1683Y688D01*
X1675Y695D01*
X1665Y699D01*
X1655Y700D01*
D02*
G37*
G36*
X-1630Y785D02*
X-1710D01*
Y705D01*
X-1630D01*
Y785D01*
D02*
G37*
G36*
X-1570Y785D02*
X-1580Y784D01*
X-1590Y780D01*
X-1598Y773D01*
X-1605Y765D01*
X-1609Y755D01*
X-1610Y745D01*
X-1609Y735D01*
X-1605Y725D01*
X-1598Y717D01*
X-1590Y710D01*
X-1580Y706D01*
X-1570Y705D01*
X-1560Y706D01*
X-1550Y710D01*
X-1542Y717D01*
X-1535Y725D01*
X-1531Y735D01*
X-1530Y745D01*
X-1531Y755D01*
X-1535Y765D01*
X-1542Y773D01*
X-1550Y780D01*
X-1560Y784D01*
X-1570Y785D01*
D02*
G37*
G36*
X-295Y723D02*
X-305Y722D01*
X-314Y718D01*
X-322Y712D01*
X-328Y704D01*
X-332Y695D01*
X-333Y685D01*
X-332Y675D01*
X-328Y666D01*
X-322Y658D01*
X-314Y652D01*
X-305Y648D01*
X-295Y647D01*
X-285Y648D01*
X-282Y650D01*
X-260Y627D01*
Y349D01*
X-500Y110D01*
X-503Y105D01*
X-504Y98D01*
Y-694D01*
X-505Y-694D01*
X-511Y-699D01*
X-516Y-705D01*
X-519Y-712D01*
X-520Y-720D01*
X-519Y-728D01*
X-516Y-735D01*
X-511Y-741D01*
X-505Y-746D01*
X-498Y-749D01*
X-490Y-750D01*
X-482Y-749D01*
X-475Y-746D01*
X-469Y-741D01*
X-464Y-735D01*
X-461Y-728D01*
X-460Y-720D01*
X-461Y-712D01*
X-464Y-705D01*
X-469Y-699D01*
X-472Y-696D01*
Y92D01*
X-233Y331D01*
X-229Y336D01*
X-228Y343D01*
Y634D01*
X-229Y640D01*
X-233Y646D01*
X-251Y664D01*
X-249Y669D01*
X-34D01*
X-23Y658D01*
X-18Y654D01*
X-12Y653D01*
X90D01*
X91Y651D01*
X88Y646D01*
X-73D01*
X-77Y651D01*
X-83Y656D01*
X-91Y659D01*
X-98Y660D01*
X-106Y659D01*
X-113Y656D01*
X-120Y651D01*
X-124Y645D01*
X-127Y638D01*
X-128Y630D01*
X-127Y622D01*
X-124Y615D01*
X-120Y609D01*
X-113Y604D01*
X-106Y601D01*
X-98Y600D01*
X-91Y601D01*
X-83Y604D01*
X-77Y609D01*
X-73Y614D01*
X173D01*
X179Y615D01*
X185Y618D01*
X212Y646D01*
X216Y651D01*
X217Y657D01*
Y664D01*
X222Y668D01*
X227Y674D01*
X230Y681D01*
X231Y689D01*
X230Y697D01*
X227Y704D01*
X222Y710D01*
X216Y715D01*
X209Y718D01*
X201Y719D01*
X193Y718D01*
X186Y715D01*
X180Y710D01*
X175Y704D01*
X172Y697D01*
X171Y689D01*
X172Y681D01*
X175Y674D01*
X180Y668D01*
X181Y666D01*
X182Y661D01*
X167Y646D01*
X144D01*
X142Y651D01*
X144Y654D01*
X147Y662D01*
X148Y669D01*
X147Y677D01*
X144Y684D01*
X139Y690D01*
X133Y695D01*
X126Y698D01*
X118Y699D01*
X110Y698D01*
X103Y695D01*
X97Y690D01*
X93Y686D01*
X-5D01*
X-16Y696D01*
X-21Y700D01*
X-28Y701D01*
X-261D01*
X-262Y704D01*
X-268Y712D01*
X-276Y718D01*
X-285Y722D01*
X-295Y723D01*
D02*
G37*
%LPD*%
D24*
X-435Y50D02*
X-350Y135D01*
X-435Y-400D02*
Y50D01*
Y290D02*
Y1199D01*
X-1159Y1209D02*
X498D01*
X-1181Y1231D02*
X-1159Y1209D01*
X519Y1230D02*
Y1280D01*
X498Y1209D02*
X519Y1230D01*
X-1181Y1231D02*
Y1280D01*
D25*
X-1311Y-171D02*
X-1305Y-165D01*
X-1341Y-171D02*
X-1311D01*
X-1450Y-280D02*
X-1341Y-171D01*
X-1450Y-321D02*
Y-280D01*
X-1650Y-470D02*
X-1599D01*
X-1450Y-321D01*
D26*
X-488Y-718D02*
Y98D01*
X-244Y343D02*
Y634D01*
X-488Y98D02*
X-244Y343D01*
X-20Y820D02*
X190D01*
X-83Y867D02*
X205Y1155D01*
X-83Y815D02*
Y867D01*
X173Y630D02*
X201Y657D01*
X-98Y630D02*
X173D01*
X-295Y685D02*
X-28D01*
X-12Y669D02*
X118D01*
X-28Y685D02*
X-12Y669D01*
X201Y657D02*
Y689D01*
X-295Y685D02*
X-244Y634D01*
X-1163Y-293D02*
Y123D01*
X-1235Y-365D02*
X-1163Y-293D01*
X-1235Y-420D02*
Y-365D01*
X-1214Y-441D02*
X-1184D01*
X-1235Y-420D02*
X-1214Y-441D01*
X-874Y-328D02*
Y544D01*
X-934Y-388D02*
X-874Y-328D01*
X-1115Y-318D02*
Y331D01*
X-1175Y-378D02*
X-1115Y-318D01*
X-1207Y-288D02*
Y108D01*
X-1284Y-365D02*
X-1207Y-288D01*
X-1284Y-488D02*
Y-365D01*
X-1184Y-441D02*
X-883D01*
X-1284Y-488D02*
X-984D01*
X71Y87D02*
X78D01*
X90Y100D01*
X-1305Y70D02*
X-1260Y25D01*
X-1420Y70D02*
X-1305D01*
X-1560Y-70D02*
X-1420Y70D01*
X-1260Y-210D02*
Y25D01*
X-1275Y-225D02*
X-1260Y-210D01*
X-1305Y-225D02*
X-1275D01*
X-1520Y228D02*
X-1268D01*
X-1570Y278D02*
X-1520Y228D01*
X-1570Y278D02*
Y345D01*
X-1268Y228D02*
X-1163Y123D01*
X-1272Y173D02*
X-1207Y108D01*
X205Y1155D02*
X240D01*
X-1090Y560D02*
Y740D01*
X-1385Y630D02*
Y810D01*
X-1520Y495D02*
X-1385Y630D01*
X-1335Y445D02*
X-1210Y570D01*
X-1570Y445D02*
X-1335D01*
X-1305Y345D02*
X-1090Y560D01*
X-1150Y555D02*
Y630D01*
X-1310Y395D02*
X-1150Y555D01*
X-1620Y395D02*
X-1310D01*
X-1570Y345D02*
X-1305D01*
X-1360Y-50D02*
X-1305D01*
X-1580Y-270D02*
X-1360Y-50D01*
X-1650Y-270D02*
X-1580D01*
X-1345Y-110D02*
X-1305D01*
X-1605Y-370D02*
X-1345Y-110D01*
X-1650Y-370D02*
X-1605D01*
X-1400Y10D02*
X-1305D01*
X-1580Y-170D02*
X-1400Y10D01*
X-1650Y-170D02*
X-1580D01*
X-1650Y-70D02*
X-1560D01*
X-875Y545D02*
X-874Y544D01*
X-110Y-90D02*
X365D01*
X415Y-40D01*
X90Y100D02*
X130Y60D01*
Y-21D02*
Y60D01*
X115Y-35D02*
X130Y-21D01*
X77Y-35D02*
X115D01*
X-123Y-77D02*
X-110Y-90D01*
X-123Y-77D02*
Y-35D01*
X-1670Y445D02*
X-1620Y495D01*
X-1520D01*
X-1670Y345D02*
X-1620Y395D01*
X-1670Y274D02*
Y345D01*
Y274D02*
X-1569Y173D01*
X-1272D01*
X493Y441D02*
Y1009D01*
D29*
X1074Y365D02*
X1745D01*
X1071Y362D02*
X1074Y365D01*
D34*
X495Y-1280D02*
D03*
X85D02*
D03*
X495Y-560D02*
D03*
X85D02*
D03*
X185D02*
D03*
X595D02*
D03*
X185Y-1280D02*
D03*
X595D02*
D03*
X-1570Y745D02*
D03*
X-1670Y645D02*
D03*
X-1570D02*
D03*
X-1670Y545D02*
D03*
X-1570D02*
D03*
X-1670Y445D02*
D03*
X-1570D02*
D03*
Y345D02*
D03*
X-1670D02*
D03*
X-1650Y-170D02*
D03*
Y-270D02*
D03*
Y-370D02*
D03*
Y-470D02*
D03*
Y-570D02*
D03*
X1655Y560D02*
D03*
Y660D02*
D03*
Y760D02*
D03*
X780Y1090D02*
D03*
X1080D02*
D03*
D35*
X-295Y685D02*
D03*
X585Y399D02*
D03*
X-745Y-415D02*
D03*
X-1320Y995D02*
D03*
D36*
X-1670Y745D02*
D03*
X-1650Y-70D02*
D03*
X1655Y460D02*
D03*
D37*
X-644Y548D02*
D03*
X-1732Y-1280D02*
D03*
X1732D02*
D03*
Y1280D02*
D03*
X-1732D02*
D03*
D38*
X-680D02*
D03*
X520D02*
D03*
X420D02*
D03*
X320D02*
D03*
X220D02*
D03*
X120D02*
D03*
X20D02*
D03*
X-80D02*
D03*
X-180D02*
D03*
X-280D02*
D03*
X-380D02*
D03*
X-480D02*
D03*
X-580D02*
D03*
X-780D02*
D03*
X-880D02*
D03*
X-980D02*
D03*
X-1080D02*
D03*
X-1180D02*
D03*
X-1280D02*
D03*
D39*
X619D02*
D03*
D40*
X750Y-250D02*
D03*
X950D02*
D03*
X750Y165D02*
D03*
X950D02*
D03*
D41*
X-123Y-35D02*
D03*
Y15D02*
D03*
X-73Y-35D02*
D03*
X-23D02*
D03*
Y15D02*
D03*
X27Y-35D02*
D03*
Y15D02*
D03*
X77Y-35D02*
D03*
X-490Y-720D02*
D03*
X-220Y-470D02*
D03*
X-83Y815D02*
D03*
X-20Y820D02*
D03*
X201Y689D02*
D03*
X-98Y630D02*
D03*
X-319Y575D02*
D03*
X118Y669D02*
D03*
X1745Y365D02*
D03*
X-515Y575D02*
D03*
X-200Y1000D02*
D03*
X-555Y730D02*
D03*
X-205D02*
D03*
X71Y87D02*
D03*
X1070Y362D02*
D03*
X-1175Y-378D02*
D03*
X-300Y1000D02*
D03*
X-550D02*
D03*
X-800D02*
D03*
X366Y961D02*
D03*
X216D02*
D03*
X110Y990D02*
D03*
X190Y820D02*
D03*
X820Y-245D02*
D03*
X815Y165D02*
D03*
X750Y-175D02*
D03*
X685Y-245D02*
D03*
X750Y-320D02*
D03*
X-550Y80D02*
D03*
X-295D02*
D03*
Y-70D02*
D03*
X-435Y-400D02*
D03*
X-350Y135D02*
D03*
X-1090Y740D02*
D03*
X-1385Y810D02*
D03*
X-1210Y570D02*
D03*
X-1150Y630D02*
D03*
X-875Y545D02*
D03*
X-815Y-1315D02*
D03*
X-1015D02*
D03*
X-1215D02*
D03*
X-1415D02*
D03*
X-790Y-1054D02*
D03*
X-946Y-1055D02*
D03*
X-1114Y-1054D02*
D03*
X-1273Y-1055D02*
D03*
X-1445Y-1054D02*
D03*
X-1110Y-815D02*
D03*
X440Y35D02*
D03*
Y195D02*
D03*
X205Y-45D02*
D03*
Y15D02*
D03*
X-781Y80D02*
D03*
X-1056D02*
D03*
X-551Y-70D02*
D03*
X-781D02*
D03*
X-1056D02*
D03*
X-360Y295D02*
D03*
X240Y1155D02*
D03*
X415Y-40D02*
D03*
X-934Y-388D02*
D03*
X-1284Y-488D02*
D03*
X-984D02*
D03*
X-1115Y331D02*
D03*
X-1049Y465D02*
D03*
X-1305Y-50D02*
D03*
Y10D02*
D03*
Y-110D02*
D03*
Y-170D02*
D03*
Y-230D02*
D03*
X-1298Y708D02*
D03*
X371Y-1081D02*
D03*
X171Y-1083D02*
D03*
Y-983D02*
D03*
Y-883D02*
D03*
Y-1183D02*
D03*
X271Y-1283D02*
D03*
X371D02*
D03*
X571Y-1183D02*
D03*
Y-1083D02*
D03*
Y-983D02*
D03*
Y-883D02*
D03*
X471D02*
D03*
X371D02*
D03*
X271D02*
D03*
Y-983D02*
D03*
Y-1083D02*
D03*
Y-1183D02*
D03*
X471D02*
D03*
Y-1083D02*
D03*
Y-983D02*
D03*
X371D02*
D03*
Y-1183D02*
D03*
X750Y90D02*
D03*
X630Y-695D02*
D03*
X-296Y218D02*
D03*
X-135Y185D02*
D03*
X-550Y220D02*
D03*
X-360Y370D02*
D03*
X-1550Y1000D02*
D03*
X-1050D02*
D03*
X700D02*
D03*
X950D02*
D03*
X1200D02*
D03*
X1450D02*
D03*
X1700D02*
D03*
X950Y325D02*
D03*
X685Y165D02*
D03*
X-1305Y-315D02*
D03*
X-1050Y-355D02*
D03*
X-800Y-320D02*
D03*
X-300D02*
D03*
X-1675Y-795D02*
D03*
Y-1025D02*
D03*
X1725Y-750D02*
D03*
Y-1000D02*
D03*
X110Y-685D02*
D03*
X160Y-320D02*
D03*
X-80D02*
D03*
X750Y235D02*
D03*
X-350Y-470D02*
D03*
X-435Y290D02*
D03*
X493Y1009D02*
D03*
X-790Y-815D02*
D03*
X-1440D02*
D03*
X-768Y484D02*
D03*
X-883Y-441D02*
D03*
X-1184D02*
D03*
X207Y533D02*
D03*
X493Y441D02*
D03*
X360Y-320D02*
D03*
X560D02*
D03*
X-780Y220D02*
D03*
D42*
X77Y15D02*
D03*
D43*
X-810Y-1180D02*
D03*
X-1010D02*
D03*
X-1210D02*
D03*
X1630Y120D02*
D03*
Y-80D02*
D03*
Y-280D02*
D03*
X995Y-1180D02*
D03*
X1195D02*
D03*
X1395D02*
D03*
X-115D02*
D03*
D44*
X-1410D02*
D03*
X795D02*
D03*
X-315D02*
D03*
D45*
X1630Y-480D02*
D03*
M02*
