M48
;Layer_Color=9474304
;FILE_FORMAT=2:4
INCH
;TYPE=PLATED
T1F00S00C0.0197
T2F00S00C0.0236
T3F00S00C0.0276
T4F00S00C0.0280
T5F00S00C0.0354
T6F00S00C0.0394
T7F00S00C0.0591
T8F00S00C0.1220
T9F00S00C0.1575
%
T01
X-014150Y-013150
X-012150
X-010150
X-008150
X-007900Y-010544
X-009458Y-010551
X-011140Y-010544
X-012726Y-010551
X-014450Y-010544
X-014400Y-008000
X-016750Y-007950
Y-010250
X-011100Y-008000
X-007900
X-008828Y-004408
X-009336Y-003877
X-010500Y-003550
X-011750Y-003780
X-011836Y-004408
X-012836Y-004877
X-013050Y-003150
Y-002300
Y-001700
Y-001100
X-010700Y-000800
X-009836Y-004877
X-003600Y-004400
X-002300
X-003000Y-003200
X-000800
X001600
X003600
X005600
X006850Y-003280
X007500Y-002580
X008200Y-003280
X007500Y-004030
X006300Y-006950
X005713Y-008827
X004713
Y-009827
X003713
Y-010810
Y-011827
X004713
Y-010827
X005713
Y-009827
Y-011827
X002713
Y-010827
Y-009827
Y-008827
X003713
X001713
Y-009827
Y-010827
Y-011827
X002713Y-012827
X003713
X001100Y-006850
X-004790Y-007340
X017250Y-007500
Y-010000
X017500Y003250
X009750
X015100Y008750
X008750Y010550
X005723Y009867
X003193Y011327
X001893Y009677
X002700Y007950
X002008Y006890
X001181Y006693
X000203Y007750
X-000984Y006299
X-002150Y007250
X-003189Y005748
X-005150Y005750
X-005100Y002250
X-002960Y002180
X-003500Y001350
X-002950Y000800
Y-000700
X-005510
X-003600Y003700
X-001570Y002150
X-000770Y001030
X000420Y000850
X000920
X001880Y001390
X001480Y-000520
X004200Y-000400
X004400Y000350
Y001950
X004930Y004410
X004000Y004600
X007500Y001520
X006850Y000820
X008150
X007500Y000070
X-001000Y010450
X-003000
X-005500
X-008000
X-010500
X-011500Y007400
Y006300
X-012100Y005700
X-012980Y007080
X-013850Y008100
X-015500Y010000
X-016050Y001600
X-013300Y001650
X-013050Y000100
Y-000500
X-010700Y001900
X-011150Y003310
X-010950Y004050
X-010200Y004750
X-007677Y004843
X-006750Y002750
Y001500
X-007810Y-000700
X-006450Y007200
T02
X-001227Y-000355
X-000727
X-000227
X000273
X000773
Y000145
X000273
X-000227
X-001227
T03
X-002934Y-008950
X-000966
T04
X007500Y-003330
X009500
Y000820
X007500
T05
X-016500Y-005700
Y-004700
Y-003700
Y-002700
Y-001700
X-007450Y-003900
X-004350
X000300
X000780Y-005600
X001780
X004880
X005880
Y-012800
X004880
X001780
X000780
X016550Y004600
Y005600
Y006600
Y007600
X005850Y003990
X006189Y012795
X005205
X004205
X003205
X002205
X001205
X000205
X-000795
X-001795
X-002795
X-003795
X-004795
X-005795
X-002950Y006850
X-000827Y008150
X-009250Y008250
Y007150
X-008795Y012795
X-009795
X-010795
X-011795
X-012795
X-013200Y009950
X-015700Y007450
Y006450
Y005450
Y004450
Y003450
X-016700
Y004450
Y005450
Y006450
Y007450
X-016500Y-000700
X-007795Y012795
X-006795
T06
X-007039Y-000661
X-009161Y001461
T07
X-014100Y-011800
X-012100
X-010100
X-008100
X-003350
X-001350
X007950
X009950
X011950
X013950
X016300Y-004800
Y-002800
Y-000800
Y001200
T08
X-017323Y-012795
X017323
Y012795
X-017323
T09
X-006439Y005482
M30
