G04 Layer_Color=8388736*
%FSLAX23Y23*%
%MOIN*%
G70*
G01*
G75*
%ADD54R,0.067X0.059*%
%ADD55R,0.059X0.067*%
%ADD56R,0.055X0.039*%
%ADD57R,0.055X0.079*%
%ADD58R,0.055X0.055*%
%ADD59R,0.055X0.068*%
%ADD60R,0.039X0.055*%
%ADD61O,0.032X0.083*%
%ADD62O,0.091X0.020*%
%ADD63O,0.020X0.091*%
%ADD64R,0.236X0.252*%
%ADD65R,0.071X0.126*%
%ADD66O,0.095X0.032*%
%ADD67O,0.032X0.095*%
%ADD68C,0.067*%
%ADD69C,0.063*%
%ADD70R,0.067X0.067*%
%ADD71C,0.126*%
%ADD72O,0.059X0.071*%
%ADD73R,0.059X0.071*%
%ADD74C,0.070*%
%ADD75C,0.047*%
%ADD76R,0.047X0.047*%
%ADD77C,0.108*%
%ADD78R,0.108X0.108*%
%ADD79R,0.108X0.108*%
D54*
X-490Y-583D02*
D03*
Y-657D02*
D03*
X-400Y-857D02*
D03*
Y-783D02*
D03*
X515Y818D02*
D03*
Y892D02*
D03*
X1330Y-707D02*
D03*
Y-633D02*
D03*
X920Y-707D02*
D03*
Y-633D02*
D03*
X-1109Y-665D02*
D03*
Y-740D02*
D03*
X-1400Y-663D02*
D03*
Y-737D02*
D03*
X181Y-767D02*
D03*
Y-693D02*
D03*
X561Y-770D02*
D03*
Y-695D02*
D03*
X-490Y-783D02*
D03*
Y-857D02*
D03*
D55*
X-222Y-902D02*
D03*
X-148D02*
D03*
X293Y-40D02*
D03*
X367D02*
D03*
X1487Y350D02*
D03*
X1413D02*
D03*
X-293Y370D02*
D03*
X-218D02*
D03*
X-1672Y925D02*
D03*
X-1598D02*
D03*
X-293Y295D02*
D03*
X-218D02*
D03*
X202Y100D02*
D03*
X128D02*
D03*
X-238Y571D02*
D03*
X-163D02*
D03*
X1487Y486D02*
D03*
X1413D02*
D03*
X-1443Y-555D02*
D03*
X-1517D02*
D03*
X-1515Y-55D02*
D03*
X-1440D02*
D03*
X-1515Y-155D02*
D03*
X-1440D02*
D03*
X-1515Y-255D02*
D03*
X-1440D02*
D03*
X-1515Y-355D02*
D03*
X-1440D02*
D03*
X-1515Y-455D02*
D03*
X-1440D02*
D03*
X-921Y-848D02*
D03*
X-996D02*
D03*
X-1221D02*
D03*
X-1296D02*
D03*
X1487Y686D02*
D03*
X1413D02*
D03*
X-607Y316D02*
D03*
X-533D02*
D03*
X-607Y401D02*
D03*
X-533D02*
D03*
D56*
X-385Y685D02*
D03*
X-475Y648D02*
D03*
Y722D02*
D03*
D57*
X381Y214D02*
D03*
X294D02*
D03*
Y65D02*
D03*
X381D02*
D03*
D58*
X920Y-881D02*
D03*
Y-799D02*
D03*
X1330D02*
D03*
Y-881D02*
D03*
D59*
X-283Y-469D02*
D03*
X-87D02*
D03*
Y-814D02*
D03*
X-283D02*
D03*
D60*
X-435Y225D02*
D03*
X-398Y135D02*
D03*
X-472D02*
D03*
D61*
X-1184Y-560D02*
D03*
X-1234D02*
D03*
X-1284D02*
D03*
X-1334D02*
D03*
X-1184Y-745D02*
D03*
X-1234D02*
D03*
X-1284D02*
D03*
X-1334D02*
D03*
X-1034D02*
D03*
X-984D02*
D03*
X-934D02*
D03*
X-884D02*
D03*
X-1034Y-560D02*
D03*
X-984D02*
D03*
X-934D02*
D03*
X-884D02*
D03*
D62*
X-119Y478D02*
D03*
Y458D02*
D03*
Y438D02*
D03*
Y419D02*
D03*
Y399D02*
D03*
Y379D02*
D03*
Y360D02*
D03*
Y340D02*
D03*
Y320D02*
D03*
Y301D02*
D03*
Y281D02*
D03*
Y261D02*
D03*
X204D02*
D03*
Y281D02*
D03*
Y301D02*
D03*
Y320D02*
D03*
Y340D02*
D03*
Y360D02*
D03*
Y379D02*
D03*
Y399D02*
D03*
Y419D02*
D03*
Y438D02*
D03*
Y458D02*
D03*
Y478D02*
D03*
D63*
X-66Y208D02*
D03*
X-46D02*
D03*
X-27D02*
D03*
X-7D02*
D03*
X13D02*
D03*
X32D02*
D03*
X52D02*
D03*
X72D02*
D03*
X92D02*
D03*
X111D02*
D03*
X131D02*
D03*
X151D02*
D03*
Y531D02*
D03*
X131D02*
D03*
X111D02*
D03*
X92D02*
D03*
X72D02*
D03*
X52D02*
D03*
X32D02*
D03*
X13D02*
D03*
X-7D02*
D03*
X-27D02*
D03*
X-46D02*
D03*
X-66D02*
D03*
D64*
X366Y-1076D02*
D03*
D65*
X461Y-789D02*
D03*
X281D02*
D03*
D66*
X821Y760D02*
D03*
Y710D02*
D03*
Y660D02*
D03*
Y610D02*
D03*
Y560D02*
D03*
Y510D02*
D03*
Y460D02*
D03*
Y410D02*
D03*
X1009Y760D02*
D03*
Y710D02*
D03*
Y660D02*
D03*
Y610D02*
D03*
Y560D02*
D03*
Y510D02*
D03*
Y460D02*
D03*
Y410D02*
D03*
D67*
X90Y891D02*
D03*
X140D02*
D03*
X190D02*
D03*
X240D02*
D03*
X290D02*
D03*
X340D02*
D03*
X390D02*
D03*
X440D02*
D03*
X90Y1079D02*
D03*
X140D02*
D03*
X190D02*
D03*
X240D02*
D03*
X290D02*
D03*
X340D02*
D03*
X390D02*
D03*
X440D02*
D03*
D68*
X495Y-1280D02*
D03*
X85D02*
D03*
X495Y-560D02*
D03*
X85D02*
D03*
X185D02*
D03*
X595D02*
D03*
X185Y-1280D02*
D03*
X595D02*
D03*
X-1570Y745D02*
D03*
X-1670Y645D02*
D03*
X-1570D02*
D03*
X-1670Y545D02*
D03*
X-1570D02*
D03*
X-1670Y445D02*
D03*
X-1570D02*
D03*
Y345D02*
D03*
X-1670D02*
D03*
X-1650Y-170D02*
D03*
Y-270D02*
D03*
Y-370D02*
D03*
Y-470D02*
D03*
Y-570D02*
D03*
X1655Y560D02*
D03*
Y660D02*
D03*
Y760D02*
D03*
X780Y1090D02*
D03*
X1080D02*
D03*
D69*
X-295Y685D02*
D03*
X585Y399D02*
D03*
X-745Y-415D02*
D03*
X-1320Y995D02*
D03*
D70*
X-1670Y745D02*
D03*
X-1650Y-70D02*
D03*
X1655Y460D02*
D03*
D71*
X-644Y548D02*
D03*
X-1732Y-1280D02*
D03*
X1732D02*
D03*
Y1280D02*
D03*
X-1732D02*
D03*
D72*
X-680D02*
D03*
X520D02*
D03*
X420D02*
D03*
X320D02*
D03*
X220D02*
D03*
X120D02*
D03*
X20D02*
D03*
X-80D02*
D03*
X-180D02*
D03*
X-280D02*
D03*
X-380D02*
D03*
X-480D02*
D03*
X-580D02*
D03*
X-780D02*
D03*
X-880D02*
D03*
X-980D02*
D03*
X-1080D02*
D03*
X-1180D02*
D03*
X-1280D02*
D03*
D73*
X619D02*
D03*
D74*
X750Y-250D02*
D03*
X950D02*
D03*
X750Y165D02*
D03*
X950D02*
D03*
D75*
X-123Y-35D02*
D03*
Y15D02*
D03*
X-73Y-35D02*
D03*
X-23D02*
D03*
Y15D02*
D03*
X27Y-35D02*
D03*
Y15D02*
D03*
X77Y-35D02*
D03*
D76*
Y15D02*
D03*
D77*
X-810Y-1180D02*
D03*
X-1010D02*
D03*
X-1210D02*
D03*
X1630Y120D02*
D03*
Y-80D02*
D03*
Y-280D02*
D03*
X995Y-1180D02*
D03*
X1195D02*
D03*
X1395D02*
D03*
X-115D02*
D03*
D78*
X-1410D02*
D03*
X795D02*
D03*
X-315D02*
D03*
D79*
X1630Y-480D02*
D03*
M02*
