G04 Layer_Color=16711935*
%FSLAX23Y23*%
%MOIN*%
G70*
G01*
G75*
%ADD68C,0.067*%
%ADD69C,0.063*%
%ADD70R,0.067X0.067*%
%ADD71C,0.126*%
%ADD72O,0.059X0.071*%
%ADD73R,0.059X0.071*%
%ADD74C,0.070*%
%ADD75C,0.047*%
%ADD76R,0.047X0.047*%
%ADD77C,0.108*%
%ADD78R,0.108X0.108*%
%ADD79R,0.108X0.108*%
D68*
X495Y-1280D02*
D03*
X85D02*
D03*
X495Y-560D02*
D03*
X85D02*
D03*
X185D02*
D03*
X595D02*
D03*
X185Y-1280D02*
D03*
X595D02*
D03*
X-1570Y745D02*
D03*
X-1670Y645D02*
D03*
X-1570D02*
D03*
X-1670Y545D02*
D03*
X-1570D02*
D03*
X-1670Y445D02*
D03*
X-1570D02*
D03*
Y345D02*
D03*
X-1670D02*
D03*
X-1650Y-170D02*
D03*
Y-270D02*
D03*
Y-370D02*
D03*
Y-470D02*
D03*
Y-570D02*
D03*
X1655Y560D02*
D03*
Y660D02*
D03*
Y760D02*
D03*
X780Y1090D02*
D03*
X1080D02*
D03*
D69*
X-295Y685D02*
D03*
X585Y399D02*
D03*
X-745Y-415D02*
D03*
X-1320Y995D02*
D03*
D70*
X-1670Y745D02*
D03*
X-1650Y-70D02*
D03*
X1655Y460D02*
D03*
D71*
X-644Y548D02*
D03*
X-1732Y-1280D02*
D03*
X1732D02*
D03*
Y1280D02*
D03*
X-1732D02*
D03*
D72*
X-680D02*
D03*
X520D02*
D03*
X420D02*
D03*
X320D02*
D03*
X220D02*
D03*
X120D02*
D03*
X20D02*
D03*
X-80D02*
D03*
X-180D02*
D03*
X-280D02*
D03*
X-380D02*
D03*
X-480D02*
D03*
X-580D02*
D03*
X-780D02*
D03*
X-880D02*
D03*
X-980D02*
D03*
X-1080D02*
D03*
X-1180D02*
D03*
X-1280D02*
D03*
D73*
X619D02*
D03*
D74*
X750Y-250D02*
D03*
X950D02*
D03*
X750Y165D02*
D03*
X950D02*
D03*
D75*
X-123Y-35D02*
D03*
Y15D02*
D03*
X-73Y-35D02*
D03*
X-23D02*
D03*
Y15D02*
D03*
X27Y-35D02*
D03*
Y15D02*
D03*
X77Y-35D02*
D03*
D76*
Y15D02*
D03*
D77*
X-810Y-1180D02*
D03*
X-1010D02*
D03*
X-1210D02*
D03*
X1630Y120D02*
D03*
Y-80D02*
D03*
Y-280D02*
D03*
X995Y-1180D02*
D03*
X1195D02*
D03*
X1395D02*
D03*
X-115D02*
D03*
D78*
X-1410D02*
D03*
X795D02*
D03*
X-315D02*
D03*
D79*
X1630Y-480D02*
D03*
M02*
