G04 Layer_Physical_Order=2*
G04 Layer_Color=16711680*
%FSLAX23Y23*%
%MOIN*%
G70*
G01*
G75*
%ADD26C,0.020*%
%ADD27C,0.012*%
%ADD28C,0.024*%
%ADD30C,0.010*%
%ADD31C,0.020*%
%ADD36R,0.059X0.059*%
%ADD37C,0.059*%
%ADD38C,0.055*%
%ADD39R,0.100X0.100*%
%ADD40C,0.100*%
%ADD41R,0.100X0.100*%
%ADD42R,0.039X0.039*%
%ADD43C,0.039*%
%ADD44C,0.062*%
%ADD45O,0.051X0.063*%
%ADD46R,0.051X0.063*%
%ADD47C,0.118*%
G36*
X1573Y1131D02*
X1574Y1127D01*
X1576Y1124D01*
X1579Y1121D01*
X1583Y1121D01*
X1816D01*
Y-1121D01*
X1583D01*
X1579Y-1121D01*
X1576Y-1124D01*
X1574Y-1127D01*
X1573Y-1131D01*
Y-1364D01*
X-536D01*
Y-300D01*
X-536Y-300D01*
Y-249D01*
X-537Y-245D01*
X-539Y-242D01*
X-542Y-240D01*
X-546Y-239D01*
X-665D01*
X-669Y-240D01*
X-672Y-242D01*
X-674Y-245D01*
X-675Y-249D01*
Y-275D01*
X-675Y-276D01*
Y-1363D01*
X-1573D01*
Y-1131D01*
X-1574Y-1127D01*
X-1576Y-1124D01*
X-1579Y-1121D01*
X-1583Y-1121D01*
X-1815D01*
Y1121D01*
X-1583D01*
X-1579Y1121D01*
X-1576Y1124D01*
X-1574Y1127D01*
X-1573Y1131D01*
Y1363D01*
X1573D01*
Y1131D01*
D02*
G37*
%LPC*%
G36*
X30Y-352D02*
X20Y-353D01*
X11Y-357D01*
X3Y-363D01*
X-3Y-371D01*
X-7Y-380D01*
X-8Y-390D01*
X-7Y-400D01*
X-3Y-409D01*
X3Y-417D01*
X11Y-423D01*
X20Y-427D01*
X30Y-428D01*
X40Y-427D01*
X49Y-423D01*
X57Y-417D01*
X63Y-409D01*
X67Y-400D01*
X68Y-390D01*
X67Y-380D01*
X63Y-371D01*
X57Y-363D01*
X49Y-357D01*
X40Y-353D01*
X30Y-352D01*
D02*
G37*
G36*
X1690Y-420D02*
X1570D01*
Y-540D01*
X1690D01*
Y-420D01*
D02*
G37*
G36*
X183Y-521D02*
Y-555D01*
X217D01*
X217Y-550D01*
X213Y-540D01*
X206Y-532D01*
X198Y-525D01*
X188Y-521D01*
X183Y-521D01*
D02*
G37*
G36*
X-1020Y505D02*
X-1028Y504D01*
X-1035Y501D01*
X-1041Y496D01*
X-1046Y490D01*
X-1049Y483D01*
X-1050Y475D01*
X-1049Y467D01*
X-1046Y460D01*
X-1041Y454D01*
X-1036Y450D01*
Y-301D01*
X-1035Y-307D01*
X-1031Y-313D01*
X-963Y-381D01*
X-964Y-388D01*
X-963Y-395D01*
X-960Y-403D01*
X-955Y-409D01*
X-949Y-414D01*
X-941Y-417D01*
X-934Y-418D01*
X-926Y-417D01*
X-919Y-414D01*
X-912Y-409D01*
X-908Y-403D01*
X-905Y-395D01*
X-904Y-388D01*
X-905Y-380D01*
X-908Y-373D01*
X-912Y-366D01*
X-919Y-362D01*
X-926Y-359D01*
X-934Y-358D01*
X-940Y-359D01*
X-1004Y-295D01*
Y450D01*
X-999Y454D01*
X-994Y460D01*
X-991Y467D01*
X-990Y475D01*
X-991Y483D01*
X-994Y490D01*
X-999Y496D01*
X-1005Y501D01*
X-1012Y504D01*
X-1020Y505D01*
D02*
G37*
G36*
X-708Y-395D02*
X-740D01*
Y-427D01*
X-735Y-427D01*
X-726Y-423D01*
X-718Y-417D01*
X-712Y-409D01*
X-708Y-400D01*
X-708Y-395D01*
D02*
G37*
G36*
X-750D02*
X-782D01*
X-782Y-400D01*
X-778Y-409D01*
X-772Y-417D01*
X-764Y-423D01*
X-755Y-427D01*
X-750Y-427D01*
Y-395D01*
D02*
G37*
G36*
X173Y-521D02*
X168Y-521D01*
X158Y-525D01*
X150Y-532D01*
X143Y-540D01*
X139Y-550D01*
X139Y-555D01*
X173D01*
Y-521D01*
D02*
G37*
G36*
X-1655Y-531D02*
X-1660Y-531D01*
X-1670Y-535D01*
X-1678Y-542D01*
X-1685Y-550D01*
X-1689Y-560D01*
X-1689Y-565D01*
X-1655D01*
Y-531D01*
D02*
G37*
G36*
X217Y-565D02*
X183D01*
Y-599D01*
X188Y-599D01*
X198Y-595D01*
X206Y-588D01*
X213Y-580D01*
X217Y-570D01*
X217Y-565D01*
D02*
G37*
G36*
X173D02*
X139D01*
X139Y-570D01*
X143Y-580D01*
X150Y-588D01*
X158Y-595D01*
X168Y-599D01*
X173Y-599D01*
Y-565D01*
D02*
G37*
G36*
X83Y-521D02*
Y-555D01*
X117D01*
X117Y-550D01*
X113Y-540D01*
X106Y-532D01*
X98Y-525D01*
X88Y-521D01*
X83Y-521D01*
D02*
G37*
G36*
X73D02*
X68Y-521D01*
X58Y-525D01*
X50Y-532D01*
X43Y-540D01*
X39Y-550D01*
X39Y-555D01*
X73D01*
Y-521D01*
D02*
G37*
G36*
X-1645Y-531D02*
Y-565D01*
X-1611D01*
X-1611Y-560D01*
X-1615Y-550D01*
X-1622Y-542D01*
X-1630Y-535D01*
X-1640Y-531D01*
X-1645Y-531D01*
D02*
G37*
G36*
X-750Y-353D02*
X-755Y-353D01*
X-764Y-357D01*
X-772Y-363D01*
X-778Y-371D01*
X-782Y-380D01*
X-782Y-385D01*
X-750D01*
Y-353D01*
D02*
G37*
G36*
X-1305Y86D02*
X-1420D01*
X-1426Y85D01*
X-1431Y81D01*
X-1567Y-54D01*
X-1610D01*
Y-30D01*
X-1690D01*
Y-110D01*
X-1610D01*
Y-86D01*
X-1560D01*
X-1554Y-85D01*
X-1549Y-81D01*
X-1413Y54D01*
X-1312D01*
X-1303Y45D01*
X-1305Y40D01*
X-1305Y40D01*
X-1313Y39D01*
X-1320Y36D01*
X-1326Y31D01*
X-1330Y26D01*
X-1400D01*
X-1406Y25D01*
X-1411Y21D01*
X-1587Y-154D01*
X-1614D01*
X-1615Y-150D01*
X-1622Y-142D01*
X-1630Y-135D01*
X-1640Y-131D01*
X-1650Y-130D01*
X-1660Y-131D01*
X-1670Y-135D01*
X-1678Y-142D01*
X-1685Y-150D01*
X-1689Y-160D01*
X-1690Y-170D01*
X-1689Y-180D01*
X-1685Y-190D01*
X-1678Y-198D01*
X-1670Y-205D01*
X-1660Y-209D01*
X-1650Y-210D01*
X-1640Y-209D01*
X-1630Y-205D01*
X-1622Y-198D01*
X-1615Y-190D01*
X-1614Y-186D01*
X-1580D01*
X-1574Y-185D01*
X-1569Y-181D01*
X-1393Y-6D01*
X-1330D01*
X-1326Y-11D01*
X-1320Y-16D01*
X-1317Y-17D01*
Y-23D01*
X-1320Y-24D01*
X-1326Y-29D01*
X-1330Y-34D01*
X-1360D01*
X-1366Y-35D01*
X-1371Y-39D01*
X-1587Y-254D01*
X-1614D01*
X-1615Y-250D01*
X-1622Y-242D01*
X-1630Y-235D01*
X-1640Y-231D01*
X-1650Y-230D01*
X-1660Y-231D01*
X-1670Y-235D01*
X-1678Y-242D01*
X-1685Y-250D01*
X-1689Y-260D01*
X-1690Y-270D01*
X-1689Y-280D01*
X-1685Y-290D01*
X-1678Y-298D01*
X-1670Y-305D01*
X-1660Y-309D01*
X-1650Y-310D01*
X-1640Y-309D01*
X-1630Y-305D01*
X-1622Y-298D01*
X-1615Y-290D01*
X-1614Y-286D01*
X-1580D01*
X-1574Y-285D01*
X-1569Y-281D01*
X-1353Y-66D01*
X-1330D01*
X-1326Y-71D01*
X-1320Y-76D01*
X-1317Y-77D01*
Y-83D01*
X-1320Y-84D01*
X-1326Y-89D01*
X-1330Y-94D01*
X-1345D01*
X-1351Y-95D01*
X-1356Y-99D01*
X-1609Y-352D01*
X-1615Y-350D01*
X-1615Y-350D01*
X-1622Y-342D01*
X-1630Y-335D01*
X-1640Y-331D01*
X-1650Y-330D01*
X-1660Y-331D01*
X-1670Y-335D01*
X-1678Y-342D01*
X-1685Y-350D01*
X-1689Y-360D01*
X-1690Y-370D01*
X-1689Y-380D01*
X-1685Y-390D01*
X-1678Y-398D01*
X-1670Y-405D01*
X-1660Y-409D01*
X-1650Y-410D01*
X-1640Y-409D01*
X-1630Y-405D01*
X-1622Y-398D01*
X-1615Y-390D01*
X-1614Y-386D01*
X-1605D01*
X-1599Y-385D01*
X-1594Y-381D01*
X-1338Y-126D01*
X-1330D01*
X-1326Y-131D01*
X-1320Y-136D01*
X-1317Y-137D01*
Y-143D01*
X-1320Y-144D01*
X-1326Y-149D01*
X-1331Y-155D01*
X-1331Y-156D01*
X-1341D01*
X-1347Y-157D01*
X-1352Y-160D01*
X-1461Y-269D01*
X-1464Y-274D01*
X-1465Y-280D01*
Y-315D01*
X-1605Y-455D01*
X-1614D01*
X-1615Y-450D01*
X-1622Y-442D01*
X-1630Y-435D01*
X-1640Y-431D01*
X-1650Y-430D01*
X-1660Y-431D01*
X-1670Y-435D01*
X-1678Y-442D01*
X-1685Y-450D01*
X-1689Y-460D01*
X-1690Y-470D01*
X-1689Y-480D01*
X-1685Y-490D01*
X-1678Y-498D01*
X-1670Y-505D01*
X-1660Y-509D01*
X-1650Y-510D01*
X-1640Y-509D01*
X-1630Y-505D01*
X-1622Y-498D01*
X-1615Y-490D01*
X-1614Y-485D01*
X-1599D01*
X-1593Y-484D01*
X-1588Y-481D01*
X-1439Y-332D01*
X-1436Y-327D01*
X-1435Y-321D01*
Y-286D01*
X-1335Y-186D01*
X-1330Y-187D01*
X-1326Y-191D01*
X-1320Y-196D01*
X-1317Y-197D01*
Y-203D01*
X-1320Y-204D01*
X-1326Y-209D01*
X-1331Y-215D01*
X-1334Y-222D01*
X-1335Y-230D01*
X-1334Y-238D01*
X-1331Y-245D01*
X-1326Y-251D01*
X-1320Y-256D01*
X-1313Y-259D01*
X-1305Y-260D01*
X-1297Y-259D01*
X-1290Y-256D01*
X-1284Y-251D01*
X-1279Y-245D01*
X-1278Y-241D01*
X-1275D01*
X-1268Y-240D01*
X-1263Y-236D01*
X-1249Y-222D01*
X-1245Y-217D01*
X-1244Y-210D01*
Y25D01*
X-1245Y31D01*
X-1249Y36D01*
X-1294Y81D01*
X-1299Y85D01*
X-1305Y86D01*
D02*
G37*
G36*
X-28Y44D02*
X-30Y43D01*
X-38Y40D01*
X-44Y36D01*
X-49Y29D01*
X-52Y22D01*
X-52Y20D01*
X-28D01*
Y44D01*
D02*
G37*
G36*
X1630Y-20D02*
X1618Y-21D01*
X1607Y-24D01*
X1597Y-30D01*
X1587Y-37D01*
X1580Y-47D01*
X1574Y-57D01*
X1571Y-68D01*
X1570Y-80D01*
X1571Y-92D01*
X1574Y-103D01*
X1580Y-113D01*
X1587Y-123D01*
X1597Y-130D01*
X1607Y-136D01*
X1618Y-139D01*
X1630Y-140D01*
X1642Y-139D01*
X1653Y-136D01*
X1663Y-130D01*
X1673Y-123D01*
X1680Y-113D01*
X1686Y-103D01*
X1689Y-92D01*
X1690Y-80D01*
X1689Y-68D01*
X1686Y-57D01*
X1680Y-47D01*
X1673Y-37D01*
X1663Y-30D01*
X1653Y-24D01*
X1642Y-21D01*
X1630Y-20D01*
D02*
G37*
G36*
X791Y77D02*
X755D01*
Y41D01*
X761Y42D01*
X771Y46D01*
X779Y53D01*
X786Y61D01*
X790Y71D01*
X791Y77D01*
D02*
G37*
G36*
X745D02*
X709D01*
X710Y71D01*
X714Y61D01*
X721Y53D01*
X729Y46D01*
X739Y42D01*
X745Y41D01*
Y77D01*
D02*
G37*
G36*
X950Y123D02*
X939Y122D01*
X929Y118D01*
X921Y111D01*
X914Y103D01*
X910Y93D01*
X909Y82D01*
X910Y71D01*
X914Y61D01*
X921Y53D01*
X929Y46D01*
X939Y42D01*
X950Y41D01*
X961Y42D01*
X971Y46D01*
X979Y53D01*
X986Y61D01*
X990Y71D01*
X991Y82D01*
X990Y93D01*
X986Y103D01*
X979Y111D01*
X971Y118D01*
X961Y122D01*
X950Y123D01*
D02*
G37*
G36*
X755Y-292D02*
Y-328D01*
X791D01*
X790Y-322D01*
X786Y-312D01*
X779Y-304D01*
X771Y-297D01*
X761Y-293D01*
X755Y-292D01*
D02*
G37*
G36*
X745Y-338D02*
X709D01*
X710Y-344D01*
X714Y-354D01*
X721Y-362D01*
X729Y-369D01*
X739Y-373D01*
X745Y-374D01*
Y-338D01*
D02*
G37*
G36*
X950Y-292D02*
X939Y-293D01*
X929Y-297D01*
X921Y-304D01*
X914Y-312D01*
X910Y-322D01*
X909Y-333D01*
X910Y-344D01*
X914Y-354D01*
X921Y-362D01*
X929Y-369D01*
X939Y-373D01*
X950Y-374D01*
X961Y-373D01*
X971Y-369D01*
X979Y-362D01*
X986Y-354D01*
X990Y-344D01*
X991Y-333D01*
X990Y-322D01*
X986Y-312D01*
X979Y-304D01*
X971Y-297D01*
X961Y-293D01*
X950Y-292D01*
D02*
G37*
G36*
X-740Y-353D02*
Y-385D01*
X-708D01*
X-708Y-380D01*
X-712Y-371D01*
X-718Y-363D01*
X-726Y-357D01*
X-735Y-353D01*
X-740Y-353D01*
D02*
G37*
G36*
X745Y-292D02*
X739Y-293D01*
X729Y-297D01*
X721Y-304D01*
X714Y-312D01*
X710Y-322D01*
X709Y-328D01*
X745D01*
Y-292D01*
D02*
G37*
G36*
X1630Y-220D02*
X1618Y-221D01*
X1607Y-224D01*
X1597Y-230D01*
X1587Y-237D01*
X1580Y-247D01*
X1574Y-257D01*
X1571Y-268D01*
X1570Y-280D01*
X1571Y-292D01*
X1574Y-303D01*
X1580Y-313D01*
X1587Y-323D01*
X1597Y-330D01*
X1607Y-336D01*
X1618Y-339D01*
X1630Y-340D01*
X1642Y-339D01*
X1653Y-336D01*
X1663Y-330D01*
X1673Y-323D01*
X1680Y-313D01*
X1686Y-303D01*
X1689Y-292D01*
X1690Y-280D01*
X1689Y-268D01*
X1686Y-257D01*
X1680Y-247D01*
X1673Y-237D01*
X1663Y-230D01*
X1653Y-224D01*
X1642Y-221D01*
X1630Y-220D01*
D02*
G37*
G36*
X791Y-338D02*
X755D01*
Y-374D01*
X761Y-373D01*
X771Y-369D01*
X779Y-362D01*
X786Y-354D01*
X790Y-344D01*
X791Y-338D01*
D02*
G37*
G36*
X117Y-565D02*
X83D01*
Y-599D01*
X88Y-599D01*
X98Y-595D01*
X106Y-588D01*
X113Y-580D01*
X117Y-570D01*
X117Y-565D01*
D02*
G37*
G36*
X183Y-1241D02*
Y-1275D01*
X217D01*
X217Y-1270D01*
X213Y-1260D01*
X206Y-1252D01*
X198Y-1245D01*
X188Y-1241D01*
X183Y-1241D01*
D02*
G37*
G36*
X173D02*
X168Y-1241D01*
X158Y-1245D01*
X150Y-1252D01*
X143Y-1260D01*
X139Y-1270D01*
X139Y-1275D01*
X173D01*
Y-1241D01*
D02*
G37*
G36*
X83D02*
Y-1275D01*
X117D01*
X117Y-1270D01*
X113Y-1260D01*
X106Y-1252D01*
X98Y-1245D01*
X88Y-1241D01*
X83Y-1241D01*
D02*
G37*
G36*
X-810Y-1120D02*
X-822Y-1121D01*
X-833Y-1124D01*
X-843Y-1130D01*
X-853Y-1137D01*
X-860Y-1147D01*
X-866Y-1157D01*
X-869Y-1168D01*
X-870Y-1180D01*
X-869Y-1192D01*
X-866Y-1203D01*
X-860Y-1213D01*
X-853Y-1223D01*
X-843Y-1230D01*
X-833Y-1236D01*
X-822Y-1239D01*
X-810Y-1240D01*
X-798Y-1239D01*
X-787Y-1236D01*
X-777Y-1230D01*
X-767Y-1223D01*
X-760Y-1213D01*
X-754Y-1203D01*
X-751Y-1192D01*
X-750Y-1180D01*
X-751Y-1168D01*
X-754Y-1157D01*
X-760Y-1147D01*
X-767Y-1137D01*
X-777Y-1130D01*
X-787Y-1124D01*
X-798Y-1121D01*
X-810Y-1120D01*
D02*
G37*
G36*
X-1010D02*
X-1022Y-1121D01*
X-1033Y-1124D01*
X-1043Y-1130D01*
X-1053Y-1137D01*
X-1060Y-1147D01*
X-1066Y-1157D01*
X-1069Y-1168D01*
X-1070Y-1180D01*
X-1069Y-1192D01*
X-1066Y-1203D01*
X-1060Y-1213D01*
X-1053Y-1223D01*
X-1043Y-1230D01*
X-1033Y-1236D01*
X-1022Y-1239D01*
X-1010Y-1240D01*
X-998Y-1239D01*
X-987Y-1236D01*
X-977Y-1230D01*
X-967Y-1223D01*
X-960Y-1213D01*
X-954Y-1203D01*
X-951Y-1192D01*
X-950Y-1180D01*
X-951Y-1168D01*
X-954Y-1157D01*
X-960Y-1147D01*
X-967Y-1137D01*
X-977Y-1130D01*
X-987Y-1124D01*
X-998Y-1121D01*
X-1010Y-1120D01*
D02*
G37*
G36*
X-1210D02*
X-1222Y-1121D01*
X-1233Y-1124D01*
X-1243Y-1130D01*
X-1253Y-1137D01*
X-1260Y-1147D01*
X-1266Y-1157D01*
X-1269Y-1168D01*
X-1270Y-1180D01*
X-1269Y-1192D01*
X-1266Y-1203D01*
X-1260Y-1213D01*
X-1253Y-1223D01*
X-1243Y-1230D01*
X-1233Y-1236D01*
X-1222Y-1239D01*
X-1210Y-1240D01*
X-1198Y-1239D01*
X-1187Y-1236D01*
X-1177Y-1230D01*
X-1167Y-1223D01*
X-1160Y-1213D01*
X-1154Y-1203D01*
X-1151Y-1192D01*
X-1150Y-1180D01*
X-1151Y-1168D01*
X-1154Y-1157D01*
X-1160Y-1147D01*
X-1167Y-1137D01*
X-1177Y-1130D01*
X-1187Y-1124D01*
X-1198Y-1121D01*
X-1210Y-1120D01*
D02*
G37*
G36*
X73Y-1241D02*
X68Y-1241D01*
X58Y-1245D01*
X50Y-1252D01*
X43Y-1260D01*
X39Y-1270D01*
X39Y-1275D01*
X73D01*
Y-1241D01*
D02*
G37*
G36*
Y-1285D02*
X39D01*
X39Y-1290D01*
X43Y-1300D01*
X50Y-1308D01*
X58Y-1315D01*
X68Y-1319D01*
X73Y-1319D01*
Y-1285D01*
D02*
G37*
G36*
X588Y-1240D02*
X578Y-1241D01*
X568Y-1245D01*
X560Y-1252D01*
X553Y-1260D01*
X549Y-1270D01*
X548Y-1280D01*
X549Y-1290D01*
X553Y-1300D01*
X560Y-1308D01*
X568Y-1315D01*
X578Y-1319D01*
X588Y-1320D01*
X598Y-1319D01*
X608Y-1315D01*
X616Y-1308D01*
X623Y-1300D01*
X627Y-1290D01*
X628Y-1280D01*
X627Y-1270D01*
X623Y-1260D01*
X616Y-1252D01*
X608Y-1245D01*
X598Y-1241D01*
X588Y-1240D01*
D02*
G37*
G36*
X488D02*
X478Y-1241D01*
X468Y-1245D01*
X460Y-1252D01*
X453Y-1260D01*
X449Y-1270D01*
X448Y-1280D01*
X449Y-1290D01*
X453Y-1300D01*
X460Y-1308D01*
X468Y-1315D01*
X478Y-1319D01*
X488Y-1320D01*
X498Y-1319D01*
X508Y-1315D01*
X516Y-1308D01*
X523Y-1300D01*
X527Y-1290D01*
X528Y-1280D01*
X527Y-1270D01*
X523Y-1260D01*
X516Y-1252D01*
X508Y-1245D01*
X498Y-1241D01*
X488Y-1240D01*
D02*
G37*
G36*
X217Y-1285D02*
X183D01*
Y-1319D01*
X188Y-1319D01*
X198Y-1315D01*
X206Y-1308D01*
X213Y-1300D01*
X217Y-1290D01*
X217Y-1285D01*
D02*
G37*
G36*
X173D02*
X139D01*
X139Y-1290D01*
X143Y-1300D01*
X150Y-1308D01*
X158Y-1315D01*
X168Y-1319D01*
X173Y-1319D01*
Y-1285D01*
D02*
G37*
G36*
X117D02*
X83D01*
Y-1319D01*
X88Y-1319D01*
X98Y-1315D01*
X106Y-1308D01*
X113Y-1300D01*
X117Y-1290D01*
X117Y-1285D01*
D02*
G37*
G36*
X-135Y-1120D02*
X-147Y-1121D01*
X-158Y-1124D01*
X-168Y-1130D01*
X-178Y-1137D01*
X-185Y-1147D01*
X-191Y-1157D01*
X-194Y-1168D01*
X-195Y-1180D01*
X-194Y-1192D01*
X-191Y-1203D01*
X-185Y-1213D01*
X-178Y-1223D01*
X-168Y-1230D01*
X-158Y-1236D01*
X-147Y-1239D01*
X-135Y-1240D01*
X-123Y-1239D01*
X-112Y-1236D01*
X-102Y-1230D01*
X-92Y-1223D01*
X-85Y-1213D01*
X-79Y-1203D01*
X-76Y-1192D01*
X-75Y-1180D01*
X-76Y-1168D01*
X-79Y-1157D01*
X-85Y-1147D01*
X-92Y-1137D01*
X-102Y-1130D01*
X-112Y-1124D01*
X-123Y-1121D01*
X-135Y-1120D01*
D02*
G37*
G36*
X-1611Y-575D02*
X-1645D01*
Y-609D01*
X-1640Y-609D01*
X-1630Y-605D01*
X-1622Y-598D01*
X-1615Y-590D01*
X-1611Y-580D01*
X-1611Y-575D01*
D02*
G37*
G36*
X-1655D02*
X-1689D01*
X-1689Y-580D01*
X-1685Y-590D01*
X-1678Y-598D01*
X-1670Y-605D01*
X-1660Y-609D01*
X-1655Y-609D01*
Y-575D01*
D02*
G37*
G36*
X-97Y-855D02*
X-107Y-856D01*
X-117Y-860D01*
X-125Y-867D01*
X-131Y-875D01*
X-135Y-885D01*
X-136Y-895D01*
X-135Y-905D01*
X-131Y-915D01*
X-125Y-923D01*
X-117Y-930D01*
X-107Y-934D01*
X-97Y-935D01*
X-86Y-934D01*
X-77Y-930D01*
X-68Y-923D01*
X-62Y-915D01*
X-58Y-905D01*
X-57Y-895D01*
X-58Y-885D01*
X-62Y-875D01*
X-68Y-867D01*
X-77Y-860D01*
X-86Y-856D01*
X-97Y-855D01*
D02*
G37*
G36*
X73Y-565D02*
X39D01*
X39Y-570D01*
X43Y-580D01*
X50Y-588D01*
X58Y-595D01*
X68Y-599D01*
X73Y-599D01*
Y-565D01*
D02*
G37*
G36*
X588Y-520D02*
X578Y-521D01*
X568Y-525D01*
X560Y-532D01*
X553Y-540D01*
X549Y-550D01*
X548Y-560D01*
X549Y-570D01*
X553Y-580D01*
X560Y-588D01*
X568Y-595D01*
X578Y-599D01*
X588Y-600D01*
X598Y-599D01*
X608Y-595D01*
X616Y-588D01*
X623Y-580D01*
X627Y-570D01*
X628Y-560D01*
X627Y-550D01*
X623Y-540D01*
X616Y-532D01*
X608Y-525D01*
X598Y-521D01*
X588Y-520D01*
D02*
G37*
G36*
X488D02*
X478Y-521D01*
X468Y-525D01*
X460Y-532D01*
X453Y-540D01*
X449Y-550D01*
X448Y-560D01*
X449Y-570D01*
X453Y-580D01*
X460Y-588D01*
X468Y-595D01*
X478Y-599D01*
X488Y-600D01*
X498Y-599D01*
X508Y-595D01*
X516Y-588D01*
X523Y-580D01*
X527Y-570D01*
X528Y-560D01*
X527Y-550D01*
X523Y-540D01*
X516Y-532D01*
X508Y-525D01*
X498Y-521D01*
X488Y-520D01*
D02*
G37*
G36*
X-293Y-855D02*
X-304Y-856D01*
X-313Y-860D01*
X-322Y-867D01*
X-328Y-875D01*
X-332Y-885D01*
X-333Y-895D01*
X-332Y-905D01*
X-328Y-915D01*
X-322Y-923D01*
X-313Y-930D01*
X-304Y-934D01*
X-293Y-935D01*
X-283Y-934D01*
X-273Y-930D01*
X-265Y-923D01*
X-259Y-915D01*
X-255Y-905D01*
X-254Y-895D01*
X-255Y-885D01*
X-259Y-875D01*
X-265Y-867D01*
X-273Y-860D01*
X-283Y-856D01*
X-293Y-855D01*
D02*
G37*
G36*
X1395Y-1120D02*
X1383Y-1121D01*
X1372Y-1124D01*
X1362Y-1130D01*
X1352Y-1137D01*
X1345Y-1147D01*
X1339Y-1157D01*
X1336Y-1168D01*
X1335Y-1180D01*
X1336Y-1192D01*
X1339Y-1203D01*
X1345Y-1213D01*
X1352Y-1223D01*
X1362Y-1230D01*
X1372Y-1236D01*
X1383Y-1239D01*
X1395Y-1240D01*
X1407Y-1239D01*
X1418Y-1236D01*
X1428Y-1230D01*
X1438Y-1223D01*
X1445Y-1213D01*
X1451Y-1203D01*
X1454Y-1192D01*
X1455Y-1180D01*
X1454Y-1168D01*
X1451Y-1157D01*
X1445Y-1147D01*
X1438Y-1137D01*
X1428Y-1130D01*
X1418Y-1124D01*
X1407Y-1121D01*
X1395Y-1120D01*
D02*
G37*
G36*
X1195D02*
X1183Y-1121D01*
X1172Y-1124D01*
X1162Y-1130D01*
X1152Y-1137D01*
X1145Y-1147D01*
X1139Y-1157D01*
X1136Y-1168D01*
X1135Y-1180D01*
X1136Y-1192D01*
X1139Y-1203D01*
X1145Y-1213D01*
X1152Y-1223D01*
X1162Y-1230D01*
X1172Y-1236D01*
X1183Y-1239D01*
X1195Y-1240D01*
X1207Y-1239D01*
X1218Y-1236D01*
X1228Y-1230D01*
X1238Y-1223D01*
X1245Y-1213D01*
X1251Y-1203D01*
X1254Y-1192D01*
X1255Y-1180D01*
X1254Y-1168D01*
X1251Y-1157D01*
X1245Y-1147D01*
X1238Y-1137D01*
X1228Y-1130D01*
X1218Y-1124D01*
X1207Y-1121D01*
X1195Y-1120D01*
D02*
G37*
G36*
X995D02*
X983Y-1121D01*
X972Y-1124D01*
X962Y-1130D01*
X952Y-1137D01*
X945Y-1147D01*
X939Y-1157D01*
X936Y-1168D01*
X935Y-1180D01*
X936Y-1192D01*
X939Y-1203D01*
X945Y-1213D01*
X952Y-1223D01*
X962Y-1230D01*
X972Y-1236D01*
X983Y-1239D01*
X995Y-1240D01*
X1007Y-1239D01*
X1018Y-1236D01*
X1028Y-1230D01*
X1038Y-1223D01*
X1045Y-1213D01*
X1051Y-1203D01*
X1054Y-1192D01*
X1055Y-1180D01*
X1054Y-1168D01*
X1051Y-1157D01*
X1045Y-1147D01*
X1038Y-1137D01*
X1028Y-1130D01*
X1018Y-1124D01*
X1007Y-1121D01*
X995Y-1120D01*
D02*
G37*
G36*
X855Y-1120D02*
X735D01*
Y-1240D01*
X855D01*
Y-1120D01*
D02*
G37*
G36*
X-275D02*
X-395D01*
Y-1240D01*
X-275D01*
Y-1120D01*
D02*
G37*
G36*
X-1350D02*
X-1470D01*
Y-1240D01*
X-1350D01*
Y-1120D01*
D02*
G37*
G36*
X-180Y1321D02*
X-189Y1320D01*
X-197Y1317D01*
X-205Y1311D01*
X-211Y1303D01*
X-214Y1295D01*
X-215Y1285D01*
Y1274D01*
X-214Y1264D01*
X-211Y1256D01*
X-205Y1248D01*
X-197Y1243D01*
X-189Y1239D01*
X-180Y1238D01*
X-170Y1239D01*
X-162Y1243D01*
X-154Y1248D01*
X-148Y1256D01*
X-145Y1264D01*
X-144Y1274D01*
Y1285D01*
X-145Y1295D01*
X-148Y1303D01*
X-154Y1311D01*
X-162Y1317D01*
X-170Y1320D01*
X-180Y1321D01*
D02*
G37*
G36*
X-280D02*
X-289Y1320D01*
X-297Y1317D01*
X-305Y1311D01*
X-311Y1303D01*
X-314Y1295D01*
X-315Y1285D01*
Y1274D01*
X-314Y1264D01*
X-311Y1256D01*
X-305Y1248D01*
X-297Y1243D01*
X-289Y1239D01*
X-280Y1238D01*
X-270Y1239D01*
X-262Y1243D01*
X-254Y1248D01*
X-248Y1256D01*
X-245Y1264D01*
X-244Y1274D01*
Y1285D01*
X-245Y1295D01*
X-248Y1303D01*
X-254Y1311D01*
X-262Y1317D01*
X-270Y1320D01*
X-280Y1321D01*
D02*
G37*
G36*
X-380D02*
X-389Y1320D01*
X-397Y1317D01*
X-405Y1311D01*
X-411Y1303D01*
X-414Y1295D01*
X-415Y1285D01*
Y1274D01*
X-414Y1264D01*
X-411Y1256D01*
X-405Y1248D01*
X-397Y1243D01*
X-389Y1239D01*
X-380Y1238D01*
X-370Y1239D01*
X-362Y1243D01*
X-354Y1248D01*
X-348Y1256D01*
X-345Y1264D01*
X-344Y1274D01*
Y1285D01*
X-345Y1295D01*
X-348Y1303D01*
X-354Y1311D01*
X-362Y1317D01*
X-370Y1320D01*
X-380Y1321D01*
D02*
G37*
G36*
X-80D02*
X-89Y1320D01*
X-97Y1317D01*
X-105Y1311D01*
X-111Y1303D01*
X-114Y1295D01*
X-115Y1285D01*
Y1274D01*
X-114Y1264D01*
X-111Y1256D01*
X-105Y1248D01*
X-97Y1243D01*
X-89Y1239D01*
X-80Y1238D01*
X-70Y1239D01*
X-62Y1243D01*
X-54Y1248D01*
X-48Y1256D01*
X-45Y1264D01*
X-44Y1274D01*
Y1285D01*
X-45Y1295D01*
X-48Y1303D01*
X-54Y1311D01*
X-62Y1317D01*
X-70Y1320D01*
X-80Y1321D01*
D02*
G37*
G36*
X220D02*
X211Y1320D01*
X203Y1317D01*
X195Y1311D01*
X189Y1303D01*
X186Y1295D01*
X185Y1285D01*
Y1274D01*
X186Y1264D01*
X189Y1256D01*
X195Y1248D01*
X203Y1243D01*
X211Y1239D01*
X220Y1238D01*
X230Y1239D01*
X238Y1243D01*
X246Y1248D01*
X252Y1256D01*
X255Y1264D01*
X256Y1274D01*
Y1285D01*
X255Y1295D01*
X252Y1303D01*
X246Y1311D01*
X238Y1317D01*
X230Y1320D01*
X220Y1321D01*
D02*
G37*
G36*
X120D02*
X111Y1320D01*
X103Y1317D01*
X95Y1311D01*
X89Y1303D01*
X86Y1295D01*
X85Y1285D01*
Y1274D01*
X86Y1264D01*
X89Y1256D01*
X95Y1248D01*
X103Y1243D01*
X111Y1239D01*
X120Y1238D01*
X130Y1239D01*
X138Y1243D01*
X146Y1248D01*
X152Y1256D01*
X155Y1264D01*
X156Y1274D01*
Y1285D01*
X155Y1295D01*
X152Y1303D01*
X146Y1311D01*
X138Y1317D01*
X130Y1320D01*
X120Y1321D01*
D02*
G37*
G36*
X20D02*
X11Y1320D01*
X3Y1317D01*
X-5Y1311D01*
X-11Y1303D01*
X-14Y1295D01*
X-15Y1285D01*
Y1274D01*
X-14Y1264D01*
X-11Y1256D01*
X-5Y1248D01*
X3Y1243D01*
X11Y1239D01*
X20Y1238D01*
X30Y1239D01*
X38Y1243D01*
X46Y1248D01*
X52Y1256D01*
X55Y1264D01*
X56Y1274D01*
Y1285D01*
X55Y1295D01*
X52Y1303D01*
X46Y1311D01*
X38Y1317D01*
X30Y1320D01*
X20Y1321D01*
D02*
G37*
G36*
X-980D02*
X-989Y1320D01*
X-997Y1317D01*
X-1005Y1311D01*
X-1011Y1303D01*
X-1014Y1295D01*
X-1015Y1285D01*
Y1274D01*
X-1014Y1264D01*
X-1011Y1256D01*
X-1005Y1248D01*
X-997Y1243D01*
X-989Y1239D01*
X-980Y1238D01*
X-970Y1239D01*
X-962Y1243D01*
X-954Y1248D01*
X-948Y1256D01*
X-945Y1264D01*
X-944Y1274D01*
Y1285D01*
X-945Y1295D01*
X-948Y1303D01*
X-954Y1311D01*
X-962Y1317D01*
X-970Y1320D01*
X-980Y1321D01*
D02*
G37*
G36*
X-1080D02*
X-1089Y1320D01*
X-1097Y1317D01*
X-1105Y1311D01*
X-1111Y1303D01*
X-1114Y1295D01*
X-1115Y1285D01*
Y1274D01*
X-1114Y1264D01*
X-1111Y1256D01*
X-1105Y1248D01*
X-1097Y1243D01*
X-1089Y1239D01*
X-1080Y1238D01*
X-1070Y1239D01*
X-1062Y1243D01*
X-1054Y1248D01*
X-1048Y1256D01*
X-1045Y1264D01*
X-1044Y1274D01*
Y1285D01*
X-1045Y1295D01*
X-1048Y1303D01*
X-1054Y1311D01*
X-1062Y1317D01*
X-1070Y1320D01*
X-1080Y1321D01*
D02*
G37*
G36*
X520D02*
X511Y1320D01*
X503Y1317D01*
X495Y1311D01*
X489Y1303D01*
X486Y1295D01*
X485Y1285D01*
Y1274D01*
X486Y1264D01*
X489Y1256D01*
X495Y1248D01*
X500Y1244D01*
Y1229D01*
X-1151D01*
X-1160Y1239D01*
X-1160Y1244D01*
X-1154Y1248D01*
X-1148Y1256D01*
X-1145Y1264D01*
X-1144Y1274D01*
Y1285D01*
X-1145Y1295D01*
X-1148Y1303D01*
X-1154Y1311D01*
X-1162Y1317D01*
X-1170Y1320D01*
X-1180Y1321D01*
X-1189Y1320D01*
X-1197Y1317D01*
X-1205Y1311D01*
X-1211Y1303D01*
X-1214Y1295D01*
X-1215Y1285D01*
Y1274D01*
X-1214Y1264D01*
X-1211Y1256D01*
X-1205Y1248D01*
X-1201Y1245D01*
Y1231D01*
X-1200Y1223D01*
X-1195Y1217D01*
X-1173Y1195D01*
X-1167Y1190D01*
X-1159Y1189D01*
X-455D01*
Y533D01*
X-524Y464D01*
X-529Y458D01*
X-530Y450D01*
Y247D01*
X-531Y246D01*
X-536Y240D01*
X-539Y233D01*
X-540Y225D01*
X-539Y217D01*
X-536Y210D01*
X-531Y204D01*
X-525Y199D01*
X-518Y196D01*
X-510Y195D01*
X-502Y196D01*
X-495Y199D01*
X-489Y204D01*
X-484Y210D01*
X-481Y217D01*
X-480Y225D01*
X-481Y233D01*
X-484Y240D01*
X-489Y246D01*
X-490Y247D01*
Y442D01*
X-421Y511D01*
X-416Y517D01*
X-415Y525D01*
Y1189D01*
X-281D01*
X-279Y1184D01*
X-401Y1061D01*
X-405Y1056D01*
X-406Y1050D01*
Y467D01*
X-461Y411D01*
X-465Y406D01*
X-466Y400D01*
Y212D01*
X-591Y86D01*
X-595Y81D01*
X-596Y75D01*
Y65D01*
X-690Y-29D01*
X-694Y-28D01*
X-704Y-26D01*
X-714Y-28D01*
X-724Y-32D01*
X-732Y-38D01*
X-738Y-46D01*
X-742Y-56D01*
X-744Y-66D01*
X-742Y-76D01*
X-738Y-86D01*
X-732Y-94D01*
X-724Y-101D01*
X-714Y-105D01*
X-704Y-106D01*
X-694Y-105D01*
X-684Y-101D01*
X-676Y-94D01*
X-669Y-86D01*
X-665Y-76D01*
X-664Y-66D01*
X-665Y-56D01*
X-667Y-52D01*
X-569Y46D01*
X-565Y52D01*
X-564Y58D01*
Y68D01*
X-439Y194D01*
X-435Y199D01*
X-434Y205D01*
Y393D01*
X-379Y449D01*
X-375Y454D01*
X-374Y460D01*
Y1043D01*
X-258Y1159D01*
X296D01*
X298Y1154D01*
X298Y1154D01*
X294Y1149D01*
X235D01*
X229Y1148D01*
X224Y1144D01*
X-70Y850D01*
X-73Y852D01*
X-83Y853D01*
X-92Y852D01*
X-102Y848D01*
X-109Y842D01*
X-115Y834D01*
X-119Y825D01*
X-121Y815D01*
X-119Y805D01*
X-115Y796D01*
X-109Y788D01*
X-102Y782D01*
X-92Y778D01*
X-83Y777D01*
X-73Y778D01*
X-64Y782D01*
X-56Y788D01*
X-50Y796D01*
X-46Y805D01*
X-45Y815D01*
X-46Y825D01*
X-47Y827D01*
X242Y1117D01*
X294D01*
X298Y1112D01*
X304Y1107D01*
X312Y1104D01*
X319Y1103D01*
X327Y1104D01*
X334Y1107D01*
X340Y1112D01*
X345Y1118D01*
X348Y1125D01*
X349Y1133D01*
X348Y1140D01*
X345Y1148D01*
X341Y1154D01*
X341Y1154D01*
X342Y1159D01*
X748D01*
X846Y1061D01*
X845Y1055D01*
X846Y1047D01*
X849Y1040D01*
X854Y1034D01*
X860Y1029D01*
X867Y1026D01*
X875Y1025D01*
X883Y1026D01*
X890Y1029D01*
X896Y1034D01*
X901Y1040D01*
X904Y1047D01*
X905Y1055D01*
X904Y1063D01*
X901Y1070D01*
X896Y1076D01*
X890Y1081D01*
X883Y1084D01*
X875Y1085D01*
X869Y1084D01*
X769Y1184D01*
X771Y1189D01*
X968D01*
X1296Y861D01*
X1302Y856D01*
X1310Y855D01*
X1488D01*
X1489Y854D01*
X1495Y849D01*
X1502Y846D01*
X1510Y845D01*
X1518Y846D01*
X1525Y849D01*
X1531Y854D01*
X1536Y860D01*
X1539Y867D01*
X1540Y875D01*
X1539Y883D01*
X1536Y890D01*
X1531Y896D01*
X1525Y901D01*
X1518Y904D01*
X1510Y905D01*
X1502Y904D01*
X1495Y901D01*
X1489Y896D01*
X1488Y895D01*
X1318D01*
X990Y1223D01*
X984Y1228D01*
X976Y1229D01*
X541D01*
Y1244D01*
X546Y1248D01*
X552Y1256D01*
X555Y1264D01*
X556Y1274D01*
Y1285D01*
X555Y1295D01*
X552Y1303D01*
X546Y1311D01*
X538Y1317D01*
X530Y1320D01*
X520Y1321D01*
D02*
G37*
G36*
X-880D02*
X-889Y1320D01*
X-897Y1317D01*
X-905Y1311D01*
X-911Y1303D01*
X-914Y1295D01*
X-915Y1285D01*
Y1274D01*
X-914Y1264D01*
X-911Y1256D01*
X-905Y1248D01*
X-897Y1243D01*
X-889Y1239D01*
X-880Y1238D01*
X-870Y1239D01*
X-862Y1243D01*
X-854Y1248D01*
X-848Y1256D01*
X-845Y1264D01*
X-844Y1274D01*
Y1285D01*
X-845Y1295D01*
X-848Y1303D01*
X-854Y1311D01*
X-862Y1317D01*
X-870Y1320D01*
X-880Y1321D01*
D02*
G37*
G36*
X-480D02*
X-489Y1320D01*
X-497Y1317D01*
X-505Y1311D01*
X-511Y1303D01*
X-514Y1295D01*
X-515Y1285D01*
Y1274D01*
X-514Y1264D01*
X-511Y1256D01*
X-505Y1248D01*
X-497Y1243D01*
X-489Y1239D01*
X-480Y1238D01*
X-470Y1239D01*
X-462Y1243D01*
X-454Y1248D01*
X-448Y1256D01*
X-445Y1264D01*
X-444Y1274D01*
Y1285D01*
X-445Y1295D01*
X-448Y1303D01*
X-454Y1311D01*
X-462Y1317D01*
X-470Y1320D01*
X-480Y1321D01*
D02*
G37*
G36*
X-580D02*
X-589Y1320D01*
X-597Y1317D01*
X-605Y1311D01*
X-611Y1303D01*
X-614Y1295D01*
X-615Y1285D01*
Y1274D01*
X-614Y1264D01*
X-611Y1256D01*
X-605Y1248D01*
X-597Y1243D01*
X-589Y1239D01*
X-580Y1238D01*
X-570Y1239D01*
X-562Y1243D01*
X-554Y1248D01*
X-548Y1256D01*
X-545Y1264D01*
X-544Y1274D01*
Y1285D01*
X-545Y1295D01*
X-548Y1303D01*
X-554Y1311D01*
X-562Y1317D01*
X-570Y1320D01*
X-580Y1321D01*
D02*
G37*
G36*
X-680D02*
X-689Y1320D01*
X-697Y1317D01*
X-705Y1311D01*
X-711Y1303D01*
X-714Y1295D01*
X-715Y1285D01*
Y1274D01*
X-714Y1264D01*
X-711Y1256D01*
X-705Y1248D01*
X-697Y1243D01*
X-689Y1239D01*
X-680Y1238D01*
X-670Y1239D01*
X-662Y1243D01*
X-654Y1248D01*
X-648Y1256D01*
X-645Y1264D01*
X-644Y1274D01*
Y1285D01*
X-645Y1295D01*
X-648Y1303D01*
X-654Y1311D01*
X-662Y1317D01*
X-670Y1320D01*
X-680Y1321D01*
D02*
G37*
G36*
X-1275Y1321D02*
Y1285D01*
X-1244D01*
Y1285D01*
X-1245Y1295D01*
X-1248Y1303D01*
X-1254Y1311D01*
X-1262Y1317D01*
X-1270Y1320D01*
X-1275Y1321D01*
D02*
G37*
G36*
X-1285D02*
X-1289Y1320D01*
X-1297Y1317D01*
X-1305Y1311D01*
X-1311Y1303D01*
X-1314Y1295D01*
X-1315Y1285D01*
Y1285D01*
X-1285D01*
Y1321D01*
D02*
G37*
G36*
X-744Y1275D02*
X-775D01*
Y1238D01*
X-770Y1239D01*
X-762Y1243D01*
X-754Y1248D01*
X-748Y1256D01*
X-745Y1264D01*
X-744Y1274D01*
Y1275D01*
D02*
G37*
G36*
X-785Y1321D02*
X-789Y1320D01*
X-797Y1317D01*
X-805Y1311D01*
X-811Y1303D01*
X-814Y1295D01*
X-815Y1285D01*
Y1285D01*
X-785D01*
Y1321D01*
D02*
G37*
G36*
X654Y1321D02*
X624D01*
Y1285D01*
X654D01*
Y1321D01*
D02*
G37*
G36*
X614D02*
X583D01*
Y1285D01*
X614D01*
Y1321D01*
D02*
G37*
G36*
X-775Y1321D02*
Y1285D01*
X-744D01*
Y1285D01*
X-745Y1295D01*
X-748Y1303D01*
X-754Y1311D01*
X-762Y1317D01*
X-770Y1320D01*
X-775Y1321D01*
D02*
G37*
G36*
X614Y1275D02*
X583D01*
Y1238D01*
X614D01*
Y1275D01*
D02*
G37*
G36*
X420Y1321D02*
X411Y1320D01*
X403Y1317D01*
X395Y1311D01*
X389Y1303D01*
X386Y1295D01*
X385Y1285D01*
Y1274D01*
X386Y1264D01*
X389Y1256D01*
X395Y1248D01*
X403Y1243D01*
X411Y1239D01*
X420Y1238D01*
X430Y1239D01*
X438Y1243D01*
X446Y1248D01*
X452Y1256D01*
X455Y1264D01*
X456Y1274D01*
Y1285D01*
X455Y1295D01*
X452Y1303D01*
X446Y1311D01*
X438Y1317D01*
X430Y1320D01*
X420Y1321D01*
D02*
G37*
G36*
X320D02*
X311Y1320D01*
X303Y1317D01*
X295Y1311D01*
X289Y1303D01*
X286Y1295D01*
X285Y1285D01*
Y1274D01*
X286Y1264D01*
X289Y1256D01*
X295Y1248D01*
X303Y1243D01*
X311Y1239D01*
X320Y1238D01*
X330Y1239D01*
X338Y1243D01*
X346Y1248D01*
X352Y1256D01*
X355Y1264D01*
X356Y1274D01*
Y1285D01*
X355Y1295D01*
X352Y1303D01*
X346Y1311D01*
X338Y1317D01*
X330Y1320D01*
X320Y1321D01*
D02*
G37*
G36*
X654Y1275D02*
X624D01*
Y1238D01*
X654D01*
Y1275D01*
D02*
G37*
G36*
X-785D02*
X-815D01*
Y1274D01*
X-814Y1264D01*
X-811Y1256D01*
X-805Y1248D01*
X-797Y1243D01*
X-789Y1239D01*
X-785Y1238D01*
Y1275D01*
D02*
G37*
G36*
X-1244D02*
X-1275D01*
Y1238D01*
X-1270Y1239D01*
X-1262Y1243D01*
X-1254Y1248D01*
X-1248Y1256D01*
X-1245Y1264D01*
X-1244Y1274D01*
Y1275D01*
D02*
G37*
G36*
X-1285D02*
X-1315D01*
Y1274D01*
X-1314Y1264D01*
X-1311Y1256D01*
X-1305Y1248D01*
X-1297Y1243D01*
X-1289Y1239D01*
X-1285Y1238D01*
Y1275D01*
D02*
G37*
G36*
X-1675Y540D02*
X-1709D01*
X-1709Y535D01*
X-1705Y525D01*
X-1698Y517D01*
X-1690Y510D01*
X-1680Y506D01*
X-1675Y506D01*
Y540D01*
D02*
G37*
G36*
X-644Y637D02*
X-661Y636D01*
X-678Y631D01*
X-693Y622D01*
X-707Y611D01*
X-718Y598D01*
X-726Y582D01*
X-731Y566D01*
X-733Y548D01*
X-731Y531D01*
X-726Y514D01*
X-718Y499D01*
X-707Y485D01*
X-693Y474D01*
X-678Y466D01*
X-661Y461D01*
X-644Y459D01*
X-627Y461D01*
X-610Y466D01*
X-594Y474D01*
X-581Y485D01*
X-570Y499D01*
X-562Y514D01*
X-556Y531D01*
X-555Y548D01*
X-556Y566D01*
X-562Y582D01*
X-570Y598D01*
X-581Y611D01*
X-594Y622D01*
X-610Y631D01*
X-627Y636D01*
X-644Y637D01*
D02*
G37*
G36*
X1655Y500D02*
X1645Y499D01*
X1635Y495D01*
X1627Y488D01*
X1620Y480D01*
X1616Y470D01*
X1615Y460D01*
X1616Y450D01*
X1620Y440D01*
X1627Y432D01*
X1635Y425D01*
X1645Y421D01*
X1655Y420D01*
X1665Y421D01*
X1675Y425D01*
X1683Y432D01*
X1690Y440D01*
X1694Y450D01*
X1695Y460D01*
X1694Y470D01*
X1690Y480D01*
X1683Y488D01*
X1675Y495D01*
X1665Y499D01*
X1655Y500D01*
D02*
G37*
G36*
X-1631Y540D02*
X-1665D01*
Y506D01*
X-1660Y506D01*
X-1650Y510D01*
X-1642Y517D01*
X-1635Y525D01*
X-1631Y535D01*
X-1631Y540D01*
D02*
G37*
G36*
X-1665Y584D02*
Y550D01*
X-1631D01*
X-1631Y555D01*
X-1635Y565D01*
X-1642Y573D01*
X-1650Y580D01*
X-1660Y584D01*
X-1665Y584D01*
D02*
G37*
G36*
X-1675D02*
X-1680Y584D01*
X-1690Y580D01*
X-1698Y573D01*
X-1705Y565D01*
X-1709Y555D01*
X-1709Y550D01*
X-1675D01*
Y584D01*
D02*
G37*
G36*
X-1385Y840D02*
X-1393Y839D01*
X-1400Y836D01*
X-1406Y831D01*
X-1411Y825D01*
X-1414Y818D01*
X-1415Y810D01*
X-1414Y802D01*
X-1411Y795D01*
X-1406Y789D01*
X-1401Y785D01*
Y637D01*
X-1527Y511D01*
X-1541D01*
X-1543Y516D01*
X-1542Y517D01*
X-1535Y525D01*
X-1531Y535D01*
X-1530Y545D01*
X-1531Y555D01*
X-1535Y565D01*
X-1542Y573D01*
X-1550Y580D01*
X-1560Y584D01*
X-1570Y585D01*
X-1580Y584D01*
X-1590Y580D01*
X-1598Y573D01*
X-1605Y565D01*
X-1609Y555D01*
X-1610Y545D01*
X-1609Y535D01*
X-1605Y525D01*
X-1598Y517D01*
X-1597Y516D01*
X-1599Y511D01*
X-1620D01*
X-1626Y510D01*
X-1631Y506D01*
X-1656Y482D01*
X-1660Y484D01*
X-1670Y485D01*
X-1680Y484D01*
X-1690Y480D01*
X-1698Y473D01*
X-1705Y465D01*
X-1709Y455D01*
X-1710Y445D01*
X-1709Y435D01*
X-1705Y425D01*
X-1698Y417D01*
X-1690Y410D01*
X-1680Y406D01*
X-1670Y405D01*
X-1660Y406D01*
X-1650Y410D01*
X-1642Y417D01*
X-1635Y425D01*
X-1631Y435D01*
X-1630Y445D01*
X-1631Y455D01*
X-1633Y459D01*
X-1613Y479D01*
X-1599D01*
X-1597Y474D01*
X-1598Y473D01*
X-1605Y465D01*
X-1609Y455D01*
X-1610Y445D01*
X-1609Y435D01*
X-1605Y425D01*
X-1598Y417D01*
X-1591Y411D01*
X-1592Y407D01*
X-1592Y406D01*
X-1625D01*
X-1631Y405D01*
X-1636Y401D01*
X-1656Y382D01*
X-1660Y384D01*
X-1670Y385D01*
X-1680Y384D01*
X-1690Y380D01*
X-1698Y373D01*
X-1705Y365D01*
X-1709Y355D01*
X-1710Y345D01*
X-1709Y335D01*
X-1705Y325D01*
X-1698Y317D01*
X-1690Y310D01*
X-1680Y306D01*
X-1670Y305D01*
X-1660Y306D01*
X-1650Y310D01*
X-1642Y317D01*
X-1635Y325D01*
X-1631Y335D01*
X-1630Y345D01*
X-1631Y355D01*
X-1633Y359D01*
X-1618Y374D01*
X-1604D01*
X-1602Y369D01*
X-1605Y365D01*
X-1609Y355D01*
X-1610Y345D01*
X-1609Y335D01*
X-1605Y325D01*
X-1598Y317D01*
X-1590Y310D01*
X-1580Y306D01*
X-1570Y305D01*
X-1560Y306D01*
X-1550Y310D01*
X-1542Y317D01*
X-1535Y325D01*
X-1534Y329D01*
X-1350D01*
X-1344Y330D01*
X-1339Y334D01*
X-1104Y569D01*
X-1100Y574D01*
X-1099Y580D01*
Y705D01*
X-1100Y711D01*
X-1104Y716D01*
X-1121Y734D01*
X-1120Y740D01*
X-1121Y748D01*
X-1124Y755D01*
X-1129Y761D01*
X-1135Y766D01*
X-1142Y769D01*
X-1150Y770D01*
X-1158Y769D01*
X-1165Y766D01*
X-1171Y761D01*
X-1176Y755D01*
X-1179Y748D01*
X-1180Y740D01*
X-1179Y732D01*
X-1176Y725D01*
X-1171Y719D01*
X-1165Y714D01*
X-1158Y711D01*
X-1150Y710D01*
X-1144Y711D01*
X-1131Y698D01*
Y659D01*
X-1136Y656D01*
X-1142Y659D01*
X-1150Y660D01*
X-1158Y659D01*
X-1165Y656D01*
X-1171Y651D01*
X-1176Y645D01*
X-1179Y638D01*
X-1180Y630D01*
X-1179Y622D01*
X-1176Y615D01*
X-1171Y609D01*
X-1166Y605D01*
Y587D01*
X-1176Y576D01*
X-1181Y579D01*
X-1184Y585D01*
X-1189Y591D01*
X-1195Y596D01*
X-1202Y599D01*
X-1210Y600D01*
X-1218Y599D01*
X-1225Y596D01*
X-1231Y591D01*
X-1236Y585D01*
X-1239Y578D01*
X-1240Y570D01*
X-1239Y564D01*
X-1342Y461D01*
X-1534D01*
X-1535Y465D01*
X-1542Y473D01*
X-1543Y474D01*
X-1541Y479D01*
X-1520D01*
X-1514Y480D01*
X-1509Y484D01*
X-1374Y619D01*
X-1370Y624D01*
X-1369Y630D01*
Y785D01*
X-1364Y789D01*
X-1359Y795D01*
X-1356Y802D01*
X-1355Y810D01*
X-1356Y818D01*
X-1359Y825D01*
X-1364Y831D01*
X-1370Y836D01*
X-1377Y839D01*
X-1385Y840D01*
D02*
G37*
G36*
X755Y123D02*
Y87D01*
X791D01*
X790Y93D01*
X786Y103D01*
X779Y111D01*
X771Y118D01*
X761Y122D01*
X755Y123D01*
D02*
G37*
G36*
X745D02*
X739Y122D01*
X729Y118D01*
X721Y111D01*
X714Y103D01*
X710Y93D01*
X709Y87D01*
X745D01*
Y123D01*
D02*
G37*
G36*
X1630Y180D02*
X1618Y179D01*
X1607Y176D01*
X1597Y170D01*
X1587Y163D01*
X1580Y153D01*
X1574Y143D01*
X1571Y132D01*
X1570Y120D01*
X1571Y108D01*
X1574Y97D01*
X1580Y87D01*
X1587Y77D01*
X1597Y70D01*
X1607Y64D01*
X1618Y61D01*
X1630Y60D01*
X1642Y61D01*
X1653Y64D01*
X1663Y70D01*
X1673Y77D01*
X1680Y87D01*
X1686Y97D01*
X1689Y108D01*
X1690Y120D01*
X1689Y132D01*
X1686Y143D01*
X1680Y153D01*
X1673Y163D01*
X1663Y170D01*
X1653Y176D01*
X1642Y179D01*
X1630Y180D01*
D02*
G37*
G36*
X-916Y186D02*
X-926Y185D01*
X-936Y181D01*
X-944Y174D01*
X-951Y166D01*
X-955Y156D01*
X-956Y146D01*
X-955Y136D01*
X-951Y126D01*
X-944Y118D01*
X-936Y112D01*
X-926Y108D01*
X-916Y106D01*
X-906Y108D01*
X-896Y112D01*
X-888Y118D01*
X-882Y126D01*
X-878Y136D01*
X-876Y146D01*
X-878Y156D01*
X-882Y166D01*
X-888Y174D01*
X-896Y181D01*
X-906Y185D01*
X-916Y186D01*
D02*
G37*
G36*
X585Y437D02*
X575Y436D01*
X566Y432D01*
X558Y426D01*
X552Y418D01*
X548Y409D01*
X547Y399D01*
X548Y389D01*
X552Y380D01*
X558Y372D01*
X566Y366D01*
X575Y362D01*
X585Y361D01*
X595Y362D01*
X604Y366D01*
X612Y372D01*
X618Y380D01*
X622Y389D01*
X623Y399D01*
X622Y409D01*
X618Y418D01*
X612Y426D01*
X604Y432D01*
X595Y436D01*
X585Y437D01*
D02*
G37*
G36*
X1750Y355D02*
X1742Y354D01*
X1735Y351D01*
X1730Y347D01*
X995D01*
X990Y351D01*
X983Y354D01*
X975Y355D01*
X967Y354D01*
X960Y351D01*
X954Y346D01*
X949Y340D01*
X946Y333D01*
X945Y325D01*
X946Y317D01*
X949Y310D01*
X954Y304D01*
X960Y299D01*
X967Y296D01*
X975Y295D01*
X983Y296D01*
X990Y299D01*
X995Y303D01*
X1730D01*
X1735Y299D01*
X1742Y296D01*
X1750Y295D01*
X1758Y296D01*
X1765Y299D01*
X1771Y304D01*
X1776Y310D01*
X1779Y317D01*
X1780Y325D01*
X1779Y333D01*
X1776Y340D01*
X1771Y346D01*
X1765Y351D01*
X1758Y354D01*
X1750Y355D01*
D02*
G37*
G36*
X74Y145D02*
X-50D01*
X-56Y144D01*
X-61Y141D01*
X-70Y132D01*
X-77Y133D01*
X-85Y132D01*
X-92Y129D01*
X-98Y124D01*
X-103Y118D01*
X-106Y111D01*
X-107Y103D01*
X-106Y95D01*
X-103Y88D01*
X-98Y82D01*
X-92Y77D01*
X-85Y74D01*
X-77Y73D01*
X-69Y74D01*
X-62Y77D01*
X-56Y82D01*
X-51Y88D01*
X-48Y95D01*
X-47Y103D01*
X-48Y110D01*
X-44Y115D01*
X24D01*
X25Y110D01*
X21Y106D01*
X16Y100D01*
X13Y93D01*
X12Y85D01*
X13Y77D01*
X16Y70D01*
X21Y64D01*
X27Y59D01*
X34Y56D01*
X42Y55D01*
X50Y56D01*
X51Y57D01*
X59Y49D01*
X57Y44D01*
X48D01*
Y42D01*
X43Y40D01*
X42Y40D01*
X35Y43D01*
X32Y44D01*
Y15D01*
X22D01*
Y44D01*
X20Y43D01*
X12Y40D01*
X6Y36D01*
X5Y34D01*
X-0D01*
X-2Y36D01*
X-8Y40D01*
X-15Y43D01*
X-18Y44D01*
Y15D01*
X-23D01*
Y10D01*
X-52D01*
X-52Y7D01*
X-49Y-0D01*
X-44Y-7D01*
X-42Y-8D01*
Y-13D01*
X-44Y-14D01*
X-45Y-16D01*
X-50D01*
X-52Y-14D01*
X-58Y-10D01*
X-65Y-7D01*
X-73Y-6D01*
X-80Y-7D01*
X-88Y-10D01*
X-94Y-14D01*
X-95Y-16D01*
X-100D01*
X-102Y-14D01*
X-103Y-13D01*
Y-8D01*
X-102Y-7D01*
X-97Y-0D01*
X-94Y7D01*
X-93Y15D01*
X-94Y22D01*
X-97Y29D01*
X-102Y36D01*
X-108Y40D01*
X-115Y43D01*
X-123Y44D01*
X-130Y43D01*
X-138Y40D01*
X-144Y36D01*
X-149Y29D01*
X-152Y22D01*
X-153Y15D01*
X-152Y7D01*
X-149Y-0D01*
X-144Y-7D01*
X-142Y-8D01*
Y-13D01*
X-144Y-14D01*
X-149Y-21D01*
X-152Y-28D01*
X-153Y-35D01*
X-152Y-43D01*
X-149Y-50D01*
X-144Y-57D01*
X-139Y-60D01*
Y-62D01*
X-138Y-69D01*
X-134Y-74D01*
X-106Y-101D01*
X-101Y-105D01*
X-95Y-106D01*
X370D01*
X376Y-105D01*
X381Y-101D01*
X414Y-69D01*
X420Y-70D01*
X428Y-69D01*
X435Y-66D01*
X441Y-61D01*
X446Y-55D01*
X449Y-48D01*
X450Y-40D01*
X449Y-32D01*
X446Y-25D01*
X441Y-19D01*
X435Y-14D01*
X428Y-11D01*
X420Y-10D01*
X412Y-11D01*
X405Y-14D01*
X399Y-19D01*
X394Y-25D01*
X391Y-32D01*
X390Y-40D01*
X391Y-46D01*
X363Y-74D01*
X-88D01*
X-102Y-60D01*
X-102Y-57D01*
X-100Y-55D01*
X-95D01*
X-94Y-57D01*
X-88Y-61D01*
X-80Y-64D01*
X-73Y-65D01*
X-65Y-64D01*
X-58Y-61D01*
X-52Y-57D01*
X-50Y-55D01*
X-45D01*
X-44Y-57D01*
X-38Y-61D01*
X-30Y-64D01*
X-23Y-65D01*
X-15Y-64D01*
X-8Y-61D01*
X-2Y-57D01*
X-0Y-55D01*
X5D01*
X6Y-57D01*
X12Y-61D01*
X20Y-64D01*
X27Y-65D01*
X35Y-64D01*
X42Y-61D01*
X48Y-57D01*
X50Y-55D01*
X55D01*
X56Y-57D01*
X62Y-61D01*
X70Y-64D01*
X77Y-65D01*
X85Y-64D01*
X92Y-61D01*
X98Y-57D01*
X102Y-52D01*
X108D01*
X114Y-50D01*
X119Y-47D01*
X131Y-34D01*
X135Y-29D01*
X136Y-23D01*
Y40D01*
X135Y46D01*
X131Y51D01*
X119Y64D01*
X118Y64D01*
X117Y69D01*
X118Y70D01*
X121Y77D01*
X122Y85D01*
X121Y93D01*
X118Y100D01*
X113Y106D01*
X107Y111D01*
Y112D01*
X106Y118D01*
X103Y123D01*
X85Y141D01*
X80Y144D01*
X74Y145D01*
D02*
G37*
G36*
X572Y1017D02*
X565Y1016D01*
X557Y1013D01*
X551Y1008D01*
X546Y1002D01*
X543Y994D01*
X542Y987D01*
X543Y981D01*
X482Y919D01*
X478Y914D01*
X477Y907D01*
Y466D01*
X472Y462D01*
X467Y456D01*
X464Y449D01*
X463Y441D01*
X464Y433D01*
X467Y426D01*
X472Y420D01*
X478Y415D01*
X485Y412D01*
X493Y411D01*
X501Y412D01*
X508Y415D01*
X514Y420D01*
X519Y426D01*
X522Y433D01*
X523Y441D01*
X522Y449D01*
X519Y456D01*
X514Y462D01*
X509Y466D01*
Y901D01*
X566Y958D01*
X572Y957D01*
X580Y958D01*
X587Y961D01*
X593Y966D01*
X598Y972D01*
X601Y979D01*
X602Y987D01*
X601Y994D01*
X598Y1002D01*
X593Y1008D01*
X587Y1013D01*
X580Y1016D01*
X572Y1017D01*
D02*
G37*
G36*
X270Y825D02*
X262Y824D01*
X255Y821D01*
X249Y816D01*
X245Y811D01*
X195D01*
X189Y810D01*
X183Y806D01*
X168Y791D01*
X45D01*
X41Y796D01*
X35Y801D01*
X28Y804D01*
X20Y805D01*
X13Y804D01*
X5Y801D01*
X-1Y796D01*
X-6Y790D01*
X-9Y783D01*
X-10Y775D01*
X-9Y767D01*
X-6Y760D01*
X-1Y754D01*
X5Y749D01*
X13Y746D01*
X20Y745D01*
X28Y746D01*
X35Y749D01*
X41Y754D01*
X45Y759D01*
X175D01*
X181Y760D01*
X186Y764D01*
X202Y779D01*
X245D01*
X249Y774D01*
X255Y769D01*
X262Y766D01*
X270Y765D01*
X278Y766D01*
X285Y769D01*
X291Y774D01*
X296Y780D01*
X299Y787D01*
X300Y795D01*
X299Y803D01*
X296Y810D01*
X291Y816D01*
X285Y821D01*
X278Y824D01*
X270Y825D01*
D02*
G37*
G36*
X-925Y863D02*
X-935Y862D01*
X-944Y858D01*
X-952Y852D01*
X-958Y844D01*
X-962Y835D01*
X-963Y825D01*
X-962Y815D01*
X-958Y806D01*
X-952Y798D01*
X-944Y792D01*
X-935Y788D01*
X-925Y787D01*
X-915Y788D01*
X-912Y790D01*
X-886Y763D01*
Y733D01*
X-891Y732D01*
X-892Y734D01*
X-898Y742D01*
X-906Y748D01*
X-915Y752D01*
X-925Y753D01*
X-935Y752D01*
X-944Y748D01*
X-952Y742D01*
X-958Y734D01*
X-962Y725D01*
X-963Y715D01*
X-962Y705D01*
X-958Y696D01*
X-952Y688D01*
X-952Y686D01*
X-1186Y451D01*
X-1190Y446D01*
X-1191Y440D01*
Y-249D01*
X-1295Y-353D01*
X-1299Y-359D01*
X-1300Y-365D01*
Y-463D01*
X-1305Y-466D01*
X-1310Y-473D01*
X-1313Y-480D01*
X-1314Y-488D01*
X-1313Y-495D01*
X-1310Y-503D01*
X-1305Y-509D01*
X-1299Y-514D01*
X-1291Y-517D01*
X-1284Y-518D01*
X-1276Y-517D01*
X-1269Y-514D01*
X-1262Y-509D01*
X-1259Y-504D01*
X-1009D01*
X-1005Y-509D01*
X-999Y-514D01*
X-991Y-517D01*
X-984Y-518D01*
X-976Y-517D01*
X-969Y-514D01*
X-962Y-509D01*
X-958Y-503D01*
X-955Y-495D01*
X-954Y-488D01*
X-955Y-480D01*
X-958Y-473D01*
X-962Y-466D01*
X-968Y-462D01*
X-968Y-461D01*
X-967Y-457D01*
X-908D01*
X-904Y-462D01*
X-898Y-467D01*
X-891Y-470D01*
X-883Y-471D01*
X-875Y-470D01*
X-868Y-467D01*
X-862Y-462D01*
X-857Y-456D01*
X-854Y-449D01*
X-853Y-441D01*
X-854Y-433D01*
X-857Y-426D01*
X-862Y-420D01*
X-868Y-415D01*
X-875Y-412D01*
X-883Y-411D01*
X-891Y-412D01*
X-898Y-415D01*
X-904Y-420D01*
X-908Y-425D01*
X-1159D01*
X-1162Y-420D01*
X-1169Y-415D01*
X-1174Y-413D01*
X-1173Y-408D01*
X-1167Y-407D01*
X-1160Y-404D01*
X-1154Y-399D01*
X-1149Y-393D01*
X-1146Y-386D01*
X-1145Y-378D01*
X-1146Y-372D01*
X-1104Y-329D01*
X-1100Y-324D01*
X-1099Y-318D01*
Y306D01*
X-1094Y310D01*
X-1089Y316D01*
X-1086Y323D01*
X-1085Y331D01*
X-1086Y339D01*
X-1089Y346D01*
X-1094Y352D01*
X-1100Y357D01*
X-1107Y360D01*
X-1115Y361D01*
X-1123Y360D01*
X-1129Y357D01*
X-1134Y360D01*
Y423D01*
X-953Y604D01*
X-915D01*
X-909Y605D01*
X-904Y609D01*
X-859Y654D01*
X-855Y659D01*
X-854Y665D01*
Y770D01*
X-855Y776D01*
X-859Y781D01*
X-890Y812D01*
X-888Y815D01*
X-887Y825D01*
X-888Y835D01*
X-892Y844D01*
X-898Y852D01*
X-906Y858D01*
X-915Y862D01*
X-925Y863D01*
D02*
G37*
G36*
X-1325Y990D02*
X-1357D01*
X-1357Y985D01*
X-1353Y976D01*
X-1347Y968D01*
X-1339Y962D01*
X-1330Y958D01*
X-1325Y958D01*
Y990D01*
D02*
G37*
G36*
X-1315Y1032D02*
Y1000D01*
X-1283D01*
X-1283Y1005D01*
X-1287Y1014D01*
X-1293Y1022D01*
X-1301Y1028D01*
X-1310Y1032D01*
X-1315Y1032D01*
D02*
G37*
G36*
X-1325D02*
X-1330Y1032D01*
X-1339Y1028D01*
X-1347Y1022D01*
X-1353Y1014D01*
X-1357Y1005D01*
X-1357Y1000D01*
X-1325D01*
Y1032D01*
D02*
G37*
G36*
X-1283Y990D02*
X-1315D01*
Y958D01*
X-1310Y958D01*
X-1301Y962D01*
X-1293Y968D01*
X-1287Y976D01*
X-1283Y985D01*
X-1283Y990D01*
D02*
G37*
G36*
X-1570Y685D02*
X-1580Y684D01*
X-1590Y680D01*
X-1598Y673D01*
X-1605Y665D01*
X-1609Y655D01*
X-1610Y645D01*
X-1609Y635D01*
X-1605Y625D01*
X-1598Y617D01*
X-1590Y610D01*
X-1580Y606D01*
X-1570Y605D01*
X-1560Y606D01*
X-1550Y610D01*
X-1542Y617D01*
X-1535Y625D01*
X-1531Y635D01*
X-1530Y645D01*
X-1531Y655D01*
X-1535Y665D01*
X-1542Y673D01*
X-1550Y680D01*
X-1560Y684D01*
X-1570Y685D01*
D02*
G37*
G36*
X-1670D02*
X-1680Y684D01*
X-1690Y680D01*
X-1698Y673D01*
X-1705Y665D01*
X-1709Y655D01*
X-1710Y645D01*
X-1709Y635D01*
X-1705Y625D01*
X-1698Y617D01*
X-1690Y610D01*
X-1680Y606D01*
X-1670Y605D01*
X-1660Y606D01*
X-1650Y610D01*
X-1642Y617D01*
X-1635Y625D01*
X-1631Y635D01*
X-1630Y645D01*
X-1631Y655D01*
X-1635Y665D01*
X-1642Y673D01*
X-1650Y680D01*
X-1660Y684D01*
X-1670Y685D01*
D02*
G37*
G36*
X-295Y723D02*
X-305Y722D01*
X-314Y718D01*
X-322Y712D01*
X-328Y704D01*
X-332Y695D01*
X-333Y685D01*
X-332Y675D01*
X-328Y666D01*
X-322Y658D01*
X-314Y652D01*
X-305Y648D01*
X-295Y647D01*
X-285Y648D01*
X-282Y650D01*
X-260Y627D01*
Y349D01*
X-500Y110D01*
X-503Y105D01*
X-504Y98D01*
Y-505D01*
X-503Y-511D01*
X-500Y-516D01*
X-495Y-521D01*
Y-709D01*
X-500Y-713D01*
X-505Y-719D01*
X-508Y-726D01*
X-509Y-734D01*
X-508Y-742D01*
X-505Y-749D01*
X-500Y-755D01*
X-494Y-760D01*
X-487Y-763D01*
X-479Y-764D01*
X-471Y-763D01*
X-464Y-760D01*
X-458Y-755D01*
X-453Y-749D01*
X-450Y-742D01*
X-449Y-734D01*
X-450Y-726D01*
X-453Y-719D01*
X-458Y-713D01*
X-463Y-709D01*
Y-514D01*
X-464Y-508D01*
X-468Y-503D01*
X-472Y-498D01*
Y-411D01*
X-472Y-411D01*
X-467Y-410D01*
X-462Y-417D01*
X-454Y-423D01*
X-445Y-427D01*
X-435Y-428D01*
X-425Y-427D01*
X-416Y-423D01*
X-408Y-417D01*
X-402Y-409D01*
X-398Y-400D01*
X-397Y-390D01*
X-398Y-380D01*
X-402Y-371D01*
X-408Y-363D01*
X-415Y-358D01*
Y42D01*
X-351Y105D01*
X-350Y105D01*
X-342Y106D01*
X-335Y109D01*
X-329Y114D01*
X-324Y120D01*
X-321Y127D01*
X-320Y135D01*
X-321Y143D01*
X-324Y150D01*
X-329Y156D01*
X-335Y161D01*
X-342Y164D01*
X-350Y165D01*
X-358Y164D01*
X-365Y161D01*
X-371Y156D01*
X-376Y150D01*
X-379Y143D01*
X-380Y135D01*
X-380Y134D01*
X-449Y64D01*
X-454Y58D01*
X-455Y50D01*
Y-358D01*
X-462Y-363D01*
X-467Y-370D01*
X-472Y-369D01*
X-472Y-369D01*
Y92D01*
X-233Y331D01*
X-229Y336D01*
X-228Y343D01*
Y634D01*
X-229Y640D01*
X-233Y646D01*
X-251Y664D01*
X-249Y669D01*
X-227D01*
X-216Y658D01*
X-210Y654D01*
X-204Y653D01*
X-124D01*
X-122Y648D01*
X-124Y645D01*
X-127Y638D01*
X-128Y630D01*
X-127Y622D01*
X-124Y615D01*
X-120Y609D01*
X-113Y604D01*
X-106Y601D01*
X-98Y600D01*
X-91Y601D01*
X-83Y604D01*
X-77Y609D01*
X-73Y614D01*
X173D01*
X179Y615D01*
X185Y618D01*
X212Y646D01*
X216Y651D01*
X217Y657D01*
Y664D01*
X222Y668D01*
X227Y674D01*
X230Y681D01*
X231Y689D01*
X230Y697D01*
X227Y704D01*
X222Y710D01*
X216Y715D01*
X209Y718D01*
X201Y719D01*
X193Y718D01*
X186Y715D01*
X180Y710D01*
X175Y704D01*
X172Y697D01*
X171Y689D01*
X172Y681D01*
X175Y674D01*
X180Y668D01*
X181Y666D01*
X182Y661D01*
X167Y646D01*
X144D01*
X142Y651D01*
X144Y654D01*
X147Y662D01*
X148Y669D01*
X147Y677D01*
X144Y684D01*
X139Y690D01*
X133Y695D01*
X126Y698D01*
X118Y699D01*
X110Y698D01*
X103Y695D01*
X97Y690D01*
X93Y686D01*
X-198D01*
X-209Y696D01*
X-214Y700D01*
X-220Y701D01*
X-261D01*
X-262Y704D01*
X-268Y712D01*
X-276Y718D01*
X-285Y722D01*
X-295Y723D01*
D02*
G37*
G36*
X1655Y700D02*
X1645Y699D01*
X1635Y695D01*
X1627Y688D01*
X1620Y680D01*
X1616Y670D01*
X1615Y660D01*
X1616Y650D01*
X1620Y640D01*
X1627Y632D01*
X1635Y625D01*
X1645Y621D01*
X1655Y620D01*
X1665Y621D01*
X1675Y625D01*
X1683Y632D01*
X1690Y640D01*
X1694Y650D01*
X1695Y660D01*
X1694Y670D01*
X1690Y680D01*
X1683Y688D01*
X1675Y695D01*
X1665Y699D01*
X1655Y700D01*
D02*
G37*
G36*
X1695Y800D02*
X1615D01*
Y780D01*
X1605D01*
X1597Y779D01*
X1591Y774D01*
X1556Y739D01*
X1551Y733D01*
X1550Y725D01*
Y590D01*
X1551Y582D01*
X1556Y576D01*
X1586Y546D01*
X1592Y541D01*
X1600Y540D01*
X1621D01*
X1627Y532D01*
X1635Y525D01*
X1645Y521D01*
X1655Y520D01*
X1665Y521D01*
X1675Y525D01*
X1683Y532D01*
X1690Y540D01*
X1694Y550D01*
X1695Y560D01*
X1694Y570D01*
X1690Y580D01*
X1683Y588D01*
X1675Y595D01*
X1665Y599D01*
X1655Y600D01*
X1645Y599D01*
X1635Y595D01*
X1627Y588D01*
X1621Y580D01*
X1608D01*
X1590Y598D01*
Y717D01*
X1610Y737D01*
X1615Y735D01*
Y720D01*
X1695D01*
Y800D01*
D02*
G37*
G36*
X-1630Y785D02*
X-1710D01*
Y705D01*
X-1630D01*
Y785D01*
D02*
G37*
G36*
X-1570Y785D02*
X-1580Y784D01*
X-1590Y780D01*
X-1598Y773D01*
X-1605Y765D01*
X-1609Y755D01*
X-1610Y745D01*
X-1609Y735D01*
X-1605Y725D01*
X-1598Y717D01*
X-1590Y710D01*
X-1580Y706D01*
X-1570Y705D01*
X-1560Y706D01*
X-1550Y710D01*
X-1542Y717D01*
X-1535Y725D01*
X-1531Y735D01*
X-1530Y745D01*
X-1531Y755D01*
X-1535Y765D01*
X-1542Y773D01*
X-1550Y780D01*
X-1560Y784D01*
X-1570Y785D01*
D02*
G37*
%LPD*%
D26*
X976Y1209D02*
X1310Y875D01*
X1510D01*
X-435Y525D02*
Y1199D01*
X-510Y225D02*
Y450D01*
X-435Y525D01*
X-1159Y1209D02*
X976D01*
X-1181Y1231D02*
Y1280D01*
Y1231D02*
X-1159Y1209D01*
X-435Y-400D02*
Y50D01*
X-350Y135D01*
X520Y1212D02*
Y1280D01*
D27*
X-580Y75D02*
X-450Y205D01*
Y400D01*
X-390Y460D01*
X755Y1175D02*
X875Y1055D01*
X235Y1133D02*
X319D01*
X-83Y815D02*
X235Y1133D01*
X195Y795D02*
X270D01*
X175Y775D02*
X195Y795D01*
X20Y775D02*
X175D01*
X493Y907D02*
X572Y987D01*
X493Y441D02*
Y907D01*
X-488Y-505D02*
Y98D01*
X-479Y-734D02*
Y-514D01*
X-488Y-505D02*
X-479Y-514D01*
X-123Y-62D02*
Y-35D01*
X108Y52D02*
X120Y40D01*
Y-23D02*
Y40D01*
X108Y-35D02*
X120Y-23D01*
X77Y-35D02*
X108D01*
X79Y52D02*
X108D01*
X46Y85D02*
X79Y52D01*
X42Y85D02*
X46D01*
X-1620Y495D02*
X-1520D01*
X-1670Y445D02*
X-1620Y495D01*
X-1650Y-70D02*
X-1560D01*
X-1650Y-170D02*
X-1580D01*
X-1400Y10D01*
X-1305D01*
X-1650Y-370D02*
X-1605D01*
X-1345Y-110D01*
X-1305D01*
X-1650Y-270D02*
X-1580D01*
X-1360Y-50D01*
X-1305D01*
X-1570Y445D02*
X-1335D01*
X-1210Y570D01*
X-1520Y495D02*
X-1385Y630D01*
Y810D01*
X-1305Y-225D02*
X-1275D01*
X-1260Y-210D01*
Y25D01*
X-1560Y-70D02*
X-1420Y70D01*
X-1305D01*
X-1260Y25D01*
X-1284Y-488D02*
X-984D01*
X-1184Y-441D02*
X-883D01*
X-1284Y-488D02*
Y-365D01*
X-1175Y-378D02*
X-1115Y-318D01*
Y331D01*
X-1235Y-420D02*
X-1214Y-441D01*
X-1184D01*
X-1235Y-420D02*
Y-365D01*
X-295Y685D02*
X-244Y634D01*
X201Y657D02*
Y689D01*
X-98Y630D02*
X173D01*
X201Y657D01*
X-488Y98D02*
X-244Y343D01*
Y634D01*
X-390Y460D02*
Y1050D01*
X-265Y1175D01*
X755D01*
X-295Y685D02*
X-220D01*
X-204Y669D01*
X118D01*
X-704Y-66D02*
X-580Y58D01*
Y75D01*
X-123Y-62D02*
X-95Y-90D01*
X370D01*
X420Y-40D01*
X-1670Y345D02*
X-1625Y390D01*
X-1020Y-301D02*
Y475D01*
Y-301D02*
X-934Y-388D01*
X-1150Y740D02*
X-1115Y705D01*
X-1625Y390D02*
X-1340D01*
X-1150Y580D01*
Y630D01*
X-1235Y-365D02*
X-1150Y-280D01*
Y430D01*
X-1284Y-365D02*
X-1175Y-256D01*
X-1570Y345D02*
X-1350D01*
X-1115Y580D01*
Y705D01*
X-1175Y-256D02*
Y440D01*
X-925Y825D02*
X-870Y770D01*
X-925Y690D02*
Y725D01*
X-1175Y440D02*
X-925Y690D01*
X-915Y620D02*
X-870Y665D01*
X-960Y620D02*
X-915D01*
X-870Y665D02*
Y770D01*
X-1150Y430D02*
X-960Y620D01*
D28*
X975Y325D02*
X1750D01*
D30*
X74Y130D02*
X92Y112D01*
X-50Y130D02*
X74D01*
X92Y85D02*
Y112D01*
X-1599Y-470D02*
X-1450Y-321D01*
X-1650Y-470D02*
X-1599D01*
X-1450Y-321D02*
Y-280D01*
X-1341Y-171D01*
X-1311D01*
X-1305Y-165D01*
X-77Y103D02*
X-50Y130D01*
D31*
X1570Y590D02*
Y725D01*
Y590D02*
X1600Y560D01*
X1570Y725D02*
X1605Y760D01*
X1655D01*
X1600Y560D02*
X1655D01*
D36*
Y760D02*
D03*
X-1650Y-70D02*
D03*
X-1670Y745D02*
D03*
D37*
X1655Y660D02*
D03*
Y560D02*
D03*
Y460D02*
D03*
X-704Y-66D02*
D03*
X-916Y146D02*
D03*
X-1650Y-570D02*
D03*
Y-470D02*
D03*
Y-370D02*
D03*
Y-270D02*
D03*
Y-170D02*
D03*
X-1670Y345D02*
D03*
X-1570D02*
D03*
Y445D02*
D03*
X-1670D02*
D03*
X-1570Y545D02*
D03*
X-1670D02*
D03*
X-1570Y645D02*
D03*
X-1670D02*
D03*
X-1570Y745D02*
D03*
X588Y-1280D02*
D03*
X178D02*
D03*
X588Y-560D02*
D03*
X178D02*
D03*
X78D02*
D03*
X488D02*
D03*
X78Y-1280D02*
D03*
X488D02*
D03*
X-293Y-895D02*
D03*
X-97D02*
D03*
D38*
X30Y-390D02*
D03*
X-435D02*
D03*
X-1320Y995D02*
D03*
X-745Y-390D02*
D03*
X585Y399D02*
D03*
X-295Y685D02*
D03*
X-925Y825D02*
D03*
Y715D02*
D03*
X-83Y815D02*
D03*
D39*
X-335Y-1180D02*
D03*
X795D02*
D03*
X-1410D02*
D03*
D40*
X-135D02*
D03*
X1395D02*
D03*
X1195D02*
D03*
X995D02*
D03*
X1630Y-280D02*
D03*
Y-80D02*
D03*
Y120D02*
D03*
X-1210Y-1180D02*
D03*
X-1010D02*
D03*
X-810D02*
D03*
D41*
X1630Y-480D02*
D03*
D42*
X77Y15D02*
D03*
D43*
Y-35D02*
D03*
X27Y15D02*
D03*
Y-35D02*
D03*
X-23Y15D02*
D03*
Y-35D02*
D03*
X-73D02*
D03*
X-123Y15D02*
D03*
Y-35D02*
D03*
X1510Y875D02*
D03*
X-510Y225D02*
D03*
X875Y1055D02*
D03*
X20Y775D02*
D03*
X270Y795D02*
D03*
X1750Y325D02*
D03*
X975D02*
D03*
X188Y139D02*
D03*
X92Y85D02*
D03*
X42D02*
D03*
X560Y-320D02*
D03*
X360D02*
D03*
X493Y441D02*
D03*
X-1184Y-441D02*
D03*
X-883D02*
D03*
X-768Y484D02*
D03*
X-1440Y-800D02*
D03*
X-790D02*
D03*
X572Y987D02*
D03*
X-360Y-440D02*
D03*
X750Y152D02*
D03*
X-80Y-320D02*
D03*
X160D02*
D03*
X110Y-685D02*
D03*
X1725Y-1000D02*
D03*
Y-750D02*
D03*
X-1675Y-1025D02*
D03*
Y-795D02*
D03*
X-300Y-320D02*
D03*
X-1050Y-355D02*
D03*
X-1305Y-315D02*
D03*
X685Y82D02*
D03*
X-1050Y1045D02*
D03*
X-1550Y1000D02*
D03*
X-360Y370D02*
D03*
X-157Y215D02*
D03*
X-296Y218D02*
D03*
X630Y-695D02*
D03*
X750Y7D02*
D03*
X371Y-1183D02*
D03*
Y-983D02*
D03*
X471D02*
D03*
Y-1083D02*
D03*
Y-1183D02*
D03*
X271D02*
D03*
Y-1083D02*
D03*
Y-983D02*
D03*
Y-883D02*
D03*
X371D02*
D03*
X471D02*
D03*
X571D02*
D03*
Y-983D02*
D03*
Y-1083D02*
D03*
Y-1183D02*
D03*
X371Y-1283D02*
D03*
X271D02*
D03*
X171Y-1183D02*
D03*
Y-883D02*
D03*
Y-983D02*
D03*
Y-1083D02*
D03*
X371Y-1081D02*
D03*
X-1298Y708D02*
D03*
X-1305Y-230D02*
D03*
Y-170D02*
D03*
Y-110D02*
D03*
Y10D02*
D03*
Y-50D02*
D03*
X-1095Y405D02*
D03*
X-1115Y331D02*
D03*
X-984Y-488D02*
D03*
X-1284D02*
D03*
X-934Y-388D02*
D03*
X319Y1133D02*
D03*
X-1070Y-80D02*
D03*
X-781Y-70D02*
D03*
X-551D02*
D03*
X148Y-52D02*
D03*
X440Y195D02*
D03*
Y35D02*
D03*
X-1110Y-800D02*
D03*
X-1445Y-1054D02*
D03*
X-1273Y-1055D02*
D03*
X-1114Y-1054D02*
D03*
X-946Y-1055D02*
D03*
X-790Y-1054D02*
D03*
X-1415Y-1315D02*
D03*
X-1215D02*
D03*
X-1015D02*
D03*
X-815D02*
D03*
X-1210Y570D02*
D03*
X-1385Y810D02*
D03*
X-350Y135D02*
D03*
X-295Y-70D02*
D03*
Y80D02*
D03*
X750Y-403D02*
D03*
X685Y-328D02*
D03*
X750Y-258D02*
D03*
X815Y82D02*
D03*
X820Y-328D02*
D03*
X189Y968D02*
D03*
X-800Y1045D02*
D03*
X-550D02*
D03*
X-300D02*
D03*
X-1175Y-378D02*
D03*
X-215Y725D02*
D03*
X-645Y720D02*
D03*
X-100Y1045D02*
D03*
X-515Y575D02*
D03*
X118Y669D02*
D03*
X-319Y575D02*
D03*
X-98Y630D02*
D03*
X201Y689D02*
D03*
X-230Y-440D02*
D03*
X-479Y-734D02*
D03*
X-675Y150D02*
D03*
X-1070Y190D02*
D03*
X-1330Y165D02*
D03*
X-675Y275D02*
D03*
X400Y460D02*
D03*
X420Y-40D02*
D03*
X-77Y103D02*
D03*
X-1150Y740D02*
D03*
Y630D02*
D03*
X-1020Y475D02*
D03*
X-1605Y160D02*
D03*
D44*
X950Y82D02*
D03*
X750D02*
D03*
X950Y-333D02*
D03*
X750D02*
D03*
D45*
X-1280Y1280D02*
D03*
X-1180D02*
D03*
X-1080D02*
D03*
X-980D02*
D03*
X-880D02*
D03*
X-780D02*
D03*
X-580D02*
D03*
X-480D02*
D03*
X-380D02*
D03*
X-280D02*
D03*
X-180D02*
D03*
X-80D02*
D03*
X20D02*
D03*
X120D02*
D03*
X220D02*
D03*
X320D02*
D03*
X420D02*
D03*
X520D02*
D03*
X-680D02*
D03*
D46*
X619D02*
D03*
D47*
X-1732D02*
D03*
X1732D02*
D03*
Y-1280D02*
D03*
X-1732D02*
D03*
X-644Y548D02*
D03*
M02*
