G04 Layer_Color=65535*
%FSLAX23Y23*%
%MOIN*%
G70*
G01*
G75*
%ADD25C,0.010*%
%ADD29C,0.024*%
%ADD46C,0.008*%
%ADD47C,0.015*%
%ADD48C,0.010*%
%ADD49C,0.004*%
%ADD50C,0.008*%
%ADD51C,0.005*%
%ADD52C,0.012*%
%ADD53C,0.007*%
G36*
X180Y-26D02*
X125Y9D01*
X180Y39D01*
Y-26D01*
D02*
G37*
G36*
X-898Y159D02*
X-898Y158D01*
Y158D01*
Y157D01*
X-890Y118D01*
Y117D01*
X-890Y116D01*
X-889Y116D01*
X-888D01*
X-862Y105D01*
X-859D01*
X-826Y128D01*
X-824D01*
X-823Y127D01*
X-795Y100D01*
Y98D01*
Y98D01*
Y97D01*
Y97D01*
X-817Y64D01*
Y63D01*
Y63D01*
Y62D01*
Y61D01*
Y61D01*
X-806Y33D01*
X-805Y32D01*
X-804Y32D01*
X-803D01*
X-766Y25D01*
X-765D01*
X-764Y25D01*
Y24D01*
Y23D01*
Y-17D01*
X-765Y-18D01*
X-765Y-18D01*
X-766D01*
X-802Y-26D01*
X-803D01*
X-804Y-27D01*
Y-27D01*
Y-28D01*
X-817Y-57D01*
Y-58D01*
Y-59D01*
Y-59D01*
Y-60D01*
X-795Y-91D01*
Y-92D01*
Y-92D01*
Y-93D01*
X-823Y-121D01*
X-825Y-122D01*
X-825D01*
X-826Y-121D01*
X-856Y-100D01*
X-859D01*
X-872Y-108D01*
X-875Y-108D01*
X-875Y-107D01*
X-902Y-40D01*
X-902Y-38D01*
X-901Y-37D01*
X-898Y-35D01*
X-897Y-35D01*
X-897D01*
X-896Y-34D01*
X-896Y-33D01*
X-889Y-28D01*
X-885Y-23D01*
X-881Y-17D01*
X-878Y-11D01*
X-877Y-6D01*
X-877Y-2D01*
X-876Y1D01*
Y2D01*
X-877Y9D01*
X-878Y15D01*
X-880Y20D01*
X-883Y25D01*
X-885Y28D01*
X-887Y31D01*
X-888Y33D01*
X-889Y33D01*
X-894Y38D01*
X-899Y41D01*
X-905Y43D01*
X-909Y45D01*
X-913Y46D01*
X-917Y47D01*
X-920D01*
X-926Y46D01*
X-932Y45D01*
X-937Y42D01*
X-942Y40D01*
X-945Y38D01*
X-948Y36D01*
X-950Y34D01*
X-950Y33D01*
X-955Y28D01*
X-957Y23D01*
X-960Y18D01*
X-961Y13D01*
X-962Y9D01*
X-963Y6D01*
Y3D01*
Y2D01*
X-962Y-6D01*
X-960Y-13D01*
X-957Y-19D01*
X-953Y-24D01*
X-949Y-28D01*
X-946Y-31D01*
X-944Y-33D01*
X-943Y-33D01*
X-942Y-34D01*
X-942Y-35D01*
X-941Y-35D01*
X-937Y-37D01*
X-937Y-39D01*
Y-39D01*
Y-40D01*
X-965Y-107D01*
X-965Y-108D01*
X-966Y-108D01*
X-967D01*
X-980Y-100D01*
X-983D01*
X-1013Y-121D01*
X-1014Y-122D01*
X-1015D01*
X-1016Y-121D01*
X-1044Y-93D01*
Y-93D01*
Y-92D01*
Y-91D01*
X-1022Y-60D01*
Y-59D01*
Y-59D01*
Y-58D01*
Y-57D01*
X-1035Y-28D01*
X-1035Y-27D01*
X-1036Y-26D01*
X-1037D01*
X-1073Y-18D01*
X-1075Y-18D01*
X-1075Y-17D01*
Y-17D01*
Y23D01*
Y25D01*
X-1075Y25D01*
X-1073D01*
X-1036Y32D01*
X-1035Y32D01*
X-1034Y33D01*
Y33D01*
X-1021Y61D01*
Y62D01*
Y62D01*
Y63D01*
Y64D01*
X-1044Y97D01*
Y97D01*
Y98D01*
Y99D01*
Y100D01*
X-1016Y127D01*
X-1015Y128D01*
X-1013D01*
X-980Y105D01*
X-977D01*
X-951Y116D01*
X-950Y116D01*
X-949Y117D01*
Y117D01*
Y118D01*
X-941Y157D01*
Y158D01*
X-941Y159D01*
X-900D01*
X-898Y159D01*
D02*
G37*
G36*
X-1649Y8D02*
X-1679Y63D01*
X-1614D01*
X-1649Y8D01*
D02*
G37*
G36*
X-1670Y817D02*
X-1700Y873D01*
X-1635D01*
X-1670Y817D01*
D02*
G37*
G36*
X1582Y460D02*
X1528Y430D01*
Y495D01*
X1582Y460D01*
D02*
G37*
D25*
X1047Y-250D02*
G03*
X1047Y-250I-197J0D01*
G01*
Y165D02*
G03*
X1047Y165I-197J0D01*
G01*
X10Y-1350D02*
X670D01*
Y-490D01*
X10D02*
X670D01*
X10Y-1350D02*
Y-490D01*
X799Y990D02*
X899D01*
X849Y940D02*
Y1040D01*
X875Y-275D02*
Y-225D01*
X850Y-250D02*
X900D01*
X875Y140D02*
Y190D01*
X850Y165D02*
X900D01*
X-40Y-760D02*
Y-524D01*
X-349Y-522D02*
X-22D01*
X-350Y-760D02*
Y-524D01*
Y-760D02*
X-349Y-762D01*
X-22D01*
X-20Y-760D02*
Y-524D01*
X-22Y-762D02*
X-20Y-760D01*
X-760Y-1369D02*
Y-1280D01*
X-770Y-1270D02*
X-760Y-1280D01*
X-850Y-1270D02*
X-770D01*
X-860Y-1280D02*
X-850Y-1270D01*
X-860Y-1370D02*
Y-1280D01*
X-1060Y-1370D02*
Y-1280D01*
X-1050Y-1270D01*
X-970D01*
X-960Y-1280D01*
Y-1369D02*
Y-1280D01*
X-1360Y-1369D02*
Y-1280D01*
X-1370Y-1270D02*
X-1360Y-1280D01*
X-1450Y-1270D02*
X-1370D01*
X-1460Y-1280D02*
X-1450Y-1270D01*
X-1460Y-1370D02*
Y-1280D01*
X-1260Y-1370D02*
Y-1280D01*
X-1250Y-1270D01*
X-1170D01*
X-1160Y-1280D01*
Y-1369D02*
Y-1280D01*
X1730Y170D02*
X1819D01*
X1720Y160D02*
X1730Y170D01*
X1720Y80D02*
Y160D01*
Y80D02*
X1730Y70D01*
X1820D01*
X1730Y-130D02*
X1820D01*
X1720Y-120D02*
X1730Y-130D01*
X1720Y-120D02*
Y-40D01*
X1730Y-30D01*
X1819D01*
X1730Y-430D02*
X1819D01*
X1720Y-440D02*
X1730Y-430D01*
X1720Y-520D02*
Y-440D01*
Y-520D02*
X1730Y-530D01*
X1820D01*
X1730Y-330D02*
X1820D01*
X1720Y-320D02*
X1730Y-330D01*
X1720Y-320D02*
Y-240D01*
X1730Y-230D01*
X1819D01*
X1045Y-1369D02*
Y-1280D01*
X1035Y-1270D02*
X1045Y-1280D01*
X955Y-1270D02*
X1035D01*
X945Y-1280D02*
X955Y-1270D01*
X945Y-1370D02*
Y-1280D01*
X745Y-1370D02*
Y-1280D01*
X755Y-1270D01*
X835D01*
X845Y-1280D01*
Y-1369D02*
Y-1280D01*
X1245Y-1369D02*
Y-1280D01*
X1235Y-1270D02*
X1245Y-1280D01*
X1155Y-1270D02*
X1235D01*
X1145Y-1280D02*
X1155Y-1270D01*
X1145Y-1370D02*
Y-1280D01*
X1345Y-1370D02*
Y-1280D01*
X1355Y-1270D01*
X1435D01*
X1445Y-1280D01*
Y-1369D02*
Y-1280D01*
X-65Y-1369D02*
Y-1280D01*
X-75Y-1270D02*
X-65Y-1280D01*
X-155Y-1270D02*
X-75D01*
X-165Y-1280D02*
X-155Y-1270D01*
X-165Y-1370D02*
Y-1280D01*
X-365Y-1370D02*
Y-1280D01*
X-355Y-1270D01*
X-275D01*
X-265Y-1280D01*
Y-1369D02*
Y-1280D01*
X-999Y-176D02*
X-1019D01*
X-1029Y-186D01*
Y-226D01*
X-1019Y-236D01*
X-999D01*
X-989Y-226D01*
Y-186D01*
X-999Y-176D01*
X-929Y-186D02*
X-939Y-176D01*
X-959D01*
X-969Y-186D01*
Y-196D01*
X-959Y-206D01*
X-939D01*
X-929Y-216D01*
Y-226D01*
X-939Y-236D01*
X-959D01*
X-969Y-226D01*
X-909Y-176D02*
Y-236D01*
Y-206D01*
X-869D01*
Y-176D01*
Y-236D01*
X-849Y-176D02*
Y-236D01*
X-829Y-216D01*
X-809Y-236D01*
Y-176D01*
X1529Y-1254D02*
X1521Y-1262D01*
Y-1279D01*
X1529Y-1287D01*
X1538D01*
X1546Y-1279D01*
Y-1262D01*
X1554Y-1254D01*
X1563D01*
X1571Y-1262D01*
Y-1279D01*
X1563Y-1287D01*
X1529Y-1204D02*
X1521Y-1212D01*
Y-1229D01*
X1529Y-1237D01*
X1538D01*
X1546Y-1229D01*
Y-1212D01*
X1554Y-1204D01*
X1563D01*
X1571Y-1212D01*
Y-1229D01*
X1563Y-1237D01*
X1571Y-1187D02*
X1521D01*
Y-1162D01*
X1529Y-1154D01*
X1546D01*
X1554Y-1162D01*
Y-1187D01*
Y-1171D02*
X1571Y-1154D01*
Y-1137D02*
Y-1112D01*
X1563Y-1104D01*
X1554Y-1112D01*
Y-1129D01*
X1546Y-1137D01*
X1538Y-1129D01*
Y-1104D01*
X-720Y1211D02*
Y1161D01*
X-687D01*
X-637Y1203D02*
X-645Y1211D01*
X-662D01*
X-670Y1203D01*
Y1170D01*
X-662Y1161D01*
X-645D01*
X-637Y1170D01*
X-621Y1211D02*
Y1161D01*
X-596D01*
X-587Y1170D01*
Y1203D01*
X-596Y1211D01*
X-621D01*
X-521Y1161D02*
Y1211D01*
X-504Y1195D01*
X-487Y1211D01*
Y1161D01*
X-462D02*
X-446D01*
X-437Y1170D01*
Y1186D01*
X-446Y1195D01*
X-462D01*
X-471Y1186D01*
Y1170D01*
X-462Y1161D01*
X-387Y1211D02*
Y1161D01*
X-412D01*
X-421Y1170D01*
Y1186D01*
X-412Y1195D01*
X-387D01*
X-371D02*
Y1170D01*
X-362Y1161D01*
X-337D01*
Y1195D01*
X-321Y1161D02*
X-304D01*
X-312D01*
Y1211D01*
X-321D01*
X-254Y1161D02*
X-271D01*
X-279Y1170D01*
Y1186D01*
X-271Y1195D01*
X-254D01*
X-246Y1186D01*
Y1178D01*
X-279D01*
X-1500Y358D02*
Y325D01*
X-1450D01*
Y358D01*
X-1475Y325D02*
Y342D01*
X-1483Y375D02*
X-1450Y408D01*
X-1467Y392D01*
X-1483Y408D01*
X-1450Y375D01*
X-1433Y425D02*
X-1483D01*
Y450D01*
X-1475Y458D01*
X-1458D01*
X-1450Y450D01*
Y425D01*
X-1483Y483D02*
Y500D01*
X-1475Y508D01*
X-1450D01*
Y483D01*
X-1458Y475D01*
X-1467Y483D01*
Y508D01*
X-1450Y525D02*
X-1483D01*
Y550D01*
X-1475Y558D01*
X-1450D01*
Y575D02*
Y600D01*
X-1458Y608D01*
X-1467Y600D01*
Y583D01*
X-1475Y575D01*
X-1483Y583D01*
Y608D01*
X-1450Y625D02*
Y642D01*
Y633D01*
X-1483D01*
Y625D01*
X-1450Y675D02*
Y692D01*
X-1458Y700D01*
X-1475D01*
X-1483Y692D01*
Y675D01*
X-1475Y667D01*
X-1458D01*
X-1450Y675D01*
Y717D02*
X-1483D01*
Y742D01*
X-1475Y750D01*
X-1450D01*
X-1540Y-945D02*
Y-912D01*
Y-928D01*
X-1490D01*
X-1540Y-895D02*
X-1490D01*
X-1515D01*
Y-862D01*
X-1540D01*
X-1490D01*
Y-845D02*
Y-828D01*
Y-837D01*
X-1540D01*
X-1532Y-845D01*
X-1613Y-530D02*
X-1563D01*
Y-505D01*
X-1571Y-497D01*
X-1580D01*
X-1588Y-505D01*
Y-530D01*
Y-505D01*
X-1596Y-497D01*
X-1605D01*
X-1613Y-505D01*
Y-530D01*
X-1596Y-480D02*
X-1571D01*
X-1563Y-472D01*
Y-447D01*
X-1596D01*
X-1605Y-422D02*
X-1596D01*
Y-430D01*
Y-413D01*
Y-422D01*
X-1571D01*
X-1563Y-413D01*
X-1605Y-380D02*
X-1596D01*
Y-388D01*
Y-372D01*
Y-380D01*
X-1571D01*
X-1563Y-372D01*
Y-338D02*
Y-322D01*
X-1571Y-313D01*
X-1588D01*
X-1596Y-322D01*
Y-338D01*
X-1588Y-347D01*
X-1571D01*
X-1563Y-338D01*
Y-297D02*
X-1596D01*
Y-272D01*
X-1588Y-263D01*
X-1563D01*
Y-247D02*
Y-222D01*
X-1571Y-213D01*
X-1580Y-222D01*
Y-238D01*
X-1588Y-247D01*
X-1596Y-238D01*
Y-213D01*
X-453Y-1201D02*
X-445Y-1192D01*
Y-1176D01*
X-453Y-1167D01*
X-487D01*
X-495Y-1176D01*
Y-1192D01*
X-487Y-1201D01*
X-478D01*
X-470Y-1192D01*
Y-1167D01*
X-495Y-1151D02*
X-462D01*
X-445Y-1134D01*
X-462Y-1117D01*
X-495D01*
X-478Y-1092D02*
Y-1076D01*
X-470Y-1067D01*
X-445D01*
Y-1092D01*
X-453Y-1101D01*
X-462Y-1092D01*
Y-1067D01*
X-478Y-1018D02*
Y-1043D01*
X-470Y-1051D01*
X-453D01*
X-445Y-1043D01*
Y-1018D01*
X-1417Y-945D02*
Y-895D01*
X-1384Y-945D01*
Y-895D01*
X-1024Y-945D02*
Y-895D01*
X-990Y-945D01*
Y-895D01*
X-1220Y-945D02*
Y-895D01*
X-1195D01*
X-1187Y-903D01*
Y-920D01*
X-1195Y-928D01*
X-1220D01*
X-846Y-945D02*
Y-895D01*
X-821D01*
X-813Y-903D01*
Y-920D01*
X-821Y-928D01*
X-846D01*
X1539Y525D02*
X1589D01*
Y558D01*
X1539Y608D02*
Y575D01*
X1589D01*
Y608D01*
X1564Y575D02*
Y592D01*
X1539Y625D02*
X1589D01*
Y650D01*
X1581Y658D01*
X1547D01*
X1539Y650D01*
Y625D01*
X1589Y675D02*
Y700D01*
X1581Y708D01*
X1572Y700D01*
Y683D01*
X1564Y675D01*
X1556Y683D01*
Y708D01*
X1218Y-218D02*
X1210Y-210D01*
X1193D01*
X1185Y-218D01*
Y-252D01*
X1193Y-260D01*
X1210D01*
X1218Y-252D01*
X1243Y-227D02*
X1260D01*
X1268Y-235D01*
Y-260D01*
X1243D01*
X1235Y-252D01*
X1243Y-243D01*
X1268D01*
X1285Y-260D02*
X1310D01*
X1318Y-252D01*
X1310Y-243D01*
X1293D01*
X1285Y-235D01*
X1293Y-227D01*
X1318D01*
X1360Y-260D02*
X1343D01*
X1335Y-252D01*
Y-235D01*
X1343Y-227D01*
X1360D01*
X1368Y-235D01*
Y-243D01*
X1335D01*
X1195Y-485D02*
X1228D01*
X1212Y-468D02*
Y-502D01*
X1245Y-510D02*
X1262D01*
X1253D01*
Y-460D01*
X1245Y-468D01*
X1320Y-510D02*
X1287D01*
X1320Y-477D01*
Y-468D01*
X1312Y-460D01*
X1295D01*
X1287Y-468D01*
X1337Y-460D02*
Y-493D01*
X1353Y-510D01*
X1370Y-493D01*
Y-460D01*
X785Y-920D02*
Y-887D01*
X768Y-903D02*
X802D01*
X810Y-870D02*
Y-853D01*
Y-862D01*
X760D01*
X768Y-870D01*
X810Y-795D02*
Y-828D01*
X777Y-795D01*
X768D01*
X760Y-803D01*
Y-820D01*
X768Y-828D01*
X760Y-778D02*
X793D01*
X810Y-762D01*
X793Y-745D01*
X760D01*
X980Y-895D02*
Y-912D01*
X988Y-920D01*
X1022D01*
X1030Y-912D01*
Y-895D01*
X1022Y-887D01*
X988D01*
X980Y-895D01*
X997Y-870D02*
X1030Y-853D01*
X997Y-837D01*
X1030Y-795D02*
Y-812D01*
X1022Y-820D01*
X1005D01*
X997Y-812D01*
Y-795D01*
X1005Y-787D01*
X1013D01*
Y-820D01*
X1030Y-770D02*
X997D01*
Y-745D01*
X1005Y-737D01*
X1030D01*
X980Y-637D02*
Y-670D01*
X1005D01*
Y-653D01*
Y-670D01*
X1030D01*
X997Y-612D02*
Y-595D01*
X1005Y-587D01*
X1030D01*
Y-612D01*
X1022Y-620D01*
X1013Y-612D01*
Y-587D01*
X1030Y-570D02*
X997D01*
Y-545D01*
X1005Y-537D01*
X1030D01*
X1195Y-920D02*
Y-887D01*
X1178Y-903D02*
X1212D01*
X1220Y-870D02*
Y-853D01*
Y-862D01*
X1170D01*
X1178Y-870D01*
X1220Y-795D02*
Y-828D01*
X1187Y-795D01*
X1178D01*
X1170Y-803D01*
Y-820D01*
X1178Y-828D01*
X1170Y-778D02*
X1203D01*
X1220Y-762D01*
X1203Y-745D01*
X1170D01*
X1183Y142D02*
X1175Y150D01*
X1158D01*
X1150Y142D01*
Y133D01*
X1158Y125D01*
X1175D01*
X1183Y117D01*
Y108D01*
X1175Y100D01*
X1158D01*
X1150Y108D01*
X1200Y83D02*
Y133D01*
X1225D01*
X1233Y125D01*
Y108D01*
X1225Y100D01*
X1200D01*
X1258Y133D02*
X1275D01*
X1283Y125D01*
Y100D01*
X1258D01*
X1250Y108D01*
X1258Y117D01*
X1283D01*
X1300Y133D02*
Y100D01*
Y117D01*
X1308Y125D01*
X1317Y133D01*
X1325D01*
X1375Y100D02*
X1358D01*
X1350Y108D01*
Y125D01*
X1358Y133D01*
X1375D01*
X1383Y125D01*
Y117D01*
X1350D01*
X1195Y-65D02*
X1228D01*
X1212Y-48D02*
Y-82D01*
X1245Y-90D02*
X1262D01*
X1253D01*
Y-40D01*
X1245Y-48D01*
X1320Y-90D02*
X1287D01*
X1320Y-57D01*
Y-48D01*
X1312Y-40D01*
X1295D01*
X1287Y-48D01*
X1337Y-40D02*
Y-73D01*
X1353Y-90D01*
X1370Y-73D01*
Y-40D01*
X-735Y-940D02*
Y-907D01*
Y-923D01*
X-685D01*
X-735Y-890D02*
X-685D01*
X-710D01*
Y-857D01*
X-735D01*
X-685D01*
Y-807D02*
Y-840D01*
X-718Y-807D01*
X-727D01*
X-735Y-815D01*
Y-832D01*
X-727Y-840D01*
X1390Y-920D02*
X1440D01*
X1415D01*
Y-887D01*
X1390D01*
X1440D01*
Y-845D02*
Y-862D01*
X1432Y-870D01*
X1415D01*
X1407Y-862D01*
Y-845D01*
X1415Y-837D01*
X1423D01*
Y-870D01*
X1407Y-812D02*
Y-795D01*
X1415Y-787D01*
X1440D01*
Y-812D01*
X1432Y-820D01*
X1423Y-812D01*
Y-787D01*
X1398Y-762D02*
X1407D01*
Y-770D01*
Y-753D01*
Y-762D01*
X1432D01*
X1440Y-753D01*
Y-703D02*
Y-720D01*
X1432Y-728D01*
X1415D01*
X1407Y-720D01*
Y-703D01*
X1415Y-695D01*
X1423D01*
Y-728D01*
X1407Y-678D02*
X1440D01*
X1423D01*
X1415Y-670D01*
X1407Y-662D01*
Y-653D01*
X1218Y-295D02*
X1185D01*
Y-320D01*
X1202D01*
X1185D01*
Y-345D01*
X1243Y-312D02*
X1260D01*
X1268Y-320D01*
Y-345D01*
X1243D01*
X1235Y-337D01*
X1243Y-328D01*
X1268D01*
X1285Y-345D02*
Y-312D01*
X1310D01*
X1318Y-320D01*
Y-345D01*
X-681Y-163D02*
X-648D01*
X-664D01*
Y-213D01*
X-631Y-204D02*
X-623Y-213D01*
X-606D01*
X-598Y-204D01*
Y-171D01*
X-606Y-163D01*
X-623D01*
X-631Y-171D01*
Y-179D01*
X-623Y-188D01*
X-598D01*
X-548Y-163D02*
X-564Y-171D01*
X-581Y-188D01*
Y-204D01*
X-573Y-213D01*
X-556D01*
X-548Y-204D01*
Y-196D01*
X-556Y-188D01*
X-581D01*
X-498Y-213D02*
X-531D01*
X-498Y-179D01*
Y-171D01*
X-506Y-163D01*
X-523D01*
X-531Y-171D01*
X-473Y-179D02*
X-456D01*
X-448Y-188D01*
Y-213D01*
X-473D01*
X-481Y-204D01*
X-473Y-196D01*
X-448D01*
X-356Y-163D02*
X-373D01*
X-381Y-171D01*
Y-204D01*
X-373Y-213D01*
X-356D01*
X-348Y-204D01*
Y-171D01*
X-356Y-163D01*
X-331Y-179D02*
X-315Y-213D01*
X-298Y-179D01*
X-256Y-213D02*
X-273D01*
X-281Y-204D01*
Y-188D01*
X-273Y-179D01*
X-256D01*
X-248Y-188D01*
Y-196D01*
X-281D01*
X-231Y-213D02*
Y-179D01*
X-206D01*
X-198Y-188D01*
Y-213D01*
X-98Y-171D02*
X-106Y-163D01*
X-123D01*
X-131Y-171D01*
Y-204D01*
X-123Y-213D01*
X-106D01*
X-98Y-204D01*
X-73Y-213D02*
X-56D01*
X-48Y-204D01*
Y-188D01*
X-56Y-179D01*
X-73D01*
X-81Y-188D01*
Y-204D01*
X-73Y-213D01*
X-31D02*
Y-179D01*
X-6D01*
X2Y-188D01*
Y-213D01*
X27Y-171D02*
Y-179D01*
X19D01*
X35D01*
X27D01*
Y-204D01*
X35Y-213D01*
X60Y-179D02*
Y-213D01*
Y-196D01*
X69Y-188D01*
X77Y-179D01*
X85D01*
X119Y-213D02*
X135D01*
X144Y-204D01*
Y-188D01*
X135Y-179D01*
X119D01*
X110Y-188D01*
Y-204D01*
X119Y-213D01*
X160D02*
X177D01*
X169D01*
Y-163D01*
X160D01*
X202Y-213D02*
X219D01*
X210D01*
Y-163D01*
X202D01*
X269Y-213D02*
X252D01*
X244Y-204D01*
Y-188D01*
X252Y-179D01*
X269D01*
X277Y-188D01*
Y-196D01*
X244D01*
X294Y-179D02*
Y-213D01*
Y-196D01*
X302Y-188D01*
X310Y-179D01*
X319D01*
X394Y-163D02*
Y-196D01*
X410Y-213D01*
X427Y-196D01*
Y-163D01*
X444Y-213D02*
X460D01*
X452D01*
Y-163D01*
X444Y-171D01*
X485Y-213D02*
Y-204D01*
X494D01*
Y-213D01*
X485D01*
X527Y-171D02*
X535Y-163D01*
X552D01*
X560Y-171D01*
Y-204D01*
X552Y-213D01*
X535D01*
X527Y-204D01*
Y-171D01*
D29*
X-11Y434D02*
G03*
X-11Y434I-12J0D01*
G01*
D46*
X-254Y685D02*
G03*
X-254Y685I-41J0D01*
G01*
X626Y399D02*
G03*
X626Y399I-41J0D01*
G01*
X-704Y-415D02*
G03*
X-704Y-415I-41J0D01*
G01*
X-1279Y995D02*
G03*
X-1279Y995I-41J0D01*
G01*
D47*
X1166Y1090D02*
G03*
X1166Y1090I-236J0D01*
G01*
D48*
X-1335Y-675D02*
G03*
X-1335Y-675I-5J0D01*
G01*
X-1035D02*
G03*
X-1035Y-675I-5J0D01*
G01*
X-114Y505D02*
G03*
X-114Y505I-5J0D01*
G01*
X825Y793D02*
G03*
X825Y793I-5J0D01*
G01*
X478Y1079D02*
G03*
X478Y1079I-5J0D01*
G01*
D49*
X-520Y-620D02*
X-460D01*
X-185Y-931D02*
Y-872D01*
X-430Y-820D02*
X-370D01*
X-438Y626D02*
X-400D01*
Y653D01*
Y717D02*
Y744D01*
X-438D02*
X-400D01*
X485Y855D02*
X545D01*
X-150Y-77D02*
Y-64D01*
Y43D02*
Y56D01*
X104Y43D02*
Y56D01*
X-150D02*
X104D01*
X-150Y-77D02*
X104D01*
Y-64D01*
X882Y-920D02*
X958D01*
Y-924D02*
Y-760D01*
X882Y-924D02*
X958D01*
X882D02*
Y-760D01*
X958D01*
X1292D02*
X1368D01*
X1292Y-924D02*
Y-760D01*
Y-924D02*
X1368D01*
Y-760D01*
X1292Y-920D02*
X1368D01*
X330Y-70D02*
Y-10D01*
X1450Y320D02*
Y380D01*
X1300Y-670D02*
X1360D01*
X890D02*
X950D01*
X-256Y340D02*
Y400D01*
X-1635Y895D02*
Y955D01*
X-376Y172D02*
Y210D01*
X-403D02*
X-376D01*
X-494D02*
X-467D01*
X-494Y172D02*
Y210D01*
X-256Y265D02*
Y325D01*
X165Y70D02*
Y130D01*
X-201Y541D02*
Y600D01*
X-1138Y-703D02*
X-1079D01*
X1450Y456D02*
Y515D01*
X-1480Y-585D02*
Y-525D01*
X-1478Y-85D02*
Y-25D01*
Y-185D02*
Y-125D01*
Y-285D02*
Y-225D01*
Y-385D02*
Y-325D01*
Y-485D02*
Y-425D01*
X-1430Y-700D02*
X-1370D01*
X-959Y-877D02*
Y-818D01*
X-1259Y-877D02*
Y-818D01*
X1450Y656D02*
Y715D01*
X-570Y287D02*
Y346D01*
Y372D02*
Y431D01*
X152Y-730D02*
X211D01*
X532Y-733D02*
X591D01*
X-520Y-820D02*
X-460D01*
D50*
X-1770Y792D02*
X-1720D01*
X-1770Y299D02*
Y792D01*
Y299D02*
X-1720D01*
X-1903Y762D02*
X-1770D01*
X-1920Y745D02*
X-1903Y762D01*
X-1920Y745D02*
X-1903Y728D01*
X-1770D01*
X-1903Y662D02*
X-1770D01*
X-1920Y645D02*
X-1903Y662D01*
X-1920Y645D02*
X-1903Y628D01*
X-1770D01*
X-1903Y562D02*
X-1770D01*
X-1920Y545D02*
X-1903Y562D01*
X-1920Y545D02*
X-1903Y528D01*
X-1770D01*
X-1903Y462D02*
X-1770D01*
X-1920Y445D02*
X-1903Y462D01*
X-1920Y445D02*
X-1903Y428D01*
X-1770D01*
X-1903Y362D02*
X-1770D01*
X-1920Y345D02*
X-1903Y362D01*
X-1920Y345D02*
X-1903Y328D01*
X-1770D01*
X-1720Y299D02*
Y792D01*
X-1737D02*
X-1720Y775D01*
X-1767Y-23D02*
X-1700D01*
X-1767Y-617D02*
Y-23D01*
X-1883Y-53D02*
X-1750D01*
X-1900Y-70D02*
X-1883Y-53D01*
X-1900Y-70D02*
X-1883Y-87D01*
X-1750D01*
X-1883Y-153D02*
X-1750D01*
X-1900Y-170D02*
X-1883Y-153D01*
X-1900Y-170D02*
X-1883Y-187D01*
X-1750D01*
X-1883Y-253D02*
X-1750D01*
X-1900Y-270D02*
X-1883Y-253D01*
X-1900Y-270D02*
X-1883Y-287D01*
X-1750D01*
X-1883Y-353D02*
X-1750D01*
X-1900Y-370D02*
X-1883Y-353D01*
X-1900Y-370D02*
X-1883Y-387D01*
X-1750D01*
X-1883Y-453D02*
X-1750D01*
X-1900Y-470D02*
X-1883Y-453D01*
X-1900Y-470D02*
X-1883Y-487D01*
X-1750D01*
X-1883Y-553D02*
X-1750D01*
X-1900Y-570D02*
X-1883Y-553D01*
X-1900Y-570D02*
X-1883Y-587D01*
X-1750D01*
X-1700Y-95D02*
Y-23D01*
X-1717Y-24D02*
X-1700Y-41D01*
Y-617D02*
Y-95D01*
X-1767Y-617D02*
X-1700D01*
X1705Y807D02*
X1755D01*
Y413D02*
Y807D01*
X1705Y413D02*
X1755D01*
Y443D02*
X1888D01*
X1905Y460D01*
X1888Y477D02*
X1905Y460D01*
X1755Y477D02*
X1888D01*
X1755Y543D02*
X1888D01*
X1905Y560D01*
X1888Y577D02*
X1905Y560D01*
X1755Y577D02*
X1888D01*
X1755Y643D02*
X1888D01*
X1905Y660D01*
X1888Y677D02*
X1905Y660D01*
X1755Y677D02*
X1888D01*
X1755Y743D02*
X1888D01*
X1905Y760D01*
X1888Y777D02*
X1905Y760D01*
X1755Y777D02*
X1888D01*
X1705Y413D02*
Y807D01*
Y431D02*
X1722Y414D01*
X-1160Y-692D02*
Y-613D01*
X-1357Y-692D02*
Y-613D01*
X-1160D01*
X-1357Y-692D02*
X-1160D01*
X-1057D02*
X-860D01*
X-1057Y-613D02*
X-860D01*
X-1057Y-692D02*
Y-613D01*
X-860Y-692D02*
Y-613D01*
X-62Y265D02*
Y474D01*
X147Y265D02*
Y474D01*
X-62D02*
X147D01*
X-62Y265D02*
X147D01*
X880Y782D02*
X950D01*
X880Y388D02*
X950D01*
X68Y950D02*
Y1020D01*
X462Y950D02*
Y1020D01*
D51*
X381Y112D02*
Y167D01*
X329Y218D02*
X345D01*
X329Y61D02*
X345D01*
X294Y112D02*
Y167D01*
X-507Y-511D02*
X-513Y-505D01*
X-524D01*
X-530Y-511D01*
Y-534D01*
X-524Y-540D01*
X-513D01*
X-507Y-534D01*
X-495Y-540D02*
X-483D01*
X-489D01*
Y-505D01*
X-495Y-511D01*
X-466Y-505D02*
X-443D01*
Y-511D01*
X-466Y-534D01*
Y-540D01*
X-84Y-893D02*
X-89Y-887D01*
X-101D01*
X-107Y-893D01*
Y-916D01*
X-101Y-922D01*
X-89D01*
X-84Y-916D01*
X-72Y-922D02*
X-60D01*
X-66D01*
Y-887D01*
X-72Y-893D01*
X-19Y-887D02*
X-31Y-893D01*
X-43Y-904D01*
Y-916D01*
X-37Y-922D01*
X-25D01*
X-19Y-916D01*
Y-910D01*
X-25Y-904D01*
X-43D01*
X-340Y795D02*
X-316D01*
X-328D01*
Y761D01*
X-305D02*
Y795D01*
X-287D01*
X-281Y790D01*
Y778D01*
X-287Y772D01*
X-305D01*
X-246Y761D02*
X-270D01*
X-246Y784D01*
Y790D01*
X-252Y795D01*
X-264D01*
X-270Y790D01*
X10Y-460D02*
Y-425D01*
X22Y-436D01*
X34Y-425D01*
Y-460D01*
X45D02*
X57D01*
X51D01*
Y-425D01*
X45Y-430D01*
X-417Y-911D02*
X-423Y-905D01*
X-434D01*
X-440Y-911D01*
Y-934D01*
X-434Y-940D01*
X-423D01*
X-417Y-934D01*
X-405Y-940D02*
X-393D01*
X-399D01*
Y-905D01*
X-405Y-911D01*
X-353Y-905D02*
X-376D01*
Y-923D01*
X-364Y-917D01*
X-358D01*
X-353Y-923D01*
Y-934D01*
X-358Y-940D01*
X-370D01*
X-376Y-934D01*
X-465Y605D02*
Y570D01*
X-448D01*
X-442Y576D01*
Y599D01*
X-448Y605D01*
X-465D01*
X-407Y570D02*
X-430D01*
X-407Y593D01*
Y599D01*
X-413Y605D01*
X-424D01*
X-430Y599D01*
X-1337Y1094D02*
X-1343Y1100D01*
X-1354D01*
X-1360Y1094D01*
Y1071D01*
X-1354Y1065D01*
X-1343D01*
X-1337Y1071D01*
Y1082D01*
X-1348D01*
X-1325Y1065D02*
Y1100D01*
X-1302Y1065D01*
Y1100D01*
X-1290D02*
Y1065D01*
X-1273D01*
X-1267Y1071D01*
Y1094D01*
X-1273Y1100D01*
X-1290D01*
X-1232Y1065D02*
X-1255D01*
X-1232Y1088D01*
Y1094D01*
X-1238Y1100D01*
X-1249D01*
X-1255Y1094D01*
X-777Y-486D02*
X-783Y-480D01*
X-794D01*
X-800Y-486D01*
Y-509D01*
X-794Y-515D01*
X-783D01*
X-777Y-509D01*
Y-498D01*
X-788D01*
X-765Y-515D02*
Y-480D01*
X-742Y-515D01*
Y-480D01*
X-730D02*
Y-515D01*
X-713D01*
X-707Y-509D01*
Y-486D01*
X-713Y-480D01*
X-730D01*
X-695Y-515D02*
X-683D01*
X-689D01*
Y-480D01*
X-695Y-486D01*
X503Y754D02*
X497Y760D01*
X486D01*
X480Y754D01*
Y731D01*
X486Y725D01*
X497D01*
X503Y731D01*
X515Y760D02*
X538D01*
Y754D01*
X515Y731D01*
Y725D01*
X1033Y-66D02*
X1027Y-60D01*
X1016D01*
X1010Y-66D01*
Y-89D01*
X1016Y-95D01*
X1027D01*
X1033Y-89D01*
X1068Y-95D02*
X1045D01*
X1068Y-72D01*
Y-66D01*
X1062Y-60D01*
X1051D01*
X1045Y-66D01*
X555Y1060D02*
Y1031D01*
X561Y1025D01*
X572D01*
X578Y1031D01*
Y1060D01*
X590Y1054D02*
X596Y1060D01*
X607D01*
X613Y1054D01*
Y1048D01*
X607Y1042D01*
X602D01*
X607D01*
X613Y1037D01*
Y1031D01*
X607Y1025D01*
X596D01*
X590Y1031D01*
X315Y-101D02*
X309Y-95D01*
X297D01*
X291Y-101D01*
Y-124D01*
X297Y-130D01*
X309D01*
X315Y-124D01*
X326Y-130D02*
X338D01*
X332D01*
Y-95D01*
X326Y-101D01*
X355D02*
X361Y-95D01*
X373D01*
X379Y-101D01*
Y-107D01*
X373Y-113D01*
X367D01*
X373D01*
X379Y-118D01*
Y-124D01*
X373Y-130D01*
X361D01*
X355Y-124D01*
X1410Y400D02*
Y435D01*
X1427D01*
X1433Y429D01*
Y417D01*
X1427Y412D01*
X1410D01*
X1422D02*
X1433Y400D01*
X1445Y406D02*
X1451Y400D01*
X1462D01*
X1468Y406D01*
Y429D01*
X1462Y435D01*
X1451D01*
X1445Y429D01*
Y423D01*
X1451Y417D01*
X1468D01*
X870Y-710D02*
X835D01*
Y-693D01*
X841Y-687D01*
X853D01*
X858Y-693D01*
Y-710D01*
Y-698D02*
X870Y-687D01*
Y-675D02*
Y-663D01*
Y-669D01*
X835D01*
X841Y-675D01*
X870Y-646D02*
Y-634D01*
Y-640D01*
X835D01*
X841Y-646D01*
X1280Y-720D02*
X1245D01*
Y-703D01*
X1251Y-697D01*
X1263D01*
X1268Y-703D01*
Y-720D01*
Y-708D02*
X1280Y-697D01*
Y-685D02*
Y-673D01*
Y-679D01*
X1245D01*
X1251Y-685D01*
Y-656D02*
X1245Y-650D01*
Y-638D01*
X1251Y-633D01*
X1274D01*
X1280Y-638D01*
Y-650D01*
X1274Y-656D01*
X1251D01*
X890Y535D02*
Y506D01*
X896Y500D01*
X907D01*
X913Y506D01*
Y535D01*
X948Y500D02*
X925D01*
X948Y523D01*
Y529D01*
X942Y535D01*
X931D01*
X925Y529D01*
X-470Y-1360D02*
Y-1337D01*
Y-1348D01*
X-435D01*
X-470Y-1325D02*
X-435D01*
Y-1308D01*
X-441Y-1302D01*
X-447D01*
X-452Y-1308D01*
Y-1325D01*
Y-1308D01*
X-458Y-1302D01*
X-464D01*
X-470Y-1308D01*
Y-1325D01*
X-435Y-1290D02*
Y-1278D01*
Y-1284D01*
X-470D01*
X-464Y-1290D01*
X-240Y-20D02*
Y15D01*
X-223D01*
X-217Y9D01*
Y-3D01*
X-223Y-8D01*
X-240D01*
X-205Y-20D02*
X-193D01*
X-199D01*
Y15D01*
X-205Y9D01*
X1033Y344D02*
X1027Y350D01*
X1016D01*
X1010Y344D01*
Y321D01*
X1016Y315D01*
X1027D01*
X1033Y321D01*
X1045Y344D02*
X1051Y350D01*
X1062D01*
X1068Y344D01*
Y338D01*
X1062Y332D01*
X1057D01*
X1062D01*
X1068Y327D01*
Y321D01*
X1062Y315D01*
X1051D01*
X1045Y321D01*
X-273Y455D02*
X-279Y461D01*
X-290D01*
X-296Y455D01*
Y432D01*
X-290Y426D01*
X-279D01*
X-273Y432D01*
X-238Y461D02*
X-261D01*
Y443D01*
X-249Y449D01*
X-244D01*
X-238Y443D01*
Y432D01*
X-244Y426D01*
X-255D01*
X-261Y432D01*
X1085Y-1340D02*
Y-1317D01*
Y-1328D01*
X1120D01*
X1085Y-1305D02*
X1120D01*
Y-1288D01*
X1114Y-1282D01*
X1108D01*
X1103Y-1288D01*
Y-1305D01*
Y-1288D01*
X1097Y-1282D01*
X1091D01*
X1085Y-1288D01*
Y-1305D01*
X1091Y-1270D02*
X1085Y-1264D01*
Y-1253D01*
X1091Y-1247D01*
X1097D01*
X1103Y-1253D01*
Y-1258D01*
Y-1253D01*
X1108Y-1247D01*
X1114D01*
X1120Y-1253D01*
Y-1264D01*
X1114Y-1270D01*
X-225Y-397D02*
Y-432D01*
X-208D01*
X-202Y-426D01*
Y-420D01*
X-208Y-414D01*
X-225D01*
X-208D01*
X-202Y-408D01*
Y-403D01*
X-208Y-397D01*
X-225D01*
X-190Y-432D02*
Y-397D01*
X-173D01*
X-167Y-403D01*
Y-414D01*
X-173Y-420D01*
X-190D01*
X-178D02*
X-167Y-432D01*
X-155D02*
X-143D01*
X-149D01*
Y-397D01*
X-155Y-403D01*
X-1655Y1027D02*
Y992D01*
X-1632D01*
X-1620Y1021D02*
X-1614Y1027D01*
X-1603D01*
X-1597Y1021D01*
Y1015D01*
X-1603Y1009D01*
X-1608D01*
X-1603D01*
X-1597Y1004D01*
Y998D01*
X-1603Y992D01*
X-1614D01*
X-1620Y998D01*
X-460Y85D02*
Y50D01*
X-443D01*
X-437Y56D01*
Y79D01*
X-443Y85D01*
X-460D01*
X-425Y50D02*
X-413D01*
X-419D01*
Y85D01*
X-425Y79D01*
X-289Y232D02*
X-295Y238D01*
X-306D01*
X-312Y232D01*
Y209D01*
X-306Y203D01*
X-295D01*
X-289Y209D01*
X-277D02*
X-271Y203D01*
X-260D01*
X-254Y209D01*
Y232D01*
X-260Y238D01*
X-271D01*
X-277Y232D01*
Y226D01*
X-271Y220D01*
X-254D01*
X18Y144D02*
X12Y150D01*
X1D01*
X-5Y144D01*
Y121D01*
X1Y115D01*
X12D01*
X18Y121D01*
X30Y115D02*
X42D01*
X36D01*
Y150D01*
X30Y144D01*
X82Y115D02*
X59D01*
X82Y138D01*
Y144D01*
X77Y150D01*
X65D01*
X59Y144D01*
X-199Y657D02*
X-205Y663D01*
X-217D01*
X-223Y657D01*
Y634D01*
X-217Y628D01*
X-205D01*
X-199Y634D01*
X-164Y663D02*
X-176Y657D01*
X-188Y645D01*
Y634D01*
X-182Y628D01*
X-170D01*
X-164Y634D01*
Y640D01*
X-170Y645D01*
X-188D01*
X1655Y-160D02*
X1678D01*
X1667D01*
Y-195D01*
X1690Y-160D02*
Y-195D01*
X1707D01*
X1713Y-189D01*
Y-183D01*
X1707Y-178D01*
X1690D01*
X1707D01*
X1713Y-172D01*
Y-166D01*
X1707Y-160D01*
X1690D01*
X1748Y-195D02*
X1725D01*
X1748Y-172D01*
Y-166D01*
X1742Y-160D01*
X1731D01*
X1725Y-166D01*
X-1127Y-571D02*
X-1133Y-565D01*
X-1144D01*
X-1150Y-571D01*
Y-594D01*
X-1144Y-600D01*
X-1133D01*
X-1127Y-594D01*
X-1115Y-600D02*
X-1103D01*
X-1109D01*
Y-565D01*
X-1115Y-571D01*
X-1086Y-600D02*
X-1074D01*
X-1080D01*
Y-565D01*
X-1086Y-571D01*
X-1300Y-640D02*
Y-669D01*
X-1294Y-675D01*
X-1283D01*
X-1277Y-669D01*
Y-640D01*
X-1242D02*
X-1253Y-646D01*
X-1265Y-658D01*
Y-669D01*
X-1259Y-675D01*
X-1248D01*
X-1242Y-669D01*
Y-663D01*
X-1248Y-658D01*
X-1265D01*
X-1000Y-640D02*
Y-669D01*
X-994Y-675D01*
X-983D01*
X-977Y-669D01*
Y-640D01*
X-942D02*
X-965D01*
Y-658D01*
X-953Y-652D01*
X-948D01*
X-942Y-658D01*
Y-669D01*
X-948Y-675D01*
X-959D01*
X-965Y-669D01*
X195Y545D02*
Y516D01*
X201Y510D01*
X212D01*
X218Y516D01*
Y545D01*
X247Y510D02*
Y545D01*
X230Y527D01*
X253D01*
X1415Y545D02*
Y580D01*
X1432D01*
X1438Y574D01*
Y562D01*
X1432Y557D01*
X1415D01*
X1427D02*
X1438Y545D01*
X1450Y580D02*
X1473D01*
Y574D01*
X1450Y551D01*
Y545D01*
X-1130Y-1340D02*
Y-1317D01*
Y-1328D01*
X-1095D01*
X-1130Y-1305D02*
X-1095D01*
Y-1288D01*
X-1101Y-1282D01*
X-1107D01*
X-1112Y-1288D01*
Y-1305D01*
Y-1288D01*
X-1118Y-1282D01*
X-1124D01*
X-1130Y-1288D01*
Y-1305D01*
X-1095Y-1253D02*
X-1130D01*
X-1112Y-1270D01*
Y-1247D01*
X1705Y885D02*
Y850D01*
Y867D01*
X1728D01*
Y885D01*
Y850D01*
X1740D02*
X1752D01*
X1746D01*
Y885D01*
X1740Y879D01*
X-1680Y-650D02*
Y-685D01*
Y-668D01*
X-1657D01*
Y-650D01*
Y-685D01*
X-1622D02*
X-1645D01*
X-1622Y-662D01*
Y-656D01*
X-1628Y-650D01*
X-1639D01*
X-1645Y-656D01*
X433Y161D02*
Y155D01*
X445Y144D01*
X457Y155D01*
Y161D01*
X445Y144D02*
Y126D01*
X468D02*
X480D01*
X474D01*
Y161D01*
X468Y155D01*
X-1645Y265D02*
Y230D01*
Y247D01*
X-1622D01*
Y265D01*
Y230D01*
X-1610Y259D02*
X-1604Y265D01*
X-1593D01*
X-1587Y259D01*
Y253D01*
X-1593Y247D01*
X-1598D01*
X-1593D01*
X-1587Y242D01*
Y236D01*
X-1593Y230D01*
X-1604D01*
X-1610Y236D01*
X-1550Y-605D02*
Y-640D01*
X-1527D01*
X-1492D02*
X-1515D01*
X-1492Y-617D01*
Y-611D01*
X-1498Y-605D01*
X-1509D01*
X-1515Y-611D01*
X-1395Y-75D02*
Y-40D01*
X-1378D01*
X-1372Y-46D01*
Y-58D01*
X-1378Y-63D01*
X-1395D01*
X-1383D02*
X-1372Y-75D01*
X-1337D02*
X-1360D01*
X-1337Y-52D01*
Y-46D01*
X-1343Y-40D01*
X-1354D01*
X-1360Y-46D01*
X-1395Y-170D02*
Y-135D01*
X-1378D01*
X-1372Y-141D01*
Y-153D01*
X-1378Y-158D01*
X-1395D01*
X-1383D02*
X-1372Y-170D01*
X-1360Y-141D02*
X-1354Y-135D01*
X-1343D01*
X-1337Y-141D01*
Y-147D01*
X-1343Y-153D01*
X-1348D01*
X-1343D01*
X-1337Y-158D01*
Y-164D01*
X-1343Y-170D01*
X-1354D01*
X-1360Y-164D01*
X-1395Y-265D02*
Y-230D01*
X-1378D01*
X-1372Y-236D01*
Y-248D01*
X-1378Y-253D01*
X-1395D01*
X-1383D02*
X-1372Y-265D01*
X-1343D02*
Y-230D01*
X-1360Y-248D01*
X-1337D01*
X-1395Y-365D02*
Y-330D01*
X-1378D01*
X-1372Y-336D01*
Y-348D01*
X-1378Y-353D01*
X-1395D01*
X-1383D02*
X-1372Y-365D01*
X-1337Y-330D02*
X-1360D01*
Y-348D01*
X-1348Y-342D01*
X-1343D01*
X-1337Y-348D01*
Y-359D01*
X-1343Y-365D01*
X-1354D01*
X-1360Y-359D01*
X-1395Y-470D02*
Y-435D01*
X-1378D01*
X-1372Y-441D01*
Y-453D01*
X-1378Y-458D01*
X-1395D01*
X-1383D02*
X-1372Y-470D01*
X-1337Y-435D02*
X-1348Y-441D01*
X-1360Y-453D01*
Y-464D01*
X-1354Y-470D01*
X-1343D01*
X-1337Y-464D01*
Y-458D01*
X-1343Y-453D01*
X-1360D01*
X-1487Y-701D02*
X-1493Y-695D01*
X-1504D01*
X-1510Y-701D01*
Y-724D01*
X-1504Y-730D01*
X-1493D01*
X-1487Y-724D01*
X-1475Y-701D02*
X-1469Y-695D01*
X-1458D01*
X-1452Y-701D01*
Y-707D01*
X-1458Y-713D01*
X-1452Y-718D01*
Y-724D01*
X-1458Y-730D01*
X-1469D01*
X-1475Y-724D01*
Y-718D01*
X-1469Y-713D01*
X-1475Y-707D01*
Y-701D01*
X-1469Y-713D02*
X-1458D01*
X-843Y-837D02*
X-849Y-831D01*
X-860D01*
X-866Y-837D01*
Y-860D01*
X-860Y-866D01*
X-849D01*
X-843Y-860D01*
X-831Y-866D02*
X-819D01*
X-825D01*
Y-831D01*
X-831Y-837D01*
X-802D02*
X-796Y-831D01*
X-785D01*
X-779Y-837D01*
Y-860D01*
X-785Y-866D01*
X-796D01*
X-802Y-860D01*
Y-837D01*
X-1147Y-836D02*
X-1153Y-830D01*
X-1164D01*
X-1170Y-836D01*
Y-859D01*
X-1164Y-865D01*
X-1153D01*
X-1147Y-859D01*
X-1135Y-865D02*
X-1123D01*
X-1129D01*
Y-830D01*
X-1135Y-836D01*
X-1088Y-865D02*
Y-830D01*
X-1106Y-848D01*
X-1083D01*
X1420Y741D02*
Y776D01*
X1437D01*
X1443Y770D01*
Y758D01*
X1437Y752D01*
X1420D01*
X1432D02*
X1443Y741D01*
X1455D02*
X1467D01*
X1461D01*
Y776D01*
X1455Y770D01*
X-750Y296D02*
Y331D01*
X-733D01*
X-727Y326D01*
Y314D01*
X-733Y308D01*
X-750D01*
X-738D02*
X-727Y296D01*
X-715D02*
X-703D01*
X-709D01*
Y331D01*
X-715Y326D01*
X-663Y296D02*
X-686D01*
X-663Y320D01*
Y326D01*
X-668Y331D01*
X-680D01*
X-686Y326D01*
X-750Y386D02*
Y421D01*
X-733D01*
X-727Y416D01*
Y404D01*
X-733Y398D01*
X-750D01*
X-738D02*
X-727Y386D01*
X-715D02*
X-703D01*
X-709D01*
Y421D01*
X-715Y416D01*
X-686D02*
X-680Y421D01*
X-668D01*
X-663Y416D01*
Y410D01*
X-668Y404D01*
X-674D01*
X-668D01*
X-663Y398D01*
Y392D01*
X-668Y386D01*
X-680D01*
X-686Y392D01*
X345Y-780D02*
Y-809D01*
X351Y-815D01*
X362D01*
X368Y-809D01*
Y-780D01*
X380Y-815D02*
X392D01*
X386D01*
Y-780D01*
X380Y-786D01*
X287Y-661D02*
X281Y-655D01*
X269D01*
X263Y-661D01*
Y-684D01*
X269Y-690D01*
X281D01*
X287Y-684D01*
X298Y-690D02*
X310D01*
X304D01*
Y-655D01*
X298Y-661D01*
X458Y-656D02*
X452Y-650D01*
X441D01*
X435Y-656D01*
Y-679D01*
X441Y-685D01*
X452D01*
X458Y-679D01*
X487Y-685D02*
Y-650D01*
X470Y-668D01*
X493D01*
X1200Y1265D02*
Y1230D01*
X1217D01*
X1223Y1236D01*
Y1242D01*
X1217Y1247D01*
X1200D01*
X1217D01*
X1223Y1253D01*
Y1259D01*
X1217Y1265D01*
X1200D01*
X1235D02*
X1258D01*
Y1259D01*
X1235Y1236D01*
Y1230D01*
X1258D01*
X1270D02*
X1282D01*
X1276D01*
Y1265D01*
X1270Y1259D01*
X1240Y-820D02*
X1275D01*
Y-803D01*
X1269Y-797D01*
X1246D01*
X1240Y-803D01*
Y-820D01*
X1246Y-785D02*
X1240Y-779D01*
Y-768D01*
X1246Y-762D01*
X1252D01*
X1258Y-768D01*
Y-773D01*
Y-768D01*
X1263Y-762D01*
X1269D01*
X1275Y-768D01*
Y-779D01*
X1269Y-785D01*
X830Y-820D02*
X865D01*
Y-803D01*
X859Y-797D01*
X836D01*
X830Y-803D01*
Y-820D01*
X865Y-768D02*
X830D01*
X848Y-785D01*
Y-762D01*
X542Y509D02*
X565D01*
X554D01*
Y474D01*
X577D02*
Y509D01*
X595D01*
X600Y503D01*
Y491D01*
X595Y485D01*
X577D01*
X612Y474D02*
X624D01*
X618D01*
Y509D01*
X612Y503D01*
X-520Y-940D02*
Y-905D01*
X-503D01*
X-497Y-911D01*
Y-923D01*
X-503Y-928D01*
X-520D01*
X-508D02*
X-497Y-940D01*
X-485Y-911D02*
X-479Y-905D01*
X-468D01*
X-462Y-911D01*
Y-917D01*
X-468Y-923D01*
X-462Y-928D01*
Y-934D01*
X-468Y-940D01*
X-479D01*
X-485Y-934D01*
Y-928D01*
X-479Y-923D01*
X-485Y-917D01*
Y-911D01*
X-479Y-923D02*
X-468D01*
D52*
X-710Y-1369D02*
Y-967D01*
X-1110Y-1369D02*
X-710D01*
X-1110Y-967D02*
X-710D01*
X-1110Y-977D02*
X-710D01*
X-1510D02*
X-1110D01*
X-1510Y-967D02*
X-1110D01*
X-1510Y-1369D02*
Y-967D01*
Y-1369D02*
X-1110D01*
X1417Y220D02*
X1819D01*
Y-180D02*
Y220D01*
X1417Y-180D02*
Y220D01*
X1427Y-180D02*
Y220D01*
Y-580D02*
Y-180D01*
X1417Y-580D02*
Y-180D01*
Y-580D02*
X1819D01*
Y-180D01*
X695Y-1369D02*
X1095D01*
X695D02*
Y-967D01*
X1095D01*
X695Y-977D02*
X1095D01*
X1495D01*
X1095Y-967D02*
X1495D01*
X1095Y-1369D02*
X1495D01*
Y-967D01*
X-15Y-1369D02*
Y-967D01*
X-415Y-1369D02*
X-15D01*
X-415D02*
Y-967D01*
X-15D01*
X-415Y-977D02*
X-15D01*
D53*
X-295Y-558D02*
X-275D01*
X-95D02*
X-75D01*
X-85Y-548D02*
Y-568D01*
X-94Y-732D02*
X-88Y-730D01*
X-79Y-734D01*
X-72Y-732D01*
X-294Y-732D02*
X-288Y-730D01*
X-279Y-734D01*
X-272Y-732D01*
M02*
