M48
;Layer_Color=9474304
;FILE_FORMAT=2:4
INCH
;TYPE=PLATED
T1F00S00C0.0197
T2F00S00C0.0236
T3F00S00C0.0280
T4F00S00C0.0354
T5F00S00C0.0394
T6F00S00C0.0591
T7F00S00C0.1220
T8F00S00C0.1378
%
T01
X-014150Y-013150
X-012150
X-010150
X-008150
X-007900Y-010544
X-009458Y-010551
X-011140Y-010544
X-012726Y-010551
X-014450Y-010544
X-014400Y-008150
X-016750Y-007950
Y-010250
X-011100Y-008150
X-007900
X-008828Y-004408
X-009336Y-003877
X-010500Y-003550
X-011750Y-003780
X-011836Y-004408
X-012836Y-004877
X-013050Y-003150
Y-002300
Y-001700
Y-001100
X-009836Y-004877
X-008000Y-003200
X-004350Y-004000
X-003500Y-004700
X-002200
X-003000Y-003200
X-000800
X001600
X003600
X005600
X007500
X006850Y-002450
X008200
X007500Y-001750
X006300Y-006950
X005713Y-008827
Y-009827
Y-010827
Y-011827
X004713
Y-010827
Y-009827
Y-008827
X003713
X002713
X001713
Y-009827
Y-010827
Y-011827
X002713
Y-012827
X003713
Y-011827
Y-010810
Y-009827
X002713
Y-010827
X001100Y-006850
X-004900Y-007200
X017250Y-007500
Y-010000
X017450Y003650
X010700Y003620
X012000Y010000
X014500
X017000
X009500
X007000
X004930Y010090
X003661Y009606
X002161
X001100Y009900
X001900Y008200
X002008Y006890
X001181Y006693
X002070Y005330
X004930Y004410
X004400Y001950
Y000350
X004150Y-000400
X002050Y-000450
Y000150
X000709Y000866
X-001350Y001850
X-002960Y002180
X-003500Y001350
X-002950Y000800
Y-000700
X-005510
X-005500Y000800
Y002200
X-004350Y002900
X-003600Y002950
Y003700
X-003189Y005748
X-005150Y005750
X-005550Y007300
X-005500Y010000
X-003000
X-002000
X-002050Y007300
X-000984Y006299
X-000827Y008150
X-000197Y008200
X002400Y011550
X007500Y002350
X008150Y001650
X006850
X007500Y000900
X009500Y003250
X-007800Y002200
X-007810Y000800
Y-000700
X-010560
Y000800
X-011150Y003310
X-010490Y004650
X-008750Y005450
X-007677Y004843
X-012100Y005700
X-011500Y006300
X-010900Y007400
X-012980Y007080
X-013850Y008100
X-015500Y010000
X-010500
X-008000
X-013050Y000100
Y-000500
T02
X-001227Y-000355
Y000145
X-000727Y-000355
X-000227
Y000145
X000273
Y-000355
X000773
Y000145
T03
X007500Y-002500
X009500
Y001650
X007500
T04
X-016500Y-005700
Y-004700
Y-003700
Y-002700
Y-001700
X-007450Y-004150
X000850Y-005600
X001850
X004950
X005950
Y-012800
X004950
X001850
X000850
X016550Y004600
Y005600
Y006600
Y007600
X005850Y003990
X006189Y012795
X005205
X004205
X003205
X002205
X001205
X000205
X-000795
X-001795
X-002795
X-003795
X-004795
X-005795
X-002950Y006850
X-006795Y012795
X-007795
X-008795
X-009795
X-010795
X-011795
X-012795
X-013200Y009950
X-015700Y007450
X-016700
Y006450
X-015700
Y005450
X-016700
Y004450
X-015700
Y003450
X-016700
X-016500Y-000700
T05
X010800Y010900
X007800
T06
X-014100Y-011800
X-012100
X-010100
X-008100
X-003150
X-001150
X007950
X009950
X011950
X013950
X016300Y-004800
Y-002800
Y-000800
Y001200
T07
X-017323Y-012795
X017323
Y012795
X-017323
T08
X-006439Y005482
M30
