M48
;Layer_Color=9474304
;FILE_FORMAT=2:4
INCH
;TYPE=PLATED
T1F00S00C0.0197
T2F00S00C0.0236
T3F00S00C0.0276
T4F00S00C0.0280
T5F00S00C0.0354
T6F00S00C0.0394
T7F00S00C0.0591
T8F00S00C0.1220
T9F00S00C0.1575
%
T01
X-014150Y-013150
X-012150
X-010150
X-008150
X-007900Y-010544
X-009458Y-010551
X-011140Y-010544
X-012726Y-010551
X-014450Y-010544
X-014400Y-008000
X-016750Y-007950
X-011100Y-008000
X-007900
X-008828Y-004758
X-009836Y-004427
X-010500Y-003550
X-011836Y-004758
X-012836Y-004427
X-013050Y-003150
Y-002300
Y-001700
Y-001100
X-003600Y-004400
X-002300
X-004790Y-007340
X001100Y-006850
X001713Y-008827
Y-009827
Y-010827
Y-011827
X002713
Y-012827
X003713
Y-011827
X004713
X005713
Y-010827
Y-009827
Y-008827
X004713
X003713
X002713
Y-009827
Y-010827
X003713Y-010810
Y-009827
X004713
Y-010827
X006300Y-006950
X007500Y-004030
X006850Y-003280
X005600Y-003200
X003600
X002550Y-000750
X007500Y-002580
X008200Y-003280
X017250Y-007500
Y-010000
X015100Y008750
X008750Y010550
X008680Y013080
X007250Y012050
X005723Y009867
X003200Y009850
X001850Y009750
X002700Y007950
X002008Y006890
X001181Y006693
X000203Y007750
X-000984Y006299
X-002150Y007250
X-003189Y005748
X-003600Y003700
X-002960Y002180
X-003500Y001350
X-002950Y000800
Y-000700
X-005510
X-005100Y002250
X-005600Y005350
X-005500Y010450
X-003000
X-001000
X-001570Y002150
X-000520Y000880
X-000150Y001250
X000700Y000650
X001200Y000750
X002050Y001240
X004450Y001350
Y000000
X007500Y000070
X008150Y000820
X006850
X007500Y001520
X004930Y004410
X004000Y004600
X-007900
X-010200Y004750
X-010900Y005050
X-012300Y005450
X-011500Y006300
Y007400
X-012950Y007500
X-013400Y006450
X-013300Y001650
X-013050Y000100
Y-000500
X-007810Y-000700
X-006750Y001500
Y002750
X-006650Y006850
X-008000Y010450
X-010500
X-014650Y010600
X-011150Y003310
T02
X-002480Y000150
X-000977Y-000005
Y-000505
X-000477
X000023
Y-000005
X000523
Y-000505
X001023
Y-000005
T03
X-002934Y-008950
X-000966
T04
X007500Y-003330
X009500
Y000820
X007500
T05
X-017050Y-010250
X-016500Y-005700
Y-004700
Y-003700
Y-002700
Y-001700
X-011750Y-003780
X-009336Y-003877
X-004350Y-003900
X-002500Y-003000
X-001500
X-000500
X000500
X000780Y-005600
X001780
X004880
X005880
X004450Y-003800
X004880Y-012800
X005880
X001780
X000780
X016550Y004600
Y005600
Y006600
Y007600
X005850Y003990
X006189Y012795
X005205
X004205
X003205
X002205
X001205
X000205
X-000795
X-001795
X-002795
X-003795
X-004795
X-005795
X-002950Y006850
X-000827Y008150
X-009250Y007150
X-010150Y008300
X-013850Y008100
X-015700Y008450
X-016700
Y007450
X-015700
Y006450
X-016700
Y005450
X-015700
Y004450
X-016700
Y003450
Y002450
X-015700
Y003450
X-016500Y-000700
X-012550Y006150
X-012795Y012795
X-011795
X-010795
X-009795
X-008795
X-007795
X-006795
X-014850Y012300
T06
X-009161Y001461
X-007039Y-000661
T07
X-014100Y-011800
X-012100
X-010100
X-008100
X-003350
X-001350
X007950
X009950
X011950
X013950
X016300Y-004800
Y-002800
Y-000800
Y001200
T08
X-017323Y-012795
X017323
Y012795
X-017323
T09
X-006890Y005512
M30
