G04 Layer_Color=8388736*
%FSLAX23Y23*%
%MOIN*%
G70*
G01*
G75*
%ADD60R,0.028X0.036*%
%ADD61R,0.059X0.067*%
%ADD62R,0.067X0.059*%
%ADD63O,0.032X0.095*%
%ADD64O,0.095X0.032*%
%ADD65R,0.071X0.126*%
%ADD66R,0.236X0.252*%
%ADD67O,0.020X0.091*%
%ADD68O,0.091X0.020*%
%ADD69O,0.032X0.083*%
%ADD70R,0.039X0.055*%
%ADD71R,0.055X0.068*%
%ADD72R,0.055X0.055*%
%ADD73R,0.055X0.079*%
%ADD74R,0.055X0.039*%
%ADD75R,0.036X0.028*%
%ADD76R,0.020X0.014*%
%ADD77C,0.126*%
%ADD78O,0.059X0.071*%
%ADD79R,0.059X0.071*%
%ADD80R,0.067X0.067*%
%ADD81C,0.067*%
%ADD82C,0.067*%
%ADD83R,0.067X0.067*%
%ADD84C,0.063*%
%ADD85R,0.108X0.108*%
%ADD86C,0.108*%
%ADD87R,0.108X0.108*%
%ADD88R,0.047X0.047*%
%ADD89C,0.047*%
%ADD90C,0.070*%
D60*
X817Y1165D02*
D03*
X793D02*
D03*
D61*
X947D02*
D03*
X873D02*
D03*
X-533Y401D02*
D03*
X-607D02*
D03*
X-533Y316D02*
D03*
X-607D02*
D03*
X1413Y686D02*
D03*
X1487D02*
D03*
X-1296Y-848D02*
D03*
X-1221D02*
D03*
X-996D02*
D03*
X-921D02*
D03*
X-1440Y-455D02*
D03*
X-1515D02*
D03*
X-1440Y-355D02*
D03*
X-1515D02*
D03*
X-1440Y-255D02*
D03*
X-1515D02*
D03*
X-1440Y-155D02*
D03*
X-1515D02*
D03*
X-1440Y-55D02*
D03*
X-1515D02*
D03*
X-1517Y-555D02*
D03*
X-1443D02*
D03*
X1413Y486D02*
D03*
X1487D02*
D03*
X-163Y571D02*
D03*
X-238D02*
D03*
X-218Y295D02*
D03*
X-293D02*
D03*
X-1598Y1035D02*
D03*
X-1672D02*
D03*
X-218Y370D02*
D03*
X-293D02*
D03*
X1413Y350D02*
D03*
X1487D02*
D03*
X392Y-55D02*
D03*
X318D02*
D03*
X523Y1185D02*
D03*
X597D02*
D03*
X-1087Y740D02*
D03*
X-1013D02*
D03*
D62*
X-479Y-871D02*
D03*
Y-797D02*
D03*
X561Y-695D02*
D03*
Y-770D02*
D03*
X181Y-693D02*
D03*
Y-767D02*
D03*
X-1400Y-737D02*
D03*
Y-663D02*
D03*
X-1109Y-740D02*
D03*
Y-665D02*
D03*
X232Y-17D02*
D03*
Y57D02*
D03*
X920Y-633D02*
D03*
Y-707D02*
D03*
X1330Y-633D02*
D03*
Y-707D02*
D03*
X-389Y-797D02*
D03*
Y-871D02*
D03*
X-479Y-671D02*
D03*
Y-597D02*
D03*
D63*
X519Y1057D02*
D03*
X469D02*
D03*
X419D02*
D03*
X369D02*
D03*
X319D02*
D03*
X269D02*
D03*
X219D02*
D03*
X169D02*
D03*
X519Y868D02*
D03*
X469D02*
D03*
X419D02*
D03*
X369D02*
D03*
X319D02*
D03*
X269D02*
D03*
X219D02*
D03*
X169D02*
D03*
D64*
X974Y390D02*
D03*
Y440D02*
D03*
Y490D02*
D03*
Y540D02*
D03*
Y590D02*
D03*
Y640D02*
D03*
Y690D02*
D03*
Y740D02*
D03*
X786Y390D02*
D03*
Y440D02*
D03*
Y490D02*
D03*
Y540D02*
D03*
Y590D02*
D03*
Y640D02*
D03*
Y690D02*
D03*
Y740D02*
D03*
D65*
X281Y-789D02*
D03*
X461D02*
D03*
D66*
X366Y-1076D02*
D03*
D67*
X-66Y531D02*
D03*
X-46D02*
D03*
X-27D02*
D03*
X-7D02*
D03*
X13D02*
D03*
X32D02*
D03*
X52D02*
D03*
X72D02*
D03*
X92D02*
D03*
X111D02*
D03*
X131D02*
D03*
X151D02*
D03*
Y208D02*
D03*
X131D02*
D03*
X111D02*
D03*
X92D02*
D03*
X72D02*
D03*
X52D02*
D03*
X32D02*
D03*
X13D02*
D03*
X-7D02*
D03*
X-27D02*
D03*
X-46D02*
D03*
X-66D02*
D03*
D68*
X204Y478D02*
D03*
Y458D02*
D03*
Y438D02*
D03*
Y419D02*
D03*
Y399D02*
D03*
Y379D02*
D03*
Y360D02*
D03*
Y340D02*
D03*
Y320D02*
D03*
Y301D02*
D03*
Y281D02*
D03*
Y261D02*
D03*
X-119D02*
D03*
Y281D02*
D03*
Y301D02*
D03*
Y320D02*
D03*
Y340D02*
D03*
Y360D02*
D03*
Y379D02*
D03*
Y399D02*
D03*
Y419D02*
D03*
Y438D02*
D03*
Y458D02*
D03*
Y478D02*
D03*
D69*
X-884Y-560D02*
D03*
X-934D02*
D03*
X-984D02*
D03*
X-1034D02*
D03*
X-884Y-745D02*
D03*
X-934D02*
D03*
X-984D02*
D03*
X-1034D02*
D03*
X-1334D02*
D03*
X-1284D02*
D03*
X-1234D02*
D03*
X-1184D02*
D03*
X-1334Y-560D02*
D03*
X-1284D02*
D03*
X-1234D02*
D03*
X-1184D02*
D03*
D70*
X-472Y135D02*
D03*
X-398D02*
D03*
X-435Y225D02*
D03*
D71*
X-293Y-784D02*
D03*
X-97D02*
D03*
Y-440D02*
D03*
X-293D02*
D03*
D72*
X1330Y-881D02*
D03*
Y-799D02*
D03*
X920D02*
D03*
Y-881D02*
D03*
D73*
X403Y60D02*
D03*
X317D02*
D03*
Y210D02*
D03*
X403D02*
D03*
D74*
X-475Y722D02*
D03*
Y648D02*
D03*
X-385Y685D02*
D03*
D75*
X-100Y112D02*
D03*
Y88D02*
D03*
D76*
X805Y1165D02*
D03*
D77*
X-689Y551D02*
D03*
X-1732Y-1280D02*
D03*
X1732D02*
D03*
Y1280D02*
D03*
X-1732D02*
D03*
D78*
X-680D02*
D03*
X520D02*
D03*
X420D02*
D03*
X320D02*
D03*
X220D02*
D03*
X120D02*
D03*
X20D02*
D03*
X-80D02*
D03*
X-180D02*
D03*
X-280D02*
D03*
X-380D02*
D03*
X-480D02*
D03*
X-580D02*
D03*
X-780D02*
D03*
X-880D02*
D03*
X-980D02*
D03*
X-1080D02*
D03*
X-1180D02*
D03*
X-1280D02*
D03*
D79*
X619D02*
D03*
D80*
X-250Y-300D02*
D03*
D81*
X-150D02*
D03*
X-50D02*
D03*
X50D02*
D03*
X-1670Y445D02*
D03*
X-1570D02*
D03*
Y545D02*
D03*
X-1670D02*
D03*
X-1570Y645D02*
D03*
X-1670D02*
D03*
X-1570Y745D02*
D03*
X-1670D02*
D03*
X-1570Y845D02*
D03*
X1655Y660D02*
D03*
Y560D02*
D03*
Y460D02*
D03*
X-704Y-66D02*
D03*
X-916Y146D02*
D03*
X-1650Y-570D02*
D03*
Y-470D02*
D03*
Y-370D02*
D03*
Y-270D02*
D03*
Y-170D02*
D03*
X588Y-1280D02*
D03*
X178D02*
D03*
X588Y-560D02*
D03*
X178D02*
D03*
X78D02*
D03*
X488D02*
D03*
X78Y-1280D02*
D03*
X488D02*
D03*
X-293Y-895D02*
D03*
X-97D02*
D03*
D82*
X-1570Y345D02*
D03*
X-1670D02*
D03*
Y245D02*
D03*
X-1570D02*
D03*
D83*
X-1670Y845D02*
D03*
X1655Y760D02*
D03*
X-1650Y-70D02*
D03*
D84*
X-934Y-388D02*
D03*
X-1255Y615D02*
D03*
X-1385Y810D02*
D03*
X-1175Y-378D02*
D03*
X445Y-380D02*
D03*
X-435Y-390D02*
D03*
X-1485Y1230D02*
D03*
X-1705Y-1025D02*
D03*
X585Y399D02*
D03*
X-295Y685D02*
D03*
X-1015Y830D02*
D03*
X-925Y715D02*
D03*
X-83Y815D02*
D03*
D85*
X-335Y-1180D02*
D03*
X795D02*
D03*
X-1410D02*
D03*
D86*
X-135D02*
D03*
X1395D02*
D03*
X1195D02*
D03*
X995D02*
D03*
X1630Y-280D02*
D03*
Y-80D02*
D03*
Y120D02*
D03*
X-1210Y-1180D02*
D03*
X-1010D02*
D03*
X-810D02*
D03*
D87*
X1630Y-480D02*
D03*
D88*
X102Y-0D02*
D03*
D89*
Y-50D02*
D03*
X52Y-0D02*
D03*
Y-50D02*
D03*
X2Y-0D02*
D03*
Y-50D02*
D03*
X-48D02*
D03*
X-98Y-0D02*
D03*
Y-50D02*
D03*
D90*
X950Y82D02*
D03*
X750D02*
D03*
X950Y-333D02*
D03*
X750D02*
D03*
M02*
