G04 Layer_Color=16711935*
%FSLAX23Y23*%
%MOIN*%
G70*
G01*
G75*
%ADD77C,0.063*%
%ADD78C,0.067*%
%ADD79R,0.067X0.067*%
%ADD80C,0.070*%
%ADD81C,0.047*%
%ADD82R,0.047X0.047*%
%ADD83C,0.108*%
%ADD84R,0.108X0.108*%
%ADD85R,0.108X0.108*%
%ADD86C,0.067*%
%ADD87R,0.067X0.067*%
%ADD88O,0.059X0.071*%
%ADD89R,0.059X0.071*%
%ADD90C,0.126*%
D77*
X-83Y815D02*
D03*
X-925Y715D02*
D03*
X-1015Y830D02*
D03*
X-295Y685D02*
D03*
X585Y399D02*
D03*
X-1705Y-1025D02*
D03*
X-1485Y1230D02*
D03*
X-435Y-390D02*
D03*
X445Y-380D02*
D03*
X-1175Y-378D02*
D03*
X-1385Y810D02*
D03*
X-1255Y615D02*
D03*
X-934Y-388D02*
D03*
D78*
X-97Y-895D02*
D03*
X-293D02*
D03*
X488Y-1280D02*
D03*
X78D02*
D03*
X488Y-560D02*
D03*
X78D02*
D03*
X178D02*
D03*
X588D02*
D03*
X178Y-1280D02*
D03*
X588D02*
D03*
X-1650Y-170D02*
D03*
Y-270D02*
D03*
Y-370D02*
D03*
Y-470D02*
D03*
Y-570D02*
D03*
X-916Y146D02*
D03*
X-704Y-66D02*
D03*
X1655Y460D02*
D03*
Y560D02*
D03*
Y660D02*
D03*
X-1570Y845D02*
D03*
X-1670Y745D02*
D03*
X-1570D02*
D03*
X-1670Y645D02*
D03*
X-1570D02*
D03*
X-1670Y545D02*
D03*
X-1570D02*
D03*
Y445D02*
D03*
X-1670D02*
D03*
X50Y-300D02*
D03*
X-50D02*
D03*
X-150D02*
D03*
D79*
X-1650Y-70D02*
D03*
X1655Y760D02*
D03*
X-1670Y845D02*
D03*
D80*
X750Y-333D02*
D03*
X950D02*
D03*
X750Y82D02*
D03*
X950D02*
D03*
D81*
X-98Y-50D02*
D03*
Y-0D02*
D03*
X-48Y-50D02*
D03*
X2D02*
D03*
Y-0D02*
D03*
X52Y-50D02*
D03*
Y-0D02*
D03*
X102Y-50D02*
D03*
D82*
Y-0D02*
D03*
D83*
X-810Y-1180D02*
D03*
X-1010D02*
D03*
X-1210D02*
D03*
X1630Y120D02*
D03*
Y-80D02*
D03*
Y-280D02*
D03*
X995Y-1180D02*
D03*
X1195D02*
D03*
X1395D02*
D03*
X-135D02*
D03*
D84*
X-1410D02*
D03*
X795D02*
D03*
X-335D02*
D03*
D85*
X1630Y-480D02*
D03*
D86*
X-1570Y245D02*
D03*
X-1670D02*
D03*
Y345D02*
D03*
X-1570D02*
D03*
D87*
X-250Y-300D02*
D03*
D88*
X-1280Y1280D02*
D03*
X-1180D02*
D03*
X-1080D02*
D03*
X-980D02*
D03*
X-880D02*
D03*
X-780D02*
D03*
X-580D02*
D03*
X-480D02*
D03*
X-380D02*
D03*
X-280D02*
D03*
X-180D02*
D03*
X-80D02*
D03*
X20D02*
D03*
X120D02*
D03*
X220D02*
D03*
X320D02*
D03*
X420D02*
D03*
X520D02*
D03*
X-680D02*
D03*
D89*
X619D02*
D03*
D90*
X-1732D02*
D03*
X1732D02*
D03*
Y-1280D02*
D03*
X-1732D02*
D03*
X-689Y551D02*
D03*
M02*
