G04 Layer_Color=8388736*
%FSLAX23Y23*%
%MOIN*%
G70*
G01*
G75*
%ADD60R,0.059X0.067*%
%ADD61R,0.036X0.028*%
%ADD62R,0.067X0.059*%
%ADD63R,0.055X0.039*%
%ADD64R,0.055X0.079*%
%ADD65R,0.055X0.055*%
%ADD66R,0.055X0.068*%
%ADD67R,0.039X0.055*%
%ADD68O,0.032X0.083*%
%ADD69O,0.091X0.020*%
%ADD70O,0.020X0.091*%
%ADD71R,0.236X0.252*%
%ADD72R,0.071X0.126*%
%ADD73O,0.095X0.032*%
%ADD74O,0.032X0.095*%
%ADD75R,0.028X0.036*%
%ADD76R,0.020X0.014*%
%ADD77C,0.063*%
%ADD78C,0.067*%
%ADD79R,0.067X0.067*%
%ADD80C,0.070*%
%ADD81C,0.047*%
%ADD82R,0.047X0.047*%
%ADD83C,0.108*%
%ADD84R,0.108X0.108*%
%ADD85R,0.108X0.108*%
%ADD86C,0.067*%
%ADD87R,0.067X0.067*%
%ADD88O,0.059X0.071*%
%ADD89R,0.059X0.071*%
%ADD90C,0.126*%
D60*
X-1013Y740D02*
D03*
X-1087D02*
D03*
X597Y1185D02*
D03*
X523D02*
D03*
X318Y-55D02*
D03*
X392D02*
D03*
X1487Y350D02*
D03*
X1413D02*
D03*
X-293Y370D02*
D03*
X-218D02*
D03*
X-1672Y1035D02*
D03*
X-1598D02*
D03*
X-293Y295D02*
D03*
X-218D02*
D03*
X-238Y571D02*
D03*
X-163D02*
D03*
X1487Y486D02*
D03*
X1413D02*
D03*
X-1443Y-555D02*
D03*
X-1517D02*
D03*
X-1515Y-55D02*
D03*
X-1440D02*
D03*
X-1515Y-155D02*
D03*
X-1440D02*
D03*
X-1515Y-255D02*
D03*
X-1440D02*
D03*
X-1515Y-355D02*
D03*
X-1440D02*
D03*
X-1515Y-455D02*
D03*
X-1440D02*
D03*
X-921Y-848D02*
D03*
X-996D02*
D03*
X-1221D02*
D03*
X-1296D02*
D03*
X1487Y686D02*
D03*
X1413D02*
D03*
X-607Y316D02*
D03*
X-533D02*
D03*
X-607Y401D02*
D03*
X-533D02*
D03*
X873Y1165D02*
D03*
X947D02*
D03*
D61*
X-100Y88D02*
D03*
Y112D02*
D03*
D62*
X-479Y-597D02*
D03*
Y-671D02*
D03*
X-389Y-871D02*
D03*
Y-797D02*
D03*
X1330Y-707D02*
D03*
Y-633D02*
D03*
X920Y-707D02*
D03*
Y-633D02*
D03*
X232Y57D02*
D03*
Y-17D02*
D03*
X-1109Y-665D02*
D03*
Y-740D02*
D03*
X-1400Y-663D02*
D03*
Y-737D02*
D03*
X181Y-767D02*
D03*
Y-693D02*
D03*
X561Y-770D02*
D03*
Y-695D02*
D03*
X-479Y-797D02*
D03*
Y-871D02*
D03*
D63*
X-385Y685D02*
D03*
X-475Y648D02*
D03*
Y722D02*
D03*
D64*
X403Y210D02*
D03*
X317D02*
D03*
Y60D02*
D03*
X403D02*
D03*
D65*
X920Y-881D02*
D03*
Y-799D02*
D03*
X1330D02*
D03*
Y-881D02*
D03*
D66*
X-293Y-440D02*
D03*
X-97D02*
D03*
Y-784D02*
D03*
X-293D02*
D03*
D67*
X-435Y225D02*
D03*
X-398Y135D02*
D03*
X-472D02*
D03*
D68*
X-1184Y-560D02*
D03*
X-1234D02*
D03*
X-1284D02*
D03*
X-1334D02*
D03*
X-1184Y-745D02*
D03*
X-1234D02*
D03*
X-1284D02*
D03*
X-1334D02*
D03*
X-1034D02*
D03*
X-984D02*
D03*
X-934D02*
D03*
X-884D02*
D03*
X-1034Y-560D02*
D03*
X-984D02*
D03*
X-934D02*
D03*
X-884D02*
D03*
D69*
X-119Y478D02*
D03*
Y458D02*
D03*
Y438D02*
D03*
Y419D02*
D03*
Y399D02*
D03*
Y379D02*
D03*
Y360D02*
D03*
Y340D02*
D03*
Y320D02*
D03*
Y301D02*
D03*
Y281D02*
D03*
Y261D02*
D03*
X204D02*
D03*
Y281D02*
D03*
Y301D02*
D03*
Y320D02*
D03*
Y340D02*
D03*
Y360D02*
D03*
Y379D02*
D03*
Y399D02*
D03*
Y419D02*
D03*
Y438D02*
D03*
Y458D02*
D03*
Y478D02*
D03*
D70*
X-66Y208D02*
D03*
X-46D02*
D03*
X-27D02*
D03*
X-7D02*
D03*
X13D02*
D03*
X32D02*
D03*
X52D02*
D03*
X72D02*
D03*
X92D02*
D03*
X111D02*
D03*
X131D02*
D03*
X151D02*
D03*
Y531D02*
D03*
X131D02*
D03*
X111D02*
D03*
X92D02*
D03*
X72D02*
D03*
X52D02*
D03*
X32D02*
D03*
X13D02*
D03*
X-7D02*
D03*
X-27D02*
D03*
X-46D02*
D03*
X-66D02*
D03*
D71*
X366Y-1076D02*
D03*
D72*
X461Y-789D02*
D03*
X281D02*
D03*
D73*
X786Y740D02*
D03*
Y690D02*
D03*
Y640D02*
D03*
Y590D02*
D03*
Y540D02*
D03*
Y490D02*
D03*
Y440D02*
D03*
Y390D02*
D03*
X974Y740D02*
D03*
Y690D02*
D03*
Y640D02*
D03*
Y590D02*
D03*
Y540D02*
D03*
Y490D02*
D03*
Y440D02*
D03*
Y390D02*
D03*
D74*
X169Y868D02*
D03*
X219D02*
D03*
X269D02*
D03*
X319D02*
D03*
X369D02*
D03*
X419D02*
D03*
X469D02*
D03*
X519D02*
D03*
X169Y1057D02*
D03*
X219D02*
D03*
X269D02*
D03*
X319D02*
D03*
X369D02*
D03*
X419D02*
D03*
X469D02*
D03*
X519D02*
D03*
D75*
X793Y1165D02*
D03*
X817D02*
D03*
D76*
X805Y1165D02*
D03*
D77*
X-83Y815D02*
D03*
X-925Y715D02*
D03*
X-1015Y830D02*
D03*
X-295Y685D02*
D03*
X585Y399D02*
D03*
X-1705Y-1025D02*
D03*
X-1485Y1230D02*
D03*
X-435Y-390D02*
D03*
X445Y-380D02*
D03*
X-1175Y-378D02*
D03*
X-1385Y810D02*
D03*
X-1255Y615D02*
D03*
X-934Y-388D02*
D03*
D78*
X-97Y-895D02*
D03*
X-293D02*
D03*
X488Y-1280D02*
D03*
X78D02*
D03*
X488Y-560D02*
D03*
X78D02*
D03*
X178D02*
D03*
X588D02*
D03*
X178Y-1280D02*
D03*
X588D02*
D03*
X-1650Y-170D02*
D03*
Y-270D02*
D03*
Y-370D02*
D03*
Y-470D02*
D03*
Y-570D02*
D03*
X-916Y146D02*
D03*
X-704Y-66D02*
D03*
X1655Y460D02*
D03*
Y560D02*
D03*
Y660D02*
D03*
X-1570Y845D02*
D03*
X-1670Y745D02*
D03*
X-1570D02*
D03*
X-1670Y645D02*
D03*
X-1570D02*
D03*
X-1670Y545D02*
D03*
X-1570D02*
D03*
Y445D02*
D03*
X-1670D02*
D03*
X50Y-300D02*
D03*
X-50D02*
D03*
X-150D02*
D03*
D79*
X-1650Y-70D02*
D03*
X1655Y760D02*
D03*
X-1670Y845D02*
D03*
D80*
X750Y-333D02*
D03*
X950D02*
D03*
X750Y82D02*
D03*
X950D02*
D03*
D81*
X-98Y-50D02*
D03*
Y-0D02*
D03*
X-48Y-50D02*
D03*
X2D02*
D03*
Y-0D02*
D03*
X52Y-50D02*
D03*
Y-0D02*
D03*
X102Y-50D02*
D03*
D82*
Y-0D02*
D03*
D83*
X-810Y-1180D02*
D03*
X-1010D02*
D03*
X-1210D02*
D03*
X1630Y120D02*
D03*
Y-80D02*
D03*
Y-280D02*
D03*
X995Y-1180D02*
D03*
X1195D02*
D03*
X1395D02*
D03*
X-135D02*
D03*
D84*
X-1410D02*
D03*
X795D02*
D03*
X-335D02*
D03*
D85*
X1630Y-480D02*
D03*
D86*
X-1570Y245D02*
D03*
X-1670D02*
D03*
Y345D02*
D03*
X-1570D02*
D03*
D87*
X-250Y-300D02*
D03*
D88*
X-1280Y1280D02*
D03*
X-1180D02*
D03*
X-1080D02*
D03*
X-980D02*
D03*
X-880D02*
D03*
X-780D02*
D03*
X-580D02*
D03*
X-480D02*
D03*
X-380D02*
D03*
X-280D02*
D03*
X-180D02*
D03*
X-80D02*
D03*
X20D02*
D03*
X120D02*
D03*
X220D02*
D03*
X320D02*
D03*
X420D02*
D03*
X520D02*
D03*
X-680D02*
D03*
D89*
X619D02*
D03*
D90*
X-1732D02*
D03*
X1732D02*
D03*
Y-1280D02*
D03*
X-1732D02*
D03*
X-689Y551D02*
D03*
M02*
