G04 Layer_Color=65535*
%FSLAX23Y23*%
%MOIN*%
G70*
G01*
G75*
%ADD30C,0.010*%
%ADD31C,0.024*%
%ADD52C,0.008*%
%ADD53C,0.015*%
%ADD54C,0.010*%
%ADD55C,0.004*%
%ADD56C,0.008*%
%ADD57C,0.005*%
%ADD58C,0.012*%
%ADD59C,0.007*%
G36*
X191Y-37D02*
X137Y-2D01*
X191Y28D01*
Y-37D01*
D02*
G37*
G36*
X-322Y-300D02*
X-377Y-330D01*
Y-265D01*
X-322Y-300D01*
D02*
G37*
G36*
X1291Y1165D02*
X1291Y1164D01*
Y1164D01*
Y1163D01*
X1299Y1124D01*
Y1123D01*
X1299Y1122D01*
X1300Y1122D01*
X1301D01*
X1327Y1111D01*
X1330D01*
X1363Y1134D01*
X1365D01*
X1366Y1133D01*
X1394Y1106D01*
Y1104D01*
Y1104D01*
Y1103D01*
Y1103D01*
X1372Y1070D01*
Y1069D01*
Y1069D01*
Y1068D01*
Y1067D01*
Y1067D01*
X1383Y1039D01*
X1384Y1038D01*
X1385Y1038D01*
X1386D01*
X1423Y1031D01*
X1424D01*
X1425Y1031D01*
Y1030D01*
Y1029D01*
Y989D01*
X1424Y988D01*
X1424Y988D01*
X1423D01*
X1387Y980D01*
X1386D01*
X1385Y979D01*
Y979D01*
Y978D01*
X1372Y949D01*
Y948D01*
Y947D01*
Y947D01*
Y946D01*
X1394Y915D01*
Y914D01*
Y914D01*
Y913D01*
X1366Y885D01*
X1364Y884D01*
X1364D01*
X1363Y885D01*
X1333Y906D01*
X1330D01*
X1317Y898D01*
X1314Y898D01*
X1314Y899D01*
X1287Y966D01*
X1287Y968D01*
X1288Y969D01*
X1291Y971D01*
X1292Y971D01*
X1292D01*
X1293Y972D01*
X1293Y973D01*
X1300Y978D01*
X1304Y983D01*
X1308Y989D01*
X1311Y995D01*
X1312Y1000D01*
X1312Y1004D01*
X1313Y1007D01*
Y1008D01*
X1312Y1015D01*
X1311Y1021D01*
X1309Y1026D01*
X1306Y1031D01*
X1304Y1034D01*
X1302Y1037D01*
X1301Y1039D01*
X1300Y1039D01*
X1295Y1044D01*
X1290Y1047D01*
X1284Y1049D01*
X1280Y1051D01*
X1276Y1052D01*
X1272Y1053D01*
X1269D01*
X1263Y1052D01*
X1257Y1051D01*
X1252Y1048D01*
X1247Y1046D01*
X1244Y1044D01*
X1241Y1042D01*
X1239Y1040D01*
X1239Y1039D01*
X1234Y1034D01*
X1232Y1029D01*
X1229Y1024D01*
X1228Y1019D01*
X1227Y1015D01*
X1226Y1012D01*
Y1009D01*
Y1008D01*
X1227Y1000D01*
X1229Y993D01*
X1232Y987D01*
X1236Y982D01*
X1240Y978D01*
X1243Y975D01*
X1245Y973D01*
X1246Y973D01*
X1247Y972D01*
X1247Y971D01*
X1248Y971D01*
X1252Y969D01*
X1252Y967D01*
Y967D01*
Y966D01*
X1224Y899D01*
X1224Y898D01*
X1223Y898D01*
X1222D01*
X1209Y906D01*
X1206D01*
X1176Y885D01*
X1175Y884D01*
X1174D01*
X1173Y885D01*
X1145Y913D01*
Y913D01*
Y914D01*
Y915D01*
X1167Y946D01*
Y947D01*
Y947D01*
Y948D01*
Y949D01*
X1154Y978D01*
X1154Y979D01*
X1153Y980D01*
X1152D01*
X1116Y988D01*
X1114Y988D01*
X1114Y989D01*
Y989D01*
Y1029D01*
Y1031D01*
X1114Y1031D01*
X1116D01*
X1153Y1038D01*
X1154Y1038D01*
X1155Y1039D01*
Y1039D01*
X1168Y1067D01*
Y1068D01*
Y1068D01*
Y1069D01*
Y1070D01*
X1145Y1103D01*
Y1103D01*
Y1104D01*
Y1105D01*
Y1106D01*
X1173Y1133D01*
X1174Y1134D01*
X1176D01*
X1209Y1111D01*
X1212D01*
X1238Y1122D01*
X1239Y1122D01*
X1240Y1123D01*
Y1123D01*
Y1124D01*
X1248Y1163D01*
Y1164D01*
X1248Y1165D01*
X1289D01*
X1291Y1165D01*
D02*
G37*
G36*
X-1670Y918D02*
X-1700Y973D01*
X-1635D01*
X-1670Y918D01*
D02*
G37*
G36*
X1585Y767D02*
X1530Y738D01*
Y803D01*
X1585Y767D01*
D02*
G37*
G36*
X-1649Y8D02*
X-1679Y63D01*
X-1614D01*
X-1649Y8D01*
D02*
G37*
D30*
X1047Y-333D02*
G03*
X1047Y-333I-197J0D01*
G01*
Y82D02*
G03*
X1047Y82I-197J0D01*
G01*
X3Y-1350D02*
X663D01*
Y-490D01*
X3D02*
X663D01*
X3Y-1350D02*
Y-490D01*
X-974Y62D02*
X-903Y-8D01*
X-974D02*
X-903Y62D01*
X875Y-358D02*
Y-308D01*
X850Y-333D02*
X900D01*
X875Y57D02*
Y107D01*
X850Y82D02*
X900D01*
X-50Y-730D02*
Y-494D01*
X-358Y-492D02*
X-32D01*
X-360Y-730D02*
Y-494D01*
Y-730D02*
X-358Y-732D01*
X-32D01*
X-30Y-730D02*
Y-494D01*
X-32Y-732D02*
X-30Y-730D01*
X-760Y-1369D02*
Y-1280D01*
X-770Y-1270D02*
X-760Y-1280D01*
X-850Y-1270D02*
X-770D01*
X-860Y-1280D02*
X-850Y-1270D01*
X-860Y-1370D02*
Y-1280D01*
X-1060Y-1370D02*
Y-1280D01*
X-1050Y-1270D01*
X-970D01*
X-960Y-1280D01*
Y-1369D02*
Y-1280D01*
X-1360Y-1369D02*
Y-1280D01*
X-1370Y-1270D02*
X-1360Y-1280D01*
X-1450Y-1270D02*
X-1370D01*
X-1460Y-1280D02*
X-1450Y-1270D01*
X-1460Y-1370D02*
Y-1280D01*
X-1260Y-1370D02*
Y-1280D01*
X-1250Y-1270D01*
X-1170D01*
X-1160Y-1280D01*
Y-1369D02*
Y-1280D01*
X1730Y170D02*
X1819D01*
X1720Y160D02*
X1730Y170D01*
X1720Y80D02*
Y160D01*
Y80D02*
X1730Y70D01*
X1820D01*
X1730Y-130D02*
X1820D01*
X1720Y-120D02*
X1730Y-130D01*
X1720Y-120D02*
Y-40D01*
X1730Y-30D01*
X1819D01*
X1730Y-430D02*
X1819D01*
X1720Y-440D02*
X1730Y-430D01*
X1720Y-520D02*
Y-440D01*
Y-520D02*
X1730Y-530D01*
X1820D01*
X1730Y-330D02*
X1820D01*
X1720Y-320D02*
X1730Y-330D01*
X1720Y-320D02*
Y-240D01*
X1730Y-230D01*
X1819D01*
X1045Y-1369D02*
Y-1280D01*
X1035Y-1270D02*
X1045Y-1280D01*
X955Y-1270D02*
X1035D01*
X945Y-1280D02*
X955Y-1270D01*
X945Y-1370D02*
Y-1280D01*
X745Y-1370D02*
Y-1280D01*
X755Y-1270D01*
X835D01*
X845Y-1280D01*
Y-1369D02*
Y-1280D01*
X1245Y-1369D02*
Y-1280D01*
X1235Y-1270D02*
X1245Y-1280D01*
X1155Y-1270D02*
X1235D01*
X1145Y-1280D02*
X1155Y-1270D01*
X1145Y-1370D02*
Y-1280D01*
X1345Y-1370D02*
Y-1280D01*
X1355Y-1270D01*
X1435D01*
X1445Y-1280D01*
Y-1369D02*
Y-1280D01*
X-85Y-1369D02*
Y-1280D01*
X-95Y-1270D02*
X-85Y-1280D01*
X-175Y-1270D02*
X-95D01*
X-185Y-1280D02*
X-175Y-1270D01*
X-185Y-1370D02*
Y-1280D01*
X-385Y-1370D02*
Y-1280D01*
X-375Y-1270D01*
X-295D01*
X-285Y-1280D01*
Y-1369D02*
Y-1280D01*
X-635Y-1365D02*
Y-1332D01*
Y-1348D01*
X-585D01*
X-635Y-1315D02*
X-585D01*
X-610D01*
X-618Y-1307D01*
Y-1290D01*
X-610Y-1282D01*
X-585D01*
Y-1240D02*
Y-1257D01*
X-593Y-1265D01*
X-610D01*
X-618Y-1257D01*
Y-1240D01*
X-610Y-1232D01*
X-602D01*
Y-1265D01*
X-618Y-1215D02*
X-585D01*
X-602D01*
X-610Y-1207D01*
X-618Y-1198D01*
Y-1190D01*
X-585Y-1165D02*
X-618D01*
Y-1157D01*
X-610Y-1148D01*
X-585D01*
X-610D01*
X-618Y-1140D01*
X-610Y-1132D01*
X-585D01*
X-618Y-1107D02*
Y-1090D01*
X-610Y-1082D01*
X-585D01*
Y-1107D01*
X-593Y-1115D01*
X-602Y-1107D01*
Y-1082D01*
X-585Y-1065D02*
Y-1048D01*
Y-1057D01*
X-635D01*
Y-1065D01*
X-585Y-973D02*
Y-957D01*
Y-965D01*
X-618D01*
Y-973D01*
X-585Y-932D02*
Y-907D01*
X-593Y-898D01*
X-602Y-907D01*
Y-923D01*
X-610Y-932D01*
X-618Y-923D01*
Y-898D01*
X-585Y-873D02*
Y-857D01*
X-593Y-849D01*
X-610D01*
X-618Y-857D01*
Y-873D01*
X-610Y-882D01*
X-593D01*
X-585Y-873D01*
Y-832D02*
Y-815D01*
Y-824D01*
X-635D01*
Y-832D01*
X-618Y-782D02*
Y-765D01*
X-610Y-757D01*
X-585D01*
Y-782D01*
X-593Y-790D01*
X-602Y-782D01*
Y-757D01*
X-627Y-732D02*
X-618D01*
Y-740D01*
Y-724D01*
Y-732D01*
X-593D01*
X-585Y-724D01*
Y-699D02*
Y-682D01*
Y-690D01*
X-618D01*
Y-699D01*
X-585Y-649D02*
Y-632D01*
X-593Y-624D01*
X-610D01*
X-618Y-632D01*
Y-649D01*
X-610Y-657D01*
X-593D01*
X-585Y-649D01*
Y-607D02*
X-618D01*
Y-582D01*
X-610Y-574D01*
X-585D01*
Y-507D02*
Y-482D01*
X-593Y-474D01*
X-602Y-482D01*
Y-499D01*
X-610Y-507D01*
X-618Y-499D01*
Y-474D01*
X-585Y-457D02*
Y-440D01*
Y-449D01*
X-635D01*
Y-457D01*
X-585Y-407D02*
Y-390D01*
X-593Y-382D01*
X-610D01*
X-618Y-390D01*
Y-407D01*
X-610Y-415D01*
X-593D01*
X-585Y-407D01*
X-627Y-357D02*
X-618D01*
Y-365D01*
Y-349D01*
Y-357D01*
X-593D01*
X-585Y-349D01*
X1190Y830D02*
X1170D01*
X1160Y820D01*
Y780D01*
X1170Y770D01*
X1190D01*
X1200Y780D01*
Y820D01*
X1190Y830D01*
X1260Y820D02*
X1250Y830D01*
X1230D01*
X1220Y820D01*
Y810D01*
X1230Y800D01*
X1250D01*
X1260Y790D01*
Y780D01*
X1250Y770D01*
X1230D01*
X1220Y780D01*
X1280Y830D02*
Y770D01*
Y800D01*
X1320D01*
Y830D01*
Y770D01*
X1340Y830D02*
Y770D01*
X1360Y790D01*
X1380Y770D01*
Y830D01*
X1529Y-1254D02*
X1521Y-1262D01*
Y-1279D01*
X1529Y-1287D01*
X1538D01*
X1546Y-1279D01*
Y-1262D01*
X1554Y-1254D01*
X1563D01*
X1571Y-1262D01*
Y-1279D01*
X1563Y-1287D01*
X1529Y-1204D02*
X1521Y-1212D01*
Y-1229D01*
X1529Y-1237D01*
X1538D01*
X1546Y-1229D01*
Y-1212D01*
X1554Y-1204D01*
X1563D01*
X1571Y-1212D01*
Y-1229D01*
X1563Y-1237D01*
X1571Y-1187D02*
X1521D01*
Y-1162D01*
X1529Y-1154D01*
X1546D01*
X1554Y-1162D01*
Y-1187D01*
Y-1171D02*
X1571Y-1154D01*
Y-1137D02*
Y-1112D01*
X1563Y-1104D01*
X1554Y-1112D01*
Y-1129D01*
X1546Y-1137D01*
X1538Y-1129D01*
Y-1104D01*
X-720Y1211D02*
Y1161D01*
X-687D01*
X-637Y1203D02*
X-645Y1211D01*
X-662D01*
X-670Y1203D01*
Y1170D01*
X-662Y1161D01*
X-645D01*
X-637Y1170D01*
X-621Y1211D02*
Y1161D01*
X-596D01*
X-587Y1170D01*
Y1203D01*
X-596Y1211D01*
X-621D01*
X-521Y1161D02*
Y1211D01*
X-504Y1195D01*
X-487Y1211D01*
Y1161D01*
X-462D02*
X-446D01*
X-437Y1170D01*
Y1186D01*
X-446Y1195D01*
X-462D01*
X-471Y1186D01*
Y1170D01*
X-462Y1161D01*
X-387Y1211D02*
Y1161D01*
X-412D01*
X-421Y1170D01*
Y1186D01*
X-412Y1195D01*
X-387D01*
X-371D02*
Y1170D01*
X-362Y1161D01*
X-337D01*
Y1195D01*
X-321Y1161D02*
X-304D01*
X-312D01*
Y1211D01*
X-321D01*
X-254Y1161D02*
X-271D01*
X-279Y1170D01*
Y1186D01*
X-271Y1195D01*
X-254D01*
X-246Y1186D01*
Y1178D01*
X-279D01*
X-1500Y358D02*
Y325D01*
X-1450D01*
Y358D01*
X-1475Y325D02*
Y342D01*
X-1483Y375D02*
X-1450Y408D01*
X-1467Y392D01*
X-1483Y408D01*
X-1450Y375D01*
X-1433Y425D02*
X-1483D01*
Y450D01*
X-1475Y458D01*
X-1458D01*
X-1450Y450D01*
Y425D01*
X-1483Y483D02*
Y500D01*
X-1475Y508D01*
X-1450D01*
Y483D01*
X-1458Y475D01*
X-1467Y483D01*
Y508D01*
X-1450Y525D02*
X-1483D01*
Y550D01*
X-1475Y558D01*
X-1450D01*
Y575D02*
Y600D01*
X-1458Y608D01*
X-1467Y600D01*
Y583D01*
X-1475Y575D01*
X-1483Y583D01*
Y608D01*
X-1450Y625D02*
Y642D01*
Y633D01*
X-1483D01*
Y625D01*
X-1450Y675D02*
Y692D01*
X-1458Y700D01*
X-1475D01*
X-1483Y692D01*
Y675D01*
X-1475Y667D01*
X-1458D01*
X-1450Y675D01*
Y717D02*
X-1483D01*
Y742D01*
X-1475Y750D01*
X-1450D01*
X-1540Y-945D02*
Y-912D01*
Y-928D01*
X-1490D01*
X-1540Y-895D02*
X-1490D01*
X-1515D01*
Y-862D01*
X-1540D01*
X-1490D01*
Y-812D02*
Y-845D01*
X-1523Y-812D01*
X-1532D01*
X-1540Y-820D01*
Y-837D01*
X-1532Y-845D01*
X-1613Y-530D02*
X-1563D01*
Y-505D01*
X-1571Y-497D01*
X-1580D01*
X-1588Y-505D01*
Y-530D01*
Y-505D01*
X-1596Y-497D01*
X-1605D01*
X-1613Y-505D01*
Y-530D01*
X-1596Y-480D02*
X-1571D01*
X-1563Y-472D01*
Y-447D01*
X-1596D01*
X-1605Y-422D02*
X-1596D01*
Y-430D01*
Y-413D01*
Y-422D01*
X-1571D01*
X-1563Y-413D01*
X-1605Y-380D02*
X-1596D01*
Y-388D01*
Y-372D01*
Y-380D01*
X-1571D01*
X-1563Y-372D01*
Y-338D02*
Y-322D01*
X-1571Y-313D01*
X-1588D01*
X-1596Y-322D01*
Y-338D01*
X-1588Y-347D01*
X-1571D01*
X-1563Y-338D01*
Y-297D02*
X-1596D01*
Y-272D01*
X-1588Y-263D01*
X-1563D01*
Y-247D02*
Y-222D01*
X-1571Y-213D01*
X-1580Y-222D01*
Y-238D01*
X-1588Y-247D01*
X-1596Y-238D01*
Y-213D01*
X-473Y-1201D02*
X-465Y-1192D01*
Y-1176D01*
X-473Y-1167D01*
X-507D01*
X-515Y-1176D01*
Y-1192D01*
X-507Y-1201D01*
X-498D01*
X-490Y-1192D01*
Y-1167D01*
X-515Y-1151D02*
X-482D01*
X-465Y-1134D01*
X-482Y-1117D01*
X-515D01*
X-498Y-1092D02*
Y-1076D01*
X-490Y-1067D01*
X-465D01*
Y-1092D01*
X-473Y-1101D01*
X-482Y-1092D01*
Y-1067D01*
X-498Y-1018D02*
Y-1043D01*
X-490Y-1051D01*
X-473D01*
X-465Y-1043D01*
Y-1018D01*
X-1417Y-945D02*
Y-895D01*
X-1384Y-945D01*
Y-895D01*
X-1024Y-945D02*
Y-895D01*
X-990Y-945D01*
Y-895D01*
X-1220Y-945D02*
Y-895D01*
X-1195D01*
X-1187Y-903D01*
Y-920D01*
X-1195Y-928D01*
X-1220D01*
X-846Y-945D02*
Y-895D01*
X-821D01*
X-813Y-903D01*
Y-920D01*
X-821Y-928D01*
X-846D01*
X1535Y510D02*
X1585D01*
Y543D01*
X1535Y593D02*
Y560D01*
X1585D01*
Y593D01*
X1560Y560D02*
Y577D01*
X1535Y610D02*
X1585D01*
Y635D01*
X1577Y643D01*
X1543D01*
X1535Y635D01*
Y610D01*
X1585Y660D02*
Y685D01*
X1577Y693D01*
X1568Y685D01*
Y668D01*
X1560Y660D01*
X1552Y668D01*
Y693D01*
X1218Y-218D02*
X1210Y-210D01*
X1193D01*
X1185Y-218D01*
Y-252D01*
X1193Y-260D01*
X1210D01*
X1218Y-252D01*
X1243Y-227D02*
X1260D01*
X1268Y-235D01*
Y-260D01*
X1243D01*
X1235Y-252D01*
X1243Y-243D01*
X1268D01*
X1285Y-260D02*
X1310D01*
X1318Y-252D01*
X1310Y-243D01*
X1293D01*
X1285Y-235D01*
X1293Y-227D01*
X1318D01*
X1360Y-260D02*
X1343D01*
X1335Y-252D01*
Y-235D01*
X1343Y-227D01*
X1360D01*
X1368Y-235D01*
Y-243D01*
X1335D01*
X1195Y-485D02*
X1228D01*
X1212Y-468D02*
Y-502D01*
X1245Y-510D02*
X1262D01*
X1253D01*
Y-460D01*
X1245Y-468D01*
X1320Y-510D02*
X1287D01*
X1320Y-477D01*
Y-468D01*
X1312Y-460D01*
X1295D01*
X1287Y-468D01*
X1337Y-460D02*
Y-493D01*
X1353Y-510D01*
X1370Y-493D01*
Y-460D01*
X785Y-920D02*
Y-887D01*
X768Y-903D02*
X802D01*
X810Y-870D02*
Y-853D01*
Y-862D01*
X760D01*
X768Y-870D01*
X810Y-795D02*
Y-828D01*
X777Y-795D01*
X768D01*
X760Y-803D01*
Y-820D01*
X768Y-828D01*
X760Y-778D02*
X793D01*
X810Y-762D01*
X793Y-745D01*
X760D01*
X980Y-895D02*
Y-912D01*
X988Y-920D01*
X1022D01*
X1030Y-912D01*
Y-895D01*
X1022Y-887D01*
X988D01*
X980Y-895D01*
X997Y-870D02*
X1030Y-853D01*
X997Y-837D01*
X1030Y-795D02*
Y-812D01*
X1022Y-820D01*
X1005D01*
X997Y-812D01*
Y-795D01*
X1005Y-787D01*
X1013D01*
Y-820D01*
X1030Y-770D02*
X997D01*
Y-745D01*
X1005Y-737D01*
X1030D01*
X980Y-637D02*
Y-670D01*
X1005D01*
Y-653D01*
Y-670D01*
X1030D01*
X997Y-612D02*
Y-595D01*
X1005Y-587D01*
X1030D01*
Y-612D01*
X1022Y-620D01*
X1013Y-612D01*
Y-587D01*
X1030Y-570D02*
X997D01*
Y-545D01*
X1005Y-537D01*
X1030D01*
X1195Y-920D02*
Y-887D01*
X1178Y-903D02*
X1212D01*
X1220Y-870D02*
Y-853D01*
Y-862D01*
X1170D01*
X1178Y-870D01*
X1220Y-795D02*
Y-828D01*
X1187Y-795D01*
X1178D01*
X1170Y-803D01*
Y-820D01*
X1178Y-828D01*
X1170Y-778D02*
X1203D01*
X1220Y-762D01*
X1203Y-745D01*
X1170D01*
X1183Y142D02*
X1175Y150D01*
X1158D01*
X1150Y142D01*
Y133D01*
X1158Y125D01*
X1175D01*
X1183Y117D01*
Y108D01*
X1175Y100D01*
X1158D01*
X1150Y108D01*
X1200Y83D02*
Y133D01*
X1225D01*
X1233Y125D01*
Y108D01*
X1225Y100D01*
X1200D01*
X1258Y133D02*
X1275D01*
X1283Y125D01*
Y100D01*
X1258D01*
X1250Y108D01*
X1258Y117D01*
X1283D01*
X1300Y133D02*
Y100D01*
Y117D01*
X1308Y125D01*
X1317Y133D01*
X1325D01*
X1375Y100D02*
X1358D01*
X1350Y108D01*
Y125D01*
X1358Y133D01*
X1375D01*
X1383Y125D01*
Y117D01*
X1350D01*
X1195Y-65D02*
X1228D01*
X1212Y-48D02*
Y-82D01*
X1245Y-90D02*
X1262D01*
X1253D01*
Y-40D01*
X1245Y-48D01*
X1320Y-90D02*
X1287D01*
X1320Y-57D01*
Y-48D01*
X1312Y-40D01*
X1295D01*
X1287Y-48D01*
X1337Y-40D02*
Y-73D01*
X1353Y-90D01*
X1370Y-73D01*
Y-40D01*
X-735Y-940D02*
Y-907D01*
Y-923D01*
X-685D01*
X-735Y-890D02*
X-685D01*
X-710D01*
Y-857D01*
X-735D01*
X-685D01*
Y-840D02*
Y-823D01*
Y-832D01*
X-735D01*
X-727Y-840D01*
X1390Y-920D02*
X1440D01*
X1415D01*
Y-887D01*
X1390D01*
X1440D01*
Y-845D02*
Y-862D01*
X1432Y-870D01*
X1415D01*
X1407Y-862D01*
Y-845D01*
X1415Y-837D01*
X1423D01*
Y-870D01*
X1407Y-812D02*
Y-795D01*
X1415Y-787D01*
X1440D01*
Y-812D01*
X1432Y-820D01*
X1423Y-812D01*
Y-787D01*
X1398Y-762D02*
X1407D01*
Y-770D01*
Y-753D01*
Y-762D01*
X1432D01*
X1440Y-753D01*
Y-703D02*
Y-720D01*
X1432Y-728D01*
X1415D01*
X1407Y-720D01*
Y-703D01*
X1415Y-695D01*
X1423D01*
Y-728D01*
X1407Y-678D02*
X1440D01*
X1423D01*
X1415Y-670D01*
X1407Y-662D01*
Y-653D01*
X1218Y-295D02*
X1185D01*
Y-320D01*
X1202D01*
X1185D01*
Y-345D01*
X1243Y-312D02*
X1260D01*
X1268Y-320D01*
Y-345D01*
X1243D01*
X1235Y-337D01*
X1243Y-328D01*
X1268D01*
X1285Y-345D02*
Y-312D01*
X1310D01*
X1318Y-320D01*
Y-345D01*
X-1200Y985D02*
X-1167D01*
X-1183D01*
Y935D01*
X-1150Y943D02*
X-1142Y935D01*
X-1125D01*
X-1117Y943D01*
Y977D01*
X-1125Y985D01*
X-1142D01*
X-1150Y977D01*
Y968D01*
X-1142Y960D01*
X-1117D01*
X-1067Y985D02*
X-1083Y977D01*
X-1100Y960D01*
Y943D01*
X-1092Y935D01*
X-1075D01*
X-1067Y943D01*
Y952D01*
X-1075Y960D01*
X-1100D01*
X-1017Y935D02*
X-1050D01*
X-1017Y968D01*
Y977D01*
X-1025Y985D01*
X-1042D01*
X-1050Y977D01*
X-992Y968D02*
X-975D01*
X-967Y960D01*
Y935D01*
X-992D01*
X-1000Y943D01*
X-992Y952D01*
X-967D01*
X-875Y985D02*
X-892D01*
X-900Y977D01*
Y943D01*
X-892Y935D01*
X-875D01*
X-867Y943D01*
Y977D01*
X-875Y985D01*
X-850Y968D02*
X-833Y935D01*
X-817Y968D01*
X-775Y935D02*
X-792D01*
X-800Y943D01*
Y960D01*
X-792Y968D01*
X-775D01*
X-767Y960D01*
Y952D01*
X-800D01*
X-750Y935D02*
Y968D01*
X-725D01*
X-717Y960D01*
Y935D01*
X-617Y977D02*
X-625Y985D01*
X-642D01*
X-650Y977D01*
Y943D01*
X-642Y935D01*
X-625D01*
X-617Y943D01*
X-592Y935D02*
X-575D01*
X-567Y943D01*
Y960D01*
X-575Y968D01*
X-592D01*
X-600Y960D01*
Y943D01*
X-592Y935D01*
X-550D02*
Y968D01*
X-525D01*
X-517Y960D01*
Y935D01*
X-492Y977D02*
Y968D01*
X-500D01*
X-484D01*
X-492D01*
Y943D01*
X-484Y935D01*
X-459Y968D02*
Y935D01*
Y952D01*
X-450Y960D01*
X-442Y968D01*
X-434D01*
X-400Y935D02*
X-384D01*
X-375Y943D01*
Y960D01*
X-384Y968D01*
X-400D01*
X-409Y960D01*
Y943D01*
X-400Y935D01*
X-359D02*
X-342D01*
X-350D01*
Y985D01*
X-359D01*
X-317Y935D02*
X-300D01*
X-309D01*
Y985D01*
X-317D01*
X-250Y935D02*
X-267D01*
X-275Y943D01*
Y960D01*
X-267Y968D01*
X-250D01*
X-242Y960D01*
Y952D01*
X-275D01*
X-225Y968D02*
Y935D01*
Y952D01*
X-217Y960D01*
X-209Y968D01*
X-200D01*
X-125Y985D02*
Y952D01*
X-109Y935D01*
X-92Y952D01*
Y985D01*
X-75Y935D02*
X-59D01*
X-67D01*
Y985D01*
X-75Y977D01*
X-34Y935D02*
Y943D01*
X-25D01*
Y935D01*
X-34D01*
X8D02*
X25D01*
X16D01*
Y985D01*
X8Y977D01*
D31*
X-11Y434D02*
G03*
X-11Y434I-12J0D01*
G01*
D52*
X-41Y815D02*
G03*
X-41Y815I-41J0D01*
G01*
X-884Y715D02*
G03*
X-884Y715I-41J0D01*
G01*
X-974Y830D02*
G03*
X-974Y830I-41J0D01*
G01*
X-254Y685D02*
G03*
X-254Y685I-41J0D01*
G01*
X626Y399D02*
G03*
X626Y399I-41J0D01*
G01*
X-1664Y-1025D02*
G03*
X-1664Y-1025I-41J0D01*
G01*
X-1444Y1230D02*
G03*
X-1444Y1230I-41J0D01*
G01*
X-394Y-390D02*
G03*
X-394Y-390I-41J0D01*
G01*
X486Y-380D02*
G03*
X486Y-380I-41J0D01*
G01*
X-1134Y-378D02*
G03*
X-1134Y-378I-41J0D01*
G01*
X-1344Y810D02*
G03*
X-1344Y810I-41J0D01*
G01*
X-1214Y615D02*
G03*
X-1214Y615I-41J0D01*
G01*
X-892Y-388D02*
G03*
X-892Y-388I-41J0D01*
G01*
X30Y-230D02*
Y-203D01*
Y-217D01*
X70D01*
X43Y-190D02*
X70Y-163D01*
X57Y-177D01*
X43Y-163D01*
X70Y-190D01*
X-30Y-230D02*
X-70D01*
Y-210D01*
X-63Y-203D01*
X-50D01*
X-43Y-210D01*
Y-230D01*
Y-217D02*
X-30Y-203D01*
X-57Y-190D02*
X-30Y-163D01*
X-43Y-177D01*
X-57Y-163D01*
X-30Y-190D01*
X-263Y-203D02*
X-270Y-210D01*
Y-223D01*
X-263Y-230D01*
X-237D01*
X-230Y-223D01*
Y-210D01*
X-237Y-203D01*
X-250D01*
Y-217D01*
X-230Y-190D02*
X-257D01*
Y-170D01*
X-250Y-163D01*
X-230D01*
X-270Y-123D02*
X-230D01*
Y-143D01*
X-237Y-150D01*
X-250D01*
X-257Y-143D01*
Y-123D01*
X-163Y-230D02*
X-170Y-223D01*
Y-210D01*
X-163Y-203D01*
X-157D01*
X-150Y-210D01*
Y-217D01*
Y-210D01*
X-143Y-203D01*
X-137D01*
X-130Y-210D01*
Y-223D01*
X-137Y-230D01*
X-157Y-190D02*
X-130Y-177D01*
X-157Y-163D01*
X-163Y-150D02*
X-170Y-143D01*
Y-130D01*
X-163Y-123D01*
X-157D01*
X-150Y-130D01*
Y-137D01*
Y-130D01*
X-143Y-123D01*
X-137D01*
X-130Y-130D01*
Y-143D01*
X-137Y-150D01*
D53*
X-574Y40D02*
G03*
X-574Y40I-236J0D01*
G01*
D54*
X-1335Y-675D02*
G03*
X-1335Y-675I-5J0D01*
G01*
X-1035D02*
G03*
X-1035Y-675I-5J0D01*
G01*
X-114Y505D02*
G03*
X-114Y505I-5J0D01*
G01*
X790Y773D02*
G03*
X790Y773I-5J0D01*
G01*
X558Y1057D02*
G03*
X558Y1057I-5J0D01*
G01*
D55*
X-1050Y710D02*
Y770D01*
X-338Y-946D02*
Y-844D01*
Y-946D02*
X-52D01*
Y-844D01*
X-338D02*
X-52D01*
X-509Y-634D02*
X-449D01*
X-419Y-834D02*
X-359D01*
X-438Y626D02*
X-400D01*
Y653D01*
Y717D02*
Y744D01*
X-438D02*
X-400D01*
X560Y1155D02*
Y1215D01*
X-125Y-92D02*
Y-79D01*
Y28D02*
Y41D01*
X129Y28D02*
Y41D01*
X-125D02*
X129D01*
X-125Y-92D02*
X129D01*
Y-79D01*
X882Y-920D02*
X958D01*
Y-924D02*
Y-760D01*
X882Y-924D02*
X958D01*
X882D02*
Y-760D01*
X958D01*
X1292D02*
X1368D01*
X1292Y-924D02*
Y-760D01*
Y-924D02*
X1368D01*
Y-760D01*
X1292Y-920D02*
X1368D01*
X355Y-85D02*
Y-25D01*
X1450Y320D02*
Y380D01*
X1300Y-670D02*
X1360D01*
X890D02*
X950D01*
X-256Y340D02*
Y400D01*
X-1635Y1005D02*
Y1065D01*
X-376Y172D02*
Y210D01*
X-403D02*
X-376D01*
X-494D02*
X-467D01*
X-494Y172D02*
Y210D01*
X-256Y265D02*
Y325D01*
X202Y20D02*
X262D01*
X-201Y541D02*
Y600D01*
X-1138Y-703D02*
X-1079D01*
X1450Y456D02*
Y515D01*
X-1480Y-585D02*
Y-525D01*
X-1478Y-85D02*
Y-25D01*
Y-185D02*
Y-125D01*
Y-285D02*
Y-225D01*
Y-385D02*
Y-325D01*
Y-485D02*
Y-425D01*
X-1430Y-700D02*
X-1370D01*
X-959Y-877D02*
Y-818D01*
X-1259Y-877D02*
Y-818D01*
X1450Y656D02*
Y715D01*
X-570Y287D02*
Y346D01*
Y372D02*
Y431D01*
X152Y-730D02*
X211D01*
X532Y-733D02*
X591D01*
X-509Y-834D02*
X-449D01*
X1605Y810D02*
X1705D01*
Y410D02*
Y810D01*
X1605Y410D02*
X1705D01*
X1605D02*
Y810D01*
X910Y1135D02*
Y1195D01*
X-300Y-350D02*
Y-250D01*
X100D01*
Y-350D02*
Y-250D01*
X-300Y-350D02*
X100D01*
X-1385Y405D02*
X-1325D01*
D56*
X-1767Y-23D02*
X-1700D01*
X-1767Y-617D02*
Y-23D01*
X-1883Y-53D02*
X-1750D01*
X-1900Y-70D02*
X-1883Y-53D01*
X-1900Y-70D02*
X-1883Y-87D01*
X-1750D01*
X-1883Y-153D02*
X-1750D01*
X-1900Y-170D02*
X-1883Y-153D01*
X-1900Y-170D02*
X-1883Y-187D01*
X-1750D01*
X-1883Y-253D02*
X-1750D01*
X-1900Y-270D02*
X-1883Y-253D01*
X-1900Y-270D02*
X-1883Y-287D01*
X-1750D01*
X-1883Y-353D02*
X-1750D01*
X-1900Y-370D02*
X-1883Y-353D01*
X-1900Y-370D02*
X-1883Y-387D01*
X-1750D01*
X-1883Y-453D02*
X-1750D01*
X-1900Y-470D02*
X-1883Y-453D01*
X-1900Y-470D02*
X-1883Y-487D01*
X-1750D01*
X-1883Y-553D02*
X-1750D01*
X-1900Y-570D02*
X-1883Y-553D01*
X-1900Y-570D02*
X-1883Y-587D01*
X-1750D01*
X-1700Y-95D02*
Y-23D01*
X-1717Y-24D02*
X-1700Y-41D01*
Y-617D02*
Y-95D01*
X-1767Y-617D02*
X-1700D01*
X-1160Y-692D02*
Y-613D01*
X-1357Y-692D02*
Y-613D01*
X-1160D01*
X-1357Y-692D02*
X-1160D01*
X-1057D02*
X-860D01*
X-1057Y-613D02*
X-860D01*
X-1057Y-692D02*
Y-613D01*
X-860Y-692D02*
Y-613D01*
X-62Y265D02*
Y474D01*
X147Y265D02*
Y474D01*
X-62D02*
X147D01*
X-62Y265D02*
X147D01*
X845Y762D02*
X915D01*
X845Y368D02*
X915D01*
X147Y927D02*
Y998D01*
X541Y927D02*
Y998D01*
X-1770Y892D02*
X-1720D01*
X-1770Y199D02*
Y892D01*
Y199D02*
X-1720D01*
X-1903Y862D02*
X-1770D01*
X-1920Y845D02*
X-1903Y862D01*
X-1920Y845D02*
X-1903Y828D01*
X-1770D01*
X-1903Y762D02*
X-1770D01*
X-1920Y745D02*
X-1903Y762D01*
X-1920Y745D02*
X-1903Y728D01*
X-1770D01*
X-1903Y662D02*
X-1770D01*
X-1920Y645D02*
X-1903Y662D01*
X-1920Y645D02*
X-1903Y628D01*
X-1770D01*
X-1903Y562D02*
X-1770D01*
X-1920Y545D02*
X-1903Y562D01*
X-1920Y545D02*
X-1903Y528D01*
X-1770D01*
X-1903Y462D02*
X-1770D01*
X-1920Y445D02*
X-1903Y462D01*
X-1920Y445D02*
X-1903Y428D01*
X-1770D01*
X-1903Y362D02*
X-1770D01*
X-1920Y345D02*
X-1903Y362D01*
X-1920Y345D02*
X-1903Y328D01*
X-1770D01*
X-1903Y262D02*
X-1770D01*
X-1920Y245D02*
X-1903Y262D01*
X-1920Y245D02*
X-1903Y228D01*
X-1770D01*
X-1720Y199D02*
Y892D01*
X-1737D02*
X-1720Y875D01*
D57*
X403Y107D02*
Y163D01*
X352Y214D02*
X368D01*
X352Y56D02*
X368D01*
X317Y107D02*
Y163D01*
X-15Y795D02*
Y830D01*
X-3Y818D01*
X8Y830D01*
Y795D01*
X37Y830D02*
X26D01*
X20Y824D01*
Y801D01*
X26Y795D01*
X37D01*
X43Y801D01*
Y824D01*
X37Y830D01*
X78Y824D02*
X72Y830D01*
X61D01*
X55Y824D01*
Y818D01*
X61Y812D01*
X72D01*
X78Y807D01*
Y801D01*
X72Y795D01*
X61D01*
X55Y801D01*
X90Y830D02*
X102D01*
X96D01*
Y795D01*
X90D01*
X102D01*
X-927Y844D02*
X-933Y850D01*
X-944D01*
X-950Y844D01*
Y838D01*
X-944Y832D01*
X-933D01*
X-927Y827D01*
Y821D01*
X-933Y815D01*
X-944D01*
X-950Y821D01*
X-892Y844D02*
X-898Y850D01*
X-909D01*
X-915Y844D01*
Y821D01*
X-909Y815D01*
X-898D01*
X-892Y821D01*
X-880Y850D02*
Y815D01*
Y827D01*
X-857Y850D01*
X-874Y832D01*
X-857Y815D01*
X-860Y696D02*
Y731D01*
X-848Y719D01*
X-837Y731D01*
Y696D01*
X-825Y731D02*
X-813D01*
X-819D01*
Y696D01*
X-825D01*
X-813D01*
X-773Y725D02*
X-778Y731D01*
X-790D01*
X-796Y725D01*
Y719D01*
X-790Y713D01*
X-778D01*
X-773Y708D01*
Y702D01*
X-778Y696D01*
X-790D01*
X-796Y702D01*
X-743Y731D02*
X-755D01*
X-761Y725D01*
Y702D01*
X-755Y696D01*
X-743D01*
X-738Y702D01*
Y725D01*
X-743Y731D01*
X-1090Y650D02*
Y685D01*
X-1073D01*
X-1067Y679D01*
Y667D01*
X-1073Y662D01*
X-1090D01*
X-1078D02*
X-1067Y650D01*
X-1055D02*
X-1043D01*
X-1049D01*
Y685D01*
X-1055Y679D01*
X-1008Y650D02*
Y685D01*
X-1026Y667D01*
X-1003D01*
X-217Y-781D02*
X-223Y-775D01*
X-234D01*
X-240Y-781D01*
Y-804D01*
X-234Y-810D01*
X-223D01*
X-217Y-804D01*
X-205Y-810D02*
X-193D01*
X-199D01*
Y-775D01*
X-205Y-781D01*
X-153Y-775D02*
X-164Y-781D01*
X-176Y-793D01*
Y-804D01*
X-170Y-810D01*
X-158D01*
X-153Y-804D01*
Y-798D01*
X-158Y-793D01*
X-176D01*
X-494Y-513D02*
X-500Y-507D01*
X-511D01*
X-517Y-513D01*
Y-536D01*
X-511Y-542D01*
X-500D01*
X-494Y-536D01*
X-482Y-542D02*
X-470D01*
X-476D01*
Y-507D01*
X-482Y-513D01*
X-453Y-507D02*
X-430D01*
Y-513D01*
X-453Y-536D01*
Y-542D01*
X-400Y805D02*
Y782D01*
X-388Y770D01*
X-377Y782D01*
Y805D01*
X-365Y770D02*
Y793D01*
X-359D01*
X-353Y787D01*
Y770D01*
Y787D01*
X-348Y793D01*
X-342Y787D01*
Y770D01*
X-324Y793D02*
X-313D01*
X-307Y787D01*
Y770D01*
X-324D01*
X-330Y776D01*
X-324Y782D01*
X-307D01*
X-295Y770D02*
X-283D01*
X-289D01*
Y793D01*
X-295D01*
X-266Y770D02*
Y793D01*
X-248D01*
X-243Y787D01*
Y770D01*
X-231D02*
X-213D01*
X-208Y776D01*
X-213Y782D01*
X-225D01*
X-231Y787D01*
X-225Y793D01*
X-208D01*
X155Y-472D02*
Y-437D01*
X167Y-449D01*
X178Y-437D01*
Y-472D01*
X190D02*
X202D01*
X196D01*
Y-437D01*
X190Y-443D01*
X-421Y-919D02*
X-427Y-913D01*
X-438D01*
X-444Y-919D01*
Y-942D01*
X-438Y-948D01*
X-427D01*
X-421Y-942D01*
X-409Y-948D02*
X-397D01*
X-403D01*
Y-913D01*
X-409Y-919D01*
X-357Y-913D02*
X-380D01*
Y-931D01*
X-368Y-925D01*
X-362D01*
X-357Y-931D01*
Y-942D01*
X-362Y-948D01*
X-374D01*
X-380Y-942D01*
X-465Y605D02*
Y570D01*
X-448D01*
X-442Y576D01*
Y599D01*
X-448Y605D01*
X-465D01*
X-407Y570D02*
X-430D01*
X-407Y593D01*
Y599D01*
X-413Y605D01*
X-424D01*
X-430Y599D01*
X-1507Y1336D02*
X-1513Y1342D01*
X-1524D01*
X-1530Y1336D01*
Y1313D01*
X-1524Y1307D01*
X-1513D01*
X-1507Y1313D01*
Y1324D01*
X-1518D01*
X-1495Y1307D02*
Y1342D01*
X-1472Y1307D01*
Y1342D01*
X-1460D02*
Y1307D01*
X-1443D01*
X-1437Y1313D01*
Y1336D01*
X-1443Y1342D01*
X-1460D01*
X-1402Y1307D02*
X-1425D01*
X-1402Y1330D01*
Y1336D01*
X-1408Y1342D01*
X-1419D01*
X-1425Y1336D01*
X-1741Y-924D02*
X-1747Y-918D01*
X-1758D01*
X-1764Y-924D01*
Y-947D01*
X-1758Y-953D01*
X-1747D01*
X-1741Y-947D01*
Y-936D01*
X-1752D01*
X-1729Y-953D02*
Y-918D01*
X-1706Y-953D01*
Y-918D01*
X-1694D02*
Y-953D01*
X-1677D01*
X-1671Y-947D01*
Y-924D01*
X-1677Y-918D01*
X-1694D01*
X-1659Y-953D02*
X-1647D01*
X-1653D01*
Y-918D01*
X-1659Y-924D01*
X598Y1119D02*
X592Y1125D01*
X581D01*
X575Y1119D01*
Y1096D01*
X581Y1090D01*
X592D01*
X598Y1096D01*
X610Y1125D02*
X633D01*
Y1119D01*
X610Y1096D01*
Y1090D01*
X1079Y-231D02*
X1073Y-225D01*
X1062D01*
X1056Y-231D01*
Y-254D01*
X1062Y-260D01*
X1073D01*
X1079Y-254D01*
X1114Y-260D02*
X1091D01*
X1114Y-237D01*
Y-231D01*
X1108Y-225D01*
X1097D01*
X1091Y-231D01*
X572Y936D02*
Y907D01*
X578Y901D01*
X590D01*
X596Y907D01*
Y936D01*
X607Y930D02*
X613Y936D01*
X625D01*
X631Y930D01*
Y924D01*
X625Y918D01*
X619D01*
X625D01*
X631Y912D01*
Y907D01*
X625Y901D01*
X613D01*
X607Y907D01*
X343Y-111D02*
X337Y-105D01*
X326D01*
X320Y-111D01*
Y-134D01*
X326Y-140D01*
X337D01*
X343Y-134D01*
X355Y-140D02*
X367D01*
X361D01*
Y-105D01*
X355Y-111D01*
X384D02*
X390Y-105D01*
X402D01*
X407Y-111D01*
Y-117D01*
X402Y-123D01*
X396D01*
X402D01*
X407Y-128D01*
Y-134D01*
X402Y-140D01*
X390D01*
X384Y-134D01*
X1410Y400D02*
Y435D01*
X1427D01*
X1433Y429D01*
Y417D01*
X1427Y412D01*
X1410D01*
X1422D02*
X1433Y400D01*
X1445Y406D02*
X1451Y400D01*
X1462D01*
X1468Y406D01*
Y429D01*
X1462Y435D01*
X1451D01*
X1445Y429D01*
Y423D01*
X1451Y417D01*
X1468D01*
X870Y-710D02*
X835D01*
Y-693D01*
X841Y-687D01*
X853D01*
X858Y-693D01*
Y-710D01*
Y-698D02*
X870Y-687D01*
Y-675D02*
Y-663D01*
Y-669D01*
X835D01*
X841Y-675D01*
X870Y-646D02*
Y-634D01*
Y-640D01*
X835D01*
X841Y-646D01*
X1280Y-720D02*
X1245D01*
Y-703D01*
X1251Y-697D01*
X1263D01*
X1268Y-703D01*
Y-720D01*
Y-708D02*
X1280Y-697D01*
Y-685D02*
Y-673D01*
Y-679D01*
X1245D01*
X1251Y-685D01*
Y-656D02*
X1245Y-650D01*
Y-638D01*
X1251Y-633D01*
X1274D01*
X1280Y-638D01*
Y-650D01*
X1274Y-656D01*
X1251D01*
X855Y515D02*
Y486D01*
X861Y480D01*
X872D01*
X878Y486D01*
Y515D01*
X913Y480D02*
X890D01*
X913Y503D01*
Y509D01*
X907Y515D01*
X896D01*
X890Y509D01*
X-498Y-1355D02*
Y-1332D01*
Y-1343D01*
X-463D01*
X-498Y-1320D02*
X-463D01*
Y-1303D01*
X-469Y-1297D01*
X-475D01*
X-480Y-1303D01*
Y-1320D01*
Y-1303D01*
X-486Y-1297D01*
X-492D01*
X-498Y-1303D01*
Y-1320D01*
X-463Y-1285D02*
Y-1273D01*
Y-1279D01*
X-498D01*
X-492Y-1285D01*
X-215Y-35D02*
Y-0D01*
X-198D01*
X-192Y-6D01*
Y-18D01*
X-198Y-23D01*
X-215D01*
X-180Y-35D02*
X-168D01*
X-174D01*
Y-0D01*
X-180Y-6D01*
X1077Y186D02*
X1071Y192D01*
X1060D01*
X1054Y186D01*
Y163D01*
X1060Y157D01*
X1071D01*
X1077Y163D01*
X1089Y186D02*
X1095Y192D01*
X1106D01*
X1112Y186D01*
Y180D01*
X1106Y174D01*
X1101D01*
X1106D01*
X1112Y169D01*
Y163D01*
X1106Y157D01*
X1095D01*
X1089Y163D01*
X-255Y448D02*
X-260Y454D01*
X-272D01*
X-278Y448D01*
Y425D01*
X-272Y419D01*
X-260D01*
X-255Y425D01*
X-220Y454D02*
X-243D01*
Y437D01*
X-231Y443D01*
X-225D01*
X-220Y437D01*
Y425D01*
X-225Y419D01*
X-237D01*
X-243Y425D01*
X1085Y-1340D02*
Y-1317D01*
Y-1328D01*
X1120D01*
X1085Y-1305D02*
X1120D01*
Y-1288D01*
X1114Y-1282D01*
X1108D01*
X1103Y-1288D01*
Y-1305D01*
Y-1288D01*
X1097Y-1282D01*
X1091D01*
X1085Y-1288D01*
Y-1305D01*
X1091Y-1270D02*
X1085Y-1264D01*
Y-1253D01*
X1091Y-1247D01*
X1097D01*
X1103Y-1253D01*
Y-1258D01*
Y-1253D01*
X1108Y-1247D01*
X1114D01*
X1120Y-1253D01*
Y-1264D01*
X1114Y-1270D01*
X-235Y-380D02*
Y-415D01*
X-218D01*
X-212Y-409D01*
Y-403D01*
X-218Y-398D01*
X-235D01*
X-218D01*
X-212Y-392D01*
Y-386D01*
X-218Y-380D01*
X-235D01*
X-200Y-415D02*
Y-380D01*
X-183D01*
X-177Y-386D01*
Y-398D01*
X-183Y-403D01*
X-200D01*
X-188D02*
X-177Y-415D01*
X-165D02*
X-153D01*
X-159D01*
Y-380D01*
X-165Y-386D01*
X-1545Y1055D02*
Y1020D01*
X-1522D01*
X-1510Y1049D02*
X-1504Y1055D01*
X-1493D01*
X-1487Y1049D01*
Y1043D01*
X-1493Y1037D01*
X-1498D01*
X-1493D01*
X-1487Y1032D01*
Y1026D01*
X-1493Y1020D01*
X-1504D01*
X-1510Y1026D01*
X-460Y85D02*
Y50D01*
X-443D01*
X-437Y56D01*
Y79D01*
X-443Y85D01*
X-460D01*
X-425Y50D02*
X-413D01*
X-419D01*
Y85D01*
X-425Y79D01*
X-245Y234D02*
X-251Y240D01*
X-262D01*
X-268Y234D01*
Y211D01*
X-262Y205D01*
X-251D01*
X-245Y211D01*
X-233D02*
X-227Y205D01*
X-216D01*
X-210Y211D01*
Y234D01*
X-216Y240D01*
X-227D01*
X-233Y234D01*
Y228D01*
X-227Y222D01*
X-210D01*
X208Y134D02*
X202Y140D01*
X191D01*
X185Y134D01*
Y111D01*
X191Y105D01*
X202D01*
X208Y111D01*
X220Y105D02*
X232D01*
X226D01*
Y140D01*
X220Y134D01*
X272Y105D02*
X249D01*
X272Y128D01*
Y134D01*
X267Y140D01*
X255D01*
X249Y134D01*
X-199Y657D02*
X-205Y663D01*
X-217D01*
X-223Y657D01*
Y634D01*
X-217Y628D01*
X-205D01*
X-199Y634D01*
X-164Y663D02*
X-176Y657D01*
X-188Y645D01*
Y634D01*
X-182Y628D01*
X-170D01*
X-164Y634D01*
Y640D01*
X-170Y645D01*
X-188D01*
X1655Y-160D02*
X1678D01*
X1667D01*
Y-195D01*
X1690Y-160D02*
Y-195D01*
X1707D01*
X1713Y-189D01*
Y-183D01*
X1707Y-178D01*
X1690D01*
X1707D01*
X1713Y-172D01*
Y-166D01*
X1707Y-160D01*
X1690D01*
X1748Y-195D02*
X1725D01*
X1748Y-172D01*
Y-166D01*
X1742Y-160D01*
X1731D01*
X1725Y-166D01*
X-1127Y-571D02*
X-1133Y-565D01*
X-1144D01*
X-1150Y-571D01*
Y-594D01*
X-1144Y-600D01*
X-1133D01*
X-1127Y-594D01*
X-1115Y-600D02*
X-1103D01*
X-1109D01*
Y-565D01*
X-1115Y-571D01*
X-1086Y-600D02*
X-1074D01*
X-1080D01*
Y-565D01*
X-1086Y-571D01*
X-1300Y-640D02*
Y-669D01*
X-1294Y-675D01*
X-1283D01*
X-1277Y-669D01*
Y-640D01*
X-1242D02*
X-1253Y-646D01*
X-1265Y-658D01*
Y-669D01*
X-1259Y-675D01*
X-1248D01*
X-1242Y-669D01*
Y-663D01*
X-1248Y-658D01*
X-1265D01*
X-1000Y-640D02*
Y-669D01*
X-994Y-675D01*
X-983D01*
X-977Y-669D01*
Y-640D01*
X-942D02*
X-965D01*
Y-658D01*
X-953Y-652D01*
X-948D01*
X-942Y-658D01*
Y-669D01*
X-948Y-675D01*
X-959D01*
X-965Y-669D01*
X195Y545D02*
Y516D01*
X201Y510D01*
X212D01*
X218Y516D01*
Y545D01*
X247Y510D02*
Y545D01*
X230Y527D01*
X253D01*
X1415Y545D02*
Y580D01*
X1432D01*
X1438Y574D01*
Y562D01*
X1432Y557D01*
X1415D01*
X1427D02*
X1438Y545D01*
X1450Y580D02*
X1473D01*
Y574D01*
X1450Y551D01*
Y545D01*
X-1130Y-1340D02*
Y-1317D01*
Y-1328D01*
X-1095D01*
X-1130Y-1305D02*
X-1095D01*
Y-1288D01*
X-1101Y-1282D01*
X-1107D01*
X-1112Y-1288D01*
Y-1305D01*
Y-1288D01*
X-1118Y-1282D01*
X-1124D01*
X-1130Y-1288D01*
Y-1305D01*
X-1095Y-1253D02*
X-1130D01*
X-1112Y-1270D01*
Y-1247D01*
X1635Y390D02*
Y355D01*
Y372D01*
X1658D01*
Y390D01*
Y355D01*
X1670D02*
X1682D01*
X1676D01*
Y390D01*
X1670Y384D01*
X-1680Y-650D02*
Y-685D01*
Y-668D01*
X-1657D01*
Y-650D01*
Y-685D01*
X-1622D02*
X-1645D01*
X-1622Y-662D01*
Y-656D01*
X-1628Y-650D01*
X-1639D01*
X-1645Y-656D01*
X450Y205D02*
Y199D01*
X462Y187D01*
X473Y199D01*
Y205D01*
X462Y187D02*
Y170D01*
X485D02*
X497D01*
X491D01*
Y205D01*
X485Y199D01*
X-1690Y175D02*
Y140D01*
Y157D01*
X-1667D01*
Y175D01*
Y140D01*
X-1655Y169D02*
X-1649Y175D01*
X-1638D01*
X-1632Y169D01*
Y163D01*
X-1638Y157D01*
X-1643D01*
X-1638D01*
X-1632Y152D01*
Y146D01*
X-1638Y140D01*
X-1649D01*
X-1655Y146D01*
X-1550Y-605D02*
Y-640D01*
X-1527D01*
X-1492D02*
X-1515D01*
X-1492Y-617D01*
Y-611D01*
X-1498Y-605D01*
X-1509D01*
X-1515Y-611D01*
X-1395Y-75D02*
Y-40D01*
X-1378D01*
X-1372Y-46D01*
Y-58D01*
X-1378Y-63D01*
X-1395D01*
X-1383D02*
X-1372Y-75D01*
X-1337D02*
X-1360D01*
X-1337Y-52D01*
Y-46D01*
X-1343Y-40D01*
X-1354D01*
X-1360Y-46D01*
X-1395Y-170D02*
Y-135D01*
X-1378D01*
X-1372Y-141D01*
Y-153D01*
X-1378Y-158D01*
X-1395D01*
X-1383D02*
X-1372Y-170D01*
X-1360Y-141D02*
X-1354Y-135D01*
X-1343D01*
X-1337Y-141D01*
Y-147D01*
X-1343Y-153D01*
X-1348D01*
X-1343D01*
X-1337Y-158D01*
Y-164D01*
X-1343Y-170D01*
X-1354D01*
X-1360Y-164D01*
X-1395Y-265D02*
Y-230D01*
X-1378D01*
X-1372Y-236D01*
Y-248D01*
X-1378Y-253D01*
X-1395D01*
X-1383D02*
X-1372Y-265D01*
X-1343D02*
Y-230D01*
X-1360Y-248D01*
X-1337D01*
X-1395Y-365D02*
Y-330D01*
X-1378D01*
X-1372Y-336D01*
Y-348D01*
X-1378Y-353D01*
X-1395D01*
X-1383D02*
X-1372Y-365D01*
X-1337Y-330D02*
X-1360D01*
Y-348D01*
X-1348Y-342D01*
X-1343D01*
X-1337Y-348D01*
Y-359D01*
X-1343Y-365D01*
X-1354D01*
X-1360Y-359D01*
X-1395Y-470D02*
Y-435D01*
X-1378D01*
X-1372Y-441D01*
Y-453D01*
X-1378Y-458D01*
X-1395D01*
X-1383D02*
X-1372Y-470D01*
X-1337Y-435D02*
X-1348Y-441D01*
X-1360Y-453D01*
Y-464D01*
X-1354Y-470D01*
X-1343D01*
X-1337Y-464D01*
Y-458D01*
X-1343Y-453D01*
X-1360D01*
X-1487Y-701D02*
X-1493Y-695D01*
X-1504D01*
X-1510Y-701D01*
Y-724D01*
X-1504Y-730D01*
X-1493D01*
X-1487Y-724D01*
X-1475Y-701D02*
X-1469Y-695D01*
X-1458D01*
X-1452Y-701D01*
Y-707D01*
X-1458Y-713D01*
X-1452Y-718D01*
Y-724D01*
X-1458Y-730D01*
X-1469D01*
X-1475Y-724D01*
Y-718D01*
X-1469Y-713D01*
X-1475Y-707D01*
Y-701D01*
X-1469Y-713D02*
X-1458D01*
X-843Y-837D02*
X-849Y-831D01*
X-860D01*
X-866Y-837D01*
Y-860D01*
X-860Y-866D01*
X-849D01*
X-843Y-860D01*
X-831Y-866D02*
X-819D01*
X-825D01*
Y-831D01*
X-831Y-837D01*
X-802D02*
X-796Y-831D01*
X-785D01*
X-779Y-837D01*
Y-860D01*
X-785Y-866D01*
X-796D01*
X-802Y-860D01*
Y-837D01*
X-1147Y-836D02*
X-1153Y-830D01*
X-1164D01*
X-1170Y-836D01*
Y-859D01*
X-1164Y-865D01*
X-1153D01*
X-1147Y-859D01*
X-1135Y-865D02*
X-1123D01*
X-1129D01*
Y-830D01*
X-1135Y-836D01*
X-1088Y-865D02*
Y-830D01*
X-1106Y-848D01*
X-1083D01*
X1420Y741D02*
Y776D01*
X1437D01*
X1443Y770D01*
Y758D01*
X1437Y752D01*
X1420D01*
X1432D02*
X1443Y741D01*
X1455D02*
X1467D01*
X1461D01*
Y776D01*
X1455Y770D01*
X-485Y295D02*
Y330D01*
X-468D01*
X-462Y324D01*
Y312D01*
X-468Y307D01*
X-485D01*
X-473D02*
X-462Y295D01*
X-450D02*
X-438D01*
X-444D01*
Y330D01*
X-450Y324D01*
X-398Y295D02*
X-421D01*
X-398Y318D01*
Y324D01*
X-403Y330D01*
X-415D01*
X-421Y324D01*
X-490Y385D02*
Y420D01*
X-473D01*
X-467Y414D01*
Y402D01*
X-473Y397D01*
X-490D01*
X-478D02*
X-467Y385D01*
X-455D02*
X-443D01*
X-449D01*
Y420D01*
X-455Y414D01*
X-426D02*
X-420Y420D01*
X-408D01*
X-403Y414D01*
Y408D01*
X-408Y402D01*
X-414D01*
X-408D01*
X-403Y397D01*
Y391D01*
X-408Y385D01*
X-420D01*
X-426Y391D01*
X345Y-780D02*
Y-809D01*
X351Y-815D01*
X362D01*
X368Y-809D01*
Y-780D01*
X380Y-815D02*
X392D01*
X386D01*
Y-780D01*
X380Y-786D01*
X287Y-661D02*
X281Y-655D01*
X269D01*
X263Y-661D01*
Y-684D01*
X269Y-690D01*
X281D01*
X287Y-684D01*
X298Y-690D02*
X310D01*
X304D01*
Y-655D01*
X298Y-661D01*
X458Y-656D02*
X452Y-650D01*
X441D01*
X435Y-656D01*
Y-679D01*
X441Y-685D01*
X452D01*
X458Y-679D01*
X487Y-685D02*
Y-650D01*
X470Y-668D01*
X493D01*
X-610Y-140D02*
Y-175D01*
X-593D01*
X-587Y-169D01*
Y-163D01*
X-593Y-158D01*
X-610D01*
X-593D01*
X-587Y-152D01*
Y-146D01*
X-593Y-140D01*
X-610D01*
X-575D02*
X-552D01*
Y-146D01*
X-575Y-169D01*
Y-175D01*
X-552D01*
X-540D02*
X-528D01*
X-534D01*
Y-140D01*
X-540Y-146D01*
X1240Y-820D02*
X1275D01*
Y-803D01*
X1269Y-797D01*
X1246D01*
X1240Y-803D01*
Y-820D01*
X1246Y-785D02*
X1240Y-779D01*
Y-768D01*
X1246Y-762D01*
X1252D01*
X1258Y-768D01*
Y-773D01*
Y-768D01*
X1263Y-762D01*
X1269D01*
X1275Y-768D01*
Y-779D01*
X1269Y-785D01*
X830Y-820D02*
X865D01*
Y-803D01*
X859Y-797D01*
X836D01*
X830Y-803D01*
Y-820D01*
X865Y-768D02*
X830D01*
X848Y-785D01*
Y-762D01*
X542Y509D02*
X565D01*
X554D01*
Y474D01*
X577D02*
Y509D01*
X595D01*
X600Y503D01*
Y491D01*
X595Y485D01*
X577D01*
X612Y474D02*
X624D01*
X618D01*
Y509D01*
X612Y503D01*
X-520Y-948D02*
Y-913D01*
X-503D01*
X-497Y-919D01*
Y-931D01*
X-503Y-936D01*
X-520D01*
X-508D02*
X-497Y-948D01*
X-485Y-919D02*
X-479Y-913D01*
X-468D01*
X-462Y-919D01*
Y-925D01*
X-468Y-931D01*
X-462Y-936D01*
Y-942D01*
X-468Y-948D01*
X-479D01*
X-485Y-942D01*
Y-936D01*
X-479Y-931D01*
X-485Y-925D01*
Y-919D01*
X-479Y-931D02*
X-468D01*
X-482Y-295D02*
X-505D01*
Y-313D01*
X-493Y-307D01*
X-488D01*
X-482Y-313D01*
Y-324D01*
X-488Y-330D01*
X-499D01*
X-505Y-324D01*
X-470Y-295D02*
Y-318D01*
X-458Y-330D01*
X-447Y-318D01*
Y-295D01*
X400Y-305D02*
X412D01*
X406D01*
Y-270D01*
X400Y-275D01*
X453Y-305D02*
X430D01*
X453Y-281D01*
Y-275D01*
X447Y-270D01*
X435D01*
X430Y-275D01*
X465Y-270D02*
Y-293D01*
X476Y-305D01*
X488Y-293D01*
Y-270D01*
X-197Y120D02*
Y85D01*
X-174D01*
X-139Y120D02*
X-162D01*
Y102D01*
X-150Y108D01*
X-145D01*
X-139Y102D01*
Y91D01*
X-145Y85D01*
X-156D01*
X-162Y91D01*
X-1015Y-270D02*
X-992D01*
X-1003D01*
Y-305D01*
X-980D02*
X-968D01*
X-974D01*
Y-270D01*
X-980Y-276D01*
X-951Y-311D02*
X-928D01*
X-893Y-276D02*
X-898Y-270D01*
X-910D01*
X-916Y-276D01*
Y-299D01*
X-910Y-305D01*
X-898D01*
X-893Y-299D01*
X-858Y-276D02*
X-863Y-270D01*
X-875D01*
X-881Y-276D01*
Y-282D01*
X-875Y-288D01*
X-863D01*
X-858Y-293D01*
Y-299D01*
X-863Y-305D01*
X-875D01*
X-881Y-299D01*
X-1260Y-270D02*
X-1237D01*
X-1248D01*
Y-305D01*
X-1202D02*
X-1225D01*
X-1202Y-282D01*
Y-276D01*
X-1208Y-270D01*
X-1219D01*
X-1225Y-276D01*
X-1190Y-311D02*
X-1167D01*
X-1132Y-276D02*
X-1138Y-270D01*
X-1149D01*
X-1155Y-276D01*
Y-299D01*
X-1149Y-305D01*
X-1138D01*
X-1132Y-299D01*
X-1097Y-276D02*
X-1103Y-270D01*
X-1114D01*
X-1120Y-276D01*
Y-282D01*
X-1114Y-288D01*
X-1103D01*
X-1097Y-293D01*
Y-299D01*
X-1103Y-305D01*
X-1114D01*
X-1120Y-299D01*
X-1340Y715D02*
X-1317D01*
X-1328D01*
Y680D01*
X-1305Y709D02*
X-1299Y715D01*
X-1288D01*
X-1282Y709D01*
Y703D01*
X-1288Y697D01*
X-1293D01*
X-1288D01*
X-1282Y692D01*
Y686D01*
X-1288Y680D01*
X-1299D01*
X-1305Y686D01*
X-1270Y674D02*
X-1247D01*
X-1212Y709D02*
X-1218Y715D01*
X-1229D01*
X-1235Y709D01*
Y686D01*
X-1229Y680D01*
X-1218D01*
X-1212Y686D01*
X-1177Y709D02*
X-1183Y715D01*
X-1194D01*
X-1200Y709D01*
Y703D01*
X-1194Y697D01*
X-1183D01*
X-1177Y692D01*
Y686D01*
X-1183Y680D01*
X-1194D01*
X-1200Y686D01*
X-1470Y910D02*
X-1447D01*
X-1458D01*
Y875D01*
X-1418D02*
Y910D01*
X-1435Y892D01*
X-1412D01*
X-1400Y869D02*
X-1377D01*
X-1342Y904D02*
X-1348Y910D01*
X-1359D01*
X-1365Y904D01*
Y881D01*
X-1359Y875D01*
X-1348D01*
X-1342Y881D01*
X-1307Y904D02*
X-1313Y910D01*
X-1324D01*
X-1330Y904D01*
Y898D01*
X-1324Y892D01*
X-1313D01*
X-1307Y887D01*
Y881D01*
X-1313Y875D01*
X-1324D01*
X-1330Y881D01*
X770Y1115D02*
Y1080D01*
X793D01*
X828Y1115D02*
X817Y1109D01*
X805Y1097D01*
Y1086D01*
X811Y1080D01*
X822D01*
X828Y1086D01*
Y1092D01*
X822Y1097D01*
X805D01*
X870Y1230D02*
Y1265D01*
X887D01*
X893Y1259D01*
Y1247D01*
X887Y1242D01*
X870D01*
X882D02*
X893Y1230D01*
X905D02*
X917D01*
X911D01*
Y1265D01*
X905Y1259D01*
X957Y1265D02*
X934D01*
Y1247D01*
X946Y1253D01*
X952D01*
X957Y1247D01*
Y1236D01*
X952Y1230D01*
X940D01*
X934Y1236D01*
X130Y-310D02*
Y-275D01*
X147D01*
X153Y-281D01*
Y-293D01*
X147Y-298D01*
X130D01*
X188Y-310D02*
X165D01*
X188Y-287D01*
Y-281D01*
X182Y-275D01*
X171D01*
X165Y-281D01*
X-1383Y531D02*
Y496D01*
X-1360D01*
X-1349D02*
X-1337D01*
X-1343D01*
Y531D01*
X-1349Y526D01*
D58*
X-710Y-1369D02*
Y-967D01*
X-1110Y-1369D02*
X-710D01*
X-1110Y-967D02*
X-710D01*
X-1110Y-977D02*
X-710D01*
X-1510D02*
X-1110D01*
X-1510Y-967D02*
X-1110D01*
X-1510Y-1369D02*
Y-967D01*
Y-1369D02*
X-1110D01*
X1417Y220D02*
X1819D01*
Y-180D02*
Y220D01*
X1417Y-180D02*
Y220D01*
X1427Y-180D02*
Y220D01*
Y-580D02*
Y-180D01*
X1417Y-580D02*
Y-180D01*
Y-580D02*
X1819D01*
Y-180D01*
X695Y-1369D02*
X1095D01*
X695D02*
Y-967D01*
X1095D01*
X695Y-977D02*
X1095D01*
X1495D01*
X1095Y-967D02*
X1495D01*
X1095Y-1369D02*
X1495D01*
Y-967D01*
X-35Y-1369D02*
Y-967D01*
X-435Y-1369D02*
X-35D01*
X-435D02*
Y-967D01*
X-35D01*
X-435Y-977D02*
X-35D01*
D59*
X-305Y-528D02*
X-285D01*
X-105D02*
X-85D01*
X-95Y-518D02*
Y-538D01*
X-104Y-702D02*
X-98Y-700D01*
X-89Y-704D01*
X-82Y-702D01*
X-304Y-702D02*
X-298Y-700D01*
X-289Y-704D01*
X-282Y-702D01*
M02*
